<?xml version="1.0" encoding="UTF-8"?>
<svg width="110px" height="75px" viewBox="0 0 110 75" version="1.1" xmlns="http://www.w3.org/2000/svg" xmlns:xlink="http://www.w3.org/1999/xlink">
    <!-- Generator: sketchtool 61.2 (101010) - https://sketch.com -->
    <title>AA5196E1-255B-45B4-BEA0-47810C411095</title>
    <desc>Created with sketchtool.</desc>
    <defs>
        <linearGradient x1="85.3890075%" y1="86.2777298%" x2="46.3520896%" y2="46.4135126%" id="linearGradient-1">
            <stop stop-color="#B57B31" offset="0%"></stop>
            <stop stop-color="#F6BC2C" offset="100%"></stop>
        </linearGradient>
        <linearGradient x1="86.9048821%" y1="50.0269834%" x2="46.1958328%" y2="49.9973324%" id="linearGradient-2">
            <stop stop-color="#B57B31" offset="0%"></stop>
            <stop stop-color="#F6BC2C" offset="100%"></stop>
        </linearGradient>
    </defs>
    <g id="Page-1" stroke="none" stroke-width="1" fill="none" fill-rule="evenodd">
        <g id="Header" transform="translate(-360.000000, -45.000000)" fill-rule="nonzero">
            <g id="Group-11" transform="translate(0.000000, 36.000000)">
                <g id="Group" transform="translate(360.000000, 9.000000)">
                    <g id="logo.650e67efe1dc" transform="translate(7.000000, 0.000000)">
                        <path d="M2.679825,36.28665 C2.194575,35.1264 1.836075,34.8939 1.076325,34.6824 C0.759825,34.5984 0.422325,34.5984 0.253575,34.5984 C0.063825,34.5984 7.5e-05,34.53465 7.5e-05,34.40865 C7.5e-05,34.23915 0.232575,34.2189 0.549075,34.2189 C1.667325,34.2189 2.869575,34.2819 3.608325,34.2819 C4.135575,34.2819 5.148075,34.2189 6.203325,34.2189 C6.456075,34.2189 6.688575,34.2609 6.688575,34.40865 C6.688575,34.5564 6.561825,34.5984 6.372075,34.5984 C6.033825,34.5984 5.718075,34.6194 5.548575,34.74615 C5.400825,34.85115 5.337825,34.9989 5.337825,35.1894 C5.337825,35.46315 5.527575,36.05415 5.823075,36.8139 L9.452325,46.39215 L9.536325,46.39215 C10.443825,44.07165 13.186575,37.27815 13.692825,35.8854 C13.798575,35.6109 13.882575,35.2944 13.882575,35.10465 C13.882575,34.9359 13.798575,34.76715 13.608825,34.7034 C13.355325,34.6194 13.038825,34.5984 12.764325,34.5984 C12.574575,34.5984 12.405825,34.5774 12.405825,34.42965 C12.405825,34.2609 12.595575,34.2189 12.996825,34.2189 C14.051325,34.2189 14.937825,34.2819 15.212325,34.2819 C15.570825,34.2819 16.562325,34.2189 17.195325,34.2189 C17.469825,34.2189 17.638575,34.2609 17.638575,34.40865 C17.638575,34.5564 17.511825,34.5984 17.301075,34.5984 C17.089575,34.5984 16.647075,34.5984 16.266825,34.85115 C15.992325,35.04165 15.676575,35.40015 15.106575,36.7509 C14.283825,38.7339 13.713825,39.87315 12.574575,42.46815 C11.224575,45.5484 10.233075,47.8479 9.768825,48.90315 C9.219825,50.1264 9.093075,50.46465 8.798325,50.46465 C8.523825,50.46465 8.397075,50.16915 7.996575,49.17765 L2.679825,36.28665 Z" id="Fill-1" fill="#286BA6"></path>
                        <path d="M20.10465,41.793225 C20.10465,39.070725 20.10465,38.564475 20.08365,37.995225 C20.04165,37.383225 19.85115,37.172475 19.45065,37.045725 C19.2399,36.982725 19.0074,36.961725 18.77565,36.961725 C18.5859,36.961725 18.48015,36.918975 18.48015,36.750975 C18.48015,36.645225 18.6279,36.603225 18.9234,36.603225 C19.6194,36.603225 20.8854,36.645225 21.41265,36.645225 C21.8769,36.645225 23.0799,36.603225 23.7969,36.603225 C24.02865,36.603225 24.1764,36.645225 24.1764,36.750975 C24.1764,36.918975 24.0714,36.961725 23.8809,36.961725 C23.69115,36.961725 23.5434,36.982725 23.33265,37.024725 C22.8264,37.109475 22.67865,37.362225 22.63665,37.995225 C22.59465,38.564475 22.59465,39.070725 22.59465,41.793225 L22.59465,44.958225 C22.59465,46.687725 22.59465,48.122475 22.67865,48.882225 C22.7424,49.366725 22.8684,49.641975 23.4174,49.725975 C23.67015,49.767975 24.0924,49.789725 24.3669,49.789725 C24.57765,49.789725 24.66165,49.894725 24.66165,49.978725 C24.66165,50.105475 24.5139,50.169225 24.30315,50.169225 C23.0799,50.169225 21.8139,50.105475 21.3069,50.105475 C20.8854,50.105475 19.6194,50.169225 18.88065,50.169225 C18.6489,50.169225 18.52215,50.105475 18.52215,49.978725 C18.52215,49.894725 18.5859,49.789725 18.81765,49.789725 C19.09215,49.789725 19.3029,49.767975 19.47165,49.725975 C19.85115,49.641975 19.9569,49.388475 20.02065,48.860475 C20.10465,48.122475 20.10465,46.687725 20.10465,44.958225 L20.10465,41.793225 Z" id="Fill-3" fill="#286BA6"></path>
                        <path d="M30.884625,47.721525 C30.926625,49.113525 31.159125,49.536525 31.517625,49.662525 C31.834125,49.768275 32.192625,49.789275 32.488125,49.789275 C32.698875,49.789275 32.804625,49.873275 32.804625,49.979025 C32.804625,50.126775 32.635875,50.168775 32.382375,50.168775 C31.180125,50.168775 30.314625,50.105775 29.977125,50.105775 C29.808375,50.105775 28.922625,50.168775 27.973125,50.168775 C27.719625,50.168775 27.550875,50.148525 27.550875,49.979025 C27.550875,49.873275 27.677625,49.789275 27.846375,49.789275 C28.099125,49.789275 28.437375,49.768275 28.690125,49.704525 C29.175375,49.577775 29.239125,49.093275 29.260125,47.531775 L29.428875,36.898275 C29.428875,36.539775 29.555625,36.286275 29.745375,36.286275 C29.977125,36.286275 30.230625,36.560775 30.547125,36.877275 C30.778875,37.109025 33.564375,39.957525 36.264375,42.594525 C37.530375,43.839525 39.999375,46.370775 40.273125,46.624275 L40.357875,46.624275 L40.167375,38.649525 C40.146375,37.551525 39.977625,37.235775 39.534375,37.067025 C39.260625,36.961275 38.817375,36.961275 38.563875,36.961275 C38.332125,36.961275 38.269125,36.877275 38.269125,36.771525 C38.269125,36.623775 38.458875,36.602775 38.733375,36.602775 C39.703875,36.602775 40.695375,36.645525 41.095875,36.645525 C41.307375,36.645525 42.003375,36.602775 42.910875,36.602775 C43.163625,36.602775 43.332375,36.623775 43.332375,36.771525 C43.332375,36.877275 43.226625,36.961275 43.015875,36.961275 C42.826125,36.961275 42.678375,36.961275 42.446625,37.025025 C41.940375,37.172775 41.792625,37.488525 41.770875,38.501775 L41.560125,49.810275 C41.560125,50.211525 41.412375,50.379525 41.264625,50.379525 C40.948125,50.379525 40.695375,50.189775 40.504875,50.000025 C39.345375,48.924525 37.024125,46.709025 35.083125,44.831025 C33.057375,42.890025 31.095375,40.716525 30.736875,40.400025 L30.673875,40.400025 L30.884625,47.721525 Z" id="Fill-5" fill="#286BA6"></path>
                        <path d="M49.722525,34.303275 C49.786275,33.944775 49.912275,33.754275 50.081775,33.754275 C50.249775,33.754275 50.376525,33.860025 50.651025,34.409025 L56.411025,46.307775 L62.149275,34.261275 C62.318775,33.923025 62.423775,33.754275 62.613525,33.754275 C62.804025,33.754275 62.930025,33.965775 62.993025,34.409025 L64.913775,47.447775 C65.103525,48.776775 65.314275,49.388775 65.947275,49.577775 C66.559275,49.768275 66.981525,49.789275 67.255275,49.789275 C67.445025,49.789275 67.592775,49.810275 67.592775,49.936275 C67.592775,50.105775 67.340025,50.168775 67.044525,50.168775 C66.517275,50.168775 63.605025,50.105775 62.761275,50.042775 C62.276025,50.000025 62.149275,49.936275 62.149275,49.810275 C62.149275,49.704525 62.234025,49.641525 62.381775,49.577775 C62.508525,49.536525 62.571525,49.261275 62.486775,48.671025 L61.221525,39.387525 L61.136775,39.387525 L56.537775,48.965775 C56.052525,49.958025 55.946775,50.147775 55.757025,50.147775 C55.567275,50.147775 55.355775,49.725525 55.018275,49.093275 C54.512025,48.122775 52.845525,44.894025 52.592025,44.303775 C52.402275,43.860525 51.136275,41.201775 50.397525,39.620025 L50.313525,39.620025 L49.216275,48.017025 C49.174275,48.396525 49.153275,48.671025 49.153275,49.008525 C49.153275,49.409025 49.427025,49.599525 49.786275,49.683525 C50.165775,49.768275 50.461275,49.789275 50.672025,49.789275 C50.840775,49.789275 50.988525,49.831275 50.988525,49.936275 C50.988525,50.126775 50.798775,50.168775 50.482275,50.168775 C49.595775,50.168775 48.646275,50.105775 48.266775,50.105775 C47.866275,50.105775 46.853775,50.168775 46.178025,50.168775 C45.967275,50.168775 45.798525,50.126775 45.798525,49.936275 C45.798525,49.831275 45.924525,49.789275 46.136025,49.789275 C46.304775,49.789275 46.452525,49.789275 46.769025,49.725525 C47.360025,49.599525 47.528025,48.776775 47.633775,48.059025 L49.722525,34.303275 Z" id="Fill-7" fill="#286BA6"></path>
                        <path d="M71.55615,41.793225 C71.55615,39.070725 71.55615,38.564475 71.53515,37.995225 C71.49315,37.383225 71.3244,37.193475 70.7334,37.024725 C70.58565,36.982725 70.26915,36.961725 69.99465,36.961725 C69.8049,36.961725 69.6789,36.898725 69.6789,36.771225 C69.6789,36.645225 69.8259,36.603225 70.1004,36.603225 C71.0709,36.603225 72.2529,36.645225 72.78015,36.645225 C73.3704,36.645225 77.4849,36.666225 77.8434,36.645225 C78.1809,36.623475 78.4764,36.560475 78.62415,36.539475 C78.7299,36.518475 78.8349,36.455475 78.91965,36.455475 C79.02465,36.455475 79.0464,36.539475 79.0464,36.623475 C79.0464,36.750975 78.94065,36.961725 78.8979,37.784475 C78.87765,37.974225 78.8349,38.754975 78.7929,38.965725 C78.7719,39.050475 78.7299,39.261225 78.58215,39.261225 C78.4554,39.261225 78.4344,39.176475 78.4344,39.028725 C78.4344,38.902725 78.4134,38.586225 78.30765,38.375475 C78.1599,38.058225 78.01215,37.804725 77.08365,37.721475 C76.7679,37.678725 74.5524,37.636725 74.17215,37.636725 C74.08815,37.636725 74.04615,37.699725 74.04615,37.804725 L74.04615,42.235725 C74.04615,42.341475 74.06715,42.426225 74.17215,42.426225 C74.5944,42.426225 76.99965,42.426225 77.42115,42.383475 C77.8644,42.341475 78.1389,42.299475 78.30765,42.109725 C78.4554,41.982225 78.51915,41.877225 78.60315,41.877225 C78.68715,41.877225 78.7509,41.961975 78.7509,42.066975 C78.7509,42.172725 78.7089,42.468225 78.60315,43.375725 C78.56115,43.734225 78.51915,44.451225 78.51915,44.577975 C78.51915,44.725725 78.4974,44.978475 78.32865,44.978475 C78.2019,44.978475 78.1599,44.915475 78.1599,44.830725 C78.1389,44.641725 78.1389,44.409225 78.0969,44.176725 C77.99115,43.818225 77.7594,43.544475 77.06265,43.480725 C76.72515,43.438725 74.6154,43.395975 74.15115,43.395975 C74.06715,43.395975 74.04615,43.480725 74.04615,43.586475 L74.04615,45.021225 C74.04615,45.633225 74.0244,47.151975 74.04615,47.679225 C74.08815,48.903225 74.6574,49.177725 76.5564,49.177725 C77.04165,49.177725 77.8224,49.155975 78.30765,48.945225 C78.7719,48.734475 78.98265,48.354225 79.1094,47.616225 C79.1514,47.425725 79.19415,47.342475 79.32015,47.342475 C79.4679,47.342475 79.48965,47.573475 79.48965,47.763975 C79.48965,48.165225 79.3419,49.388475 79.23615,49.746975 C79.1094,50.211225 78.94065,50.211225 78.24465,50.211225 C76.8519,50.211225 75.73365,50.189475 74.8269,50.148225 C73.9194,50.126475 73.2234,50.105475 72.6744,50.105475 C72.46365,50.105475 72.0624,50.126475 71.6199,50.126475 C71.17665,50.148225 70.7124,50.169225 70.33215,50.169225 C70.1004,50.169225 69.97365,50.105475 69.97365,49.978725 C69.97365,49.894725 70.0374,49.789725 70.26915,49.789725 C70.54365,49.789725 70.7544,49.767975 70.92315,49.725975 C71.30265,49.641975 71.4084,49.303725 71.47215,48.776475 C71.55615,48.016725 71.55615,46.602975 71.55615,44.958225 L71.55615,41.793225 Z" id="Fill-9" fill="#286BA6"></path>
                        <path d="M85.057125,48.4596 C83.221875,46.91985 82.736625,44.8941 82.736625,43.1646 C82.736625,41.9406 83.137125,39.83085 84.909375,38.24835 C86.259375,37.0671 88.032375,36.34935 90.796125,36.34935 C91.956375,36.34935 92.652375,36.43335 93.496125,36.53985 C94.192125,36.6456 94.804125,36.7716 95.353125,36.8346 C95.563875,36.85635 95.627625,36.94035 95.627625,37.04535 C95.627625,37.1931 95.584875,37.40385 95.542875,38.0376 C95.500875,38.62785 95.500875,39.6201 95.479875,39.9786 C95.458125,40.23135 95.395125,40.42185 95.226375,40.42185 C95.078625,40.42185 95.036625,40.2741 95.036625,40.0416 C95.015625,39.47235 94.783875,38.83935 94.318875,38.3751 C93.686625,37.76385 92.441625,37.31985 90.732375,37.31985 C89.107875,37.31985 88.073625,37.6161 87.229875,38.3331 C85.858875,39.51435 85.521375,41.2446 85.521375,42.9951 C85.521375,47.25735 88.812375,49.2831 91.302375,49.2831 C92.947875,49.2831 93.854625,49.15635 94.593375,48.3336 C94.909875,47.9751 95.163375,47.4681 95.226375,47.1306 C95.268375,46.8561 95.310375,46.7721 95.458125,46.7721 C95.584875,46.7721 95.669625,46.94085 95.669625,47.0886 C95.669625,47.3001 95.458125,48.86085 95.268375,49.4721 C95.184375,49.78935 95.099625,49.87335 94.783875,50.0001 C94.045125,50.29485 92.631375,50.40135 91.429125,50.40135 C88.897125,50.40135 86.744625,49.87335 85.057125,48.4596" id="Fill-11" fill="#286BA6"></path>
                        <polygon id="Fill-14" fill="#286BA6" points="9.771 59.826 10.482 59.826 10.482 55.3635 9.771 55.3635"></polygon>
                        <path d="M11.499225,59.826075 L11.499225,55.185075 L14.275725,57.913575 C14.422725,58.058325 14.580975,58.238325 14.750475,58.455825 L14.750475,55.364325 L15.406725,55.364325 L15.406725,60.000075 L12.574725,57.223575 C12.420225,57.072825 12.281475,56.906325 12.153225,56.724075 L12.153225,59.826075 L11.499225,59.826075 Z" id="Fill-16" fill="#286BA6"></path>
                        <polygon id="Fill-17" fill="#286BA6" points="17.82195 55.97955 17.82195 59.8263 17.11095 59.8263 17.11095 55.97955 15.94995 55.97955 15.94995 55.3638 18.97695 55.3638 18.97695 55.97955"></polygon>
                        <polygon id="Fill-18" fill="#286BA6" points="19.523625 59.826075 19.523625 55.364325 21.962625 55.364325 21.962625 55.979325 20.234625 55.979325 20.234625 57.098325 21.962625 57.098325 21.962625 57.735075 20.234625 57.735075 20.234625 59.176575 21.962625 59.176575 21.962625 59.826075"></polygon>
                        <path d="M23.99235,57.265575 L24.1206,57.265575 C24.43335,57.265575 24.64935,57.239325 24.7686,57.186825 C24.95985,57.101325 25.0551,56.924325 25.0551,56.655825 C25.0551,56.376075 24.9621,56.186325 24.7776,56.089575 C24.64785,56.020575 24.42885,55.986825 24.1206,55.986825 L23.99235,55.986825 L23.99235,57.265575 Z M23.9511,57.829575 L23.9511,59.826075 L23.28135,59.826075 L23.28135,55.363575 L24.2736,55.363575 C24.7866,55.363575 25.14885,55.447575 25.3596,55.614075 C25.64235,55.837575 25.78335,56.164575 25.78335,56.592075 C25.78335,57.313575 25.44885,57.714075 24.78135,57.795825 L26.2851,59.826075 L25.48185,59.826075 L24.02835,57.829575 L23.9511,57.829575 Z" id="Fill-19" fill="#286BA6"></path>
                        <path d="M26.706,59.826075 L26.706,55.185075 L29.48175,57.913575 C29.62875,58.058325 29.787,58.238325 29.9565,58.455825 L29.9565,55.364325 L30.6135,55.364325 L30.6135,60.000075 L27.78075,57.223575 C27.627,57.072825 27.4875,56.906325 27.35925,56.724075 L27.35925,59.826075 L26.706,59.826075 Z" id="Fill-20" fill="#286BA6"></path>
                        <path d="M32.542425,58.073625 L33.758925,58.073625 L33.311925,57.055125 C33.263925,56.946375 33.209175,56.777625 33.148425,56.548875 C33.094425,56.769375 33.041175,56.938125 32.990925,57.055875 L32.542425,58.073625 Z M34.507425,59.826375 L34.010175,58.677375 L32.280675,58.677375 L31.772925,59.826375 L31.025175,59.826375 L33.141675,55.187625 L35.255925,59.826375 L34.507425,59.826375 Z" id="Fill-21" fill="#286BA6"></path>
                        <polygon id="Fill-22" fill="#286BA6" points="36.948075 55.97955 36.948075 59.8263 36.237075 59.8263 36.237075 55.97955 35.076075 55.97955 35.076075 55.3638 38.103075 55.3638 38.103075 55.97955"></polygon>
                        <polygon id="Fill-23" fill="#286BA6" points="38.661 59.826 39.372 59.826 39.372 55.3635 38.661 55.3635"></polygon>
                        <path d="M43.97505,57.6042 C43.97505,57.14295 43.8198,56.7492 43.5093,56.42145 C43.1988,56.09445 42.8223,55.93095 42.38055,55.93095 C41.93955,55.93095 41.56305,56.09295 41.25105,56.41695 C40.9398,56.7417 40.7838,57.13695 40.7838,57.6042 C40.7838,58.06545 40.93905,58.45845 41.24955,58.7832 C41.56005,59.1087 41.93655,59.27145 42.38055,59.27145 C42.8193,59.27145 43.19355,59.1087 43.5063,58.7832 C43.81905,58.45845 43.97505,58.06545 43.97505,57.6042 M44.7153,57.6042 C44.7153,58.2567 44.4873,58.80795 44.03205,59.2587 C43.57005,59.7162 43.01955,59.94495 42.38055,59.94495 C41.73405,59.94495 41.1828,59.71695 40.7268,59.2617 C40.27155,58.8072 40.04355,58.25445 40.04355,57.6042 C40.04355,56.9502 40.2708,56.3967 40.72455,55.9437 C41.17755,55.48995 41.72955,55.2642 42.38055,55.2642 C43.0293,55.2642 43.5813,55.49145 44.03505,55.9467 C44.4888,56.4012 44.7153,56.95395 44.7153,57.6042" id="Fill-24" fill="#286BA6"></path>
                        <path d="M45.1302,59.826075 L45.1302,55.185075 L47.90595,57.913575 C48.05295,58.058325 48.21195,58.238325 48.3807,58.455825 L48.3807,55.364325 L49.0377,55.364325 L49.0377,60.000075 L46.20495,57.223575 C46.05195,57.072825 45.91095,56.906325 45.78345,56.724075 L45.78345,59.826075 L45.1302,59.826075 Z" id="Fill-25" fill="#286BA6"></path>
                        <path d="M50.96655,58.073625 L52.18305,58.073625 L51.7353,57.055125 C51.68805,56.946375 51.6333,56.777625 51.5718,56.548875 C51.51855,56.769375 51.46605,56.938125 51.41505,57.055875 L50.96655,58.073625 Z M52.9323,59.826375 L52.43505,58.677375 L50.7048,58.677375 L50.19705,59.826375 L49.4493,59.826375 L51.5658,55.187625 L53.6793,59.826375 L52.9323,59.826375 Z" id="Fill-26" fill="#286BA6"></path>
                        <polygon id="Fill-27" fill="#286BA6" points="54.29445 59.826075 54.29445 55.364325 55.0047 55.364325 55.0047 59.176575 56.59245 59.176575 56.59245 59.826075"></polygon>
                        <polygon id="Fill-28" fill="#286BA6" points="59.01405 59.826075 59.01405 55.364325 59.7243 55.364325 59.7243 57.009825 61.8738 57.009825 61.8738 55.364325 62.58405 55.364325 62.58405 59.826075 61.8738 59.826075 61.8738 57.658575 59.7243 57.658575 59.7243 59.826075"></polygon>
                        <path d="M67.1724,57.6042 C67.1724,57.14295 67.01715,56.7492 66.70665,56.42145 C66.39615,56.09445 66.0204,55.93095 65.5779,55.93095 C65.1369,55.93095 64.75965,56.09295 64.4484,56.41695 C64.13715,56.7417 63.9819,57.13695 63.9819,57.6042 C63.9819,58.06545 64.1364,58.45845 64.44615,58.7832 C64.7574,59.1087 65.13465,59.27145 65.5779,59.27145 C66.01665,59.27145 66.39165,59.1087 66.70365,58.7832 C67.0164,58.45845 67.1724,58.06545 67.1724,57.6042 M67.91265,57.6042 C67.91265,58.2567 67.68465,58.80795 67.22865,59.2587 C66.7674,59.7162 66.21765,59.94495 65.5779,59.94495 C64.9314,59.94495 64.3809,59.71695 63.9249,59.2617 C63.4689,58.8072 63.2409,58.25445 63.2409,57.6042 C63.2409,56.9502 63.4674,56.3967 63.9219,55.9437 C64.3749,55.48995 64.92765,55.2642 65.5779,55.2642 C66.2274,55.2642 66.7779,55.49145 67.2324,55.9467 C67.68615,56.4012 67.91265,56.95395 67.91265,57.6042" id="Fill-29" fill="#286BA6"></path>
                        <path d="M68.07975,58.93335 L68.6475,58.66485 C68.757,59.07285 69.03825,59.2776 69.49125,59.2776 C69.69675,59.2776 69.86325,59.2191 69.99,59.10285 C70.1175,58.98585 70.18125,58.82385 70.18125,58.6161 C70.18125,58.3566 69.96825,58.1226 69.54225,57.9156 L69.40575,57.84735 C69.0135,57.6546 68.73975,57.4851 68.5845,57.33885 C68.33025,57.10485 68.20275,56.8206 68.20275,56.4861 C68.20275,56.10585 68.33025,55.80435 68.5875,55.5801 C68.82825,55.3701 69.13725,55.2636 69.51525,55.2636 C70.182,55.2636 70.602,55.5096 70.776,56.00085 L70.22025,56.29335 C70.0515,56.02335 69.8355,55.88835 69.57225,55.88835 C69.3915,55.88835 69.24375,55.9356 69.1305,56.0286 C69.009,56.12835 68.949,56.26785 68.949,56.44935 C68.949,56.71785 69.195,56.9676 69.6885,57.1986 C69.71025,57.20835 69.74025,57.22335 69.77775,57.24135 C70.14675,57.41385 70.40925,57.57735 70.56675,57.72885 C70.7955,57.9531 70.9095,58.23135 70.9095,58.5636 C70.9095,59.00085 70.77375,59.3421 70.50075,59.5881 C70.23975,59.82585 69.894,59.94435 69.462,59.94435 C68.69325,59.94435 68.23275,59.6076 68.07975,58.93335" id="Fill-30" fill="#286BA6"></path>
                        <path d="M72.393075,57.229425 L72.575325,57.229425 C72.897825,57.229425 73.119825,57.206175 73.240575,57.159675 C73.453575,57.075675 73.560075,56.900925 73.560075,56.635425 C73.560075,56.357925 73.457325,56.172675 73.250325,56.078175 C73.116075,56.016675 72.891075,55.985925 72.575325,55.985925 L72.393075,55.985925 L72.393075,57.229425 Z M72.351075,57.826425 L72.351075,59.825925 L71.682825,59.825925 L71.682825,55.364175 L72.757575,55.364175 C73.282575,55.364175 73.647825,55.440675 73.852575,55.592925 C74.145825,55.811175 74.292075,56.144175 74.292075,56.593425 C74.292075,57.049425 74.145825,57.384675 73.853325,57.601425 C73.649325,57.751425 73.284075,57.826425 72.759825,57.826425 L72.351075,57.826425 Z" id="Fill-31" fill="#286BA6"></path>
                        <polygon id="Fill-32" fill="#286BA6" points="74.952 59.826 75.663 59.826 75.663 55.3635 74.952 55.3635"></polygon>
                        <polygon id="Fill-33" fill="#286BA6" points="78.09165 55.97955 78.09165 59.8263 77.3814 59.8263 77.3814 55.97955 76.2204 55.97955 76.2204 55.3638 79.2474 55.3638 79.2474 55.97955"></polygon>
                        <path d="M80.271975,58.073625 L81.488475,58.073625 L81.040725,57.055125 C80.993475,56.946375 80.938725,56.777625 80.877225,56.548875 C80.823975,56.769375 80.770725,56.938125 80.719725,57.055875 L80.271975,58.073625 Z M82.236975,59.826375 L81.739725,58.677375 L80.010225,58.677375 L79.502475,59.826375 L78.753975,59.826375 L80.871225,55.187625 L82.984725,59.826375 L82.236975,59.826375 Z" id="Fill-34" fill="#286BA6"></path>
                        <polygon id="Fill-35" fill="#286BA6" points="83.599425 59.826075 83.599425 55.364325 84.309675 55.364325 84.309675 59.176575 85.898175 59.176575 85.898175 59.826075"></polygon>
                        <path d="M59.052,0.32325 C52.10475,1.209 45.10575,3.5895 44.63625,10.5885 L44.63625,10.5885 C44.4135,13.914 45.42525,16.4115 46.569,18.81825 L46.569,18.81825 C43.70175,15.966 39.56325,13.68225 33.75675,14.238 L33.75675,14.238 C37.29,15.2505 41.46375,17.187 43.7055,19.749 L43.7055,19.749 C44.1795,20.292 44.87025,21.23175 44.706,22.0395 L44.706,22.0395 C44.43675,23.391 41.97525,23.115 40.485,23.18475 L40.485,23.18475 C43.5765,24.43725 47.0295,26.69325 51.43425,26.54775 L51.43425,26.54775 C53.63925,26.47575 55.25775,25.122 55.0845,22.6125 L55.0845,22.6125 C54.77925,18.1035 51.492,14.25225 51.14925,9.15675 L51.14925,9.15675 C50.7675,3.4875 54.65025,1.356 59.0595,0.39225 L59.0595,0.39225 C59.08275,0.38625 59.52225,0.30075 59.47275,0.29025 L59.47275,0.29025 C59.47125,0.29025 59.46825,0.2895 59.46375,0.2895 L59.46375,0.2895 C59.403,0.2895 59.09625,0.31725 59.052,0.32325" id="Fill-37" fill="url(#linearGradient-1)"></path>
                    </g>
                    <rect id="Rectangle" fill="url(#linearGradient-2)" x="0" y="72" width="110" height="3"></rect>
                </g>
            </g>
        </g>
    </g>
</svg>