<?xml version="1.0" standalone="no"?>
<!DOCTYPE svg PUBLIC "-//W3C//DTD SVG 1.1//EN" "http://www.w3.org/Graphics/SVG/1.1/DTD/svg11.dtd" >
<svg xmlns="http://www.w3.org/2000/svg" xmlns:xlink="http://www.w3.org/1999/xlink" version="1.1">
<metadata>
Created by FontForge 20170731 at Sat Apr 10 12:50:16 2021
 By Aleksey,,,
Copyright 2018 Airbnb. All rights reserved.
</metadata>
<defs>
<font id="SVN-AirbnbCereal-Bold" horiz-adv-x="1216" >
  <font-face 
    font-family="SVN-Airbnb Cereal"
    font-weight="700"
    font-stretch="normal"
    units-per-em="2048"
    panose-1="0 0 0 0 0 0 0 0 0 0"
    ascent="1638"
    descent="-410"
    x-height="1081"
    cap-height="1454"
    bbox="-463 -569 3111 2286"
    underline-thickness="129"
    underline-position="-398"
    unicode-range="U+000D-F9001"
  />
<missing-glyph horiz-adv-x="1024" 
d="M922 0h-820v1536h820v-1536zM205 102h614v1332h-614v-1332z" />
    <glyph glyph-name="f_i" unicode="fi" horiz-adv-x="1323" 
d="M37 856v225h184v62q0 179 107 292t278 113q106 0 195 -49l-58 -217q-7 2 -22.5 8t-25 8.5t-24 5.5t-28.5 3q-67 0 -101 -47t-34 -136v-43h700v-1081h-286v856h-414v-856h-287v856h-184zM901 1374q0 70 47.5 117t116.5 47t116.5 -47t47.5 -117t-47.5 -117t-116.5 -47
t-116.5 47t-47.5 117z" />
    <glyph glyph-name="f_f" unicode="ff" horiz-adv-x="1540" 
d="M37 856v225h184v62q0 178 113.5 291.5t292.5 113.5q115 0 215 -53l-58 -219q-64 31 -116 31q-80 0 -120 -47.5t-40 -135.5v-43h414v62q0 179 113 292t292 113q115 0 215 -53l-57 -219q-64 31 -117 31q-80 0 -120 -47.5t-40 -135.5v-43h287v-225h-287v-856h-286v856h-414
v-856h-287v856h-184z" />
    <glyph glyph-name="f_f_i" unicode="ffi" horiz-adv-x="2023" 
d="M37 856v225h184v62q0 178 113.5 291.5t292.5 113.5q115 0 215 -53l-58 -219q-64 31 -116 31q-80 0 -120 -47.5t-40 -135.5v-43h414v62q0 179 107 292t278 113q105 0 194 -49l-57 -217q-6 2 -22.5 8t-26 8.5t-24 5.5t-28.5 3q-67 0 -101 -47t-34 -136v-43h701v-1081h-287
v856h-414v-856h-286v856h-414v-856h-287v856h-184zM1602 1374q0 70 47 117t116 47t116.5 -47t47.5 -117t-47.5 -117t-116.5 -47t-116 47t-47 117z" />
    <glyph glyph-name=".notdef" horiz-adv-x="1024" 
d="M922 0h-820v1536h820v-1536zM205 102h614v1332h-614v-1332z" />
    <glyph glyph-name="uni0000" horiz-adv-x="0" 
 />
    <glyph glyph-name="uni000D" unicode="&#xd;" horiz-adv-x="428" 
 />
    <glyph glyph-name="space" unicode=" " horiz-adv-x="428" 
 />
    <glyph glyph-name="exclam" unicode="!" horiz-adv-x="540" 
d="M133 453l-18 1001h311l-18 -1001h-275zM96 166q0 74 50.5 124t123.5 50t123.5 -50t50.5 -124t-50.5 -124t-123.5 -50t-123.5 50t-50.5 124z" />
    <glyph glyph-name="quotedbl" unicode="&#x22;" horiz-adv-x="890" 
d="M522 1454h258l-12 -569h-233zM111 1454h258l-13 -569h-233z" />
    <glyph glyph-name="numbersign" unicode="#" horiz-adv-x="1359" 
d="M295 362h-193l17 195h192l25 299h-191l17 195h190l29 362h219l-29 -362h275l28 362h220l-29 -362h192l-16 -195h-192l-25 -299h193l-17 -195h-192l-29 -362h-219l28 362h-274l-29 -362h-219zM530 557h275l24 299h-274z" />
    <glyph glyph-name="dollar" unicode="$" 
d="M90 362l279 58q32 -88 100 -137.5t158 -49.5q91 0 151 47.5t60 120.5q0 130 -199 170l-100 21q-202 41 -310 147.5t-108 264.5q0 162 107 277.5t280 143.5v254h207v-256q149 -25 253.5 -123t135.5 -241l-270 -60q-64 181 -228 181q-90 0 -143 -43t-53 -115
q0 -62 50 -101.5t161 -62.5l100 -20q196 -40 300.5 -146.5t104.5 -269.5q0 -175 -113.5 -293t-297.5 -143v-273h-207v277q-157 31 -268 128.5t-150 243.5z" />
    <glyph glyph-name="percent" unicode="%" horiz-adv-x="1550" 
d="M393 788q-139 0 -232 91.5t-93 228.5q0 138 94.5 231t236.5 93q139 0 233.5 -92.5t94.5 -229.5q0 -138 -96 -230t-238 -92zM823 301q0 138 95 231t237 93q139 0 233.5 -92.5t94.5 -229.5t-96 -229t-238 -92q-138 0 -232 91.5t-94 227.5zM446 0h-229l885 1413h229z
M1036 303q0 -57 34 -96t83 -39t83 39t34 96t-34 96t-83 39t-83 -39t-34 -96zM397 1245q-49 0 -82.5 -39t-33.5 -96t33.5 -96t82.5 -39t83 39t34 96t-34 96t-83 39z" />
    <glyph glyph-name="ampersand" unicode="&#x26;" horiz-adv-x="1443" 
d="M66 379q0 124 67 227.5t189 169.5q-79 90 -113.5 166t-34.5 156q0 167 117 277t297 110q176 0 289.5 -104t113.5 -259q0 -231 -270 -387l266 -272q76 143 88 336l254 -21q-35 -304 -164 -495l279 -283h-365l-90 92q-174 -133 -414 -133q-224 0 -366.5 117.5t-142.5 302.5
zM479 614q-60 -32 -92.5 -87t-32.5 -121q0 -91 69.5 -147t182.5 -56q111 0 211 65zM592 1247q-65 0 -107.5 -41t-42.5 -102q0 -45 27 -92.5t92 -112.5q78 38 123 95t45 118q0 60 -38.5 97.5t-98.5 37.5z" />
    <glyph glyph-name="quotesingle" unicode="'" horiz-adv-x="479" 
d="M123 885l-12 569h258l-13 -569h-233z" />
    <glyph glyph-name="parenleft" unicode="(" horiz-adv-x="729" 
d="M426 -297q-336 436 -336 961q0 524 336 960h274q-346 -453 -346 -960q0 -508 346 -961h-274z" />
    <glyph glyph-name="parenright" unicode=")" horiz-adv-x="729" 
d="M303 -297h-274q346 453 346 961q0 507 -346 960h274q336 -436 336 -960q0 -525 -336 -961z" />
    <glyph glyph-name="asterisk" unicode="*" horiz-adv-x="874" 
d="M283 647l-177 129l191 223l-281 70l66 205l266 -111l-22 291h223l-23 -291l267 111l65 -205l-280 -70l190 -223l-176 -129l-154 252z" />
    <glyph glyph-name="plus" unicode="+" 
d="M160 684h325v330h246v-330h326v-240h-326v-342h-246v342h-325v240z" />
    <glyph glyph-name="comma" unicode="," horiz-adv-x="552" 
d="M98 197q0 64 50.5 110.5t121.5 46.5q97 0 163.5 -83t66.5 -203q0 -145 -93 -256.5t-247 -151.5l-54 162q92 25 148.5 84t56.5 129q0 18 -2 26q-27 -18 -61 -18q-61 0 -105.5 45.5t-44.5 108.5z" />
    <glyph glyph-name="hyphen" unicode="-" horiz-adv-x="759" 
d="M90 438v250h580v-250h-580z" />
    <glyph glyph-name="period" unicode="." horiz-adv-x="552" 
d="M96 172q0 74 52.5 127t127.5 53t128 -53t53 -127t-53 -127t-128 -53t-127.5 53t-52.5 127z" />
    <glyph glyph-name="slash" unicode="/" horiz-adv-x="972" 
d="M16 -236l678 1799h262l-677 -1799h-263z" />
    <glyph glyph-name="zero" unicode="0" horiz-adv-x="1265" 
d="M90 705q0 342 147 540.5t400 198.5q249 0 394 -198t145 -537q0 -342 -147 -541t-400 -199q-249 0 -394 198.5t-145 537.5zM385 707q0 -225 64.5 -347t183.5 -122t183.5 122t64.5 347t-64.5 347t-183.5 122t-183.5 -122t-64.5 -347z" />
    <glyph glyph-name="one" unicode="1" horiz-adv-x="905" 
d="M418 0v1102l-287 -160l-96 242l424 229h248v-1413h-289z" />
    <glyph glyph-name="two" unicode="2" horiz-adv-x="1167" 
d="M74 1040q37 183 174 293.5t325 110.5q206 0 342 -131t136 -328q0 -136 -72 -254.5t-246 -286.5q-78 -75 -209 -186h551v-258h-987v213q284 239 410 365q138 138 195 225t57 178q0 93 -52 148t-135 55q-79 0 -136 -51.5t-77 -139.5z" />
    <glyph glyph-name="three" unicode="3" horiz-adv-x="1161" 
d="M49 354l270 47q26 -85 89.5 -131.5t154.5 -46.5q98 0 160.5 53t62.5 138q0 83 -63 134.5t-166 51.5h-149v250h135q97 0 156 49.5t59 126.5q0 72 -52.5 118t-136.5 46q-80 0 -139.5 -45t-83.5 -129l-270 47q34 169 173.5 275t332.5 106q199 0 332 -110t133 -281
q0 -105 -51.5 -186t-147.5 -128q109 -42 171 -130t62 -206q0 -185 -147.5 -309.5t-364.5 -124.5q-189 0 -332.5 100.5t-187.5 284.5z" />
    <glyph glyph-name="four" unicode="4" horiz-adv-x="1230" 
d="M711 291h-641v233l602 889h319v-876h158v-246h-158v-291h-280v291zM346 537h365v532z" />
    <glyph glyph-name="five" unicode="5" horiz-adv-x="1148" 
d="M571 -31q-187 0 -324 102t-177 273l274 43q26 -77 88 -120.5t141 -43.5q98 0 162 62.5t64 156.5q0 93 -64.5 154t-159.5 61q-56 0 -110 -21.5t-90 -57.5l-232 24v811h846v-266h-571v-299q88 61 215 61q196 0 328.5 -131.5t132.5 -326.5q0 -207 -151.5 -344.5
t-371.5 -137.5z" />
    <glyph glyph-name="six" unicode="6" horiz-adv-x="1228" 
d="M662 -31q-256 0 -414 189t-158 495q0 232 82.5 412t232.5 279.5t343 99.5q183 0 339 -92l-77 -242q-44 31 -112 49.5t-134 18.5q-156 0 -256.5 -110.5t-122.5 -301.5q50 69 131 107t184 38q201 0 336 -131.5t135 -326.5q0 -202 -147.5 -343t-361.5 -141zM428 451
q0 -97 64.5 -163.5t158.5 -66.5q95 0 160.5 65.5t65.5 162.5q0 96 -64.5 159.5t-159.5 63.5q-97 0 -161 -63t-64 -158z" />
    <glyph glyph-name="seven" unicode="7" horiz-adv-x="1144" 
d="M240 0l491 1145h-663v268h991v-221l-494 -1192h-325z" />
    <glyph glyph-name="eight" unicode="8" horiz-adv-x="1220" 
d="M608 -31q-235 0 -383.5 116t-148.5 300q0 123 61 216t168 138q-88 44 -136 125t-48 185q0 171 140 283t351 112t348.5 -110t137.5 -279q0 -104 -47.5 -185.5t-135.5 -128.5q109 -41 168.5 -132t59.5 -216q0 -186 -150 -305t-385 -119zM610 604q-108 0 -174.5 -53.5
t-66.5 -140.5q0 -85 67 -138t174 -53t173.5 53t66.5 138q0 86 -66.5 140t-173.5 54zM406 1022q0 -75 57.5 -125.5t146.5 -50.5q87 0 145 50.5t58 125.5q0 74 -57.5 123t-145.5 49q-89 0 -146.5 -49t-57.5 -123z" />
    <glyph glyph-name="nine" unicode="9" horiz-adv-x="1224" 
d="M53 961q0 134 67.5 245t186.5 174.5t264 63.5q252 0 408 -190.5t156 -516.5q0 -227 -78.5 -400.5t-229 -270.5t-354.5 -97q-192 0 -346 92l78 242q44 -31 113.5 -49t142.5 -18q171 0 267.5 103.5t113.5 309.5q-108 -147 -320 -147q-199 0 -334 132t-135 327zM573 1192
q-95 0 -160 -65t-65 -162q0 -96 64.5 -160t158.5 -64q96 0 161 63.5t65 158.5q0 97 -65 163t-159 66z" />
    <glyph glyph-name="colon" unicode=":" horiz-adv-x="552" 
d="M96 909q0 74 52.5 127.5t127.5 53.5t128 -53.5t53 -127.5t-53 -127t-128 -53t-127.5 53t-52.5 127zM276 -8q-75 0 -127.5 53t-52.5 127t52.5 127t127.5 53t128 -53t53 -127t-53 -127t-128 -53z" />
    <glyph glyph-name="semicolon" unicode=";" horiz-adv-x="552" 
d="M98 197q0 64 50.5 110.5t121.5 46.5q97 0 163.5 -83t66.5 -203q0 -145 -93 -256.5t-247 -151.5l-54 162q92 25 148.5 84t56.5 129q0 18 -2 26q-27 -18 -61 -18q-61 0 -105.5 45.5t-44.5 108.5zM276 729q-75 0 -127.5 53t-52.5 127t52.5 127.5t127.5 53.5t128 -53.5
t53 -127.5t-53 -127t-128 -53z" />
    <glyph glyph-name="less" unicode="&#x3c;" 
d="M182 449v229l801 332v-248l-532 -195l532 -194v-256z" />
    <glyph glyph-name="equal" unicode="=" 
d="M1053 207h-889v242h889v-242zM164 678v240h889v-240h-889z" />
    <glyph glyph-name="greater" unicode="&#x3e;" 
d="M766 559l-533 195v256l801 -332v-229l-801 -332v248z" />
    <glyph glyph-name="question" unicode="?" horiz-adv-x="1105" 
d="M41 1120q37 161 175 263t327 102q214 0 353.5 -121t139.5 -307q0 -151 -99 -267t-271 -169v-168h-275v317q346 82 346 277q0 78 -54.5 128t-141.5 50q-80 0 -142.5 -44.5t-87.5 -119.5zM354 166q0 74 50.5 124t123.5 50t123.5 -50t50.5 -124t-50.5 -124t-123.5 -50
t-123.5 50t-50.5 124z" />
    <glyph glyph-name="at" unicode="@" horiz-adv-x="2078" 
d="M86 520q0 198 75.5 373.5t205.5 300.5t311.5 197.5t386.5 72.5q196 0 368.5 -66.5t295.5 -182t193.5 -277.5t70.5 -346q0 -241 -113.5 -385t-304.5 -144q-105 0 -179.5 45t-109.5 130q-44 -85 -122.5 -131t-176.5 -46q-180 0 -302 135t-122 334q0 198 121.5 336
t298.5 138q86 0 155.5 -37t114.5 -105l7 119h239v-588q0 -55 25.5 -88t68.5 -33q71 0 116.5 90.5t45.5 229.5q0 140 -51.5 261.5t-141.5 207.5t-217 135t-274 49q-156 0 -293 -55t-235 -150.5t-154.5 -229.5t-56.5 -286q0 -150 55.5 -282t151 -226.5t228.5 -149t284 -54.5
q227 0 422 106l92 -194q-231 -132 -516 -132q-201 0 -379.5 71.5t-306.5 194t-202.5 295t-74.5 367.5zM823 535q0 -101 60 -168.5t149 -67.5q91 0 151 67.5t60 168.5q0 103 -60 170t-151 67q-89 0 -149 -68.5t-60 -168.5z" />
    <glyph glyph-name="A" unicode="A" horiz-adv-x="1546" 
d="M33 0l577 1454h324l579 -1454h-313l-119 319h-628l-119 -319h-301zM766 1157l-217 -579h436z" />
    <glyph glyph-name="B" unicode="B" horiz-adv-x="1269" 
d="M133 0v1454h529q221 0 350 -102.5t129 -274.5q0 -104 -45 -183t-127 -124q111 -43 172 -136t61 -220q0 -189 -144 -301.5t-386 -112.5h-539zM657 633h-229v-381h229q116 0 178 49t62 141t-62 141.5t-178 49.5zM629 1202h-201v-334h201q101 0 155 42.5t54 123.5
t-54.5 124.5t-154.5 43.5z" />
    <glyph glyph-name="C" unicode="C" horiz-adv-x="1517" 
d="M811 -41q-206 0 -372 98t-259.5 271.5t-93.5 388.5q0 162 56 306.5t152.5 248t231 163.5t285.5 60q224 0 396 -118.5t233 -317.5l-295 -74q-50 109 -138 169t-200 60q-174 0 -290 -140t-116 -353q0 -212 115 -346.5t295 -134.5q238 0 348 229l295 -74
q-65 -200 -238.5 -318t-404.5 -118z" />
    <glyph glyph-name="D" unicode="D" horiz-adv-x="1554" 
d="M133 0v1454h565q227 0 402 -90.5t271.5 -255.5t96.5 -379q0 -160 -56.5 -296t-158 -231t-245.5 -148.5t-314 -53.5h-561zM438 1184v-914h242q219 0 346 122.5t127 334.5t-127 334.5t-346 122.5h-242z" />
    <glyph glyph-name="E" unicode="E" horiz-adv-x="1175" 
d="M133 1454h911v-260h-616v-317h551v-261h-551v-356h637v-260h-932v1454z" />
    <glyph glyph-name="F" unicode="F" horiz-adv-x="1112" 
d="M133 1454h891v-266h-594v-359h528v-264h-528v-565h-297v1454z" />
    <glyph glyph-name="G" unicode="G" horiz-adv-x="1626" 
d="M86 723q0 163 58 306.5t158 245.5t240 161t298 59q218 0 389 -105t250 -290l-295 -90q-115 204 -344 204q-189 0 -314 -138t-125 -347q0 -215 126 -352t323 -137q156 0 260 85.5t123 225.5h-363v252h676v-154q0 -201 -90 -358t-251.5 -244.5t-368.5 -87.5q-159 0 -298 58
t-238.5 158.5t-156.5 242.5t-57 305z" />
    <glyph glyph-name="H" unicode="H" horiz-adv-x="1519" 
d="M133 1454h305v-567h643v567h305v-1454h-305v616h-643v-616h-305v1454z" />
    <glyph glyph-name="I" unicode="I" horiz-adv-x="571" 
d="M133 0v1454h305v-1454h-305z" />
    <glyph glyph-name="J" unicode="J" horiz-adv-x="1134" 
d="M524 -31q-186 0 -317.5 105t-181.5 293l303 53q61 -176 194 -176q86 0 137.5 62.5t51.5 168.5v979h305v-969q0 -230 -136 -373t-356 -143z" />
    <glyph glyph-name="K" unicode="K" horiz-adv-x="1425" 
d="M133 1454h305v-645l539 645h356l-581 -678l655 -776h-395l-574 705v-705h-305v1454z" />
    <glyph glyph-name="L" unicode="L" horiz-adv-x="1114" 
d="M133 0v1454h305v-1184h594v-270h-899z" />
    <glyph glyph-name="M" unicode="M" horiz-adv-x="1748" 
d="M133 1454h287l459 -840l460 840h277v-1454h-295v920l-338 -617h-217l-338 617v-920h-295v1454z" />
    <glyph glyph-name="N" unicode="N" horiz-adv-x="1499" 
d="M133 1454h264l674 -962v962h295v-1454h-264l-674 963v-963h-295v1454z" />
    <glyph glyph-name="O" unicode="O" horiz-adv-x="1679" 
d="M86 725q0 217 98 393.5t271 276.5t387 100q160 0 299.5 -58t238.5 -159.5t156 -243.5t57 -305t-57.5 -305.5t-157 -244.5t-240 -161t-300.5 -59q-213 0 -385 99t-269.5 274.5t-97.5 392.5zM401 727q0 -213 124 -350t315 -137t314.5 137t123.5 350t-123.5 350t-314.5 137
t-315 -137t-124 -350z" />
    <glyph glyph-name="P" unicode="P" horiz-adv-x="1226" 
d="M133 0v1454h467q268 0 419.5 -130t151.5 -361q0 -220 -157.5 -354t-415.5 -134q-81 0 -164 14v-489h-301zM434 1196v-451q82 -12 152 -12q131 0 203.5 60t72.5 172q0 110 -69.5 170.5t-198.5 60.5h-160z" />
    <glyph glyph-name="Q" unicode="Q" horiz-adv-x="1679" 
d="M86 725q0 217 98 393.5t271 276.5t387 100q160 0 299.5 -58t238.5 -159.5t156 -243.5t57 -305q0 -157 -54 -294.5t-153 -241.5l166 -205l-204 -164l-172 213q-166 -78 -345 -78q-157 0 -295 58.5t-237 159.5t-156 243.5t-57 304.5zM401 727q0 -214 124.5 -350.5
t320.5 -136.5q76 0 147 24l-233 291l201 162l235 -291q82 129 82 301q0 213 -123.5 350t-314.5 137t-315 -137t-124 -350z" />
    <glyph glyph-name="R" unicode="R" horiz-adv-x="1292" 
d="M133 0v1454h467q267 0 422.5 -125t155.5 -342q0 -125 -67.5 -234t-182.5 -169l329 -584h-335l-260 504q-27 -2 -84 -2q-68 0 -144 12v-514h-301zM434 1196v-428q77 -12 160 -12q130 0 202 58.5t72 162.5t-72 161.5t-202 57.5h-160z" />
    <glyph glyph-name="S" unicode="S" horiz-adv-x="1173" 
d="M582 -31q-197 0 -344 103t-189 278l285 62q26 -85 93 -132t159 -47q98 0 159.5 51.5t61.5 131.5q0 68 -51.5 110.5t-165.5 67.5l-66 14q-438 96 -438 426q0 194 145.5 322.5t360.5 128.5q184 0 323 -102t175 -271l-281 -61q-24 81 -84.5 125.5t-140.5 44.5
q-83 0 -139 -47.5t-56 -118.5q0 -69 52.5 -107.5t166.5 -64.5l66 -15q222 -49 330 -155.5t108 -272.5q0 -137 -69 -245t-190 -167t-271 -59z" />
    <glyph glyph-name="T" unicode="T" horiz-adv-x="1292" 
d="M84 1184v270h1124v-270h-409v-1184h-305v1184h-410z" />
    <glyph glyph-name="U" unicode="U" horiz-adv-x="1478" 
d="M737 -41q-285 0 -454.5 171.5t-169.5 457.5v866h305v-852q0 -168 86 -265t235 -97q147 0 234.5 97.5t87.5 264.5v852h305v-866q0 -286 -171.5 -457.5t-457.5 -171.5z" />
    <glyph glyph-name="V" unicode="V" horiz-adv-x="1501" 
d="M33 1454h334l391 -1116l389 1116h321l-553 -1454h-329z" />
    <glyph glyph-name="W" unicode="W" horiz-adv-x="2138" 
d="M59 1454h320l266 -1051l289 1051h280l289 -1051l264 1051h312l-428 -1454h-295l-285 1042l-285 -1042h-299z" />
    <glyph glyph-name="X" unicode="X" horiz-adv-x="1411" 
d="M18 0l517 766l-457 688h346l285 -471l284 471h338l-454 -688l516 -766h-361l-332 532l-331 -532h-351z" />
    <glyph glyph-name="Y" unicode="Y" horiz-adv-x="1366" 
d="M23 1454h339l326 -612l324 612h331l-507 -889v-565h-306v565z" />
    <glyph glyph-name="Z" unicode="Z" horiz-adv-x="1310" 
d="M76 0v217l739 979h-709v258h1090v-217l-739 -979h784v-258h-1165z" />
    <glyph glyph-name="bracketleft" unicode="[" horiz-adv-x="757" 
d="M154 1624h522v-221h-268v-1479h268v-221h-522v1921z" />
    <glyph glyph-name="backslash" unicode="\" horiz-adv-x="972" 
d="M694 -236l-678 1799h263l677 -1799h-262z" />
    <glyph glyph-name="bracketright" unicode="]" horiz-adv-x="757" 
d="M350 1403h-268v221h522v-1921h-522v221h268v1479z" />
    <glyph glyph-name="asciicircum" unicode="^" 
d="M135 696l350 717h248l350 -717h-270l-209 443l-211 -443h-258z" />
    <glyph glyph-name="underscore" unicode="_" horiz-adv-x="1214" 
d="M61 -334v213h1092v-213h-1092z" />
    <glyph glyph-name="grave" unicode="`" 
d="M616 1235l-243 293h317l191 -293h-265z" />
    <glyph glyph-name="a" unicode="a" horiz-adv-x="1146" 
d="M449 -31q-166 0 -276 95.5t-110 242.5q0 154 123 250t322 96q131 0 246 -47v64q0 93 -52.5 150t-142.5 57q-69 0 -123.5 -34.5t-77.5 -94.5l-256 51q34 140 162.5 226.5t298.5 86.5q209 0 339 -127t130 -330v-655h-256l-8 127q-45 -72 -127.5 -115t-191.5 -43zM555 461
q-96 0 -152.5 -38t-56.5 -101q0 -58 47.5 -95t124.5 -37q101 0 168.5 63t67.5 157v10q-97 41 -199 41z" />
    <glyph glyph-name="b" unicode="b" horiz-adv-x="1308" 
d="M115 1528h286v-584q58 79 145.5 123.5t190.5 44.5q139 0 253.5 -74t179.5 -204t65 -287q0 -161 -67.5 -293.5t-185.5 -208.5t-261 -76q-105 0 -191.5 45t-142.5 127l-8 -141h-264v1528zM397 541q0 -135 78 -224.5t195 -89.5t194.5 89.5t77.5 224.5t-77.5 224t-194.5 89
t-195 -89t-78 -224z" />
    <glyph glyph-name="c" unicode="c" horiz-adv-x="1169" 
d="M74 532q0 162 72.5 295t199 209t279.5 76q175 0 306 -97t171 -257l-273 -53q-31 70 -86.5 109.5t-124.5 39.5q-109 0 -180 -90t-71 -227q0 -136 69.5 -223t181.5 -87q74 0 133.5 39.5t88.5 110.5l272 -53q-39 -161 -177.5 -258t-318.5 -97q-233 0 -387.5 160t-154.5 403z
" />
    <glyph glyph-name="d" unicode="d" horiz-adv-x="1308" 
d="M74 535q0 161 67.5 293.5t185 208t259.5 75.5q99 0 182 -39.5t139 -111.5v567h287v-1528h-264l-8 158q-58 -89 -150 -139t-203 -50q-137 0 -251 74.5t-179 204.5t-65 287zM367 541q0 -135 77.5 -224.5t194.5 -89.5t194.5 89.5t77.5 224.5t-77.5 224t-194.5 89t-194.5 -89
t-77.5 -224z" />
    <glyph glyph-name="e" unicode="e" horiz-adv-x="1204" 
d="M74 543q0 160 70.5 290.5t194 204.5t273.5 74q238 0 383.5 -157t145.5 -414v-72h-776q19 -122 88.5 -190t175.5 -68q74 0 134.5 34.5t98.5 100.5l256 -82q-55 -135 -189.5 -215t-301.5 -80q-242 0 -397.5 161t-155.5 413zM612 891q-93 0 -158 -61.5t-85 -167.5h477
q-17 106 -79.5 167.5t-154.5 61.5z" />
    <glyph glyph-name="f" unicode="f" horiz-adv-x="839" 
d="M37 1081h184v62q0 178 113.5 291.5t292.5 113.5q115 0 215 -53l-58 -219q-64 31 -116 31q-80 0 -120 -47.5t-40 -135.5v-43h287v-231h-287v-850h-287v850h-184v231z" />
    <glyph glyph-name="g" unicode="g" horiz-adv-x="1288" 
d="M74 565q0 152 66 277.5t181 197.5t254 72q104 0 188 -42t140 -122l6 133h265v-952q0 -250 -153 -403.5t-400 -153.5q-176 0 -305.5 81t-192.5 220l274 68q37 -61 96 -94t132 -33q118 0 190 78.5t72 207.5v88q-56 -74 -141 -115.5t-187 -41.5q-205 0 -345 154t-140 380z
M367 571q0 -122 75 -204t187 -82t187 82t75 204t-75 204.5t-187 82.5t-187 -82.5t-75 -204.5z" />
    <glyph glyph-name="h" unicode="h" 
d="M115 1528h286v-565q51 70 129.5 109.5t176.5 39.5q179 0 287 -125t108 -338v-649h-287v612q0 113 -51 177.5t-141 64.5q-97 0 -159.5 -65.5t-62.5 -167.5v-621h-286v1528z" />
    <glyph glyph-name="i" unicode="i" horiz-adv-x="516" 
d="M115 1081h286v-1081h-286v1081zM256 1247q-68 0 -115 45.5t-47 112.5q0 68 47 114t115 46q71 0 118.5 -45.5t47.5 -114.5q0 -67 -47.5 -112.5t-118.5 -45.5z" />
    <glyph glyph-name="j" unicode="j" horiz-adv-x="526" 
d="M51 -418q-113 0 -201 51l58 222q48 -25 94 -25q60 0 91.5 39t31.5 111v1101h287v-1120q0 -170 -99 -274.5t-262 -104.5zM104 1405q0 68 47 114t115 46q71 0 118.5 -45.5t47.5 -114.5q0 -67 -47.5 -112.5t-118.5 -45.5q-68 0 -115 45.5t-47 112.5z" />
    <glyph glyph-name="k" unicode="k" horiz-adv-x="1189" 
d="M115 1528h280v-887l402 440h336l-451 -479l500 -602h-363l-424 539v-539h-280v1528z" />
    <glyph glyph-name="l" unicode="l" horiz-adv-x="516" 
d="M115 0v1528h286v-1528h-286z" />
    <glyph glyph-name="m" unicode="m" horiz-adv-x="1884" 
d="M115 1081h264l8 -137q48 79 128 123.5t179 44.5q108 0 193 -53t133 -148q51 93 144 147t212 54q181 0 287 -124.5t106 -338.5v-649h-286v612q0 113 -49.5 177.5t-137.5 64.5q-94 0 -152.5 -65t-58.5 -168v-621h-286v612q0 113 -49.5 177.5t-137.5 64.5q-94 0 -152.5 -65
t-58.5 -168v-621h-286v1081z" />
    <glyph glyph-name="n" unicode="n" 
d="M115 1081h264l8 -139q48 79 132 124.5t188 45.5q179 0 287 -125t108 -338v-649h-287v612q0 113 -51 177.5t-141 64.5q-97 0 -159.5 -65.5t-62.5 -167.5v-621h-286v1081z" />
    <glyph glyph-name="o" unicode="o" horiz-adv-x="1277" 
d="M74 541q0 161 74 291.5t204 205t291 74.5q159 0 287.5 -74t201 -204t72.5 -291q0 -246 -162.5 -410t-406.5 -164q-241 0 -401 163t-160 409zM367 541q0 -135 77.5 -224.5t194.5 -89.5t194.5 89.5t77.5 224.5t-77.5 224t-194.5 89t-194.5 -89t-77.5 -224z" />
    <glyph glyph-name="p" unicode="p" horiz-adv-x="1308" 
d="M115 1081h264l8 -157q56 88 148 138t202 50q139 0 253.5 -74t179.5 -204t65 -287q0 -161 -67.5 -293.5t-185.5 -208.5t-261 -76q-99 0 -181.5 39.5t-138.5 112.5v-518h-286v1478zM397 541q0 -135 78 -224.5t195 -89.5t194.5 89.5t77.5 224.5t-77.5 224t-194.5 89
t-195 -89t-78 -224z" />
    <glyph glyph-name="q" unicode="q" horiz-adv-x="1308" 
d="M74 535q0 161 67.5 293.5t185.5 208t261 75.5q105 0 191.5 -45t142.5 -127l8 141h264v-1478h-287v534q-58 -79 -145.5 -123.5t-190.5 -44.5q-139 0 -253.5 74.5t-179 204.5t-64.5 287zM367 541q0 -135 77.5 -224.5t194.5 -89.5t194.5 89.5t77.5 224.5t-77.5 224
t-194.5 89t-194.5 -89t-77.5 -224z" />
    <glyph glyph-name="r" unicode="r" horiz-adv-x="813" 
d="M115 1081h264l10 -163q85 178 275 178q49 0 108 -19l-31 -282q-43 14 -94 14q-118 0 -182 -72.5t-64 -206.5v-530h-286v1081z" />
    <glyph glyph-name="s" unicode="s" horiz-adv-x="1005" 
d="M504 -31q-171 0 -294.5 81.5t-160.5 219.5l258 56q20 -63 74 -100.5t127 -37.5q70 0 115 31t45 84q0 45 -40.5 74.5t-131.5 46.5l-58 10q-177 32 -267.5 115.5t-90.5 212.5q0 154 117 252t301 98q163 0 278.5 -79.5t149.5 -215.5l-256 -53q-20 62 -66.5 96.5t-107.5 34.5
q-63 0 -104.5 -31t-41.5 -78q0 -42 40.5 -68.5t135.5 -43.5l58 -10q173 -31 265.5 -116.5t92.5 -215.5q0 -158 -123 -260.5t-315 -102.5z" />
    <glyph glyph-name="t" unicode="t" horiz-adv-x="897" 
d="M37 1081h184v369h287v-369h295v-231h-295v-469q0 -162 133 -162q73 0 152 37l51 -215q-121 -72 -260 -72q-169 0 -266 98.5t-97 278.5v504h-184v231z" />
    <glyph glyph-name="u" unicode="u" horiz-adv-x="1212" 
d="M602 -31q-222 0 -354.5 139t-132.5 375v598h286v-604q0 -116 55.5 -183t149.5 -67t149.5 67t55.5 183v604h287v-598q0 -232 -135.5 -373t-360.5 -141z" />
    <glyph glyph-name="v" unicode="v" horiz-adv-x="1148" 
d="M23 1081h313l242 -778l245 778h303l-405 -1081h-293z" />
    <glyph glyph-name="w" unicode="w" horiz-adv-x="1720" 
d="M381 0l-358 1081h294l203 -731l219 731h248l219 -733l207 733h285l-359 -1081h-264l-217 731l-217 -731h-260z" />
    <glyph glyph-name="x" unicode="x" horiz-adv-x="1177" 
d="M25 0l405 571l-360 510h323l199 -325l203 325h313l-358 -512l403 -569h-338l-227 373l-234 -373h-329z" />
    <glyph glyph-name="y" unicode="y" horiz-adv-x="1148" 
d="M23 1081h313l256 -766l231 766h303l-444 -1183q-61 -163 -156 -239.5t-231 -76.5q-116 0 -197 47l56 226q55 -25 110 -25q123 0 176 133l19 47z" />
    <glyph glyph-name="z" unicode="z" horiz-adv-x="1075" 
d="M80 0v190l524 660h-510v231h867v-190l-527 -660h561v-231h-915z" />
    <glyph glyph-name="braceleft" unicode="{" horiz-adv-x="784" 
d="M61 559v209h31q67 0 102 35.5t35 101.5q0 32 -15 154t-15 192q0 176 106.5 274.5t310.5 98.5h86v-221h-65q-178 0 -178 -186q0 -49 15 -157.5t15 -150.5q0 -84 -41 -153.5t-100 -91.5q58 -22 99.5 -92t41.5 -154q0 -42 -15 -150t-15 -157q0 -187 178 -187h65v-221h-86
q-204 0 -310.5 98.5t-106.5 274.5q0 70 15 192t15 154q0 66 -35 101.5t-102 35.5h-31z" />
    <glyph glyph-name="bar" unicode="|" horiz-adv-x="559" 
d="M154 -236v1799h252v-1799h-252z" />
    <glyph glyph-name="braceright" unicode="}" horiz-adv-x="784" 
d="M168 -297h-86v221h65q179 0 179 187q0 49 -15.5 157t-15.5 150q0 84 41.5 154t99.5 92q-59 22 -100 91.5t-41 153.5q0 42 15.5 150.5t15.5 157.5q0 186 -179 186h-65v221h86q202 0 310 -99t108 -274q0 -70 -15.5 -192t-15.5 -154q0 -66 35 -101.5t102 -35.5h31v-209h-31
q-67 0 -102 -35.5t-35 -101.5q0 -32 15.5 -154t15.5 -192q0 -175 -108 -274t-310 -99z" />
    <glyph glyph-name="asciitilde" unicode="~" 
d="M358 373h-237q17 184 98 286.5t209 102.5q49 0 93 -15t75.5 -37t59.5 -44t55.5 -37t52.5 -15q73 0 94 134h238q-17 -184 -98.5 -287t-209.5 -103q-49 0 -93 15t-75.5 37t-59 44t-55 37t-52.5 15q-74 0 -95 -133z" />
    <glyph glyph-name="uni00A0" unicode="&#xa0;" horiz-adv-x="428" 
 />
    <glyph glyph-name="exclamdown" unicode="&#xa1;" horiz-adv-x="540" 
d="M426 -373h-311l18 1002h275zM270 741q-73 0 -123.5 50t-50.5 124t50.5 124.5t123.5 50.5t123.5 -50.5t50.5 -124.5t-50.5 -124t-123.5 -50z" />
    <glyph glyph-name="cent" unicode="&#xa2;" 
d="M94 532q0 214 125 373.5t318 196.5v227h206v-225q141 -25 243 -117.5t136 -228.5l-272 -53q-31 70 -86.5 109.5t-124.5 39.5q-109 0 -180.5 -90t-71.5 -227q0 -136 70 -223t182 -87q74 0 133 39.5t88 110.5l273 -53q-33 -135 -139.5 -227t-250.5 -117v-261h-206v258
q-196 37 -319.5 188.5t-123.5 366.5z" />
    <glyph glyph-name="sterling" unicode="&#xa3;" 
d="M53 791h164l16 196q17 211 141 334t322 123q180 0 303.5 -102.5t157.5 -280.5l-276 -47q-34 174 -181 174q-78 0 -124 -53.5t-54 -151.5l-16 -192h344v-218h-361l-26 -323h690v-250h-1098v250h117l27 323h-146v218z" />
    <glyph glyph-name="currency" unicode="&#xa4;" 
d="M246 956l-160 162l150 150l157 -162q100 59 215 59t215 -59l158 162l149 -150l-159 -162q59 -95 59 -213t-59 -213l159 -161l-149 -150l-158 162q-100 -59 -215 -59t-215 59l-157 -162l-150 150l160 161q-60 97 -60 213t60 213zM436 743q0 -82 48.5 -135t123.5 -53
t123.5 53t48.5 135t-48.5 135.5t-123.5 53.5t-123.5 -53.5t-48.5 -135.5z" />
    <glyph glyph-name="yen" unicode="&#xa5;" 
d="M25 1413h321l268 -588l265 588h311l-367 -690h226v-162h-297v-153h297v-162h-297v-246h-289v246h-297v162h297v153h-297v162h225z" />
    <glyph glyph-name="section" unicode="&#xa7;" horiz-adv-x="1052" 
d="M518 -195q-167 0 -291 75t-172 216l269 54q56 -115 200 -115q72 0 117 29.5t45 76.5q0 48 -38 75t-134 44l-92 16q-168 29 -259 114.5t-91 215.5q0 92 45 164t127 115q-146 90 -146 250q0 154 119.5 252t312.5 98q162 0 277.5 -73t157.5 -214l-267 -53q-47 108 -176 108
q-61 0 -102 -28.5t-41 -69.5q0 -89 172 -115l104 -16q167 -26 254.5 -108t87.5 -211q0 -99 -47.5 -171.5t-130.5 -115.5q152 -90 152 -256q0 -157 -127.5 -257t-325.5 -100zM338 657q0 -102 149 -133l37 -8q18 -6 51 -6q70 0 112 36.5t42 98.5q0 102 -149 133l-37 8
q-21 7 -51 7q-70 0 -112 -36.5t-42 -99.5z" />
    <glyph glyph-name="dieresis" unicode="&#xa8;" 
d="M674 1376q0 62 44.5 105t108.5 43t109 -43t45 -105t-45 -104.5t-109 -42.5t-108.5 42.5t-44.5 104.5zM236 1376q0 62 44.5 105t108.5 43t109 -43t45 -105t-45 -104.5t-109 -42.5t-108.5 42.5t-44.5 104.5z" />
    <glyph glyph-name="copyright" unicode="&#xa9;" horiz-adv-x="1732" 
d="M96 727q0 215 101 391t277.5 276.5t391.5 100.5t391.5 -100.5t277.5 -276.5t101 -391t-101 -391.5t-277.5 -277.5t-391.5 -101t-391.5 101t-277.5 277.5t-101 391.5zM283 727q0 -122 46 -232t124 -190t186 -127t227 -47q159 0 293.5 79.5t212.5 217t78 299.5t-78 299
t-212.5 216t-293.5 79q-119 0 -227 -47t-186 -126t-124 -189t-46 -232zM475 729q0 180 117 302t289 122q129 0 225 -76t127 -203l-217 -40q-20 50 -55.5 78t-79.5 28q-72 0 -119 -59t-47 -148t47 -146t119 -57q46 0 85.5 28.5t57.5 78.5l217 -41q-31 -122 -133.5 -200.5
t-233.5 -78.5q-171 0 -285 118.5t-114 293.5z" />
    <glyph glyph-name="ordfeminine" unicode="&#xaa;" horiz-adv-x="851" 
d="M332 631q-117 0 -193 67t-76 172q0 109 86.5 175.5t227.5 66.5q76 0 158 -29v39q0 58 -33 94.5t-86 36.5q-39 0 -72 -20.5t-45 -54.5l-209 36q25 97 118 158.5t214 61.5q150 0 244 -90t94 -234v-459h-207l-6 82q-31 -48 -87 -75t-128 -27zM416 969q-57 0 -91 -23.5
t-34 -66.5q0 -38 27.5 -60t72.5 -22q63 0 103.5 40.5t40.5 102.5v4q-59 25 -119 25z" />
    <glyph glyph-name="guillemotleft" unicode="&#xab;" horiz-adv-x="1093" 
d="M772 190l-274 394l274 393h250l-266 -393l266 -394h-250zM41 584l274 393h250l-266 -393l266 -394h-250z" />
    <glyph glyph-name="logicalnot" unicode="&#xac;" 
d="M156 539v239h864v-579h-246v340h-618z" />
    <glyph glyph-name="registered" unicode="&#xae;" horiz-adv-x="1097" 
d="M82 1014q0 197 134 329t333 132t333 -132t134 -329t-134 -329t-333 -132t-333 132t-134 329zM203 1014q0 -146 100 -246t246 -100t246 100t100 246t-100 246t-246 100t-246 -100t-100 -246zM369 1257h178q92 0 145 -43t53 -118q0 -86 -75 -135l100 -183h-141l-70 148h-18
q-29 0 -43 2v-150h-129v479zM498 1147v-113q6 0 22 -1t25 -1q32 0 50.5 16.5t18.5 43.5q0 55 -71 55h-45z" />
    <glyph glyph-name="macron" unicode="&#xaf;" 
d="M283 1247v193h651v-193h-651z" />
    <glyph glyph-name="degree" unicode="&#xb0;" horiz-adv-x="772" 
d="M385 870q-141 0 -241.5 98t-100.5 236t101 237t243 99q141 0 241.5 -98t100.5 -236t-101 -237t-243 -99zM385 1358q-58 0 -98.5 -44.5t-40.5 -107.5q0 -64 40 -108.5t99 -44.5q58 0 99.5 44.5t41.5 108.5q0 63 -42 107.5t-99 44.5z" />
    <glyph glyph-name="plusminus" unicode="&#xb1;" 
d="M492 664h-318v225h318v311h233v-311h317v-225h-317v-322h-233v322zM195 0v236h827v-236h-827z" />
    <glyph glyph-name="acute" unicode="&#xb4;" 
d="M844 1528l-244 -293h-264l190 293h318z" />
    <glyph glyph-name="paragraph" unicode="&#xb6;" horiz-adv-x="1208" 
d="M76 967q0 227 152.5 357t420.5 130h76v-1642h-184v669q-217 28 -341 157.5t-124 328.5zM879 1454h184v-1642h-184v1642z" />
    <glyph glyph-name="periodcentered" unicode="&#xb7;" horiz-adv-x="552" 
d="M96 563q0 74 52.5 127t127.5 53t128 -53t53 -127t-53 -127t-128 -53t-127.5 53t-52.5 127z" />
    <glyph glyph-name="cedilla" unicode="&#xb8;" 
d="M551 -463q-86 0 -168 31l29 151q59 -20 106 -20q42 0 67 17t25 46q0 68 -129 68l68 193h178l-35 -107q66 -20 104 -66.5t38 -107.5q0 -92 -79 -148.5t-204 -56.5z" />
    <glyph glyph-name="ordmasculine" unicode="&#xba;" horiz-adv-x="927" 
d="M57 1032q0 171 116.5 286.5t289.5 115.5q174 0 290.5 -115.5t116.5 -286.5q0 -172 -116 -286.5t-291 -114.5q-173 0 -289.5 114.5t-116.5 286.5zM293 1032q0 -85 47.5 -137.5t122.5 -52.5q74 0 123 53t49 137q0 83 -49 137t-123 54q-75 0 -122.5 -54t-47.5 -137z" />
    <glyph glyph-name="guillemotright" unicode="&#xbb;" horiz-adv-x="1093" 
d="M795 584l-267 393h250l275 -393l-275 -394h-250zM72 190l266 394l-266 393h250l274 -393l-274 -394h-250z" />
    <glyph glyph-name="onequarter" unicode="&#xbc;" horiz-adv-x="1658" 
d="M963 303l317 475h229v-471h80v-160h-80v-147h-196v147h-350v156zM506 0h-217l897 1413h217zM104 1284l242 129h176v-778h-200v571l-158 -84zM1147 307h166v248z" />
    <glyph glyph-name="onehalf" unicode="&#xbd;" horiz-adv-x="1658" 
d="M254 0l897 1413h217l-897 -1413h-217zM1184 532l-185 29q19 104 101 170t194 66q118 0 196.5 -72t78.5 -180q0 -48 -18 -94.5t-42 -81t-66.5 -74.5t-71.5 -63t-77 -58h289v-174h-573v141q356 271 356 394q0 37 -23 61.5t-61 24.5q-36 0 -62 -23t-36 -66zM164 1122
l-60 162l242 129h176v-778h-200v571z" />
    <glyph glyph-name="threequarters" unicode="&#xbe;" horiz-adv-x="1658" 
d="M963 147v156l317 475h229v-471h80v-160h-80v-147h-196v147h-350zM57 836l181 28q11 -33 41 -54.5t71 -21.5q44 0 73.5 23.5t29.5 60.5q0 33 -28.5 55.5t-70.5 22.5h-80v164h66q43 0 70.5 20.5t27.5 55.5q0 30 -25.5 50t-62.5 20q-75 0 -96 -70l-182 31q23 97 100.5 154
t189.5 57q120 0 196.5 -61t76.5 -159q0 -118 -111 -172q131 -53 131 -184q0 -104 -85 -172t-214 -68q-118 0 -196.5 60t-102.5 160zM516 0h-217l897 1413h217zM1313 555l-166 -248h166v248z" />
    <glyph glyph-name="questiondown" unicode="&#xbf;" horiz-adv-x="1050" 
d="M55 25q0 150 99.5 266.5t271.5 169.5v168h274v-318q-346 -82 -346 -276q0 -79 54 -128.5t143 -49.5q80 0 142 44t87 119l271 -59q-37 -161 -175 -262.5t-327 -101.5q-214 0 -354 121t-140 307zM389 915q0 74 50.5 124.5t123.5 50.5q71 0 122.5 -50.5t51.5 -124.5
t-51 -124t-123 -50q-73 0 -123.5 50t-50.5 124z" />
    <glyph glyph-name="Agrave" unicode="&#xc0;" horiz-adv-x="1546" 
d="M33 0l577 1454h324l579 -1454h-313l-119 319h-628l-119 -319h-301zM549 578h436l-219 579zM659 1595l-243 293h317l191 -293h-265z" />
    <glyph glyph-name="Aacute" unicode="&#xc1;" horiz-adv-x="1546" 
d="M33 0l577 1454h324l579 -1454h-313l-119 319h-628l-119 -319h-301zM549 578h436l-219 579zM633 1595l190 293h318l-244 -293h-264z" />
    <glyph glyph-name="Acircumflex" unicode="&#xc2;" horiz-adv-x="1546" 
d="M33 0l577 1454h324l579 -1454h-313l-119 319h-628l-119 -319h-301zM637 1595h-250l248 293h268l248 -293h-258l-127 123zM766 1157l-217 -579h436z" />
    <glyph glyph-name="Atilde" unicode="&#xc3;" horiz-adv-x="1546" 
d="M334 0h-301l577 1454h324l579 -1454h-313l-119 319h-628zM418 1606q13 127 71.5 198.5t149.5 71.5q50 0 93.5 -19.5t75.5 -39t54 -19.5q26 0 41 15.5t21 52.5h200q-14 -128 -72 -199.5t-149 -71.5q-50 0 -93.5 19.5t-75.5 39t-54 19.5q-26 0 -41 -15t-21 -52h-200z
M766 1157l-217 -579h436z" />
    <glyph glyph-name="Adieresis" unicode="&#xc4;" horiz-adv-x="1546" 
d="M33 0l577 1454h324l579 -1454h-313l-119 319h-628l-119 -319h-301zM766 1157l-217 -579h436zM1020 1583q-66 0 -113 46.5t-47 109.5t47 109t113 46t113 -46t47 -109t-47 -109.5t-113 -46.5zM524 1583q-66 0 -112.5 46.5t-46.5 109.5t46.5 109t112.5 46t113 -46t47 -109
t-47 -109.5t-113 -46.5z" />
    <glyph glyph-name="Aring" unicode="&#xc5;" horiz-adv-x="1546" 
d="M33 0l577 1454h324l579 -1454h-313l-119 319h-628l-119 -319h-301zM532 1767q0 96 69.5 163t170.5 67t170.5 -67t69.5 -163t-69.5 -162.5t-170.5 -66.5t-170.5 66.5t-69.5 162.5zM766 1157l-217 -579h436zM772 1858q-36 0 -62 -26.5t-26 -64.5t26 -64t62 -26t62 26t26 64
t-26 64.5t-62 26.5z" />
    <glyph glyph-name="AE" unicode="&#xc6;" horiz-adv-x="2101" 
d="M33 0l913 1454h1024v-260h-596v-317h531v-261h-531v-356h617v-260h-912v319h-516l-190 -319h-340zM1079 1186l-362 -608h362v608z" />
    <glyph glyph-name="Ccedilla" unicode="&#xc7;" horiz-adv-x="1517" 
d="M86 717q0 162 56 306.5t152.5 248t231 163.5t285.5 60q224 0 396 -118.5t233 -317.5l-295 -74q-50 109 -138 169t-200 60q-174 0 -290 -140t-116 -353q0 -212 115 -346.5t295 -134.5q238 0 348 229l295 -74q-58 -179 -204 -293t-345 -137l-20 -61q63 -20 102 -69.5
t39 -110.5q0 -94 -79.5 -152.5t-207.5 -58.5q-99 0 -178 32l31 158q56 -20 108 -20q43 0 68 17t25 46q0 32 -33 50t-96 18l53 151q-278 34 -454.5 242.5t-176.5 509.5z" />
    <glyph glyph-name="Egrave" unicode="&#xc8;" horiz-adv-x="1175" 
d="M133 1454h911v-260h-616v-317h551v-261h-551v-356h637v-260h-932v1454zM252 1888h317l191 -293h-264z" />
    <glyph glyph-name="Eacute" unicode="&#xc9;" horiz-adv-x="1175" 
d="M133 0v1454h911v-260h-616v-317h551v-261h-551v-356h637v-260h-932zM430 1595l191 293h317l-244 -293h-264z" />
    <glyph glyph-name="Ecircumflex" unicode="&#xca;" horiz-adv-x="1175" 
d="M133 1454h911v-260h-616v-317h551v-261h-551v-356h637v-260h-932v1454zM451 1595h-250l248 293h268l248 -293h-258l-127 123z" />
    <glyph glyph-name="Edieresis" unicode="&#xcb;" horiz-adv-x="1175" 
d="M133 1454h911v-260h-616v-317h551v-261h-551v-356h637v-260h-932v1454zM676 1739q0 63 47 109t113 46t112.5 -46t46.5 -109t-46.5 -109.5t-112.5 -46.5t-113 46.5t-47 109.5zM340 1583q-66 0 -113 46.5t-47 109.5t47 109t113 46t113 -46t47 -109t-47 -109.5t-113 -46.5z
" />
    <glyph glyph-name="Igrave" unicode="&#xcc;" horiz-adv-x="571" 
d="M133 0v1454h305v-1454h-305zM172 1595l-244 293h318l190 -293h-264z" />
    <glyph glyph-name="Iacute" unicode="&#xcd;" horiz-adv-x="571" 
d="M133 0v1454h305v-1454h-305zM641 1888l-244 -293h-264l191 293h317z" />
    <glyph glyph-name="Icircumflex" unicode="&#xce;" horiz-adv-x="571" 
d="M438 0h-305v1454h305v-1454zM-154 1606l301 272h277l301 -272h-291l-151 120l-154 -120h-283z" />
    <glyph glyph-name="Idieresis" unicode="&#xcf;" horiz-adv-x="571" 
d="M133 1454h305v-1454h-305v1454zM373 1739q0 63 46.5 109t112.5 46t113 -46t47 -109t-47 -109.5t-113 -46.5t-112.5 46.5t-46.5 109.5zM37 1583q-66 0 -113 46.5t-47 109.5t47 109t113 46t113 -46t47 -109t-47 -109.5t-113 -46.5z" />
    <glyph glyph-name="Eth" unicode="&#xd0;" horiz-adv-x="1574" 
d="M154 631h-160v233h160v590h565q227 0 402 -90.5t271.5 -255.5t96.5 -379q0 -160 -56.5 -296t-158 -231t-245.5 -148.5t-314 -53.5h-561v631zM750 631h-291v-361h241q219 0 346.5 122.5t127.5 334.5t-127.5 334.5t-346.5 122.5h-241v-320h291v-233z" />
    <glyph glyph-name="Ntilde" unicode="&#xd1;" horiz-adv-x="1499" 
d="M428 0h-295v1454h264l674 -962v962h295v-1454h-264l-674 963v-963zM346 1610q15 137 84.5 217t173.5 80q45 0 89 -16t73 -35.5t61.5 -35.5t57.5 -16q31 0 53 23.5t29 66.5h188q-12 -137 -82 -217t-174 -80q-46 0 -90.5 16t-73 35.5t-61.5 35.5t-58 16q-65 0 -81 -90h-189
z" />
    <glyph glyph-name="Ograve" unicode="&#xd2;" horiz-adv-x="1679" 
d="M86 725q0 217 98 393.5t271 276.5t387 100q160 0 299.5 -58t238.5 -159.5t156 -243.5t57 -305t-57.5 -305.5t-157 -244.5t-240 -161t-300.5 -59q-213 0 -385 99t-269.5 274.5t-97.5 392.5zM401 727q0 -213 124 -350t315 -137t314.5 137t123.5 350t-123.5 350t-314.5 137
t-315 -137t-124 -350zM733 1595l-244 293h318l190 -293h-264z" />
    <glyph glyph-name="Oacute" unicode="&#xd3;" horiz-adv-x="1679" 
d="M86 725q0 217 98 393.5t271 276.5t387 100q160 0 299.5 -58t238.5 -159.5t156 -243.5t57 -305t-57.5 -305.5t-157 -244.5t-240 -161t-300.5 -59q-213 0 -385 99t-269.5 274.5t-97.5 392.5zM401 727q0 -213 124 -350t315 -137t314.5 137t123.5 350t-123.5 350t-314.5 137
t-315 -137t-124 -350zM676 1595l190 293h318l-244 -293h-264z" />
    <glyph glyph-name="Ocircumflex" unicode="&#xd4;" horiz-adv-x="1679" 
d="M86 725q0 217 98 393.5t271 276.5t387 100q160 0 299.5 -58t238.5 -159.5t156 -243.5t57 -305t-57.5 -305.5t-157 -244.5t-240 -161t-300.5 -59q-213 0 -385 99t-269.5 274.5t-97.5 392.5zM401 727q0 -213 124 -350t315 -137t314.5 137t123.5 350t-123.5 350t-314.5 137
t-315 -137t-124 -350zM461 1595l248 293h268l248 -293h-258l-127 123l-129 -123h-250z" />
    <glyph glyph-name="Otilde" unicode="&#xd5;" horiz-adv-x="1679" 
d="M86 725q0 217 98 393.5t271 276.5t387 100q160 0 299.5 -58t238.5 -159.5t156 -243.5t57 -305t-57.5 -305.5t-157 -244.5t-240 -161t-300.5 -59q-213 0 -385 99t-269.5 274.5t-97.5 392.5zM401 727q0 -213 124 -350t315 -137t314.5 137t123.5 350t-123.5 350t-314.5 137
t-315 -137t-124 -350zM485 1606q13 127 72 198.5t150 71.5q50 0 93.5 -19.5t75.5 -39t54 -19.5q26 0 40.5 15.5t20.5 52.5h201q-14 -128 -72 -199.5t-149 -71.5q-50 0 -93.5 19.5t-75.5 39t-54 19.5q-26 0 -41 -15t-21 -52h-201z" />
    <glyph glyph-name="Odieresis" unicode="&#xd6;" horiz-adv-x="1679" 
d="M838 -41q-213 0 -385 99t-269.5 274.5t-97.5 392.5t98 393.5t271 276.5t387 100q160 0 299.5 -58t238.5 -159.5t156 -243.5t57 -305t-57.5 -305.5t-157 -244.5t-240 -161t-300.5 -59zM840 1214q-191 0 -315 -137t-124 -350t124 -350t315 -137t314.5 137t123.5 350
t-123.5 350t-314.5 137zM928 1739q0 63 46.5 109t112.5 46t113 -46t47 -109t-47 -109.5t-113 -46.5t-112.5 46.5t-46.5 109.5zM432 1739q0 63 47 109t113 46t113 -46t47 -109t-47 -109.5t-113 -46.5t-113 46.5t-47 109.5z" />
    <glyph glyph-name="multiply" unicode="&#xd7;" 
d="M334 135l-158 158l275 276l-261 260l158 158l260 -260l260 260l158 -158l-260 -260l274 -276l-157 -158l-275 275z" />
    <glyph glyph-name="Oslash" unicode="&#xd8;" horiz-adv-x="1679" 
d="M297 184q-100 105 -155.5 244.5t-55.5 296.5q0 217 98 393.5t271 276.5t387 100q196 0 360 -88l88 119h283l-191 -256q100 -105 155.5 -244.5t55.5 -296.5q0 -163 -57.5 -305.5t-157 -244.5t-240 -161t-300.5 -59q-197 0 -361 88l-88 -119h-283zM840 1225
q-196 0 -322.5 -140.5t-126.5 -357.5q0 -178 84 -303l559 758q-87 43 -194 43zM1206 1030l-561 -758q87 -43 195 -43q196 0 322 140.5t126 357.5q0 171 -82 303z" />
    <glyph glyph-name="Ugrave" unicode="&#xd9;" horiz-adv-x="1478" 
d="M737 -41q-285 0 -454.5 171.5t-169.5 457.5v866h305v-852q0 -168 86 -265t235 -97q147 0 234.5 97.5t87.5 264.5v852h305v-866q0 -286 -171.5 -457.5t-457.5 -171.5zM645 1595l-244 293h318l190 -293h-264z" />
    <glyph glyph-name="Uacute" unicode="&#xda;" horiz-adv-x="1478" 
d="M737 -41q-285 0 -454.5 171.5t-169.5 457.5v866h305v-852q0 -168 86 -265t235 -97q147 0 234.5 97.5t87.5 264.5v852h305v-866q0 -286 -171.5 -457.5t-457.5 -171.5zM594 1595l190 293h318l-244 -293h-264z" />
    <glyph glyph-name="Ucircumflex" unicode="&#xdb;" horiz-adv-x="1478" 
d="M737 -41q-285 0 -454.5 171.5t-169.5 457.5v866h305v-852q0 -168 86 -265t235 -97q147 0 234.5 97.5t87.5 264.5v852h305v-866q0 -286 -171.5 -457.5t-457.5 -171.5zM301 1606l301 272h277l301 -272h-291l-152 120l-153 -120h-283z" />
    <glyph glyph-name="Udieresis" unicode="&#xdc;" horiz-adv-x="1478" 
d="M737 -41q-285 0 -454.5 171.5t-169.5 457.5v866h305v-852q0 -168 86 -265t235 -97q147 0 234.5 97.5t87.5 264.5v852h305v-866q0 -286 -171.5 -457.5t-457.5 -171.5zM827 1739q0 63 47 109t113 46t113 -46t47 -109t-47 -109.5t-113 -46.5t-113 46.5t-47 109.5zM492 1583
q-66 0 -113 46.5t-47 109.5t47 109t113 46t112.5 -46t46.5 -109t-46.5 -109.5t-112.5 -46.5z" />
    <glyph glyph-name="Yacute" unicode="&#xdd;" horiz-adv-x="1366" 
d="M530 565l-507 889h339l326 -612l324 612h331l-507 -889v-565h-306v565zM539 1595l190 293h318l-244 -293h-264z" />
    <glyph glyph-name="Thorn" unicode="&#xde;" horiz-adv-x="1226" 
d="M133 1454h301v-233h166q267 0 419 -130.5t152 -361.5q0 -220 -157.5 -353.5t-415.5 -133.5q-81 0 -164 14v-256h-301v1454zM594 963h-160v-451q82 -12 152 -12q131 0 203.5 59.5t72.5 171.5q0 111 -69.5 171.5t-198.5 60.5z" />
    <glyph glyph-name="germandbls" unicode="&#xdf;" horiz-adv-x="1253" 
d="M115 1051q0 224 138 363.5t361 139.5q209 0 348.5 -118t139.5 -293q0 -99 -46 -185t-126 -137q113 -40 181.5 -146.5t68.5 -242.5q0 -194 -137.5 -323t-346.5 -129q-107 0 -186 28l39 244q42 -19 110 -19q100 0 164 63t64 161q0 104 -68 164.5t-184 60.5h-64v238h43
q85 0 142 54t57 134t-57 134t-142 54q-95 0 -154 -64.5t-59 -178.5v-1053h-286v1051z" />
    <glyph glyph-name="agrave" unicode="&#xe0;" horiz-adv-x="1146" 
d="M63 307q0 154 123 250t322 96q131 0 246 -47v64q0 93 -52.5 150t-142.5 57q-69 0 -123.5 -34.5t-77.5 -94.5l-256 51q34 140 162.5 226.5t298.5 86.5q209 0 339 -127t130 -330v-655h-256l-8 127q-45 -72 -127.5 -115t-191.5 -43q-166 0 -276 95.5t-110 242.5zM555 461
q-96 0 -152.5 -38t-56.5 -101q0 -58 47.5 -95t124.5 -37q101 0 168.5 63t67.5 157v10q-97 41 -199 41zM449 1235l-244 293h317l191 -293h-264z" />
    <glyph glyph-name="aacute" unicode="&#xe1;" horiz-adv-x="1146" 
d="M449 -31q-166 0 -276 95.5t-110 242.5q0 154 123 250t322 96q131 0 246 -47v64q0 93 -52.5 150t-142.5 57q-69 0 -123.5 -34.5t-77.5 -94.5l-256 51q34 140 162.5 226.5t298.5 86.5q209 0 339 -127t130 -330v-655h-256l-8 127q-45 -72 -127.5 -115t-191.5 -43zM555 461
q-96 0 -152.5 -38t-56.5 -101q0 -58 47.5 -95t124.5 -37q101 0 168.5 63t67.5 157v10q-97 41 -199 41zM401 1235l191 293h317l-243 -293h-265z" />
    <glyph glyph-name="acircumflex" unicode="&#xe2;" horiz-adv-x="1146" 
d="M63 307q0 154 123 250t322 96q131 0 246 -47v64q0 93 -52.5 150t-142.5 57q-69 0 -123.5 -34.5t-77.5 -94.5l-256 51q34 140 162.5 226.5t298.5 86.5q209 0 339 -127t130 -330v-655h-256l-8 127q-45 -72 -127.5 -115t-191.5 -43q-166 0 -276 95.5t-110 242.5zM432 1235
h-250l248 293h268l248 -293h-258l-127 123zM555 461q-96 0 -152.5 -38t-56.5 -101q0 -58 47.5 -95t124.5 -37q101 0 168.5 63t67.5 157v10q-97 41 -199 41z" />
    <glyph glyph-name="atilde" unicode="&#xe3;" horiz-adv-x="1146" 
d="M63 307q0 154 123 250t322 96q131 0 246 -47v64q0 93 -52.5 150t-142.5 57q-69 0 -123.5 -34.5t-77.5 -94.5l-256 51q34 140 162.5 226.5t298.5 86.5q209 0 339 -127t130 -330v-655h-256l-8 127q-45 -72 -127.5 -115t-191.5 -43q-166 0 -276 95.5t-110 242.5zM215 1241
q13 127 71.5 198.5t149.5 71.5q50 0 93.5 -19.5t75.5 -38.5t54 -19q26 0 41 15t21 52h201q-13 -127 -72 -198.5t-150 -71.5q-50 0 -93.5 19.5t-75.5 39t-54 19.5q-26 0 -40.5 -15.5t-20.5 -52.5h-201zM555 461q-96 0 -152.5 -38t-56.5 -101q0 -58 47.5 -95t124.5 -37
q101 0 168.5 63t67.5 157v10q-97 41 -199 41z" />
    <glyph glyph-name="adieresis" unicode="&#xe4;" horiz-adv-x="1146" 
d="M449 -31q-166 0 -276 95.5t-110 242.5q0 154 123 250t322 96q131 0 246 -47v64q0 93 -52.5 150t-142.5 57q-69 0 -123.5 -34.5t-77.5 -94.5l-256 51q34 140 162.5 226.5t298.5 86.5q209 0 339 -127t130 -330v-655h-256l-8 127q-45 -72 -127.5 -115t-191.5 -43zM555 461
q-96 0 -152.5 -38t-56.5 -101q0 -58 47.5 -95t124.5 -37q101 0 168.5 63t67.5 157v10q-97 41 -199 41zM788 1229q-64 0 -108.5 42.5t-44.5 104.5t44.5 105t108.5 43t109 -43t45 -105t-45 -104.5t-109 -42.5zM197 1376q0 62 44.5 105t108.5 43t109 -43t45 -105t-45 -104.5
t-109 -42.5t-108.5 42.5t-44.5 104.5z" />
    <glyph glyph-name="aring" unicode="&#xe5;" horiz-adv-x="1146" 
d="M449 -31q-166 0 -276 95.5t-110 242.5q0 154 123 250t322 96q131 0 246 -47v64q0 93 -52.5 150t-142.5 57q-69 0 -123.5 -34.5t-77.5 -94.5l-256 51q34 140 162.5 226.5t298.5 86.5q209 0 339 -127t130 -330v-655h-256l-8 127q-45 -72 -127.5 -115t-191.5 -43zM336 1403
q0 94 67.5 158.5t165.5 64.5t166 -64.5t68 -158.5t-68 -158.5t-166 -64.5t-165.5 64.5t-67.5 158.5zM555 461q-96 0 -152.5 -38t-56.5 -101q0 -58 47.5 -95t124.5 -37q101 0 168.5 63t67.5 157v10q-97 41 -199 41zM479 1403q0 -38 26.5 -65t63.5 -27t63.5 27t26.5 65
t-26.5 65t-63.5 27t-63.5 -27t-26.5 -65z" />
    <glyph glyph-name="ae" unicode="&#xe6;" horiz-adv-x="1828" 
d="M475 -31q-176 0 -294 96.5t-118 245.5t121.5 245.5t313.5 96.5q123 0 235 -47v64q0 93 -49.5 150t-134.5 57q-67 0 -119 -34t-72 -95l-256 51q30 139 157.5 226t293.5 87q107 0 193.5 -44.5t142.5 -125.5q137 170 368 170q223 0 365.5 -158t142.5 -413v-72h-755
q19 -122 85.5 -190t168.5 -68q145 0 223 135l256 -82q-55 -135 -186.5 -215t-290.5 -80q-129 0 -235.5 55t-174.5 154q-46 -97 -148 -153t-233 -56zM346 322q0 -58 44 -95t118 -37q98 0 161.5 63t63.5 157v10q-93 41 -188 41q-92 0 -145.5 -38t-53.5 -101zM1014 662h456
q-17 107 -75 168t-148 61t-151.5 -61t-81.5 -168z" />
    <glyph glyph-name="ccedilla" unicode="&#xe7;" horiz-adv-x="1169" 
d="M74 532q0 162 72.5 295t199 209t279.5 76q175 0 306 -97t171 -257l-273 -53q-31 70 -86.5 109.5t-124.5 39.5q-109 0 -180 -90t-71 -227q0 -136 69.5 -223t181.5 -87q74 0 133.5 39.5t88.5 110.5l272 -53q-35 -139 -144.5 -232t-258.5 -117l-21 -59q66 -20 103.5 -66.5
t37.5 -107.5q0 -92 -78.5 -148.5t-203.5 -56.5q-86 0 -168 31l29 151q59 -20 106 -20q42 0 67 17t25 46q0 68 -129 68l51 145q-201 31 -327.5 185t-126.5 372z" />
    <glyph glyph-name="egrave" unicode="&#xe8;" horiz-adv-x="1204" 
d="M627 -31q-242 0 -397.5 161t-155.5 413q0 160 70.5 290.5t194 204.5t273.5 74q238 0 383.5 -157t145.5 -414v-72h-776q19 -122 88.5 -190t175.5 -68q74 0 134.5 34.5t98.5 100.5l256 -82q-55 -135 -189.5 -215t-301.5 -80zM612 891q-93 0 -158 -61.5t-85 -167.5h477
q-17 106 -79.5 167.5t-154.5 61.5zM498 1235l-244 293h317l191 -293h-264z" />
    <glyph glyph-name="eacute" unicode="&#xe9;" horiz-adv-x="1204" 
d="M627 -31q-242 0 -397.5 161t-155.5 413q0 160 70.5 290.5t194 204.5t273.5 74q238 0 383.5 -157t145.5 -414v-72h-776q19 -122 88.5 -190t175.5 -68q74 0 134.5 34.5t98.5 100.5l256 -82q-55 -135 -189.5 -215t-301.5 -80zM612 891q-93 0 -158 -61.5t-85 -167.5h477
q-17 106 -79.5 167.5t-154.5 61.5zM707 1235h-265l191 293h317z" />
    <glyph glyph-name="ecircumflex" unicode="&#xea;" horiz-adv-x="1204" 
d="M627 -31q-242 0 -397.5 161t-155.5 413q0 160 70.5 290.5t194 204.5t273.5 74q238 0 383.5 -157t145.5 -414v-72h-776q19 -122 88.5 -190t175.5 -68q74 0 134.5 34.5t98.5 100.5l256 -82q-55 -135 -189.5 -215t-301.5 -80zM227 1235l248 293h268l248 -293h-258l-127 123
l-129 -123h-250zM612 891q-93 0 -158 -61.5t-85 -167.5h477q-17 106 -79.5 167.5t-154.5 61.5z" />
    <glyph glyph-name="edieresis" unicode="&#xeb;" horiz-adv-x="1204" 
d="M627 -31q-242 0 -397.5 161t-155.5 413q0 160 70.5 290.5t194 204.5t273.5 74q238 0 383.5 -157t145.5 -414v-72h-776q19 -122 88.5 -190t175.5 -68q74 0 134.5 34.5t98.5 100.5l256 -82q-55 -135 -189.5 -215t-301.5 -80zM612 891q-93 0 -158 -61.5t-85 -167.5h477
q-17 106 -79.5 167.5t-154.5 61.5zM678 1376q0 62 44.5 105t108.5 43t109 -43t45 -105t-45 -104.5t-109 -42.5t-108.5 42.5t-44.5 104.5zM393 1229q-64 0 -108.5 42.5t-44.5 104.5t44.5 105t108.5 43t109 -43t45 -105t-45 -104.5t-109 -42.5z" />
    <glyph glyph-name="igrave" unicode="&#xec;" horiz-adv-x="516" 
d="M115 0v1081h286v-1081h-286zM133 1235l-244 293h318l190 -293h-264z" />
    <glyph glyph-name="iacute" unicode="&#xed;" horiz-adv-x="516" 
d="M115 0v1081h286v-1081h-286zM625 1528l-244 -293h-264l190 293h318z" />
    <glyph glyph-name="icircumflex" unicode="&#xee;" horiz-adv-x="516" 
d="M115 0v1081h286v-1081h-286zM-125 1235l248 293h268l248 -293h-258l-127 123l-129 -123h-250z" />
    <glyph glyph-name="idieresis" unicode="&#xef;" horiz-adv-x="516" 
d="M115 1081h286v-1081h-286v1081zM322 1376q0 62 44.5 105t108.5 43t109 -43t45 -105t-45 -104.5t-109 -42.5t-108.5 42.5t-44.5 104.5zM37 1229q-64 0 -109 42.5t-45 104.5t45 105t109 43t108.5 -43t44.5 -105t-44.5 -104.5t-108.5 -42.5z" />
    <glyph glyph-name="eth" unicode="&#xf0;" horiz-adv-x="1304" 
d="M635 -31q-161 0 -289.5 71.5t-200 197.5t-71.5 282q0 153 68 280t185 200t257 73q176 0 284 -117q-66 145 -172 277l-194 -90l-76 160l147 69q-71 68 -137 117l281 70q32 -24 92 -76l182 84l76 -160l-131 -61q126 -160 198 -356.5t72 -383.5q0 -287 -158.5 -462
t-412.5 -175zM367 532q0 -131 78 -218t196 -87q119 0 195.5 87t76.5 218q0 130 -76.5 216t-195.5 86q-118 0 -196 -86.5t-78 -215.5z" />
    <glyph glyph-name="ntilde" unicode="&#xf1;" 
d="M115 0v1081h264l8 -139q48 79 132 124.5t188 45.5q179 0 287 -125t108 -338v-649h-287v612q0 113 -51 177.5t-141 64.5q-97 0 -159.5 -65.5t-62.5 -167.5v-621h-286zM254 1241q13 127 71.5 198.5t149.5 71.5q50 0 93.5 -19.5t75.5 -38.5t54 -19q26 0 41 15t21 52h201
q-13 -127 -72 -198.5t-150 -71.5q-50 0 -93.5 19.5t-75.5 39t-54 19.5q-26 0 -40.5 -15.5t-20.5 -52.5h-201z" />
    <glyph glyph-name="ograve" unicode="&#xf2;" horiz-adv-x="1277" 
d="M74 541q0 161 74 291.5t204 205t291 74.5q159 0 287.5 -74t201 -204t72.5 -291q0 -246 -162.5 -410t-406.5 -164q-241 0 -401 163t-160 409zM639 854q-117 0 -194.5 -89t-77.5 -224t77.5 -224.5t194.5 -89.5t194.5 89.5t77.5 224.5t-77.5 224t-194.5 89zM530 1235
l-243 293h317l191 -293h-265z" />
    <glyph glyph-name="oacute" unicode="&#xf3;" horiz-adv-x="1277" 
d="M74 541q0 161 74 291.5t204 205t291 74.5q159 0 287.5 -74t201 -204t72.5 -291q0 -246 -162.5 -410t-406.5 -164q-241 0 -401 163t-160 409zM367 541q0 -135 77.5 -224.5t194.5 -89.5t194.5 89.5t77.5 224.5t-77.5 224t-194.5 89t-194.5 -89t-77.5 -224zM477 1235
l191 293h317l-244 -293h-264z" />
    <glyph glyph-name="ocircumflex" unicode="&#xf4;" horiz-adv-x="1277" 
d="M635 -31q-241 0 -401 163t-160 409q0 161 74 291.5t204 205t291 74.5q159 0 287.5 -74t201 -204t72.5 -291q0 -246 -162.5 -410t-406.5 -164zM639 854q-117 0 -194.5 -89t-77.5 -224t77.5 -224.5t194.5 -89.5t194.5 89.5t77.5 224.5t-77.5 224t-194.5 89zM508 1235h-250
l248 293h268l248 -293h-258l-127 123z" />
    <glyph glyph-name="otilde" unicode="&#xf5;" horiz-adv-x="1277" 
d="M74 541q0 161 74 291.5t204 205t291 74.5q159 0 287.5 -74t201 -204t72.5 -291q0 -246 -162.5 -410t-406.5 -164q-241 0 -401 163t-160 409zM639 854q-117 0 -194.5 -89t-77.5 -224t77.5 -224.5t194.5 -89.5t194.5 89.5t77.5 224.5t-77.5 224t-194.5 89zM485 1241h-200
q13 127 71.5 198.5t149.5 71.5q50 0 93.5 -19.5t75.5 -38.5t54 -19q26 0 41 15t21 52h200q-13 -127 -71.5 -198.5t-149.5 -71.5q-50 0 -93.5 19.5t-75.5 39t-54 19.5q-26 0 -41 -15.5t-21 -52.5z" />
    <glyph glyph-name="odieresis" unicode="&#xf6;" horiz-adv-x="1277" 
d="M74 541q0 161 74 291.5t204 205t291 74.5q159 0 287.5 -74t201 -204t72.5 -291q0 -246 -162.5 -410t-406.5 -164q-241 0 -401 163t-160 409zM367 541q0 -135 77.5 -224.5t194.5 -89.5t194.5 89.5t77.5 224.5t-77.5 224t-194.5 89t-194.5 -89t-77.5 -224zM705 1376
q0 62 44.5 105t108.5 43t109 -43t45 -105t-45 -104.5t-109 -42.5t-108.5 42.5t-44.5 104.5zM266 1376q0 62 45 105t109 43t108.5 -43t44.5 -105t-44.5 -104.5t-108.5 -42.5t-109 42.5t-45 104.5z" />
    <glyph glyph-name="divide" unicode="&#xf7;" 
d="M166 684h885v-240h-885v240zM469 920q0 58 40.5 99.5t98.5 41.5t99 -42t41 -99q0 -58 -41 -100t-99 -42t-98.5 42t-40.5 100zM608 68q-58 0 -98.5 41.5t-40.5 99.5t40.5 99.5t98.5 41.5t99 -42t41 -99t-41 -99t-99 -42z" />
    <glyph glyph-name="oslash" unicode="&#xf8;" horiz-adv-x="1277" 
d="M229 141q-155 168 -155 400q0 161 74 291.5t204 205t291 74.5q139 0 254 -59l59 80h234l-141 -193q74 -76 114.5 -178.5t40.5 -218.5q0 -246 -162.5 -410t-406.5 -164q-137 0 -254 60l-59 -80h-234zM639 864q-122 0 -202.5 -92t-80.5 -231q0 -96 39 -172l348 475
q-47 20 -104 20zM883 713l-348 -475q49 -21 104 -21q121 0 202 93t81 231q0 96 -39 172z" />
    <glyph glyph-name="ugrave" unicode="&#xf9;" horiz-adv-x="1212" 
d="M602 -31q-222 0 -354.5 139t-132.5 375v598h286v-604q0 -116 55.5 -183t149.5 -67t149.5 67t55.5 183v604h287v-598q0 -232 -135.5 -373t-360.5 -141zM492 1235l-244 293h317l191 -293h-264z" />
    <glyph glyph-name="uacute" unicode="&#xfa;" horiz-adv-x="1212" 
d="M602 -31q-222 0 -354.5 139t-132.5 375v598h286v-604q0 -116 55.5 -183t149.5 -67t149.5 67t55.5 183v604h287v-598q0 -232 -135.5 -373t-360.5 -141zM463 1235l190 293h318l-244 -293h-264z" />
    <glyph glyph-name="ucircumflex" unicode="&#xfb;" horiz-adv-x="1212" 
d="M602 -31q-222 0 -354.5 139t-132.5 375v598h286v-604q0 -116 55.5 -183t149.5 -67t149.5 67t55.5 183v604h287v-598q0 -232 -135.5 -373t-360.5 -141zM223 1235l248 293h268l248 -293h-258l-127 123l-129 -123h-250z" />
    <glyph glyph-name="udieresis" unicode="&#xfc;" horiz-adv-x="1212" 
d="M602 -31q-222 0 -354.5 139t-132.5 375v598h286v-604q0 -116 55.5 -183t149.5 -67t149.5 67t55.5 183v604h287v-598q0 -232 -135.5 -373t-360.5 -141zM670 1376q0 62 44.5 105t108.5 43t109 -43t45 -105t-45 -104.5t-109 -42.5t-108.5 42.5t-44.5 104.5zM231 1376
q0 62 45 105t109 43t109 -43t45 -105t-45 -104.5t-109 -42.5t-109 42.5t-45 104.5z" />
    <glyph glyph-name="yacute" unicode="&#xfd;" horiz-adv-x="1148" 
d="M23 1081h313l256 -766l231 766h303l-444 -1183q-61 -163 -156 -239.5t-231 -76.5q-116 0 -197 47l56 226q55 -25 110 -25q123 0 176 133l19 47zM430 1235l191 293h317l-244 -293h-264z" />
    <glyph glyph-name="thorn" unicode="&#xfe;" horiz-adv-x="1308" 
d="M115 1528h286v-584q58 79 145.5 123.5t190.5 44.5q139 0 253.5 -74t179.5 -204t65 -287q0 -161 -67.5 -293.5t-185.5 -208.5t-261 -76q-99 0 -181.5 39.5t-138.5 112.5v-518h-286v1925zM670 854q-117 0 -195 -89t-78 -224t78 -224.5t195 -89.5t194.5 89.5t77.5 224.5
t-77.5 224t-194.5 89z" />
    <glyph glyph-name="ydieresis" unicode="&#xff;" horiz-adv-x="1148" 
d="M459 10l-436 1071h313l256 -766l231 766h303l-444 -1183q-61 -163 -156 -239.5t-231 -76.5q-116 0 -197 47l56 226q55 -25 110 -25q123 0 176 133zM639 1376q0 62 45 105t109 43t108.5 -43t44.5 -105t-44.5 -104.5t-108.5 -42.5t-109 42.5t-45 104.5zM354 1229
q-64 0 -108.5 42.5t-44.5 104.5t44.5 105t108.5 43t109 -43t45 -105t-45 -104.5t-109 -42.5z" />
    <glyph glyph-name="Amacron" unicode="&#x100;" horiz-adv-x="1546" 
d="M33 0l577 1454h324l579 -1454h-313l-119 319h-628l-119 -319h-301zM1145 1616h-746v205h746v-205zM549 578h436l-219 579z" />
    <glyph glyph-name="amacron" unicode="&#x101;" horiz-adv-x="1146" 
d="M449 -31q-166 0 -276 95.5t-110 242.5q0 154 123 250t322 96q131 0 246 -47v64q0 93 -52.5 150t-142.5 57q-69 0 -123.5 -34.5t-77.5 -94.5l-256 51q34 140 162.5 226.5t298.5 86.5q209 0 339 -127t130 -330v-655h-256l-8 127q-45 -72 -127.5 -115t-191.5 -43zM244 1440
h651v-193h-651v193zM555 461q-96 0 -152.5 -38t-56.5 -101q0 -58 47.5 -95t124.5 -37q101 0 168.5 63t67.5 157v10q-97 41 -199 41z" />
    <glyph glyph-name="Abreve" unicode="&#x102;" horiz-adv-x="1546" 
d="M334 0h-301l577 1454h324l579 -1454h-313l-119 319h-628zM401 1872h226q26 -105 143 -105q115 0 143 105h226q-50 -277 -369 -277t-369 277zM549 578h436l-219 579z" />
    <glyph glyph-name="abreve" unicode="&#x103;" horiz-adv-x="1146" 
d="M449 -31q-166 0 -276 95.5t-110 242.5q0 154 123 250t322 96q131 0 246 -47v64q0 93 -52.5 150t-142.5 57q-69 0 -123.5 -34.5t-77.5 -94.5l-256 51q34 140 162.5 226.5t298.5 86.5q209 0 339 -127t130 -330v-655h-256l-8 127q-45 -72 -127.5 -115t-191.5 -43zM201 1511
h225q25 -104 143 -104q116 0 144 104h225q-50 -276 -369 -276q-318 0 -368 276zM555 461q-96 0 -152.5 -38t-56.5 -101q0 -58 47.5 -95t124.5 -37q101 0 168.5 63t67.5 157v10q-97 41 -199 41z" />
    <glyph glyph-name="Aogonek" unicode="&#x104;" horiz-adv-x="1546" 
d="M334 0h-301l577 1454h324l579 -1454q-178 -131 -178 -205q0 -29 21.5 -46t56.5 -17q49 0 94 18l25 -178q-100 -35 -186 -35q-110 0 -176 51t-66 136q0 136 182 276h-86l-119 319h-628zM766 1157l-217 -579h436z" />
    <glyph glyph-name="aogonek" unicode="&#x105;" horiz-adv-x="1146" 
d="M63 307q0 154 123 250t322 96q131 0 246 -47v64q0 93 -52.5 150t-142.5 57q-69 0 -123.5 -34.5t-77.5 -94.5l-256 51q34 140 162.5 226.5t298.5 86.5q209 0 339 -127t130 -330v-655q-178 -131 -178 -205q0 -29 21.5 -46t56.5 -17q53 0 94 18l25 -170q-84 -37 -183 -37
q-109 0 -173 50t-64 135q0 132 182 272h-37l-8 127q-45 -72 -127.5 -115t-191.5 -43q-166 0 -276 95.5t-110 242.5zM555 461q-96 0 -152.5 -38t-56.5 -101q0 -58 47.5 -95t124.5 -37q101 0 168.5 63t67.5 157v10q-97 41 -199 41z" />
    <glyph glyph-name="Cacute" unicode="&#x106;" horiz-adv-x="1517" 
d="M86 717q0 162 56 306.5t152.5 248t231 163.5t285.5 60q224 0 396 -118.5t233 -317.5l-295 -74q-50 109 -138 169t-200 60q-174 0 -290 -140t-116 -353q0 -212 115 -346.5t295 -134.5q238 0 348 229l295 -74q-65 -200 -238.5 -318t-404.5 -118q-206 0 -372 98
t-259.5 271.5t-93.5 388.5zM874 1606h-296l282 272h361z" />
    <glyph glyph-name="cacute" unicode="&#x107;" horiz-adv-x="1169" 
d="M74 532q0 162 72.5 295t199 209t279.5 76q175 0 306 -97t171 -257l-273 -53q-31 70 -86.5 109.5t-124.5 39.5q-109 0 -180 -90t-71 -227q0 -136 69.5 -223t181.5 -87q74 0 133.5 39.5t88.5 110.5l272 -53q-39 -161 -177.5 -258t-318.5 -97q-233 0 -387.5 160t-154.5 403z
M432 1235l191 293h317l-244 -293h-264z" />
    <glyph glyph-name="Cdotaccent" unicode="&#x10a;" horiz-adv-x="1517" 
d="M811 -41q-206 0 -372 98t-259.5 271.5t-93.5 388.5q0 162 56 306.5t152.5 248t231 163.5t285.5 60q224 0 396 -118.5t233 -317.5l-295 -74q-50 109 -138 169t-200 60q-174 0 -290 -140t-116 -353q0 -212 115 -346.5t295 -134.5q238 0 348 229l295 -74
q-65 -200 -238.5 -318t-404.5 -118zM809 1583q-72 0 -121 48.5t-49 119.5t49 119.5t121 48.5t121 -48.5t49 -119.5t-49 -119.5t-121 -48.5z" />
    <glyph glyph-name="cdotaccent" unicode="&#x10b;" horiz-adv-x="1169" 
d="M74 532q0 162 72.5 295t199 209t279.5 76q175 0 306 -97t171 -257l-273 -53q-31 70 -86.5 109.5t-124.5 39.5q-109 0 -180 -90t-71 -227q0 -136 69.5 -223t181.5 -87q74 0 133.5 39.5t88.5 110.5l272 -53q-39 -161 -177.5 -258t-318.5 -97q-233 0 -387.5 160t-154.5 403z
M459 1374q0 70 47.5 117t116.5 47t116 -47t47 -117t-47 -117t-116 -47t-116.5 47t-47.5 117z" />
    <glyph glyph-name="Ccaron" unicode="&#x10c;" horiz-adv-x="1517" 
d="M86 717q0 162 56 306.5t152.5 248t231 163.5t285.5 60q224 0 396 -118.5t233 -317.5l-295 -74q-50 109 -138 169t-200 60q-174 0 -290 -140t-116 -353q0 -212 115 -346.5t295 -134.5q238 0 348 229l295 -74q-65 -200 -238.5 -318t-404.5 -118q-206 0 -372 98
t-259.5 271.5t-93.5 388.5zM371 1878h291l151 -121l154 121h282l-301 -272h-276z" />
    <glyph glyph-name="ccaron" unicode="&#x10d;" horiz-adv-x="1169" 
d="M616 -31q-233 0 -387.5 160t-154.5 403q0 162 72.5 295t199 209t279.5 76q175 0 306 -97t171 -257l-273 -53q-31 70 -86.5 109.5t-124.5 39.5q-109 0 -180 -90t-71 -227q0 -136 69.5 -223t181.5 -87q74 0 133.5 39.5t88.5 110.5l272 -53q-39 -161 -177.5 -258t-318.5 -97
zM510 1235l-272 293h254l135 -127l137 127h246l-273 -293h-227z" />
    <glyph glyph-name="Dcaron" unicode="&#x10e;" horiz-adv-x="1554" 
d="M133 0v1454h565q227 0 402 -90.5t271.5 -255.5t96.5 -379q0 -160 -56.5 -296t-158 -231t-245.5 -148.5t-314 -53.5h-561zM438 270h242q219 0 346 122.5t127 334.5t-127 334.5t-346 122.5h-242v-914zM586 1606l-301 272h290l152 -121l154 121h282l-301 -272h-276z" />
    <glyph glyph-name="dcaron" unicode="&#x10f;" horiz-adv-x="1390" 
d="M74 535q0 161 67.5 293.5t185 208t259.5 75.5q99 0 182 -39.5t139 -111.5v567h287v-1528h-264l-8 158q-58 -89 -150 -139t-203 -50q-137 0 -251 74.5t-179 204.5t-65 287zM639 854q-117 0 -194.5 -89t-77.5 -224t77.5 -224.5t194.5 -89.5t194.5 89.5t77.5 224.5
t-77.5 224t-194.5 89zM1499 1135h-168l31 393h233z" />
    <glyph glyph-name="Dcroat" unicode="&#x110;" horiz-adv-x="1574" 
d="M154 631h-160v233h160v590h565q227 0 402 -90.5t271.5 -255.5t96.5 -379q0 -160 -56.5 -296t-158 -231t-245.5 -148.5t-314 -53.5h-561v631zM750 631h-291v-361h241q219 0 346.5 122.5t127.5 334.5t-127.5 334.5t-346.5 122.5h-241v-320h291v-233z" />
    <glyph glyph-name="dcroat" unicode="&#x111;" horiz-adv-x="1308" 
d="M74 530q0 157 67 288.5t185 207.5t260 76q100 0 182.5 -39t138.5 -113v244h-317v207h317v127h287v-127h143v-207h-143v-1194h-264l-8 158q-56 -89 -148.5 -139t-204.5 -50q-103 0 -195 43t-157.5 117.5t-104 178.5t-38.5 222zM367 535q0 -132 77.5 -220t194.5 -88
t194.5 88t77.5 220q0 133 -77.5 221t-194.5 88t-194.5 -88t-77.5 -221z" />
    <glyph glyph-name="Emacron" unicode="&#x112;" horiz-adv-x="1175" 
d="M133 0v1454h911v-260h-616v-317h551v-261h-551v-356h637v-260h-932zM961 1616h-746v205h746v-205z" />
    <glyph glyph-name="emacron" unicode="&#x113;" horiz-adv-x="1204" 
d="M627 -31q-242 0 -397.5 161t-155.5 413q0 160 70.5 290.5t194 204.5t273.5 74q238 0 383.5 -157t145.5 -414v-72h-776q19 -122 88.5 -190t175.5 -68q74 0 134.5 34.5t98.5 100.5l256 -82q-55 -135 -189.5 -215t-301.5 -80zM938 1247h-651v193h651v-193zM612 891
q-93 0 -158 -61.5t-85 -167.5h477q-17 106 -79.5 167.5t-154.5 61.5z" />
    <glyph glyph-name="Edotaccent" unicode="&#x116;" horiz-adv-x="1175" 
d="M133 1454h911v-260h-616v-317h551v-261h-551v-356h637v-260h-932v1454zM418 1751q0 71 49 119.5t121 48.5t121 -48.5t49 -119.5t-49 -119.5t-121 -48.5t-121 48.5t-49 119.5z" />
    <glyph glyph-name="edotaccent" unicode="&#x117;" horiz-adv-x="1204" 
d="M627 -31q-242 0 -397.5 161t-155.5 413q0 160 70.5 290.5t194 204.5t273.5 74q238 0 383.5 -157t145.5 -414v-72h-776q19 -122 88.5 -190t175.5 -68q74 0 134.5 34.5t98.5 100.5l256 -82q-55 -135 -189.5 -215t-301.5 -80zM612 1210q-69 0 -116 47t-47 117t47 117t116 47
t116.5 -47t47.5 -117t-47.5 -117t-116.5 -47zM612 891q-93 0 -158 -61.5t-85 -167.5h477q-17 106 -79.5 167.5t-154.5 61.5z" />
    <glyph glyph-name="Eogonek" unicode="&#x118;" horiz-adv-x="1175" 
d="M133 0v1454h911v-260h-616v-317h551v-261h-551v-356h637v-260h2q-178 -131 -178 -205q0 -29 21.5 -46t56.5 -17q49 0 94 18l24 -178q-100 -35 -186 -35q-110 0 -176 51t-66 136q0 135 183 276h-707z" />
    <glyph glyph-name="eogonek" unicode="&#x119;" horiz-adv-x="1204" 
d="M627 -31q-242 0 -397.5 161t-155.5 413q0 160 70.5 290.5t194 204.5t273.5 74q238 0 383.5 -157t145.5 -414v-72h-776q19 -122 88.5 -190t175.5 -68q74 0 134.5 34.5t98.5 100.5l256 -82q-45 -114 -151 -190q-170 -173 -170 -264q0 -37 22.5 -57.5t63.5 -20.5q45 0 86 18
l24 -170q-84 -37 -176 -37q-112 0 -178 52t-66 139q0 117 125 239q-46 -4 -71 -4zM369 662h477q-17 106 -79.5 167.5t-154.5 61.5q-93 0 -158 -61.5t-85 -167.5z" />
    <glyph glyph-name="Ecaron" unicode="&#x11a;" horiz-adv-x="1175" 
d="M133 1454h911v-260h-616v-317h551v-261h-551v-356h637v-260h-932v1454zM150 1878h290l152 -121l153 121h283l-301 -272h-276z" />
    <glyph glyph-name="ecaron" unicode="&#x11b;" horiz-adv-x="1204" 
d="M627 -31q-242 0 -397.5 161t-155.5 413q0 160 70.5 290.5t194 204.5t273.5 74q238 0 383.5 -157t145.5 -414v-72h-776q19 -122 88.5 -190t175.5 -68q74 0 134.5 34.5t98.5 100.5l256 -82q-55 -135 -189.5 -215t-301.5 -80zM500 1235l-273 293h254l135 -127l138 127h245
l-272 -293h-227zM369 662h477q-17 106 -79.5 167.5t-154.5 61.5q-93 0 -158 -61.5t-85 -167.5z" />
    <glyph glyph-name="Gbreve" unicode="&#x11e;" horiz-adv-x="1626" 
d="M86 723q0 163 58 306.5t158 245.5t240 161t298 59q218 0 389 -105t250 -290l-295 -90q-115 204 -344 204q-189 0 -314 -138t-125 -347q0 -215 126 -352t323 -137q156 0 260 85.5t123 225.5h-363v252h676v-154q0 -201 -90 -358t-251.5 -244.5t-368.5 -87.5q-159 0 -298 58
t-238.5 158.5t-156.5 242.5t-57 305zM473 1892h225q13 -56 54.5 -88t99.5 -32t99.5 32t54.5 88h225q-22 -136 -126 -216.5t-253 -80.5t-253 80.5t-126 216.5z" />
    <glyph glyph-name="gbreve" unicode="&#x11f;" horiz-adv-x="1288" 
d="M74 565q0 152 66 277.5t181 197.5t254 72q104 0 188 -42t140 -122l6 133h265v-952q0 -250 -153 -403.5t-400 -153.5q-176 0 -305.5 81t-192.5 220l274 68q37 -61 96 -94t132 -33q118 0 190 78.5t72 207.5v88q-56 -74 -141 -115.5t-187 -41.5q-205 0 -345 154t-140 380z
M367 571q0 -122 75 -204t187 -82t187 82t75 204t-75 204.5t-187 82.5t-187 -82.5t-75 -204.5zM252 1511h225q25 -104 144 -104q115 0 143 104h225q-50 -276 -368 -276q-319 0 -369 276z" />
    <glyph glyph-name="Gdotaccent" unicode="&#x120;" horiz-adv-x="1626" 
d="M86 723q0 163 58 306.5t158 245.5t240 161t298 59q218 0 389 -105t250 -290l-295 -90q-115 204 -344 204q-189 0 -314 -138t-125 -347q0 -215 126 -352t323 -137q156 0 260 85.5t123 225.5h-363v252h676v-154q0 -201 -90 -358t-251.5 -244.5t-368.5 -87.5q-159 0 -298 58
t-238.5 158.5t-156.5 242.5t-57 305zM852 1583q-72 0 -121 48.5t-49 119.5t49 119.5t121 48.5t121 -48.5t49 -119.5t-49 -119.5t-121 -48.5z" />
    <glyph glyph-name="gdotaccent" unicode="&#x121;" horiz-adv-x="1288" 
d="M559 31q-205 0 -345 154t-140 380q0 152 66 277.5t181 197.5t254 72q104 0 188 -42t140 -122l6 133h265v-952q0 -250 -153 -403.5t-400 -153.5q-176 0 -305.5 81t-192.5 220l274 68q37 -61 96 -94t132 -33q118 0 190 78.5t72 207.5v88q-56 -74 -141 -115.5t-187 -41.5z
M367 571q0 -122 75 -204t187 -82t187 82t75 204t-75 204.5t-187 82.5t-187 -82.5t-75 -204.5zM457 1374q0 70 47.5 117t116.5 47t116 -47t47 -117t-47 -117t-116 -47t-116.5 47t-47.5 117z" />
    <glyph glyph-name="uni0122" unicode="&#x122;" horiz-adv-x="1626" 
d="M86 723q0 163 58 306.5t158 245.5t240 161t298 59q218 0 389 -105t250 -290l-295 -90q-115 204 -344 204q-189 0 -314 -138t-125 -347q0 -215 126 -352t323 -137q156 0 260 85.5t123 225.5h-363v252h676v-154q0 -201 -90 -358t-251.5 -244.5t-368.5 -87.5q-159 0 -298 58
t-238.5 158.5t-156.5 242.5t-57 305zM694 -248q0 54 40.5 88.5t101.5 34.5q72 0 118.5 -50.5t46.5 -125.5q0 -91 -60 -163.5t-165 -104.5l-47 116q101 40 117 101q-13 -8 -39 -8q-47 0 -80 32.5t-33 79.5z" />
    <glyph glyph-name="uni0123" unicode="&#x123;" horiz-adv-x="1288" 
d="M559 31q-205 0 -345 154t-140 380q0 152 66 277.5t181 197.5t254 72q104 0 188 -42t140 -122l6 133h265v-952q0 -250 -153 -403.5t-400 -153.5q-176 0 -305.5 81t-192.5 220l274 68q37 -61 96 -94t132 -33q118 0 190 78.5t72 207.5v88q-56 -74 -141 -115.5t-187 -41.5z
M367 571q0 -122 75 -204t187 -82t187 82t75 204t-75 204.5t-187 82.5t-187 -82.5t-75 -204.5zM635 1190q-70 0 -116 49.5t-46 124.5q0 91 57 160t160 104l47 -117q-90 -36 -112 -100q13 8 37 8q45 0 76.5 -31.5t31.5 -78.5q0 -51 -38 -85t-97 -34z" />
    <glyph glyph-name="Hbar" unicode="&#x126;" horiz-adv-x="1562" 
d="M-6 1075v209h160v170h305v-170h643v170h305v-170h162v-209h-162v-1075h-305v596h-643v-596h-305v1075h-160zM459 866h643v209h-643v-209z" />
    <glyph glyph-name="hbar" unicode="&#x127;" 
d="M-29 1393h144v135h286v-135h275v-189h-275v-252q51 71 129.5 110.5t176.5 39.5q179 0 287 -126.5t108 -336.5v-639h-287v600q0 113 -51 177.5t-141 64.5q-97 0 -159.5 -65.5t-62.5 -168.5v-608h-286v1204h-144v189z" />
    <glyph glyph-name="Itilde" unicode="&#x128;" horiz-adv-x="571" 
d="M133 1454h305v-1454h-305v1454zM-66 1606q13 127 72 198.5t150 71.5q50 0 93.5 -19.5t75.5 -39t54 -19.5q26 0 40.5 15.5t20.5 52.5h201q-14 -128 -72 -199.5t-149 -71.5q-50 0 -93.5 19.5t-75.5 39t-54 19.5q-26 0 -41 -15t-21 -52h-201z" />
    <glyph glyph-name="itilde" unicode="&#x129;" horiz-adv-x="516" 
d="M115 0v1081h286v-1081h-286zM102 1241h-200q13 127 71.5 198.5t149.5 71.5q50 0 93.5 -19.5t75.5 -38.5t54 -19q26 0 41 15t21 52h200q-13 -127 -71.5 -198.5t-149.5 -71.5q-50 0 -93.5 19.5t-75.5 39t-54 19.5q-26 0 -41 -15.5t-21 -52.5z" />
    <glyph glyph-name="Imacron" unicode="&#x12a;" horiz-adv-x="571" 
d="M133 0v1454h305v-1454h-305zM-88 1616v205h745v-205h-745z" />
    <glyph glyph-name="imacron" unicode="&#x12b;" horiz-adv-x="516" 
d="M115 0v1081h286v-1081h-286zM-70 1247v193h652v-193h-652z" />
    <glyph glyph-name="Iogonek" unicode="&#x12e;" horiz-adv-x="571" 
d="M270 -463q-110 0 -175.5 51t-65.5 136q0 136 182 276h-78v1454h305v-1454q-178 -131 -178 -205q0 -29 21.5 -46t56.5 -17q49 0 94 18l25 -178q-100 -35 -187 -35z" />
    <glyph glyph-name="iogonek" unicode="&#x12f;" horiz-adv-x="516" 
d="M238 -457q-109 0 -173.5 50t-64.5 135q0 132 182 272h-67v1081h286v-1081q-178 -131 -178 -205q0 -29 21.5 -46t56.5 -17q53 0 94 18l25 -170q-84 -37 -182 -37zM94 1405q0 68 47 114t115 46q71 0 118.5 -45.5t47.5 -114.5q0 -67 -47.5 -112.5t-118.5 -45.5
q-68 0 -115 45.5t-47 112.5z" />
    <glyph glyph-name="Idotaccent" unicode="&#x130;" horiz-adv-x="571" 
d="M133 1454h305v-1454h-305v1454zM115 1751q0 71 49 119.5t121 48.5t121 -48.5t49 -119.5t-49 -119.5t-121 -48.5t-121 48.5t-49 119.5z" />
    <glyph glyph-name="dotlessi" unicode="&#x131;" horiz-adv-x="516" 
d="M115 0v1081h286v-1081h-286z" />
    <glyph glyph-name="IJ" unicode="&#x132;" horiz-adv-x="1429" 
d="M117 387l293 53q41 -97 116.5 -148.5t175.5 -51.5q141 0 225.5 97t84.5 261v856h305v-858q0 -289 -164 -463t-436 -174q-222 0 -382 113t-218 315zM113 629v825h305v-825h-305z" />
    <glyph glyph-name="ij" unicode="&#x133;" 
d="M512 31q-182 0 -289.5 125t-107.5 338v587h286v-549q0 -115 51 -178t142 -63q96 0 158.5 66.5t62.5 166.5v557h287v-981q0 -237 -141.5 -382.5t-370.5 -145.5q-159 0 -282.5 77t-182.5 212l264 69q32 -55 84.5 -85.5t112.5 -30.5q103 0 166 71t63 189v106
q-51 -70 -129 -109.5t-174 -39.5zM795 1374q0 70 47 117t116 47t116.5 -47t47.5 -117t-47.5 -117t-116.5 -47t-116 47t-47 117zM258 1210q-69 0 -116.5 47t-47.5 117t47.5 117t116.5 47t116.5 -47t47.5 -117t-47.5 -117t-116.5 -47z" />
    <glyph glyph-name="uni0136" unicode="&#x136;" horiz-adv-x="1425" 
d="M133 0v1454h305v-645l539 645h356l-581 -678l655 -776h-395l-574 705v-705h-305zM668 -360q-47 0 -80 32.5t-33 79.5q0 54 40.5 88.5t100.5 34.5q72 0 119 -50.5t47 -125.5q0 -91 -60 -163.5t-165 -104.5l-47 116q101 40 117 101q-13 -8 -39 -8z" />
    <glyph glyph-name="uni0137" unicode="&#x137;" horiz-adv-x="1189" 
d="M115 1528h280v-887l402 440h336l-451 -479l500 -602h-363l-424 539v-539h-280v1528zM446 -227q0 51 39.5 84.5t96.5 33.5q70 0 115.5 -49.5t45.5 -124.5q0 -90 -58 -159t-159 -105l-47 117q91 37 113 100q-13 -8 -37 -8q-47 0 -78 32t-31 79z" />
    <glyph glyph-name="kgreenlandic" unicode="&#x138;" horiz-adv-x="1189" 
d="M115 0v1081h280v-458l402 458h336l-451 -495l500 -586h-363l-424 520v-520h-280z" />
    <glyph glyph-name="Lacute" unicode="&#x139;" horiz-adv-x="1114" 
d="M133 0v1454h305v-1184h594v-270h-899zM53 1606l283 272h360l-346 -272h-297z" />
    <glyph glyph-name="lacute" unicode="&#x13a;" horiz-adv-x="516" 
d="M115 0v1528h286v-1528h-286zM573 1946l-243 -293h-264l190 293h317z" />
    <glyph glyph-name="uni013B" unicode="&#x13b;" horiz-adv-x="1114" 
d="M1032 0h-899v1454h305v-1184h594v-270zM541 -360q-47 0 -80 32.5t-33 79.5q0 54 40.5 88.5t100.5 34.5q72 0 119 -50.5t47 -125.5q0 -91 -60 -163.5t-165 -104.5l-47 116q101 40 117 101q-13 -8 -39 -8z" />
    <glyph glyph-name="uni013C" unicode="&#x13c;" horiz-adv-x="516" 
d="M115 0v1528h286v-1528h-286zM109 -227q0 51 39 84.5t96 33.5q70 0 116 -49.5t46 -124.5q0 -90 -58.5 -159t-159.5 -105l-47 117q91 37 113 100q-13 -8 -37 -8q-47 0 -77.5 31.5t-30.5 79.5z" />
    <glyph glyph-name="Lcaron" unicode="&#x13d;" horiz-adv-x="1114" 
d="M133 0v1454h305v-1184h594v-270h-899zM575 1135l31 393h234l-97 -393h-168z" />
    <glyph glyph-name="lcaron" unicode="&#x13e;" horiz-adv-x="598" 
d="M115 1528h286v-1528h-286v1528zM707 1135h-168l30 393h234z" />
    <glyph glyph-name="Lslash" unicode="&#x141;" horiz-adv-x="1134" 
d="M-6 324v272l160 117v741h305v-518l254 184v-272l-254 -184v-394h594v-270h-899v440z" />
    <glyph glyph-name="lslash" unicode="&#x142;" horiz-adv-x="604" 
d="M12 420v246l148 110v752h286v-537l146 109v-246l-146 -109v-745h-286v530z" />
    <glyph glyph-name="Nacute" unicode="&#x143;" horiz-adv-x="1499" 
d="M133 0v1454h264l674 -962v962h295v-1454h-264l-674 963v-963h-295zM815 1606h-297l283 272h360z" />
    <glyph glyph-name="nacute" unicode="&#x144;" 
d="M401 0h-286v1081h264l8 -139q48 79 132 124.5t188 45.5q179 0 287 -125t108 -338v-649h-287v612q0 113 -51 177.5t-141 64.5q-97 0 -159.5 -65.5t-62.5 -167.5v-621zM418 1235l190 293h318l-244 -293h-264z" />
    <glyph glyph-name="uni0145" unicode="&#x145;" horiz-adv-x="1499" 
d="M133 0v1454h264l674 -962v962h295v-1454h-264l-674 963v-963h-295zM596 -248q0 54 40.5 88.5t100.5 34.5q72 0 119 -50.5t47 -125.5q0 -91 -60 -163.5t-165 -104.5l-47 116q101 40 117 101q-13 -8 -39 -8q-47 0 -80 32.5t-33 79.5z" />
    <glyph glyph-name="uni0146" unicode="&#x146;" 
d="M401 0h-286v1081h264l8 -139q48 79 132 124.5t188 45.5q179 0 287 -125t108 -338v-649h-287v612q0 113 -51 177.5t-141 64.5q-97 0 -159.5 -65.5t-62.5 -167.5v-621zM569 -338q-47 0 -77.5 31.5t-30.5 79.5q0 51 39 84.5t96 33.5q70 0 116 -49.5t46 -124.5
q0 -90 -58 -159t-159 -105l-47 117q90 36 112 100q-13 -8 -37 -8z" />
    <glyph glyph-name="Ncaron" unicode="&#x147;" horiz-adv-x="1499" 
d="M133 1454h264l674 -962v962h295v-1454h-264l-674 963v-963h-295v1454zM311 1878h291l152 -121l153 121h283l-301 -272h-277z" />
    <glyph glyph-name="ncaron" unicode="&#x148;" 
d="M115 1081h264l8 -139q48 79 132 124.5t188 45.5q179 0 287 -125t108 -338v-649h-287v612q0 113 -51 177.5t-141 64.5q-97 0 -159.5 -65.5t-62.5 -167.5v-621h-286v1081zM496 1235l-273 293h254l135 -127l138 127h245l-272 -293h-227z" />
    <glyph glyph-name="Eng" unicode="&#x14a;" horiz-adv-x="1499" 
d="M133 1454h264l674 -962v962h295v-1448q0 -197 -113.5 -315.5t-294.5 -118.5q-143 0 -260 76l74 221q66 -39 143 -39q69 0 112.5 47t43.5 127v39l-643 920v-963h-295v1454z" />
    <glyph glyph-name="eng" unicode="&#x14b;" 
d="M115 1081h264l8 -139q48 79 132 124.5t188 45.5q179 0 287 -125t108 -338v-688q0 -170 -97 -274.5t-255 -104.5q-112 0 -199 49l57 222q58 -23 92 -23q54 0 84.5 39t30.5 111v630q0 115 -50.5 178.5t-141.5 63.5q-96 0 -159 -67t-63 -167v-618h-286v1081z" />
    <glyph glyph-name="Ohungarumlaut" unicode="&#x150;" horiz-adv-x="1679" 
d="M86 725q0 217 98 393.5t271 276.5t387 100q160 0 299.5 -58t238.5 -159.5t156 -243.5t57 -305t-57.5 -305.5t-157 -244.5t-240 -161t-300.5 -59q-213 0 -385 99t-269.5 274.5t-97.5 392.5zM401 727q0 -213 124 -350t315 -137t314.5 137t123.5 350t-123.5 350t-314.5 137
t-315 -137t-124 -350zM1141 1606h-269l277 272h332zM676 1606h-268l276 272h332z" />
    <glyph glyph-name="ohungarumlaut" unicode="&#x151;" horiz-adv-x="1277" 
d="M74 541q0 161 74 291.5t204 205t291 74.5q159 0 287.5 -74t201 -204t72.5 -291q0 -246 -162.5 -410t-406.5 -164q-241 0 -401 163t-160 409zM639 854q-117 0 -194.5 -89t-77.5 -224t77.5 -224.5t194.5 -89.5t194.5 89.5t77.5 224.5t-77.5 224t-194.5 89zM911 1235h-221
l199 293h270zM532 1235h-221l199 293h270z" />
    <glyph glyph-name="OE" unicode="&#x152;" horiz-adv-x="2107" 
d="M86 725q0 160 56.5 296t158 231t245.5 148.5t314 53.5h1116v-260h-596v-317h531v-261h-531v-356h617v-260h-1141q-227 0 -402 90.5t-271.5 255.5t-96.5 379zM874 1184q-219 0 -346 -122.5t-127 -334.5t127 -334.5t346 -122.5h211v914h-211z" />
    <glyph glyph-name="oe" unicode="&#x153;" horiz-adv-x="2007" 
d="M621 -31q-151 0 -276.5 74.5t-198 205.5t-72.5 290q0 121 43 227.5t117 182t175.5 119.5t215.5 44q125 0 227.5 -53t171.5 -148q74 96 179 148.5t233 52.5q223 0 365.5 -158t142.5 -413v-72h-756q19 -122 85.5 -190t168.5 -68q145 0 223 135l256 -82
q-55 -135 -186.5 -215t-290.5 -80q-134 0 -243.5 53t-178.5 150q-70 -95 -174.5 -149t-226.5 -54zM367 541q0 -135 74.5 -224.5t187.5 -89.5t187.5 89.5t74.5 224.5t-74.5 224t-187.5 89t-187.5 -89t-74.5 -224zM1192 662h457q-17 107 -75.5 168t-148.5 61t-151.5 -61
t-81.5 -168z" />
    <glyph glyph-name="Racute" unicode="&#x154;" horiz-adv-x="1292" 
d="M133 0v1454h467q267 0 422.5 -125t155.5 -342q0 -125 -67.5 -234t-182.5 -169l329 -584h-335l-260 504q-27 -2 -84 -2q-68 0 -144 12v-514h-301zM594 1196h-160v-428q77 -12 160 -12q130 0 202 58.5t72 162.5t-72 161.5t-202 57.5zM358 1606l283 272h360l-346 -272h-297z
" />
    <glyph glyph-name="racute" unicode="&#x155;" horiz-adv-x="813" 
d="M115 0v1081h264l10 -163q85 178 275 178q49 0 108 -19l-31 -282q-43 14 -94 14q-118 0 -182 -72.5t-64 -206.5v-530h-286zM256 1235l190 293h318l-244 -293h-264z" />
    <glyph glyph-name="Rcaron" unicode="&#x158;" horiz-adv-x="1292" 
d="M133 0v1454h467q267 0 422.5 -125t155.5 -342q0 -125 -67.5 -234t-182.5 -169l329 -584h-335l-260 504q-27 -2 -84 -2q-68 0 -144 12v-514h-301zM434 1196v-428q77 -12 160 -12q130 0 202 58.5t72 162.5t-72 161.5t-202 57.5h-160zM453 1606l-301 272h290l152 -121
l154 121h282l-301 -272h-276z" />
    <glyph glyph-name="rcaron" unicode="&#x159;" horiz-adv-x="813" 
d="M115 0v1081h264l10 -163q85 178 275 178q49 0 108 -19l-31 -282q-43 14 -94 14q-118 0 -182 -72.5t-64 -206.5v-530h-286zM334 1235l-273 293h254l136 -127l137 127h246l-273 -293h-227z" />
    <glyph glyph-name="Sacute" unicode="&#x15a;" horiz-adv-x="1173" 
d="M582 -31q-197 0 -344 103t-189 278l285 62q26 -85 93 -132t159 -47q98 0 159.5 51.5t61.5 131.5q0 68 -51.5 110.5t-165.5 67.5l-66 14q-438 96 -438 426q0 194 145.5 322.5t360.5 128.5q184 0 323 -102t175 -271l-281 -61q-24 81 -84.5 125.5t-140.5 44.5
q-83 0 -139 -47.5t-56 -118.5q0 -69 52.5 -107.5t166.5 -64.5l66 -15q222 -49 330 -155.5t108 -272.5q0 -137 -69 -245t-190 -167t-271 -59zM655 1606h-297l283 272h360z" />
    <glyph glyph-name="sacute" unicode="&#x15b;" horiz-adv-x="1005" 
d="M504 -31q-171 0 -294.5 81.5t-160.5 219.5l258 56q20 -63 74 -100.5t127 -37.5q70 0 115 31t45 84q0 45 -40.5 74.5t-131.5 46.5l-58 10q-177 32 -267.5 115.5t-90.5 212.5q0 154 117 252t301 98q163 0 278.5 -79.5t149.5 -215.5l-256 -53q-20 62 -66.5 96.5t-107.5 34.5
q-63 0 -104.5 -31t-41.5 -78q0 -42 40.5 -68.5t135.5 -43.5l58 -10q173 -31 265.5 -116.5t92.5 -215.5q0 -158 -123 -260.5t-315 -102.5zM307 1235l191 293h317l-244 -293h-264z" />
    <glyph glyph-name="Scedilla" unicode="&#x15e;" horiz-adv-x="1173" 
d="M49 350l285 62q26 -85 93 -132t159 -47q98 0 159.5 51.5t61.5 131.5q0 68 -51.5 110.5t-165.5 67.5l-66 14q-438 96 -438 426q0 194 145.5 322.5t360.5 128.5q184 0 323 -102t175 -271l-281 -61q-24 81 -84.5 125.5t-140.5 44.5q-83 0 -139 -47.5t-56 -118.5
q0 -69 52.5 -107.5t166.5 -64.5l66 -15q222 -49 330 -155.5t108 -272.5q0 -184 -120.5 -310.5t-313.5 -154.5l-23 -71q63 -20 102.5 -69.5t39.5 -110.5q0 -94 -79.5 -152.5t-207.5 -58.5q-99 0 -178 32l30 158q56 -20 109 -20q43 0 67.5 17t24.5 46q0 32 -33 50t-96 18
l58 161q-167 24 -286 123t-157 252z" />
    <glyph glyph-name="scedilla" unicode="&#x15f;" horiz-adv-x="1005" 
d="M49 270l258 56q20 -63 74 -100.5t127 -37.5q70 0 115 31t45 84q0 45 -40.5 74.5t-131.5 46.5l-58 10q-177 32 -267.5 115.5t-90.5 212.5q0 154 117 252t301 98q163 0 278.5 -79.5t149.5 -215.5l-256 -53q-20 62 -66.5 96.5t-107.5 34.5q-63 0 -104.5 -31t-41.5 -78
q0 -42 40.5 -68.5t135.5 -43.5l58 -10q173 -31 265.5 -116.5t92.5 -215.5q0 -139 -96.5 -236.5t-255.5 -120.5l-19 -59q66 -20 104 -66.5t38 -107.5q0 -92 -79 -148.5t-204 -56.5q-86 0 -168 31l29 151q59 -20 106 -20q42 0 67 17t25 46q0 68 -129 68l52 145
q-138 22 -234.5 99.5t-128.5 195.5z" />
    <glyph glyph-name="Scaron" unicode="&#x160;" horiz-adv-x="1173" 
d="M49 350l285 62q26 -85 93 -132t159 -47q98 0 159.5 51.5t61.5 131.5q0 68 -51.5 110.5t-165.5 67.5l-66 14q-438 96 -438 426q0 194 145.5 322.5t360.5 128.5q184 0 323 -102t175 -271l-281 -61q-24 81 -84.5 125.5t-140.5 44.5q-83 0 -139 -47.5t-56 -118.5
q0 -69 52.5 -107.5t166.5 -64.5l66 -15q222 -49 330 -155.5t108 -272.5q0 -137 -69 -245t-190 -167t-271 -59q-197 0 -344 103t-189 278zM152 1878h290l152 -121l154 121h282l-301 -272h-276z" />
    <glyph glyph-name="scaron" unicode="&#x161;" horiz-adv-x="1005" 
d="M49 270l258 56q20 -63 74 -100.5t127 -37.5q70 0 115 31t45 84q0 45 -40.5 74.5t-131.5 46.5l-58 10q-177 32 -267.5 115.5t-90.5 212.5q0 154 117 252t301 98q163 0 278.5 -79.5t149.5 -215.5l-256 -53q-20 62 -66.5 96.5t-107.5 34.5q-63 0 -104.5 -31t-41.5 -78
q0 -42 40.5 -68.5t135.5 -43.5l58 -10q173 -31 265.5 -116.5t92.5 -215.5q0 -158 -123 -260.5t-315 -102.5q-171 0 -294.5 81.5t-160.5 219.5zM113 1528h254l135 -127l137 127h246l-273 -293h-227z" />
    <glyph glyph-name="Tcaron" unicode="&#x164;" horiz-adv-x="1292" 
d="M84 1454h1124v-270h-409v-1184h-305v1184h-410v270zM508 1606l-301 272h291l151 -121l154 121h282l-301 -272h-276z" />
    <glyph glyph-name="tcaron" unicode="&#x165;" horiz-adv-x="897" 
d="M37 850v231h184v369h287v-369h295v-231h-295v-469q0 -162 133 -162q73 0 152 37l51 -215q-121 -72 -260 -72q-169 0 -266 98.5t-97 278.5v504h-184zM834 1214h-168l24 314h234z" />
    <glyph glyph-name="Tbar" unicode="&#x166;" horiz-adv-x="1292" 
d="M84 1184v270h1124v-270h-409v-398h252v-233h-252v-553h-305v553h-252v233h252v398h-410z" />
    <glyph glyph-name="tbar" unicode="&#x167;" horiz-adv-x="897" 
d="M37 850v231h184v369h287v-369h295v-231h-295v-188h274v-189h-274v-92q0 -162 133 -162q73 0 152 37l51 -215q-121 -72 -260 -72q-169 0 -266 98.5t-97 278.5v127h-164v189h164v188h-184z" />
    <glyph glyph-name="Utilde" unicode="&#x168;" horiz-adv-x="1478" 
d="M113 1454h305v-852q0 -168 86 -265t235 -97q147 0 234.5 97.5t87.5 264.5v852h305v-866q0 -286 -171.5 -457.5t-457.5 -171.5q-285 0 -454.5 171.5t-169.5 457.5v866zM389 1606q13 127 71.5 198.5t149.5 71.5q50 0 94 -19.5t76 -39t54 -19.5q26 0 40.5 15.5t20.5 52.5
h201q-13 -127 -72 -199t-150 -72q-50 0 -93.5 19.5t-75.5 39t-54 19.5q-26 0 -40.5 -15t-20.5 -52h-201z" />
    <glyph glyph-name="utilde" unicode="&#x169;" horiz-adv-x="1212" 
d="M115 1081h286v-604q0 -116 55.5 -183t149.5 -67t149.5 67t55.5 183v604h287v-598q0 -232 -135.5 -373t-360.5 -141q-222 0 -354.5 139t-132.5 375v598zM250 1241q13 127 71.5 198.5t149.5 71.5q50 0 93.5 -19.5t75.5 -38.5t54 -19q26 0 41 15t21 52h200
q-13 -127 -71.5 -198.5t-149.5 -71.5q-50 0 -93.5 19.5t-75.5 39t-54 19.5q-26 0 -40.5 -15.5t-20.5 -52.5h-201z" />
    <glyph glyph-name="Umacron" unicode="&#x16a;" horiz-adv-x="1478" 
d="M113 1454h305v-852q0 -168 86 -265t235 -97q147 0 234.5 97.5t87.5 264.5v852h305v-866q0 -286 -171.5 -457.5t-457.5 -171.5q-285 0 -454.5 171.5t-169.5 457.5v866zM1112 1616h-745v205h745v-205z" />
    <glyph glyph-name="umacron" unicode="&#x16b;" horiz-adv-x="1212" 
d="M115 1081h286v-604q0 -116 55.5 -183t149.5 -67t149.5 67t55.5 183v604h287v-598q0 -232 -135.5 -373t-360.5 -141q-222 0 -354.5 139t-132.5 375v598zM930 1247h-651v193h651v-193z" />
    <glyph glyph-name="Uring" unicode="&#x16e;" horiz-adv-x="1478" 
d="M737 -41q-285 0 -454.5 171.5t-169.5 457.5v866h305v-852q0 -168 86 -265t235 -97q147 0 234.5 97.5t87.5 264.5v852h305v-866q0 -286 -171.5 -457.5t-457.5 -171.5zM739 1538q-101 0 -170 66.5t-69 162.5t69 163t170 67t170.5 -67t69.5 -163t-69.5 -162.5t-170.5 -66.5z
M651 1767q0 -38 26 -64t62 -26t62 26t26 64t-26 64.5t-62 26.5t-62 -26.5t-26 -64.5z" />
    <glyph glyph-name="uring" unicode="&#x16f;" horiz-adv-x="1212" 
d="M602 -31q-222 0 -354.5 139t-132.5 375v598h286v-604q0 -116 55.5 -183t149.5 -67t149.5 67t55.5 183v604h287v-598q0 -232 -135.5 -373t-360.5 -141zM371 1403q0 94 67.5 158.5t165.5 64.5t166 -64.5t68 -158.5t-68 -158.5t-166 -64.5t-165.5 64.5t-67.5 158.5z
M514 1403q0 -38 26.5 -65t63.5 -27t63.5 27t26.5 65t-26.5 65t-63.5 27t-63.5 -27t-26.5 -65z" />
    <glyph glyph-name="Uhungarumlaut" unicode="&#x170;" horiz-adv-x="1478" 
d="M737 -41q-285 0 -454.5 171.5t-169.5 457.5v866h305v-852q0 -168 86 -265t235 -97q147 0 234.5 97.5t87.5 264.5v852h305v-866q0 -286 -171.5 -457.5t-457.5 -171.5zM772 1606l277 272h331l-340 -272h-268zM575 1606h-268l277 272h331z" />
    <glyph glyph-name="uhungarumlaut" unicode="&#x171;" horiz-adv-x="1212" 
d="M602 -31q-222 0 -354.5 139t-132.5 375v598h286v-604q0 -116 55.5 -183t149.5 -67t149.5 67t55.5 183v604h287v-598q0 -232 -135.5 -373t-360.5 -141zM877 1235h-222l199 293h270zM498 1235h-222l199 293h270z" />
    <glyph glyph-name="Uogonek" unicode="&#x172;" horiz-adv-x="1478" 
d="M113 1454h305v-852q0 -168 86 -265t235 -97q147 0 234.5 97.5t87.5 264.5v852h305v-866q0 -163 -58.5 -292.5t-166.5 -211.5q-172 -178 -172 -274q0 -35 21.5 -56.5t58.5 -21.5q47 0 92 18l24 -178q-96 -35 -184 -35q-112 0 -178 53.5t-66 141.5q0 113 119 235
q-52 -8 -119 -8q-285 0 -454.5 171.5t-169.5 457.5v866z" />
    <glyph glyph-name="uogonek" unicode="&#x173;" horiz-adv-x="1212" 
d="M602 -31q-222 0 -354.5 139t-132.5 375v598h286v-604q0 -116 55.5 -183t149.5 -67t149.5 67t55.5 183v604h287v-598q0 -131 -44.5 -235t-127.5 -172q-172 -175 -172 -266q0 -37 22.5 -57.5t63.5 -20.5q45 0 86 18l24 -170q-84 -37 -176 -37q-112 0 -178 52t-66 139
q0 114 123 237q-16 -2 -51 -2z" />
    <glyph glyph-name="Wcircumflex" unicode="&#x174;" horiz-adv-x="2138" 
d="M59 1454h320l266 -1051l289 1051h280l289 -1051l264 1051h312l-428 -1454h-295l-285 1042l-285 -1042h-299zM913 1606h-282l301 272h276l301 -272h-290l-152 120z" />
    <glyph glyph-name="wcircumflex" unicode="&#x175;" horiz-adv-x="1720" 
d="M381 0l-358 1081h294l203 -731l219 731h248l219 -733l207 733h285l-359 -1081h-264l-217 731l-217 -731h-260zM729 1235h-250l248 293h268l248 -293h-258l-127 123z" />
    <glyph glyph-name="Ycircumflex" unicode="&#x176;" horiz-adv-x="1366" 
d="M23 1454h339l326 -612l324 612h331l-507 -889v-565h-306v565zM526 1606h-282l301 272h276l301 -272h-291l-151 120z" />
    <glyph glyph-name="ycircumflex" unicode="&#x177;" horiz-adv-x="1148" 
d="M23 1081h313l256 -766l231 766h303l-444 -1183q-61 -163 -156 -239.5t-231 -76.5q-116 0 -197 47l56 226q55 -25 110 -25q123 0 176 133l19 47zM442 1235h-249l247 293h269l247 -293h-258l-127 123z" />
    <glyph glyph-name="Ydieresis" unicode="&#x178;" horiz-adv-x="1366" 
d="M530 565l-507 889h339l326 -612l324 612h331l-507 -889v-565h-306v565zM770 1739q0 63 47 109t113 46t113 -46t47 -109t-47 -109.5t-113 -46.5t-113 46.5t-47 109.5zM434 1583q-66 0 -113 46.5t-47 109.5t47 109t113 46t113 -46t47 -109t-47 -109.5t-113 -46.5z" />
    <glyph glyph-name="Zacute" unicode="&#x179;" horiz-adv-x="1310" 
d="M76 0v217l739 979h-709v258h1090v-217l-739 -979h784v-258h-1165zM420 1606l282 272h361l-346 -272h-297z" />
    <glyph glyph-name="zacute" unicode="&#x17a;" horiz-adv-x="1075" 
d="M80 0v190l524 660h-510v231h867v-190l-527 -660h561v-231h-915zM844 1528l-244 -293h-264l190 293h318z" />
    <glyph glyph-name="Zdotaccent" unicode="&#x17b;" horiz-adv-x="1310" 
d="M76 0v217l739 979h-709v258h1090v-217l-739 -979h784v-258h-1165zM481 1751q0 71 49 119.5t121 48.5t121 -48.5t49 -119.5t-49 -119.5t-121 -48.5t-121 48.5t-49 119.5z" />
    <glyph glyph-name="zdotaccent" unicode="&#x17c;" horiz-adv-x="1075" 
d="M80 190l524 660h-510v231h867v-190l-527 -660h561v-231h-915v190zM526 1210q-69 0 -116.5 47t-47.5 117t47.5 117t116.5 47t116.5 -47t47.5 -117t-47.5 -117t-116.5 -47z" />
    <glyph glyph-name="Zcaron" unicode="&#x17d;" horiz-adv-x="1310" 
d="M76 0v217l739 979h-709v258h1090v-217l-739 -979h784v-258h-1165zM213 1878h291l151 -121l154 121h283l-301 -272h-277z" />
    <glyph glyph-name="zcaron" unicode="&#x17e;" horiz-adv-x="1075" 
d="M80 0v190l524 660h-510v231h867v-190l-527 -660h561v-231h-915zM414 1235l-273 293h254l135 -127l138 127h245l-272 -293h-227z" />
    <glyph glyph-name="Ohorn" unicode="&#x1a0;" horiz-adv-x="1679" 
d="M86 725q0 217 98 393.5t271 276.5t387 100q92 0 186 -20.5t135 -20.5q88 0 123 44t35 147h242q0 -133 -49.5 -219t-163.5 -121q116 -104 179.5 -252.5t63.5 -323.5q0 -163 -57.5 -305.5t-157 -244.5t-240 -161t-300.5 -59q-213 0 -385 99t-269.5 274.5t-97.5 392.5z
M401 727q0 -213 124 -350t315 -137t314.5 137t123.5 350t-123.5 350t-314.5 137t-315 -137t-124 -350z" />
    <glyph glyph-name="ohorn" unicode="&#x1a1;" horiz-adv-x="1277" 
d="M74 541q0 161 74 291.5t204 205t291 74.5q68 0 135.5 -15.5t100.5 -15.5q88 0 122.5 44t34.5 147h242q0 -276 -217 -342q143 -159 143 -387q0 -246 -162.5 -410t-406.5 -164q-241 0 -401 163t-160 409zM367 541q0 -135 77.5 -224.5t194.5 -89.5t194.5 89.5t77.5 224.5
t-77.5 224t-194.5 89t-194.5 -89t-77.5 -224z" />
    <glyph glyph-name="Uhorn" unicode="&#x1af;" horiz-adv-x="1478" 
d="M737 -41q-285 0 -454.5 171.5t-169.5 457.5v866h305v-852q0 -168 86 -265t235 -97q147 0 234.5 97.5t87.5 264.5v852h127q88 0 123 44t35 147h241q0 -279 -221 -345v-712q0 -286 -171.5 -457.5t-457.5 -171.5z" />
    <glyph glyph-name="uhorn" unicode="&#x1b0;" horiz-adv-x="1212" 
d="M602 -31q-222 0 -354.5 139t-132.5 375v598h286v-604q0 -116 55.5 -183t149.5 -67t149.5 67t55.5 183v604h125q78 3 109.5 47.5t31.5 143.5h242q0 -135 -51.5 -222t-169.5 -122v-445q0 -232 -135.5 -373t-360.5 -141z" />
    <glyph glyph-name="uni0218" unicode="&#x218;" horiz-adv-x="1173" 
d="M582 -31q-197 0 -344 103t-189 278l285 62q26 -85 93 -132t159 -47q98 0 159.5 51.5t61.5 131.5q0 68 -51.5 110.5t-165.5 67.5l-66 14q-438 96 -438 426q0 194 145.5 322.5t360.5 128.5q184 0 323 -102t175 -271l-281 -61q-24 81 -84.5 125.5t-140.5 44.5
q-83 0 -139 -47.5t-56 -118.5q0 -69 52.5 -107.5t166.5 -64.5l66 -15q222 -49 330 -155.5t108 -272.5q0 -137 -69 -245t-190 -167t-271 -59zM428 -248q0 54 40.5 88.5t100.5 34.5q72 0 119 -50.5t47 -125.5q0 -91 -60 -163.5t-165 -104.5l-47 116q101 40 117 101
q-13 -8 -39 -8q-47 0 -80 32.5t-33 79.5z" />
    <glyph glyph-name="uni0219" unicode="&#x219;" horiz-adv-x="1005" 
d="M504 -31q-171 0 -294.5 81.5t-160.5 219.5l258 56q20 -63 74 -100.5t127 -37.5q70 0 115 31t45 84q0 45 -40.5 74.5t-131.5 46.5l-58 10q-177 32 -267.5 115.5t-90.5 212.5q0 154 117 252t301 98q163 0 278.5 -79.5t149.5 -215.5l-256 -53q-20 62 -66.5 96.5t-107.5 34.5
q-63 0 -104.5 -31t-41.5 -78q0 -42 40.5 -68.5t135.5 -43.5l58 -10q173 -31 265.5 -116.5t92.5 -215.5q0 -158 -123 -260.5t-315 -102.5zM356 -227q0 51 39.5 84.5t96.5 33.5q70 0 115.5 -49.5t45.5 -124.5q0 -90 -58 -159t-159 -105l-47 117q91 37 113 100q-13 -8 -37 -8
q-47 0 -78 32t-31 79z" />
    <glyph glyph-name="uni021A" unicode="&#x21a;" horiz-adv-x="1292" 
d="M84 1454h1124v-270h-409v-1184h-305v1184h-410v270zM492 -248q0 54 40.5 88.5t100.5 34.5q72 0 119 -50.5t47 -125.5q0 -91 -60.5 -163.5t-165.5 -104.5l-47 116q101 40 117 101q-13 -8 -39 -8q-47 0 -79.5 32.5t-32.5 79.5z" />
    <glyph glyph-name="uni021B" unicode="&#x21b;" horiz-adv-x="897" 
d="M37 850v231h184v369h287v-369h295v-231h-295v-469q0 -162 133 -162q73 0 152 37l51 -215q-121 -72 -260 -72q-169 0 -266 98.5t-97 278.5v504h-184zM475 -338q-47 0 -77.5 31.5t-30.5 79.5q0 51 39 84.5t96 33.5q70 0 116 -49.5t46 -124.5q0 -90 -58.5 -159t-159.5 -105
l-47 117q91 37 113 100q-13 -8 -37 -8z" />
    <glyph glyph-name="uni0237" unicode="&#x237;" horiz-adv-x="526" 
d="M51 -418q-113 0 -201 51l58 222q48 -25 94 -25q60 0 91.5 39t31.5 111v1101h287v-1120q0 -170 -99 -274.5t-262 -104.5z" />
    <glyph glyph-name="circumflex" unicode="&#x2c6;" 
d="M225 1235l248 293h268l248 -293h-258l-127 123l-129 -123h-250z" />
    <glyph glyph-name="caron" unicode="&#x2c7;" 
d="M221 1528h254l135 -127l138 127h245l-272 -293h-227z" />
    <glyph glyph-name="uni02C9" unicode="&#x2c9;" 
d="M283 1247v193h651v-193h-651z" />
    <glyph glyph-name="uni02CB" unicode="&#x2cb;" 
d="M616 1235l-243 293h317l191 -293h-265z" />
    <glyph glyph-name="breve" unicode="&#x2d8;" 
d="M608 1235q-318 0 -368 276h225q25 -104 143 -104q116 0 144 104h225q-50 -276 -369 -276z" />
    <glyph glyph-name="dotaccent" unicode="&#x2d9;" 
d="M608 1210q-69 0 -116.5 47t-47.5 117t47.5 117t116.5 47t116.5 -47t47.5 -117t-47.5 -117t-116.5 -47z" />
    <glyph glyph-name="ring" unicode="&#x2da;" 
d="M375 1403q0 94 67.5 158.5t165.5 64.5t166 -64.5t68 -158.5t-68 -158.5t-166 -64.5t-165.5 64.5t-67.5 158.5zM518 1403q0 -38 26.5 -65t63.5 -27t63.5 27t26.5 65t-26.5 65t-63.5 27t-63.5 -27t-26.5 -65z" />
    <glyph glyph-name="ogonek" unicode="&#x2db;" 
d="M397 -272q0 152 254 323l148 -51q-178 -131 -178 -205q0 -29 21 -46t56 -17q54 0 95 18l24 -170q-84 -37 -182 -37q-109 0 -173.5 50t-64.5 135z" />
    <glyph glyph-name="tilde" unicode="&#x2dc;" 
d="M453 1241h-201q13 127 71.5 198.5t149.5 71.5q50 0 93.5 -19.5t75.5 -38.5t54 -19q26 0 41 15t21 52h200q-13 -127 -71.5 -198.5t-149.5 -71.5q-50 0 -93.5 19.5t-75.5 39t-54 19.5q-26 0 -40.5 -15.5t-20.5 -52.5z" />
    <glyph glyph-name="hungarumlaut" unicode="&#x2dd;" 
d="M784 1235h-221l199 293h270zM406 1235h-222l199 293h270z" />
    <glyph glyph-name="gravecomb" unicode="&#x300;" horiz-adv-x="0" 
d="M-74 1235l-243 293h317l190 -293h-264z" />
    <glyph glyph-name="acutecomb" unicode="&#x301;" horiz-adv-x="0" 
d="M317 1528l-243 -293h-264l190 293h317z" />
    <glyph glyph-name="uni0302" unicode="&#x302;" horiz-adv-x="0" 
d="M-381 1235l248 293h268l248 -293h-258l-127 123l-129 -123h-250z" />
    <glyph glyph-name="tildecomb" unicode="&#x303;" horiz-adv-x="0" 
d="M-154 1241h-200q13 127 71.5 198.5t149.5 71.5q50 0 93.5 -19.5t75.5 -38.5t54 -19q26 0 41 15t21 52h200q-13 -127 -71.5 -198.5t-149.5 -71.5q-50 0 -93.5 19.5t-75.5 39t-54 19.5q-26 0 -41 -15.5t-21 -52.5z" />
    <glyph glyph-name="uni0304" unicode="&#x304;" horiz-adv-x="0" 
d="M-326 1247v193h652v-193h-652z" />
    <glyph glyph-name="uni0306" unicode="&#x306;" horiz-adv-x="0" 
d="M0 1235q-319 0 -369 276h226q25 -104 143 -104q115 0 143 104h226q-50 -276 -369 -276z" />
    <glyph glyph-name="uni0307" unicode="&#x307;" horiz-adv-x="0" 
d="M0 1210q-69 0 -116.5 47t-47.5 117t47.5 117t116.5 47t116.5 -47t47.5 -117t-47.5 -117t-116.5 -47z" />
    <glyph glyph-name="uni0308" unicode="&#x308;" horiz-adv-x="0" 
d="M66 1376q0 62 44.5 105t108.5 43t109 -43t45 -105t-45 -104.5t-109 -42.5t-108.5 42.5t-44.5 104.5zM-373 1376q0 62 45 105t109 43t108.5 -43t44.5 -105t-44.5 -104.5t-108.5 -42.5t-109 42.5t-45 104.5z" />
    <glyph glyph-name="uni030A" unicode="&#x30a;" horiz-adv-x="0" 
d="M-233 1403q0 94 67.5 158.5t165.5 64.5t165.5 -64.5t67.5 -158.5t-67.5 -158.5t-165.5 -64.5t-165.5 64.5t-67.5 158.5zM-90 1403q0 -38 26.5 -65t63.5 -27t63.5 27t26.5 65t-26.5 65t-63.5 27t-63.5 -27t-26.5 -65z" />
    <glyph glyph-name="uni030B" unicode="&#x30b;" horiz-adv-x="0" 
d="M272 1235h-221l199 293h270zM-106 1235h-222l199 293h270z" />
    <glyph glyph-name="uni030C" unicode="&#x30c;" horiz-adv-x="0" 
d="M-385 1528h254l135 -127l137 127h246l-272 -293h-228z" />
    <glyph glyph-name="uni0312" unicode="&#x312;" horiz-adv-x="0" 
d="M-147 1364q0 91 57 160t160 104l47 -117q-91 -37 -113 -100q13 8 37 8q45 0 77 -31.5t32 -78.5q0 -51 -38 -85t-98 -34q-70 0 -115.5 49.5t-45.5 124.5z" />
    <glyph glyph-name="uni0315" unicode="&#x315;" horiz-adv-x="0" 
d="M137 1135l31 393h233l-96 -393h-168z" />
    <glyph glyph-name="dotbelowcomb" unicode="&#x323;" horiz-adv-x="0" 
d="M0 -463q-69 0 -116.5 47.5t-47.5 116.5t47.5 116.5t116.5 47.5t116.5 -47.5t47.5 -116.5t-47.5 -116.5t-116.5 -47.5z" />
    <glyph glyph-name="uni0326" unicode="&#x326;" horiz-adv-x="0" 
d="M-39 -338q-47 0 -77.5 31.5t-30.5 79.5q0 51 39 84.5t96 33.5q70 0 116 -49.5t46 -124.5q0 -90 -58.5 -159t-159.5 -105l-47 117q91 37 113 100q-13 -8 -37 -8z" />
    <glyph glyph-name="uni0327" unicode="&#x327;" horiz-adv-x="0" 
d="M-74 -463q-86 0 -168 31l29 151q59 -20 107 -20q42 0 67 17t25 46q0 68 -129 68l67 193h178l-34 -107q66 -20 103.5 -66.5t37.5 -107.5q0 -92 -79 -148.5t-204 -56.5z" />
    <glyph glyph-name="uni0328" unicode="&#x328;" horiz-adv-x="0" 
d="M-401 -272q0 152 254 323l147 -51q-178 -131 -178 -205q0 -29 21.5 -46t56.5 -17q53 0 94 18l24 -170q-84 -37 -182 -37q-109 0 -173 50t-64 135z" />
    <glyph glyph-name="uni0E3F" unicode="&#xe3f;" 
d="M127 1413h360v256h207v-260q185 -19 289 -114t104 -246q0 -95 -42 -174t-119 -121q106 -41 164.5 -132.5t58.5 -218.5q0 -169 -122 -275.5t-333 -125.5v-289h-207v287h-360v1413zM403 242h228q110 0 170.5 48t60.5 136q0 92 -60 140t-171 48h-228v-372zM403 846h199
q96 0 148.5 42.5t52.5 117.5q0 79 -53 122t-148 43h-199v-325z" />
    <glyph glyph-name="uni1E24" unicode="&#x1e24;" horiz-adv-x="1519" 
d="M133 0v1454h305v-567h643v567h305v-1454h-305v616h-643v-616h-305zM760 -481q-72 0 -121 48.5t-49 119.5t49 119.5t121 48.5t121 -48.5t49 -119.5t-49 -119.5t-121 -48.5z" />
    <glyph glyph-name="uni1E25" unicode="&#x1e25;" 
d="M115 1528h286v-565q51 70 129.5 109.5t176.5 39.5q179 0 287 -125t108 -338v-649h-287v612q0 113 -51 177.5t-141 64.5q-97 0 -159.5 -65.5t-62.5 -167.5v-621h-286v1528zM444 -299q0 69 47.5 116.5t116.5 47.5t116.5 -47.5t47.5 -116.5t-47.5 -116.5t-116.5 -47.5
t-116.5 47.5t-47.5 116.5z" />
    <glyph glyph-name="uni1E36" unicode="&#x1e36;" horiz-adv-x="1114" 
d="M133 0v1454h305v-1184h594v-270h-899zM582 -481q-72 0 -121 48.5t-49 119.5t49 119.5t121 48.5t121 -48.5t49 -119.5t-49 -119.5t-121 -48.5z" />
    <glyph glyph-name="uni1E37" unicode="&#x1e37;" horiz-adv-x="516" 
d="M115 1528h286v-1528h-286v1528zM256 -463q-69 0 -116.5 47.5t-47.5 116.5t47.5 116.5t116.5 47.5t116.5 -47.5t47.5 -116.5t-47.5 -116.5t-116.5 -47.5z" />
    <glyph glyph-name="Wgrave" unicode="&#x1e80;" horiz-adv-x="2138" 
d="M487 0l-428 1454h320l266 -1051l289 1051h280l289 -1051l264 1051h312l-428 -1454h-295l-285 1042l-285 -1042h-299zM657 1878h361l282 -272h-296z" />
    <glyph glyph-name="wgrave" unicode="&#x1e81;" horiz-adv-x="1720" 
d="M23 1081h294l203 -731l219 731h248l219 -733l207 733h285l-359 -1081h-264l-217 731l-217 -731h-260zM543 1528h317l191 -293h-265z" />
    <glyph glyph-name="Wacute" unicode="&#x1e82;" horiz-adv-x="2138" 
d="M59 1454h320l266 -1051l289 1051h280l289 -1051l264 1051h312l-428 -1454h-295l-285 1042l-285 -1042h-299zM1135 1606h-297l282 272h361z" />
    <glyph glyph-name="wacute" unicode="&#x1e83;" horiz-adv-x="1720" 
d="M381 0l-358 1081h294l203 -731l219 731h248l219 -733l207 733h285l-359 -1081h-264l-217 731l-217 -731h-260zM934 1235h-264l190 293h318z" />
    <glyph glyph-name="Wdieresis" unicode="&#x1e84;" horiz-adv-x="2138" 
d="M59 1454h320l266 -1051l289 1051h280l289 -1051l264 1051h312l-428 -1454h-295l-285 1042l-285 -1042h-299zM1157 1739q0 63 47 109t113 46t113 -46t47 -109t-47 -109.5t-113 -46.5t-113 46.5t-47 109.5zM821 1583q-66 0 -112.5 46.5t-46.5 109.5t46.5 109t112.5 46
t113 -46t47 -109t-47 -109.5t-113 -46.5z" />
    <glyph glyph-name="wdieresis" unicode="&#x1e85;" horiz-adv-x="1720" 
d="M381 0l-358 1081h294l203 -731l219 731h248l219 -733l207 733h285l-359 -1081h-264l-217 731l-217 -731h-260zM926 1376q0 62 44.5 105t108.5 43t109 -43t45 -105t-45 -104.5t-109 -42.5t-108.5 42.5t-44.5 104.5zM641 1229q-64 0 -109 42.5t-45 104.5t45 105t109 43
t109 -43t45 -105t-45 -104.5t-109 -42.5z" />
    <glyph glyph-name="Germandbls" unicode="&#x1e9e;" horiz-adv-x="1349" 
d="M119 0v866q0 279 158.5 449t422.5 170q171 0 319 -74.5t236 -204.5l-254 -350q133 -43 214 -155.5t81 -260.5q0 -201 -143 -336t-358 -135q-130 0 -252 56l53 249q78 -38 164 -38q97 0 160 60t63 153q0 97 -71.5 155.5t-194.5 59.5l-25 180l219 299q-88 74 -200 74
q-128 0 -207.5 -92t-79.5 -248v-877h-305z" />
    <glyph glyph-name="uni1EA0" unicode="&#x1ea0;" horiz-adv-x="1546" 
d="M33 0l577 1454h324l579 -1454h-313l-119 319h-628l-119 -319h-301zM766 1157l-217 -579h436zM772 -526q-68 0 -115 45t-47 112q0 68 47 114t115 46q71 0 118.5 -45.5t47.5 -114.5q0 -67 -47.5 -112t-118.5 -45z" />
    <glyph glyph-name="uni1EA1" unicode="&#x1ea1;" horiz-adv-x="1146" 
d="M63 307q0 154 123 250t322 96q131 0 246 -47v64q0 93 -52.5 150t-142.5 57q-69 0 -123.5 -34.5t-77.5 -94.5l-256 51q34 140 162.5 226.5t298.5 86.5q209 0 339 -127t130 -330v-655h-256l-8 127q-45 -72 -127.5 -115t-191.5 -43q-166 0 -276 95.5t-110 242.5zM555 461
q-96 0 -152.5 -38t-56.5 -101q0 -58 47.5 -95t124.5 -37q101 0 168.5 63t67.5 157v10q-97 41 -199 41zM350 -369q0 68 47 114t115 46q71 0 118.5 -45.5t47.5 -114.5q0 -67 -47.5 -112t-118.5 -45q-68 0 -115 45t-47 112z" />
    <glyph glyph-name="uni1EA2" unicode="&#x1ea2;" horiz-adv-x="1546" 
d="M334 0h-301l577 1454h324l579 -1454h-313l-119 319h-628zM766 1157l-217 -579h436zM657 1821l-82 116q85 62 230 62q108 0 167.5 -47.5t59.5 -134.5q0 -77 -68.5 -138.5t-191.5 -83.5l-53 123q63 14 85 36.5t19 53.5q-2 20 -19.5 32.5t-47.5 12.5q-53 0 -99 -32z" />
    <glyph glyph-name="uni1EA3" unicode="&#x1ea3;" horiz-adv-x="1146" 
d="M449 -31q-166 0 -276 95.5t-110 242.5q0 154 123 250t322 96q131 0 246 -47v64q0 93 -52.5 150t-142.5 57q-69 0 -123.5 -34.5t-77.5 -94.5l-256 51q34 140 162.5 226.5t298.5 86.5q209 0 339 -127t130 -330v-655h-256l-8 127q-45 -72 -127.5 -115t-191.5 -43zM352 1577
q84 61 230 61q108 0 167.5 -47.5t59.5 -134.5q0 -76 -68.5 -137t-191.5 -84l-53 123q63 14 85 36.5t19 53.5q-2 19 -20 32t-48 13q-51 0 -98 -33zM555 461q-96 0 -152.5 -38t-56.5 -101q0 -58 47.5 -95t124.5 -37q101 0 168.5 63t67.5 157v10q-97 41 -199 41z" />
    <glyph glyph-name="uni1EA4" unicode="&#x1ea4;" horiz-adv-x="1546" 
d="M33 0l577 1454h324l579 -1454h-313l-119 319h-628l-119 -319h-301zM637 1595h-250l248 293h268l248 -293h-258l-127 123zM766 1157l-217 -579h436zM1315 1786h-264l170 272h317z" />
    <glyph glyph-name="uni1EA5" unicode="&#x1ea5;" horiz-adv-x="1146" 
d="M63 307q0 154 123 250t322 96q131 0 246 -47v64q0 93 -52.5 150t-142.5 57q-69 0 -123.5 -34.5t-77.5 -94.5l-256 51q34 140 162.5 226.5t298.5 86.5q209 0 339 -127t130 -330v-655h-256l-8 127q-45 -72 -127.5 -115t-191.5 -43q-166 0 -276 95.5t-110 242.5zM432 1235
h-250l248 293h268l248 -293h-258l-127 123zM555 461q-96 0 -152.5 -38t-56.5 -101q0 -58 47.5 -95t124.5 -37q101 0 168.5 63t67.5 157v10q-97 41 -199 41zM846 1425l170 273h317l-223 -273h-264z" />
    <glyph glyph-name="uni1EA6" unicode="&#x1ea6;" horiz-adv-x="1546" 
d="M33 0l577 1454h324l579 -1454h-313l-119 319h-628l-119 -319h-301zM637 1595h-250l248 293h268l248 -293h-258l-127 123zM766 1157l-217 -579h436zM879 2058h317l170 -272h-264z" />
    <glyph glyph-name="uni1EA7" unicode="&#x1ea7;" horiz-adv-x="1146" 
d="M63 307q0 154 123 250t322 96q131 0 246 -47v64q0 93 -52.5 150t-142.5 57q-69 0 -123.5 -34.5t-77.5 -94.5l-256 51q34 140 162.5 226.5t298.5 86.5q209 0 339 -127t130 -330v-655h-256l-8 127q-45 -72 -127.5 -115t-191.5 -43q-166 0 -276 95.5t-110 242.5zM432 1235
h-250l248 293h268l248 -293h-258l-127 123zM555 461q-96 0 -152.5 -38t-56.5 -101q0 -58 47.5 -95t124.5 -37q101 0 168.5 63t67.5 157v10q-97 41 -199 41zM674 1698h317l170 -273h-264z" />
    <glyph glyph-name="uni1EA8" unicode="&#x1ea8;" horiz-adv-x="1546" 
d="M33 0l577 1454h324l579 -1454h-313l-119 319h-628l-119 -319h-301zM387 1595l248 293h268l248 -293h-258l-127 123l-129 -123h-250zM549 578h436l-219 579zM874 2120q86 59 230 59q108 0 167.5 -46t59.5 -132q0 -75 -68 -133.5t-192 -81.5l-53 119q62 14 84 36t20 52
q-2 20 -19.5 32.5t-47.5 12.5q-52 0 -99 -33z" />
    <glyph glyph-name="uni1EA9" unicode="&#x1ea9;" horiz-adv-x="1146" 
d="M63 307q0 154 123 250t322 96q131 0 246 -47v64q0 93 -52.5 150t-142.5 57q-69 0 -123.5 -34.5t-77.5 -94.5l-256 51q34 140 162.5 226.5t298.5 86.5q209 0 339 -127t130 -330v-655h-256l-8 127q-45 -72 -127.5 -115t-191.5 -43q-166 0 -276 95.5t-110 242.5zM182 1235
l248 293h268l248 -293h-258l-127 123l-129 -123h-250zM752 1645l-82 114q87 60 229 60q108 0 167.5 -46.5t59.5 -132.5q0 -75 -68 -133.5t-192 -81.5l-53 119q62 14 84.5 36t20.5 52q-2 19 -20 32t-48 13q-52 0 -98 -32zM555 461q-96 0 -152.5 -38t-56.5 -101
q0 -58 47.5 -95t124.5 -37q101 0 168.5 63t67.5 157v10q-97 41 -199 41z" />
    <glyph glyph-name="uni1EAA" unicode="&#x1eaa;" horiz-adv-x="1546" 
d="M33 0l577 1454h324l579 -1454h-313l-119 319h-628l-119 -319h-301zM414 1960q13 127 71.5 198.5t149.5 71.5q50 0 93.5 -19.5t75.5 -39t54 -19.5q26 0 41 15.5t21 52.5h200q-13 -127 -71.5 -198.5t-149.5 -71.5q-50 0 -93.5 19.5t-75.5 39t-54 19.5q-26 0 -41 -15.5
t-21 -52.5h-200zM637 1595h-250l248 293h268l248 -293h-258l-127 123zM766 1157l-217 -579h436z" />
    <glyph glyph-name="uni1EAB" unicode="&#x1eab;" horiz-adv-x="1146" 
d="M449 -31q-166 0 -276 95.5t-110 242.5q0 154 123 250t322 96q131 0 246 -47v64q0 93 -52.5 150t-142.5 57q-69 0 -123.5 -34.5t-77.5 -94.5l-256 51q34 140 162.5 226.5t298.5 86.5q209 0 339 -127t130 -330v-655h-256l-8 127q-45 -72 -127.5 -115t-191.5 -43zM209 1599
q14 128 72 199.5t149 71.5q50 0 93.5 -19.5t75.5 -39t54 -19.5q26 0 41 15.5t21 52.5h200q-14 -128 -72 -199.5t-149 -71.5q-50 0 -93.5 19.5t-75.5 39t-54 19.5q-26 0 -40.5 -15.5t-20.5 -52.5h-201zM432 1235h-250l248 293h268l248 -293h-258l-127 123zM555 461
q-96 0 -152.5 -38t-56.5 -101q0 -58 47.5 -95t124.5 -37q101 0 168.5 63t67.5 157v10q-97 41 -199 41z" />
    <glyph glyph-name="uni1EAC" unicode="&#x1eac;" horiz-adv-x="1546" 
d="M334 0h-301l577 1454h324l579 -1454h-313l-119 319h-628zM637 1595h-250l248 293h268l248 -293h-258l-127 123zM766 1157l-217 -579h436zM610 -369q0 68 47 114t115 46q71 0 118.5 -45.5t47.5 -114.5q0 -67 -47.5 -112t-118.5 -45q-68 0 -115 45t-47 112z" />
    <glyph glyph-name="uni1EAD" unicode="&#x1ead;" horiz-adv-x="1146" 
d="M449 -31q-166 0 -276 95.5t-110 242.5q0 154 123 250t322 96q131 0 246 -47v64q0 93 -52.5 150t-142.5 57q-69 0 -123.5 -34.5t-77.5 -94.5l-256 51q34 140 162.5 226.5t298.5 86.5q209 0 339 -127t130 -330v-655h-256l-8 127q-45 -72 -127.5 -115t-191.5 -43zM432 1235
h-250l248 293h268l248 -293h-258l-127 123zM555 461q-96 0 -152.5 -38t-56.5 -101q0 -58 47.5 -95t124.5 -37q101 0 168.5 63t67.5 157v10q-97 41 -199 41zM512 -526q-68 0 -115 45t-47 112q0 68 47 114t115 46q71 0 118.5 -45.5t47.5 -114.5q0 -67 -47.5 -112t-118.5 -45z
" />
    <glyph glyph-name="uni1EAE" unicode="&#x1eae;" horiz-adv-x="1546" 
d="M334 0h-301l577 1454h324l579 -1454h-313l-119 319h-628zM770 1575q-319 0 -369 276h226q25 -104 143 -104q115 0 143 104h226q-50 -276 -369 -276zM766 1157l-217 -579h436zM618 1913l170 272h318l-223 -272h-265z" />
    <glyph glyph-name="uni1EAF" unicode="&#x1eaf;" horiz-adv-x="1146" 
d="M449 -31q-166 0 -276 95.5t-110 242.5q0 154 123 250t322 96q131 0 246 -47v64q0 93 -52.5 150t-142.5 57q-69 0 -123.5 -34.5t-77.5 -94.5l-256 51q34 140 162.5 226.5t298.5 86.5q209 0 339 -127t130 -330v-655h-256l-8 127q-45 -72 -127.5 -115t-191.5 -43zM569 1235
q-318 0 -368 276h225q25 -104 143 -104q116 0 144 104h225q-50 -276 -369 -276zM555 461q-96 0 -152.5 -38t-56.5 -101q0 -58 47.5 -95t124.5 -37q101 0 168.5 63t67.5 157v10q-97 41 -199 41zM682 1573h-264l170 272h317z" />
    <glyph glyph-name="uni1EB0" unicode="&#x1eb0;" horiz-adv-x="1546" 
d="M334 0h-301l577 1454h324l579 -1454h-313l-119 319h-628zM401 1851h226q25 -104 143 -104q115 0 143 104h226q-50 -276 -369 -276t-369 276zM766 1157l-217 -579h436zM655 1913l-223 272h318l170 -272h-265z" />
    <glyph glyph-name="uni1EB1" unicode="&#x1eb1;" horiz-adv-x="1146" 
d="M449 -31q-166 0 -276 95.5t-110 242.5q0 154 123 250t322 96q131 0 246 -47v64q0 93 -52.5 150t-142.5 57q-69 0 -123.5 -34.5t-77.5 -94.5l-256 51q34 140 162.5 226.5t298.5 86.5q209 0 339 -127t130 -330v-655h-256l-8 127q-45 -72 -127.5 -115t-191.5 -43zM569 1235
q-318 0 -368 276h225q25 -104 143 -104q116 0 144 104h225q-50 -276 -369 -276zM346 322q0 -58 47.5 -95t124.5 -37q101 0 168.5 63t67.5 157v10q-97 41 -199 41q-96 0 -152.5 -38t-56.5 -101zM231 1845h318l170 -272h-264z" />
    <glyph glyph-name="uni1EB2" unicode="&#x1eb2;" horiz-adv-x="1546" 
d="M33 0l577 1454h324l579 -1454h-313l-119 319h-628l-119 -319h-301zM401 1851h226q25 -104 143 -104q115 0 143 104h226q-50 -276 -369 -276t-369 276zM549 578h436l-219 579zM573 2226q87 60 230 60q108 0 167.5 -46.5t59.5 -132.5q0 -75 -68 -133.5t-192 -81.5l-53 119
q62 14 84 36t20 52q-2 20 -19.5 32.5t-47.5 12.5q-52 0 -99 -33z" />
    <glyph glyph-name="uni1EB3" unicode="&#x1eb3;" horiz-adv-x="1146" 
d="M449 -31q-166 0 -276 95.5t-110 242.5q0 154 123 250t322 96q131 0 246 -47v64q0 93 -52.5 150t-142.5 57q-69 0 -123.5 -34.5t-77.5 -94.5l-256 51q34 140 162.5 226.5t298.5 86.5q209 0 339 -127t130 -330v-655h-256l-8 127q-45 -72 -127.5 -115t-191.5 -43zM569 1235
q-318 0 -368 276h225q25 -104 143 -104q116 0 144 104h225q-50 -276 -369 -276zM455 1772l-82 114q87 60 229 60q108 0 167.5 -46.5t59.5 -132.5q0 -75 -68 -133.5t-192 -81.5l-53 119q62 14 84.5 36t20.5 52q-2 19 -20 32t-48 13q-52 0 -98 -32zM346 322q0 -58 47.5 -95
t124.5 -37q101 0 168.5 63t67.5 157v10q-97 41 -199 41q-96 0 -152.5 -38t-56.5 -101z" />
    <glyph glyph-name="uni1EB4" unicode="&#x1eb4;" horiz-adv-x="1546" 
d="M334 0h-301l577 1454h324l579 -1454h-313l-119 319h-628zM616 1923h-204q14 128 73.5 199t153.5 71q51 0 95 -19.5t76.5 -38.5t55.5 -19q53 0 64 67h205q-13 -127 -73.5 -198.5t-154.5 -71.5q-51 0 -95 19.5t-76.5 39t-55.5 19.5q-53 0 -64 -68zM401 1851h226
q25 -104 143 -104q115 0 143 104h226q-50 -276 -369 -276t-369 276zM766 1157l-217 -579h436z" />
    <glyph glyph-name="uni1EB5" unicode="&#x1eb5;" horiz-adv-x="1146" 
d="M449 -31q-166 0 -276 95.5t-110 242.5q0 154 123 250t322 96q131 0 246 -47v64q0 93 -52.5 150t-142.5 57q-69 0 -123.5 -34.5t-77.5 -94.5l-256 51q34 140 162.5 226.5t298.5 86.5q209 0 339 -127t130 -330v-655h-256l-8 127q-45 -72 -127.5 -115t-191.5 -43zM211 1583
q14 128 73.5 199t153.5 71q51 0 95.5 -19.5t77 -38.5t55.5 -19q26 0 41.5 15t21.5 52h205q-14 -128 -73.5 -199t-153.5 -71q-51 0 -95.5 19.5t-77 39t-55.5 19.5q-52 0 -63 -68h-205zM569 1235q-318 0 -368 276h225q25 -104 143 -104q116 0 144 104h225q-50 -276 -369 -276z
M346 322q0 -58 47.5 -95t124.5 -37q101 0 168.5 63t67.5 157v10q-97 41 -199 41q-96 0 -152.5 -38t-56.5 -101z" />
    <glyph glyph-name="uni1EB6" unicode="&#x1eb6;" horiz-adv-x="1546" 
d="M334 0h-301l577 1454h324l579 -1454h-313l-119 319h-628zM770 1595q-319 0 -369 277h226q26 -105 143 -105q115 0 143 105h226q-50 -277 -369 -277zM766 1157l-217 -579h436zM610 -369q0 68 47 114t115 46q71 0 118.5 -45.5t47.5 -114.5q0 -67 -47.5 -112t-118.5 -45
q-68 0 -115 45t-47 112z" />
    <glyph glyph-name="uni1EB7" unicode="&#x1eb7;" horiz-adv-x="1146" 
d="M63 307q0 154 123 250t322 96q131 0 246 -47v64q0 93 -52.5 150t-142.5 57q-69 0 -123.5 -34.5t-77.5 -94.5l-256 51q34 140 162.5 226.5t298.5 86.5q209 0 339 -127t130 -330v-655h-256l-8 127q-45 -72 -127.5 -115t-191.5 -43q-166 0 -276 95.5t-110 242.5zM569 1235
q-318 0 -368 276h225q25 -104 143 -104q116 0 144 104h225q-50 -276 -369 -276zM555 461q-96 0 -152.5 -38t-56.5 -101q0 -58 47.5 -95t124.5 -37q101 0 168.5 63t67.5 157v10q-97 41 -199 41zM512 -526q-68 0 -115 45t-47 112q0 68 47 114t115 46q71 0 118.5 -45.5
t47.5 -114.5q0 -67 -47.5 -112t-118.5 -45z" />
    <glyph glyph-name="uni1EB8" unicode="&#x1eb8;" horiz-adv-x="1175" 
d="M133 1454h911v-260h-616v-317h551v-261h-551v-356h637v-260h-932v1454zM418 -369q0 68 47 114t115 46q71 0 118 -45.5t47 -114.5q0 -67 -47 -112t-118 -45q-68 0 -115 45t-47 112z" />
    <glyph glyph-name="uni1EB9" unicode="&#x1eb9;" horiz-adv-x="1204" 
d="M74 543q0 160 70.5 290.5t194 204.5t273.5 74q238 0 383.5 -157t145.5 -414v-72h-776q19 -122 88.5 -190t175.5 -68q74 0 134.5 34.5t98.5 100.5l256 -82q-55 -135 -189.5 -215t-301.5 -80q-242 0 -397.5 161t-155.5 413zM444 -369q0 68 47 114t115 46q71 0 118.5 -45.5
t47.5 -114.5q0 -67 -47.5 -112t-118.5 -45q-68 0 -115 45t-47 112zM612 891q-93 0 -158 -61.5t-85 -167.5h477q-17 106 -79.5 167.5t-154.5 61.5z" />
    <glyph glyph-name="uni1EBA" unicode="&#x1eba;" horiz-adv-x="1175" 
d="M133 1454h911v-260h-616v-317h551v-261h-551v-356h637v-260h-932v1454zM401 1937q85 62 230 62q108 0 167.5 -47.5t59.5 -134.5q0 -77 -68.5 -138.5t-191.5 -83.5l-53 123q63 14 85 36.5t19 53.5q-2 20 -19.5 32.5t-47.5 12.5q-53 0 -99 -32z" />
    <glyph glyph-name="uni1EBB" unicode="&#x1ebb;" horiz-adv-x="1204" 
d="M74 543q0 160 70.5 290.5t194 204.5t273.5 74q238 0 383.5 -157t145.5 -414v-72h-776q19 -122 88.5 -190t175.5 -68q74 0 134.5 34.5t98.5 100.5l256 -82q-55 -135 -189.5 -215t-301.5 -80q-242 0 -397.5 161t-155.5 413zM494 1460l-82 117q84 61 229 61
q108 0 167.5 -47.5t59.5 -134.5q0 -76 -68.5 -137t-191.5 -84l-53 123q63 14 85 36.5t19 53.5q-2 20 -19.5 32.5t-47.5 12.5q-51 0 -98 -33zM612 891q-93 0 -158 -61.5t-85 -167.5h477q-17 106 -79.5 167.5t-154.5 61.5z" />
    <glyph glyph-name="uni1EBC" unicode="&#x1ebc;" horiz-adv-x="1175" 
d="M1065 0h-932v1454h911v-260h-616v-317h551v-261h-551v-356h637v-260zM233 1606q13 127 72 198.5t150 71.5q50 0 93.5 -19.5t75.5 -39t54 -19.5q26 0 40.5 15.5t20.5 52.5h201q-14 -128 -72 -199.5t-149 -71.5q-50 0 -93.5 19.5t-75.5 39t-54 19.5q-26 0 -41 -15t-21 -52
h-201z" />
    <glyph glyph-name="uni1EBD" unicode="&#x1ebd;" horiz-adv-x="1204" 
d="M74 543q0 160 70.5 290.5t194 204.5t273.5 74q238 0 383.5 -157t145.5 -414v-72h-776q19 -122 88.5 -190t175.5 -68q74 0 134.5 34.5t98.5 100.5l256 -82q-55 -135 -189.5 -215t-301.5 -80q-242 0 -397.5 161t-155.5 413zM260 1241q13 127 71.5 198.5t149.5 71.5
q50 0 94 -19.5t76 -38.5t54 -19q26 0 40.5 15t20.5 52h201q-13 -127 -72 -198.5t-150 -71.5q-50 0 -93.5 19.5t-75.5 39t-54 19.5q-26 0 -40.5 -15.5t-20.5 -52.5h-201zM369 662h477q-17 106 -79.5 167.5t-154.5 61.5q-93 0 -158 -61.5t-85 -167.5z" />
    <glyph glyph-name="uni1EBE" unicode="&#x1ebe;" horiz-adv-x="1175" 
d="M1065 0h-932v1454h911v-260h-616v-317h551v-261h-551v-356h637v-260zM201 1595l248 293h268l248 -293h-258l-127 123l-129 -123h-250zM864 1786l170 272h318l-224 -272h-264z" />
    <glyph glyph-name="uni1EBF" unicode="&#x1ebf;" horiz-adv-x="1204" 
d="M627 -31q-242 0 -397.5 161t-155.5 413q0 160 70.5 290.5t194 204.5t273.5 74q238 0 383.5 -157t145.5 -414v-72h-776q19 -122 88.5 -190t175.5 -68q74 0 134.5 34.5t98.5 100.5l256 -82q-55 -135 -189.5 -215t-301.5 -80zM227 1235l248 293h268l248 -293h-258l-127 123
l-129 -123h-250zM612 891q-93 0 -158 -61.5t-85 -167.5h477q-17 106 -79.5 167.5t-154.5 61.5zM891 1425l170 273h317l-223 -273h-264z" />
    <glyph glyph-name="uni1EC0" unicode="&#x1ec0;" horiz-adv-x="1175" 
d="M1065 0h-932v1454h911v-260h-616v-317h551v-261h-551v-356h637v-260zM201 1595l248 293h268l248 -293h-258l-127 123l-129 -123h-250zM692 2058h318l170 -272h-265z" />
    <glyph glyph-name="uni1EC1" unicode="&#x1ec1;" horiz-adv-x="1204" 
d="M627 -31q-242 0 -397.5 161t-155.5 413q0 160 70.5 290.5t194 204.5t273.5 74q238 0 383.5 -157t145.5 -414v-72h-776q19 -122 88.5 -190t175.5 -68q74 0 134.5 34.5t98.5 100.5l256 -82q-55 -135 -189.5 -215t-301.5 -80zM227 1235l248 293h268l248 -293h-258l-127 123
l-129 -123h-250zM612 891q-93 0 -158 -61.5t-85 -167.5h477q-17 106 -79.5 167.5t-154.5 61.5zM719 1698h317l170 -273h-264z" />
    <glyph glyph-name="uni1EC2" unicode="&#x1ec2;" horiz-adv-x="1175" 
d="M133 1454h911v-260h-616v-317h551v-261h-551v-356h637v-260h-932v1454zM201 1595l248 293h268l248 -293h-258l-127 123l-129 -123h-250zM688 2120q86 59 230 59q108 0 167.5 -46t59.5 -132q0 -75 -68 -133.5t-192 -81.5l-54 119q62 14 84.5 36t20.5 52q-2 19 -20 32
t-48 13q-51 0 -98 -33z" />
    <glyph glyph-name="uni1EC3" unicode="&#x1ec3;" horiz-adv-x="1204" 
d="M74 543q0 160 70.5 290.5t194 204.5t273.5 74q238 0 383.5 -157t145.5 -414v-72h-776q19 -122 88.5 -190t175.5 -68q74 0 134.5 34.5t98.5 100.5l256 -82q-55 -135 -189.5 -215t-301.5 -80q-242 0 -397.5 161t-155.5 413zM227 1235l248 293h268l248 -293h-258l-127 123
l-129 -123h-250zM797 1645l-82 114q87 60 229 60q108 0 167.5 -46.5t59.5 -132.5q0 -75 -68 -133.5t-192 -81.5l-53 119q62 14 84.5 36t20.5 52q-2 19 -20 32t-48 13q-52 0 -98 -32zM369 662h477q-17 106 -79.5 167.5t-154.5 61.5q-93 0 -158 -61.5t-85 -167.5z" />
    <glyph glyph-name="uni1EC4" unicode="&#x1ec4;" horiz-adv-x="1175" 
d="M133 1454h911v-260h-616v-317h551v-261h-551v-356h637v-260h-932v1454zM227 1960q13 127 72 198.5t150 71.5q50 0 93.5 -19.5t75.5 -39t54 -19.5q26 0 40.5 15.5t20.5 52.5h201q-13 -127 -71.5 -198.5t-149.5 -71.5q-50 0 -94 19.5t-76 39t-54 19.5q-26 0 -40.5 -15.5
t-20.5 -52.5h-201zM201 1595l248 293h268l248 -293h-258l-127 123l-129 -123h-250z" />
    <glyph glyph-name="uni1EC5" unicode="&#x1ec5;" horiz-adv-x="1204" 
d="M74 543q0 160 70.5 290.5t194 204.5t273.5 74q238 0 383.5 -157t145.5 -414v-72h-776q19 -122 88.5 -190t175.5 -68q74 0 134.5 34.5t98.5 100.5l256 -82q-55 -135 -189.5 -215t-301.5 -80q-242 0 -397.5 161t-155.5 413zM254 1599q14 128 72 199.5t149 71.5
q50 0 93.5 -19.5t75.5 -39t54 -19.5q26 0 41 15.5t21 52.5h201q-13 -127 -72 -199t-150 -72q-50 0 -93.5 19.5t-75.5 39t-54 19.5q-26 0 -40.5 -15.5t-20.5 -52.5h-201zM227 1235l248 293h268l248 -293h-258l-127 123l-129 -123h-250zM369 662h477q-17 106 -79.5 167.5
t-154.5 61.5q-93 0 -158 -61.5t-85 -167.5z" />
    <glyph glyph-name="uni1EC6" unicode="&#x1ec6;" horiz-adv-x="1175" 
d="M1065 0h-932v1454h911v-260h-616v-317h551v-261h-551v-356h637v-260zM201 1595l248 293h268l248 -293h-258l-127 123l-129 -123h-250zM418 -369q0 68 47 114t115 46q71 0 118 -45.5t47 -114.5q0 -67 -47 -112t-118 -45q-68 0 -115 45t-47 112z" />
    <glyph glyph-name="uni1EC7" unicode="&#x1ec7;" horiz-adv-x="1204" 
d="M74 543q0 160 70.5 290.5t194 204.5t273.5 74q238 0 383.5 -157t145.5 -414v-72h-776q19 -122 88.5 -190t175.5 -68q74 0 134.5 34.5t98.5 100.5l256 -82q-55 -135 -189.5 -215t-301.5 -80q-242 0 -397.5 161t-155.5 413zM227 1235l248 293h268l248 -293h-258l-127 123
l-129 -123h-250zM444 -369q0 68 47 114t115 46q71 0 118.5 -45.5t47.5 -114.5q0 -67 -47.5 -112t-118.5 -45q-68 0 -115 45t-47 112zM369 662h477q-17 106 -79.5 167.5t-154.5 61.5q-93 0 -158 -61.5t-85 -167.5z" />
    <glyph glyph-name="uni1EC8" unicode="&#x1ec8;" horiz-adv-x="571" 
d="M438 0h-305v1454h305v-1454zM90 1937q85 62 229 62q108 0 168 -47.5t60 -134.5q0 -77 -68.5 -138.5t-191.5 -83.5l-54 123q63 14 85.5 36.5t19.5 53.5q-2 19 -20 32t-48 13q-52 0 -98 -32z" />
    <glyph glyph-name="uni1EC9" unicode="&#x1ec9;" horiz-adv-x="516" 
d="M401 0h-286v1081h286v-1081zM63 1577q84 61 230 61q108 0 167.5 -47.5t59.5 -134.5q0 -76 -68.5 -137t-191.5 -84l-53 123q63 14 85 36.5t19 53.5q-2 20 -19.5 32.5t-47.5 12.5q-52 0 -99 -33z" />
    <glyph glyph-name="uni1ECA" unicode="&#x1eca;" horiz-adv-x="571" 
d="M133 1454h305v-1454h-305v1454zM285 -526q-68 0 -115 45t-47 112q0 68 47 114t115 46q71 0 118.5 -45.5t47.5 -114.5q0 -67 -47.5 -112t-118.5 -45z" />
    <glyph glyph-name="uni1ECB" unicode="&#x1ecb;" horiz-adv-x="516" 
d="M401 0h-286v1081h286v-1081zM96 -369q0 68 47 114t115 46q71 0 118.5 -45.5t47.5 -114.5q0 -67 -47.5 -112t-118.5 -45q-68 0 -115 45t-47 112zM94 1405q0 68 47 114t115 46q71 0 118.5 -45.5t47.5 -114.5q0 -67 -47.5 -112.5t-118.5 -45.5q-68 0 -115 45.5t-47 112.5z
" />
    <glyph glyph-name="uni1ECC" unicode="&#x1ecc;" horiz-adv-x="1679" 
d="M838 -41q-213 0 -385 99t-269.5 274.5t-97.5 392.5t98 393.5t271 276.5t387 100q160 0 299.5 -58t238.5 -159.5t156 -243.5t57 -305t-57.5 -305.5t-157 -244.5t-240 -161t-300.5 -59zM401 727q0 -213 124 -350t315 -137t314.5 137t123.5 350t-123.5 350t-314.5 137
t-315 -137t-124 -350zM678 -369q0 68 47 114t115 46q71 0 118.5 -45.5t47.5 -114.5q0 -67 -47.5 -112t-118.5 -45q-68 0 -115 45t-47 112z" />
    <glyph glyph-name="uni1ECD" unicode="&#x1ecd;" horiz-adv-x="1277" 
d="M635 -31q-241 0 -401 163t-160 409q0 161 74 291.5t204 205t291 74.5q159 0 287.5 -74t201 -204t72.5 -291q0 -246 -162.5 -410t-406.5 -164zM367 541q0 -135 77.5 -224.5t194.5 -89.5t194.5 89.5t77.5 224.5t-77.5 224t-194.5 89t-194.5 -89t-77.5 -224zM477 -369
q0 68 47 114t115 46q71 0 118.5 -45.5t47.5 -114.5q0 -67 -47.5 -112t-118.5 -45q-68 0 -115 45t-47 112z" />
    <glyph glyph-name="uni1ECE" unicode="&#x1ece;" horiz-adv-x="1679" 
d="M838 -41q-213 0 -385 99t-269.5 274.5t-97.5 392.5t98 393.5t271 276.5t387 100q160 0 299.5 -58t238.5 -159.5t156 -243.5t57 -305t-57.5 -305.5t-157 -244.5t-240 -161t-300.5 -59zM401 727q0 -213 124 -350t315 -137t314.5 137t123.5 350t-123.5 350t-314.5 137
t-315 -137t-124 -350zM725 1821l-82 116q85 62 229 62q108 0 168 -47.5t60 -134.5q0 -77 -68.5 -138.5t-191.5 -83.5l-54 123q63 14 85.5 36.5t19.5 53.5q-2 19 -20 32t-48 13q-52 0 -98 -32z" />
    <glyph glyph-name="uni1ECF" unicode="&#x1ecf;" horiz-adv-x="1277" 
d="M635 -31q-241 0 -401 163t-160 409q0 161 74 291.5t204 205t291 74.5q159 0 287.5 -74t201 -204t72.5 -291q0 -246 -162.5 -410t-406.5 -164zM367 541q0 -135 77.5 -224.5t194.5 -89.5t194.5 89.5t77.5 224.5t-77.5 224t-194.5 89t-194.5 -89t-77.5 -224zM524 1460
l-82 117q84 61 230 61q108 0 167.5 -47.5t59.5 -134.5q0 -76 -68.5 -137t-191.5 -84l-53 123q63 14 85 36.5t19 53.5q-2 20 -19.5 32.5t-47.5 12.5q-52 0 -99 -33z" />
    <glyph glyph-name="uni1ED0" unicode="&#x1ed0;" horiz-adv-x="1679" 
d="M86 725q0 217 98 393.5t271 276.5t387 100q160 0 299.5 -58t238.5 -159.5t156 -243.5t57 -305t-57.5 -305.5t-157 -244.5t-240 -161t-300.5 -59q-213 0 -385 99t-269.5 274.5t-97.5 392.5zM401 727q0 -213 124 -350t315 -137t314.5 137t123.5 350t-123.5 350t-314.5 137
t-315 -137t-124 -350zM461 1595l248 293h268l248 -293h-258l-127 123l-129 -123h-250zM1124 1786l170 272h318l-223 -272h-265z" />
    <glyph glyph-name="uni1ED1" unicode="&#x1ed1;" horiz-adv-x="1277" 
d="M635 -31q-241 0 -401 163t-160 409q0 161 74 291.5t204 205t291 74.5q159 0 287.5 -74t201 -204t72.5 -291q0 -246 -162.5 -410t-406.5 -164zM639 854q-117 0 -194.5 -89t-77.5 -224t77.5 -224.5t194.5 -89.5t194.5 89.5t77.5 224.5t-77.5 224t-194.5 89zM508 1235h-250
l248 293h268l248 -293h-258l-127 123zM922 1425l170 273h317l-223 -273h-264z" />
    <glyph glyph-name="uni1ED2" unicode="&#x1ed2;" horiz-adv-x="1679" 
d="M86 725q0 217 98 393.5t271 276.5t387 100q160 0 299.5 -58t238.5 -159.5t156 -243.5t57 -305t-57.5 -305.5t-157 -244.5t-240 -161t-300.5 -59q-213 0 -385 99t-269.5 274.5t-97.5 392.5zM401 727q0 -213 124 -350t315 -137t314.5 137t123.5 350t-123.5 350t-314.5 137
t-315 -137t-124 -350zM461 1595l248 293h268l248 -293h-258l-127 123l-129 -123h-250zM1176 1786l-224 272h318l170 -272h-264z" />
    <glyph glyph-name="uni1ED3" unicode="&#x1ed3;" horiz-adv-x="1277" 
d="M635 -31q-241 0 -401 163t-160 409q0 161 74 291.5t204 205t291 74.5q159 0 287.5 -74t201 -204t72.5 -291q0 -246 -162.5 -410t-406.5 -164zM639 854q-117 0 -194.5 -89t-77.5 -224t77.5 -224.5t194.5 -89.5t194.5 89.5t77.5 224.5t-77.5 224t-194.5 89zM508 1235h-250
l248 293h268l248 -293h-258l-127 123zM973 1425l-223 273h317l170 -273h-264z" />
    <glyph glyph-name="uni1ED4" unicode="&#x1ed4;" horiz-adv-x="1679" 
d="M86 725q0 217 98 393.5t271 276.5t387 100q160 0 299.5 -58t238.5 -159.5t156 -243.5t57 -305t-57.5 -305.5t-157 -244.5t-240 -161t-300.5 -59q-213 0 -385 99t-269.5 274.5t-97.5 392.5zM401 727q0 -213 124 -350t315 -137t314.5 137t123.5 350t-123.5 350t-314.5 137
t-315 -137t-124 -350zM711 1595h-250l248 293h268l248 -293h-258l-127 123zM1030 2005l-82 115q86 59 230 59q108 0 167.5 -46t59.5 -132q0 -75 -68 -133.5t-192 -81.5l-53 119q62 14 84 36t20 52q-2 19 -20 32t-48 13q-51 0 -98 -33z" />
    <glyph glyph-name="uni1ED5" unicode="&#x1ed5;" horiz-adv-x="1277" 
d="M74 541q0 161 74 291.5t204 205t291 74.5q159 0 287.5 -74t201 -204t72.5 -291q0 -246 -162.5 -410t-406.5 -164q-241 0 -401 163t-160 409zM367 541q0 -135 77.5 -224.5t194.5 -89.5t194.5 89.5t77.5 224.5t-77.5 224t-194.5 89t-194.5 -89t-77.5 -224zM258 1235
l248 293h268l248 -293h-258l-127 123l-129 -123h-250zM827 1645l-82 114q87 60 230 60q108 0 167.5 -46.5t59.5 -132.5q0 -75 -68 -133.5t-192 -81.5l-53 119q62 14 84 36t20 52q-2 20 -19.5 32.5t-47.5 12.5q-53 0 -99 -32z" />
    <glyph glyph-name="uni1ED6" unicode="&#x1ed6;" horiz-adv-x="1679" 
d="M86 725q0 217 98 393.5t271 276.5t387 100q160 0 299.5 -58t238.5 -159.5t156 -243.5t57 -305t-57.5 -305.5t-157 -244.5t-240 -161t-300.5 -59q-213 0 -385 99t-269.5 274.5t-97.5 392.5zM401 727q0 -213 124 -350t315 -137t314.5 137t123.5 350t-123.5 350t-314.5 137
t-315 -137t-124 -350zM487 1960q13 127 72 198.5t150 71.5q50 0 93.5 -19.5t75.5 -39t54 -19.5q26 0 40.5 15.5t20.5 52.5h201q-13 -127 -71.5 -198.5t-149.5 -71.5q-50 0 -93.5 19.5t-75.5 39t-54 19.5q-26 0 -41 -15.5t-21 -52.5h-201zM711 1595h-250l248 293h268
l248 -293h-258l-127 123z" />
    <glyph glyph-name="uni1ED7" unicode="&#x1ed7;" horiz-adv-x="1277" 
d="M74 541q0 161 74 291.5t204 205t291 74.5q159 0 287.5 -74t201 -204t72.5 -291q0 -246 -162.5 -410t-406.5 -164q-241 0 -401 163t-160 409zM367 541q0 -135 77.5 -224.5t194.5 -89.5t194.5 89.5t77.5 224.5t-77.5 224t-194.5 89t-194.5 -89t-77.5 -224zM485 1599h-200
q14 128 72 199.5t149 71.5q50 0 93.5 -19.5t75.5 -39t54 -19.5q26 0 41 15.5t21 52.5h200q-14 -128 -72 -199.5t-149 -71.5q-50 0 -93.5 19.5t-75.5 39t-54 19.5q-26 0 -41 -15.5t-21 -52.5zM258 1235l248 293h268l248 -293h-258l-127 123l-129 -123h-250z" />
    <glyph glyph-name="uni1ED8" unicode="&#x1ed8;" horiz-adv-x="1679" 
d="M86 725q0 217 98 393.5t271 276.5t387 100q160 0 299.5 -58t238.5 -159.5t156 -243.5t57 -305t-57.5 -305.5t-157 -244.5t-240 -161t-300.5 -59q-213 0 -385 99t-269.5 274.5t-97.5 392.5zM401 727q0 -213 124 -350t315 -137t314.5 137t123.5 350t-123.5 350t-314.5 137
t-315 -137t-124 -350zM711 1595h-250l248 293h268l248 -293h-258l-127 123zM840 -526q-68 0 -115 45t-47 112q0 68 47 114t115 46q71 0 118.5 -45.5t47.5 -114.5q0 -67 -47.5 -112t-118.5 -45z" />
    <glyph glyph-name="uni1ED9" unicode="&#x1ed9;" horiz-adv-x="1277" 
d="M74 541q0 161 74 291.5t204 205t291 74.5q159 0 287.5 -74t201 -204t72.5 -291q0 -246 -162.5 -410t-406.5 -164q-241 0 -401 163t-160 409zM367 541q0 -135 77.5 -224.5t194.5 -89.5t194.5 89.5t77.5 224.5t-77.5 224t-194.5 89t-194.5 -89t-77.5 -224zM258 1235
l248 293h268l248 -293h-258l-127 123l-129 -123h-250zM639 -526q-68 0 -115 45t-47 112q0 68 47 114t115 46q71 0 118.5 -45.5t47.5 -114.5q0 -67 -47.5 -112t-118.5 -45z" />
    <glyph glyph-name="uni1EDA" unicode="&#x1eda;" horiz-adv-x="1679" 
d="M86 725q0 217 98 393.5t271 276.5t387 100q92 0 186 -20.5t135 -20.5q88 0 123 44t35 147h242q0 -133 -49.5 -219t-163.5 -121q116 -104 179.5 -252.5t63.5 -323.5q0 -163 -57.5 -305.5t-157 -244.5t-240 -161t-300.5 -59q-213 0 -385 99t-269.5 274.5t-97.5 392.5z
M840 1214q-191 0 -315 -137t-124 -350t124 -350t315 -137t314.5 137t123.5 350t-123.5 350t-314.5 137zM940 1595h-264l190 293h318z" />
    <glyph glyph-name="uni1EDB" unicode="&#x1edb;" horiz-adv-x="1277" 
d="M74 541q0 161 74 291.5t204 205t291 74.5q68 0 135.5 -15.5t100.5 -15.5q88 0 122.5 44t34.5 147h242q0 -276 -217 -342q143 -159 143 -387q0 -246 -162.5 -410t-406.5 -164q-241 0 -401 163t-160 409zM639 854q-117 0 -194.5 -89t-77.5 -224t77.5 -224.5t194.5 -89.5
t194.5 89.5t77.5 224.5t-77.5 224t-194.5 89zM741 1235h-264l191 293h317z" />
    <glyph glyph-name="uni1EDC" unicode="&#x1edc;" horiz-adv-x="1679" 
d="M86 725q0 217 98 393.5t271 276.5t387 100q92 0 186 -20.5t135 -20.5q88 0 123 44t35 147h242q0 -133 -49.5 -219t-163.5 -121q116 -104 179.5 -252.5t63.5 -323.5q0 -163 -57.5 -305.5t-157 -244.5t-240 -161t-300.5 -59q-213 0 -385 99t-269.5 274.5t-97.5 392.5z
M401 727q0 -213 124 -350t315 -137t314.5 137t123.5 350t-123.5 350t-314.5 137t-315 -137t-124 -350zM489 1888h318l190 -293h-264z" />
    <glyph glyph-name="uni1EDD" unicode="&#x1edd;" horiz-adv-x="1277" 
d="M74 541q0 161 74 291.5t204 205t291 74.5q68 0 135.5 -15.5t100.5 -15.5q88 0 122.5 44t34.5 147h242q0 -276 -217 -342q143 -159 143 -387q0 -246 -162.5 -410t-406.5 -164q-241 0 -401 163t-160 409zM367 541q0 -135 77.5 -224.5t194.5 -89.5t194.5 89.5t77.5 224.5
t-77.5 224t-194.5 89t-194.5 -89t-77.5 -224zM530 1235l-243 293h317l191 -293h-265z" />
    <glyph glyph-name="uni1EDE" unicode="&#x1ede;" horiz-adv-x="1679" 
d="M86 725q0 217 98 393.5t271 276.5t387 100q92 0 186 -20.5t135 -20.5q88 0 123 44t35 147h242q0 -133 -49.5 -219t-163.5 -121q116 -104 179.5 -252.5t63.5 -323.5q0 -163 -57.5 -305.5t-157 -244.5t-240 -161t-300.5 -59q-213 0 -385 99t-269.5 274.5t-97.5 392.5z
M401 727q0 -213 124 -350t315 -137t314.5 137t123.5 350t-123.5 350t-314.5 137t-315 -137t-124 -350zM725 1821l-82 116q85 62 229 62q108 0 168 -47.5t60 -134.5q0 -77 -68.5 -138.5t-191.5 -83.5l-54 123q63 14 85.5 36.5t19.5 53.5q-2 19 -20 32t-48 13q-52 0 -98 -32z
" />
    <glyph glyph-name="uni1EDF" unicode="&#x1edf;" horiz-adv-x="1277" 
d="M74 541q0 161 74 291.5t204 205t291 74.5q68 0 135.5 -15.5t100.5 -15.5q88 0 122.5 44t34.5 147h242q0 -276 -217 -342q143 -159 143 -387q0 -246 -162.5 -410t-406.5 -164q-241 0 -401 163t-160 409zM367 541q0 -135 77.5 -224.5t194.5 -89.5t194.5 89.5t77.5 224.5
t-77.5 224t-194.5 89t-194.5 -89t-77.5 -224zM524 1460l-82 117q84 61 230 61q108 0 167.5 -47.5t59.5 -134.5q0 -76 -68.5 -137t-191.5 -84l-53 123q63 14 85 36.5t19 53.5q-2 20 -19.5 32.5t-47.5 12.5q-52 0 -99 -33z" />
    <glyph glyph-name="uni1EE0" unicode="&#x1ee0;" horiz-adv-x="1679" 
d="M838 -41q-213 0 -385 99t-269.5 274.5t-97.5 392.5t98 393.5t271 276.5t387 100q92 0 186 -20.5t135 -20.5q88 0 123 44t35 147h242q0 -133 -49.5 -219t-163.5 -121q116 -104 179.5 -252.5t63.5 -323.5q0 -163 -57.5 -305.5t-157 -244.5t-240 -161t-300.5 -59zM840 1214
q-191 0 -315 -137t-124 -350t124 -350t315 -137t314.5 137t123.5 350t-123.5 350t-314.5 137zM686 1606h-201q13 127 72 198.5t150 71.5q50 0 93.5 -19.5t75.5 -39t54 -19.5q26 0 40.5 15.5t20.5 52.5h201q-14 -128 -72 -199.5t-149 -71.5q-50 0 -93.5 19.5t-75.5 39
t-54 19.5q-26 0 -41 -15t-21 -52z" />
    <glyph glyph-name="uni1EE1" unicode="&#x1ee1;" horiz-adv-x="1277" 
d="M635 -31q-241 0 -401 163t-160 409q0 161 74 291.5t204 205t291 74.5q68 0 135.5 -15.5t100.5 -15.5q88 0 122.5 44t34.5 147h242q0 -276 -217 -342q143 -159 143 -387q0 -246 -162.5 -410t-406.5 -164zM367 541q0 -135 77.5 -224.5t194.5 -89.5t194.5 89.5t77.5 224.5
t-77.5 224t-194.5 89t-194.5 -89t-77.5 -224zM285 1241q13 127 71.5 198.5t149.5 71.5q50 0 93.5 -19.5t75.5 -38.5t54 -19q26 0 41 15t21 52h200q-13 -127 -71.5 -198.5t-149.5 -71.5q-50 0 -93.5 19.5t-75.5 39t-54 19.5q-26 0 -41 -15.5t-21 -52.5h-200z" />
    <glyph glyph-name="uni1EE2" unicode="&#x1ee2;" horiz-adv-x="1679" 
d="M86 725q0 217 98 393.5t271 276.5t387 100q92 0 186 -20.5t135 -20.5q88 0 123 44t35 147h242q0 -133 -49.5 -219t-163.5 -121q116 -104 179.5 -252.5t63.5 -323.5q0 -163 -57.5 -305.5t-157 -244.5t-240 -161t-300.5 -59q-213 0 -385 99t-269.5 274.5t-97.5 392.5z
M401 727q0 -213 124 -350t315 -137t314.5 137t123.5 350t-123.5 350t-314.5 137t-315 -137t-124 -350zM678 -369q0 68 47 114t115 46q71 0 118.5 -45.5t47.5 -114.5q0 -67 -47.5 -112t-118.5 -45q-68 0 -115 45t-47 112z" />
    <glyph glyph-name="uni1EE3" unicode="&#x1ee3;" horiz-adv-x="1277" 
d="M74 541q0 161 74 291.5t204 205t291 74.5q68 0 135.5 -15.5t100.5 -15.5q88 0 122.5 44t34.5 147h242q0 -276 -217 -342q143 -159 143 -387q0 -246 -162.5 -410t-406.5 -164q-241 0 -401 163t-160 409zM367 541q0 -135 77.5 -224.5t194.5 -89.5t194.5 89.5t77.5 224.5
t-77.5 224t-194.5 89t-194.5 -89t-77.5 -224zM477 -369q0 68 47 114t115 46q71 0 118.5 -45.5t47.5 -114.5q0 -67 -47.5 -112t-118.5 -45q-68 0 -115 45t-47 112z" />
    <glyph glyph-name="uni1EE4" unicode="&#x1ee4;" horiz-adv-x="1478" 
d="M113 1454h305v-852q0 -168 86 -265t235 -97q147 0 234.5 97.5t87.5 264.5v852h305v-866q0 -286 -171.5 -457.5t-457.5 -171.5q-285 0 -454.5 171.5t-169.5 457.5v866zM578 -369q0 69 46.5 114.5t114.5 45.5q71 0 118.5 -45.5t47.5 -114.5q0 -67 -47.5 -112t-118.5 -45
q-68 0 -114.5 45t-46.5 112z" />
    <glyph glyph-name="uni1EE5" unicode="&#x1ee5;" horiz-adv-x="1212" 
d="M115 1081h286v-604q0 -116 55.5 -183t149.5 -67t149.5 67t55.5 183v604h287v-598q0 -232 -135.5 -373t-360.5 -141q-222 0 -354.5 139t-132.5 375v598zM444 -369q0 68 47 114t115 46q71 0 118.5 -45.5t47.5 -114.5q0 -67 -47.5 -112t-118.5 -45q-68 0 -115 45t-47 112z
" />
    <glyph glyph-name="uni1EE6" unicode="&#x1ee6;" horiz-adv-x="1478" 
d="M113 1454h305v-852q0 -168 86 -265t235 -97q147 0 234.5 97.5t87.5 264.5v852h305v-866q0 -286 -171.5 -457.5t-457.5 -171.5q-285 0 -454.5 171.5t-169.5 457.5v866zM627 1821l-82 116q85 62 229 62q108 0 167.5 -47.5t59.5 -134.5q0 -77 -68.5 -138.5t-191.5 -83.5
l-53 123q63 14 85.5 36.5t19.5 53.5q-2 19 -20 32t-48 13q-52 0 -98 -32z" />
    <glyph glyph-name="uni1EE7" unicode="&#x1ee7;" horiz-adv-x="1212" 
d="M115 1081h286v-604q0 -116 55.5 -183t149.5 -67t149.5 67t55.5 183v604h287v-598q0 -232 -135.5 -373t-360.5 -141q-222 0 -354.5 139t-132.5 375v598zM492 1460l-82 117q84 61 229 61q108 0 167.5 -47.5t59.5 -134.5q0 -76 -68.5 -137t-191.5 -84l-53 123q63 14 85 36.5
t19 53.5q-2 20 -19.5 32.5t-47.5 12.5q-51 0 -98 -33z" />
    <glyph glyph-name="uni1EE8" unicode="&#x1ee8;" horiz-adv-x="1478" 
d="M113 588v866h305v-852q0 -168 86 -265t235 -97q147 0 234.5 97.5t87.5 264.5v852h127q88 0 123 44t35 147h241q0 -279 -221 -345v-712q0 -286 -171.5 -457.5t-457.5 -171.5q-285 0 -454.5 171.5t-169.5 457.5zM858 1595h-264l190 293h318z" />
    <glyph glyph-name="uni1EE9" unicode="&#x1ee9;" horiz-adv-x="1212" 
d="M115 483v598h286v-604q0 -116 55.5 -183t149.5 -67t149.5 67t55.5 183v604h125q78 3 109.5 47.5t31.5 143.5h242q0 -135 -51.5 -222t-169.5 -122v-445q0 -232 -135.5 -373t-360.5 -141q-222 0 -354.5 139t-132.5 375zM727 1235h-264l190 293h318z" />
    <glyph glyph-name="uni1EEA" unicode="&#x1eea;" horiz-adv-x="1478" 
d="M113 1454h305v-852q0 -168 86 -265t235 -97q147 0 234.5 97.5t87.5 264.5v852h127q88 0 123 44t35 147h241q0 -279 -221 -345v-712q0 -286 -171.5 -457.5t-457.5 -171.5q-285 0 -454.5 171.5t-169.5 457.5v866zM645 1595l-244 293h318l190 -293h-264z" />
    <glyph glyph-name="uni1EEB" unicode="&#x1eeb;" horiz-adv-x="1212" 
d="M115 1081h286v-604q0 -116 55.5 -183t149.5 -67t149.5 67t55.5 183v604h125q78 3 109.5 47.5t31.5 143.5h242q0 -135 -51.5 -222t-169.5 -122v-445q0 -232 -135.5 -373t-360.5 -141q-222 0 -354.5 139t-132.5 375v598zM492 1235l-244 293h317l191 -293h-264z" />
    <glyph glyph-name="uni1EEC" unicode="&#x1eec;" horiz-adv-x="1478" 
d="M737 -41q-285 0 -454.5 171.5t-169.5 457.5v866h305v-852q0 -168 86 -265t235 -97q147 0 234.5 97.5t87.5 264.5v852h127q88 0 123 44t35 147h241q0 -279 -221 -345v-712q0 -286 -171.5 -457.5t-457.5 -171.5zM545 1937q85 62 229 62q108 0 167.5 -47.5t59.5 -134.5
q0 -77 -68.5 -138.5t-191.5 -83.5l-53 123q63 14 85.5 36.5t19.5 53.5q-2 19 -20 32t-48 13q-52 0 -98 -32z" />
    <glyph glyph-name="uni1EED" unicode="&#x1eed;" horiz-adv-x="1212" 
d="M602 -31q-222 0 -354.5 139t-132.5 375v598h286v-604q0 -116 55.5 -183t149.5 -67t149.5 67t55.5 183v604h125q78 3 109.5 47.5t31.5 143.5h242q0 -135 -51.5 -222t-169.5 -122v-445q0 -232 -135.5 -373t-360.5 -141zM410 1577q84 61 229 61q108 0 167.5 -47.5
t59.5 -134.5q0 -76 -68.5 -137t-191.5 -84l-53 123q63 14 85 36.5t19 53.5q-2 20 -19.5 32.5t-47.5 12.5q-51 0 -98 -33z" />
    <glyph glyph-name="uni1EEE" unicode="&#x1eee;" horiz-adv-x="1478" 
d="M113 1454h305v-852q0 -168 86 -265t235 -97q147 0 234.5 97.5t87.5 264.5v852h127q88 0 123 44t35 147h241q0 -279 -221 -345v-712q0 -286 -171.5 -457.5t-457.5 -171.5q-285 0 -454.5 171.5t-169.5 457.5v866zM590 1606h-201q13 127 71.5 198.5t149.5 71.5
q50 0 94 -19.5t76 -39t54 -19.5q26 0 40.5 15.5t20.5 52.5h201q-13 -127 -72 -199t-150 -72q-50 0 -93.5 19.5t-75.5 39t-54 19.5q-26 0 -40.5 -15t-20.5 -52z" />
    <glyph glyph-name="uni1EEF" unicode="&#x1eef;" horiz-adv-x="1212" 
d="M115 1081h286v-604q0 -116 55.5 -183t149.5 -67t149.5 67t55.5 183v604h125q78 3 109.5 47.5t31.5 143.5h242q0 -135 -51.5 -222t-169.5 -122v-445q0 -232 -135.5 -373t-360.5 -141q-222 0 -354.5 139t-132.5 375v598zM451 1241h-201q13 127 71.5 198.5t149.5 71.5
q50 0 93.5 -19.5t75.5 -38.5t54 -19q26 0 41 15t21 52h200q-13 -127 -71.5 -198.5t-149.5 -71.5q-50 0 -93.5 19.5t-75.5 39t-54 19.5q-26 0 -40.5 -15.5t-20.5 -52.5z" />
    <glyph glyph-name="uni1EF0" unicode="&#x1ef0;" horiz-adv-x="1478" 
d="M737 -41q-285 0 -454.5 171.5t-169.5 457.5v866h305v-852q0 -168 86 -265t235 -97q147 0 234.5 97.5t87.5 264.5v852h127q88 0 123 44t35 147h241q0 -279 -221 -345v-712q0 -286 -171.5 -457.5t-457.5 -171.5zM739 -526q-68 0 -114.5 45t-46.5 112q0 69 46.5 114.5
t114.5 45.5q71 0 118.5 -45.5t47.5 -114.5q0 -67 -47.5 -112t-118.5 -45z" />
    <glyph glyph-name="uni1EF1" unicode="&#x1ef1;" horiz-adv-x="1212" 
d="M602 -31q-222 0 -354.5 139t-132.5 375v598h286v-604q0 -116 55.5 -183t149.5 -67t149.5 67t55.5 183v604h125q78 3 109.5 47.5t31.5 143.5h242q0 -135 -51.5 -222t-169.5 -122v-445q0 -232 -135.5 -373t-360.5 -141zM606 -526q-68 0 -115 45t-47 112q0 68 47 114t115 46
q71 0 118.5 -45.5t47.5 -114.5q0 -67 -47.5 -112t-118.5 -45z" />
    <glyph glyph-name="Ygrave" unicode="&#x1ef2;" horiz-adv-x="1366" 
d="M530 565l-507 889h339l326 -612l324 612h331l-507 -889v-565h-306v565zM578 1595l-244 293h317l191 -293h-264z" />
    <glyph glyph-name="ygrave" unicode="&#x1ef3;" horiz-adv-x="1148" 
d="M459 10l-436 1071h313l256 -766l231 766h303l-444 -1183q-61 -163 -156 -239.5t-231 -76.5q-116 0 -197 47l56 226q55 -25 110 -25q123 0 176 133zM256 1528h317l191 -293h-264z" />
    <glyph glyph-name="uni1EF4" unicode="&#x1ef4;" horiz-adv-x="1366" 
d="M530 565l-507 889h339l326 -612l324 612h331l-507 -889v-565h-306v565zM520 -369q0 68 47 114t115 46q71 0 118.5 -45.5t47.5 -114.5q0 -67 -47.5 -112t-118.5 -45q-68 0 -115 45t-47 112z" />
    <glyph glyph-name="uni1EF5" unicode="&#x1ef5;" horiz-adv-x="1148" 
d="M23 1081h313l256 -766l231 766h303l-444 -1183q-61 -163 -156 -239.5t-231 -76.5q-116 0 -197 47l56 226q55 -25 110 -25q123 0 176 133l19 47zM928 -526q-68 0 -115 45t-47 112q0 68 47 114t115 46q71 0 118.5 -45.5t47.5 -114.5q0 -67 -47.5 -112t-118.5 -45z" />
    <glyph glyph-name="uni1EF6" unicode="&#x1ef6;" horiz-adv-x="1366" 
d="M530 565l-507 889h339l326 -612l324 612h331l-507 -889v-565h-306v565zM485 1937q85 62 230 62q108 0 167.5 -47.5t59.5 -134.5q0 -77 -68.5 -138.5t-191.5 -83.5l-53 123q63 14 85 36.5t19 53.5q-2 20 -19.5 32.5t-47.5 12.5q-53 0 -99 -32z" />
    <glyph glyph-name="uni1EF7" unicode="&#x1ef7;" horiz-adv-x="1148" 
d="M23 1081h313l256 -766l231 766h303l-444 -1183q-61 -163 -156 -239.5t-231 -76.5q-116 0 -197 47l56 226q55 -25 110 -25q123 0 176 133l19 47zM459 1460l-82 117q84 61 229 61q108 0 168 -47.5t60 -134.5q0 -76 -68.5 -137t-192.5 -84l-53 123q63 14 85.5 36.5
t19.5 53.5q-2 19 -20 32t-48 13q-51 0 -98 -33z" />
    <glyph glyph-name="uni1EF8" unicode="&#x1ef8;" horiz-adv-x="1366" 
d="M530 565l-507 889h339l326 -612l324 612h331l-507 -889v-565h-306v565zM336 1606q13 127 71.5 198.5t149.5 71.5q50 0 93.5 -19.5t75.5 -39t54 -19.5q26 0 41 15.5t21 52.5h200q-14 -128 -72 -199.5t-149 -71.5q-50 0 -93.5 19.5t-75.5 39t-54 19.5q-26 0 -40.5 -15
t-20.5 -52h-201z" />
    <glyph glyph-name="uni1EF9" unicode="&#x1ef9;" horiz-adv-x="1148" 
d="M459 10l-436 1071h313l256 -766l231 766h303l-444 -1183q-61 -163 -156 -239.5t-231 -76.5q-116 0 -197 47l56 226q55 -25 110 -25q123 0 176 133zM438 1241h-200q13 127 71.5 198.5t149.5 71.5q50 0 93.5 -19.5t75.5 -38.5t54 -19q26 0 40.5 15t20.5 52h201
q-13 -127 -71.5 -198.5t-149.5 -71.5q-50 0 -93.5 19.5t-75.5 39t-54 19.5q-26 0 -41 -15.5t-21 -52.5z" />
    <glyph glyph-name="uni2000" unicode="&#x2000;" horiz-adv-x="1024" 
 />
    <glyph glyph-name="uni2001" unicode="&#x2001;" horiz-adv-x="2048" 
 />
    <glyph glyph-name="uni2002" unicode="&#x2002;" horiz-adv-x="1024" 
 />
    <glyph glyph-name="uni2003" unicode="&#x2003;" horiz-adv-x="2048" 
 />
    <glyph glyph-name="uni2004" unicode="&#x2004;" horiz-adv-x="681" 
 />
    <glyph glyph-name="uni2005" unicode="&#x2005;" horiz-adv-x="512" 
 />
    <glyph glyph-name="uni2006" unicode="&#x2006;" horiz-adv-x="339" 
 />
    <glyph glyph-name="uni2007" unicode="&#x2007;" 
 />
    <glyph glyph-name="uni2008" unicode="&#x2008;" horiz-adv-x="552" 
 />
    <glyph glyph-name="uni2009" unicode="&#x2009;" horiz-adv-x="409" 
 />
    <glyph glyph-name="uni200A" unicode="&#x200a;" horiz-adv-x="129" 
 />
    <glyph glyph-name="uni200B" unicode="&#x200b;" horiz-adv-x="0" 
 />
    <glyph glyph-name="endash" unicode="&#x2013;" horiz-adv-x="1024" 
d="M0 457v213h1024v-213h-1024z" />
    <glyph glyph-name="emdash" unicode="&#x2014;" horiz-adv-x="2048" 
d="M0 457v213h2048v-213h-2048z" />
    <glyph glyph-name="quoteleft" unicode="&#x2018;" horiz-adv-x="509" 
d="M68 1108q0 131 84 231.5t223 137.5l49 -148q-82 -21 -132 -75t-50 -115q0 -17 2 -23q20 14 51 14q57 0 95 -40t38 -97t-45.5 -99t-108.5 -42q-86 0 -146 74.5t-60 181.5z" />
    <glyph glyph-name="quoteright" unicode="&#x2019;" horiz-adv-x="509" 
d="M82 1321q0 57 45 99t109 42q86 0 146 -74.5t60 -181.5q0 -132 -83.5 -231.5t-223.5 -136.5l-49 147q81 22 131.5 75.5t50.5 115.5q0 16 -2 22q-20 -14 -51 -14q-57 0 -95 40t-38 97z" />
    <glyph glyph-name="quotesinglbase" unicode="&#x201a;" horiz-adv-x="512" 
d="M98 182q0 58 45 100t109 42q86 0 146.5 -74.5t60.5 -181.5q0 -132 -83.5 -232t-223.5 -137l-50 147q81 22 132 75.5t51 115.5q0 16 -2 22q-20 -14 -52 -14q-57 0 -95 40t-38 97z" />
    <glyph glyph-name="quotedblleft" unicode="&#x201c;" horiz-adv-x="954" 
d="M512 1108q0 131 84 231.5t223 137.5l49 -148q-82 -21 -132 -75t-50 -115q0 -17 2 -23q20 14 51 14q57 0 95 -40t38 -97t-45 -99t-108 -42q-86 0 -146.5 74.5t-60.5 181.5zM68 1108q0 131 84 231.5t223 137.5l49 -148q-82 -21 -132 -75t-50 -115q0 -17 2 -23q20 14 51 14
q57 0 95 -40t38 -97t-45.5 -99t-108.5 -42q-86 0 -146 74.5t-60 181.5z" />
    <glyph glyph-name="quotedblright" unicode="&#x201d;" horiz-adv-x="954" 
d="M659 1184q-57 0 -95 40t-38 97t45 99t109 42q86 0 146.5 -74.5t60.5 -181.5q0 -132 -83.5 -231.5t-223.5 -136.5l-50 147q81 22 132 75.5t51 115.5q0 16 -2 22q-20 -14 -52 -14zM82 1321q0 57 45 99t109 42q86 0 146 -74.5t60 -181.5q0 -132 -83.5 -231.5t-223.5 -136.5
l-49 147q81 22 131.5 75.5t50.5 115.5q0 16 -2 22q-20 -14 -51 -14q-57 0 -95 40t-38 97z" />
    <glyph glyph-name="quotedblbase" unicode="&#x201e;" horiz-adv-x="958" 
d="M678 45q-57 0 -95 40t-38 97q0 58 44.5 100t108.5 42q86 0 146.5 -74.5t60.5 -181.5q0 -132 -83.5 -232t-223.5 -137l-49 147q81 22 131.5 75.5t50.5 115.5q0 16 -2 22q-20 -14 -51 -14zM98 182q0 58 45 100t109 42q86 0 146.5 -74.5t60.5 -181.5q0 -132 -83.5 -232
t-223.5 -137l-50 147q81 22 132 75.5t51 115.5q0 16 -2 22q-20 -14 -52 -14q-57 0 -95 40t-38 97z" />
    <glyph glyph-name="dagger" unicode="&#x2020;" horiz-adv-x="983" 
d="M61 1106h299v348h263v-348h299v-229h-299v-1045h-263v1045h-299v229z" />
    <glyph glyph-name="daggerdbl" unicode="&#x2021;" horiz-adv-x="1064" 
d="M102 420h299v457h-299v229h299v348h263v-348h299v-229h-299v-457h299v-230h-299v-358h-263v358h-299v230z" />
    <glyph glyph-name="bullet" unicode="&#x2022;" horiz-adv-x="643" 
d="M86 565q0 98 69 167t167 69t166.5 -69t68.5 -167t-68.5 -166.5t-166.5 -68.5t-167 68.5t-69 166.5z" />
    <glyph glyph-name="ellipsis" unicode="&#x2026;" horiz-adv-x="1658" 
d="M1202 172q0 74 52.5 127t127.5 53t128 -53t53 -127t-53 -127t-128 -53t-127.5 53t-52.5 127zM829 -8q-75 0 -127.5 53t-52.5 127t52.5 127t127.5 53t128 -53t53 -127t-53 -127t-128 -53zM96 172q0 74 52.5 127t127.5 53t128 -53t53 -127t-53 -127t-128 -53t-127.5 53
t-52.5 127z" />
    <glyph glyph-name="perthousand" unicode="&#x2030;" horiz-adv-x="2299" 
d="M393 788q-139 0 -232 91.5t-93 228.5q0 138 94.5 231t236.5 93q139 0 233.5 -92.5t94.5 -229.5q0 -138 -96 -230t-238 -92zM1149 -18q-138 0 -232 91.5t-94 227.5q0 138 95 231t237 93q139 0 233.5 -92.5t94.5 -229.5t-96 -229t-238 -92zM1898 -18q-138 0 -231.5 91.5
t-93.5 227.5q0 138 95 231t237 93q138 0 232.5 -92t94.5 -230q0 -137 -96 -229t-238 -92zM446 0h-229l885 1413h229zM1786 303q0 -57 34 -96t83 -39t82.5 39t33.5 96t-33.5 96t-82.5 39t-83 -39t-34 -96zM1153 438q-49 0 -83 -39t-34 -96t34 -96t83 -39t83 39t34 96t-34 96
t-83 39zM397 1245q-49 0 -82.5 -39t-33.5 -96t33.5 -96t82.5 -39t83 39t34 96t-34 96t-83 39z" />
    <glyph glyph-name="guilsinglleft" unicode="&#x2039;" horiz-adv-x="636" 
d="M315 190l-274 394l274 393h250l-266 -393l266 -394h-250z" />
    <glyph glyph-name="guilsinglright" unicode="&#x203a;" horiz-adv-x="636" 
d="M72 190l266 394l-266 393h250l274 -393l-274 -394h-250z" />
    <glyph glyph-name="fraction" unicode="&#x2044;" horiz-adv-x="188" 
d="M-463 0l897 1413h217l-897 -1413h-217z" />
    <glyph glyph-name="uni2080" unicode="&#x2080;" horiz-adv-x="735" 
d="M53 387q0 190 86.5 300t231.5 110q143 0 226 -109.5t83 -296.5q0 -189 -86 -299t-232 -110q-143 0 -226 109t-83 296zM256 389q0 -227 111 -227q110 0 110 227t-110 227q-111 0 -111 -227z" />
    <glyph glyph-name="uni2081" unicode="&#x2081;" horiz-adv-x="735" 
d="M322 0v571l-158 -84l-60 162l242 129h176v-778h-200z" />
    <glyph glyph-name="uni2082" unicode="&#x2082;" horiz-adv-x="735" 
d="M76 561q19 104 101 170t194 66q118 0 196 -72t78 -180q0 -48 -18 -94.5t-42 -81t-66 -74.5t-71.5 -63t-76.5 -58h288v-174h-573v141q356 271 356 394q0 37 -23 61.5t-61 24.5q-36 0 -62 -23t-36 -66z" />
    <glyph glyph-name="uni2083" unicode="&#x2083;" horiz-adv-x="735" 
d="M356 -18q-119 0 -197 59.5t-102 159.5l181 28q11 -33 40.5 -54t71.5 -21q44 0 73.5 23.5t29.5 60.5q0 32 -28.5 54.5t-70.5 22.5h-80v164h66q43 0 70.5 20.5t27.5 55.5q0 30 -25.5 50t-62.5 20q-75 0 -96 -70l-182 31q23 97 100.5 154t189.5 57q121 0 197 -60.5
t76 -158.5q0 -118 -111 -172q131 -53 131 -185q0 -104 -85 -171.5t-214 -67.5z" />
    <glyph glyph-name="uni2084" unicode="&#x2084;" horiz-adv-x="735" 
d="M39 147v156l317 475h230v-471h80v-160h-80v-147h-197v147h-350zM223 307h166v248z" />
    <glyph glyph-name="colonmonetary" unicode="&#x20a1;" 
d="M334 68q-120 86 -185 244t-65 376q0 314 128.5 509.5t348.5 229.5l41 242h139l-39 -237q51 -6 97 -21l43 258h139l-53 -321q154 -111 207 -330l-271 -47q-25 97 -85 145.5t-142 48.5q-124 0 -191 -120t-67 -343q0 -222 64 -338t186 -116q87 0 146.5 51t84.5 143l283 -47
q-43 -178 -159.5 -285t-285.5 -126l-45 -271h-139l45 271q-53 6 -96 20l-49 -291h-140z" />
    <glyph glyph-name="uni20A8" unicode="&#x20a8;" horiz-adv-x="2207" 
d="M129 0v1413h436q253 0 399 -122t146 -333q0 -123 -62.5 -227.5t-170.5 -163.5l313 -567h-322l-245 487q-54 -4 -78 -4q-39 0 -129 11v-494h-287zM1690 -31q-165 0 -290.5 82t-164.5 219l254 56q20 -62 76.5 -100t126.5 -38q73 0 117 31t44 84q0 52 -41.5 79.5
t-130.5 43.5l-57 10q-174 31 -266 114t-92 212q0 154 116.5 252t300.5 98q159 0 277 -80t151 -215l-251 -53q-20 61 -67.5 96t-109.5 35q-63 0 -105 -31t-42 -78q0 -43 38 -69.5t138 -44.5l57 -10q176 -32 267.5 -117t91.5 -213q0 -158 -123 -260.5t-315 -102.5zM416 1159
v-411q76 -13 145 -13q123 0 190.5 56t67.5 159q0 99 -66.5 154t-187.5 55h-149z" />
    <glyph glyph-name="uni20A9" unicode="&#x20a9;" horiz-adv-x="1949" 
d="M281 733h-224v172h179l-136 508h306l219 -1034l227 1034h258l227 -1030l219 1030h293l-135 -508h178v-172h-223l-37 -141h260v-172h-307l-110 -420h-289l-209 942l-209 -942h-293l-110 420h-308v172h260z" />
    <glyph glyph-name="uni20AA" unicode="&#x20aa;" horiz-adv-x="1896" 
d="M154 1413h632q239 0 375.5 -142.5t136.5 -391.5v-433h-249v422q0 129 -72 199t-203 70h-371v-1137h-249v1413zM1231 0h-633v958h250v-679h371q133 0 203.5 69.5t70.5 198.5v866h250v-878q0 -249 -137 -392t-375 -143z" />
    <glyph glyph-name="dong" unicode="&#x20ab;" 
d="M483 -31q-126 0 -230.5 68.5t-164 188t-59.5 263.5q0 148 61.5 270.5t169.5 192.5t240 70q181 0 284 -137v223h-260v178h260v127h287v-127h129v-178h-129v-1108h-264l-8 139q-51 -80 -134 -125t-182 -45zM553 772q-100 0 -167 -78.5t-67 -197.5q0 -120 67 -198.5
t167 -78.5t166.5 78.5t66.5 198.5t-66.5 198t-166.5 78zM1133 -324h-1090v179h1090v-179z" />
    <glyph glyph-name="Euro" unicode="&#x20ac;" 
d="M141 766h-153l39 162h135q46 244 185 380t347 136q179 0 307 -101.5t168 -277.5l-272 -49q-25 81 -80 125.5t-129 44.5q-183 0 -242 -258h402l-39 -162h-381q-2 -23 -2 -70q0 -43 2 -61h354l-39 -162h-297q52 -246 240 -246q78 0 136 45t83 125l273 -49
q-40 -174 -174.5 -276.5t-319.5 -102.5q-214 0 -350.5 131t-177.5 373h-168l39 162h112v51q0 53 2 80z" />
    <glyph glyph-name="uni20AD" unicode="&#x20ad;" 
d="M4 633v215h148v565h288v-612l402 612h323l-411 -565h331v-215h-315l469 -633h-360l-439 674v-674h-288v633h-148z" />
    <glyph glyph-name="uni20B1" unicode="&#x20b1;" 
d="M25 858h163v141h-163v172h163v242h375q159 0 276 -63t177 -179h184v-172h-133q4 -46 4 -71q0 -24 -4 -70h133v-172h-186q-62 -114 -178.5 -179t-268.5 -65q-33 0 -94 7v-449h-285v686h-163v172zM557 1161h-84v-461q34 -6 66 -6q113 0 180 63.5t67 170.5
q0 108 -61.5 170.5t-167.5 62.5z" />
    <glyph glyph-name="uni20B9" unicode="&#x20b9;" 
d="M152 1204v209h968l-53 -209h-209q64 -64 92 -155h170l-53 -209h-104q-22 -139 -126.5 -235t-261.5 -124l543 -481h-409l-557 500v194q93 -22 221 -22q118 0 193.5 43t101.5 125h-516v209h512q-29 75 -99 115t-174 40h-239z" />
    <glyph glyph-name="uni20BA" unicode="&#x20ba;" 
d="M94 348v180l144 68v158l-142 -68v180l142 68v479h288v-340l254 121v-180l-254 -121v-158l254 121v-180l-254 -121v-279q289 12 342 336l279 -24q-44 -293 -214.5 -440.5t-461.5 -147.5h-233v416z" />
    <glyph glyph-name="trademark" unicode="&#x2122;" horiz-adv-x="1632" 
d="M754 735v719h200l183 -375l182 375h194v-719h-188v420l-129 -270h-125l-127 268v-418h-190zM248 1280h-197v174h592v-174h-197v-545h-198v545z" />
    <glyph glyph-name="minus" unicode="&#x2212;" 
d="M178 440v248h860v-248h-860z" />
    <glyph glyph-name="uniFEFF" unicode="&#xfeff;" horiz-adv-x="0" 
 />
    <glyph glyph-name="uniFFFD" unicode="&#xfffd;" horiz-adv-x="1654" 
d="M827 -70l-796 797l796 797l797 -797zM827 1153q-118 0 -203.5 -61.5t-107.5 -163.5l164 -37q17 51 53 78.5t86 27.5q57 0 92 -33.5t35 -84.5q0 -124 -215 -177v-190h168v109q110 36 169.5 105t59.5 165q0 114 -86 188t-215 74zM815 434q-44 0 -74 -31t-30 -75
q0 -45 30 -76t74 -31t75.5 31.5t31.5 75.5t-31.5 75t-75.5 31z" />
    <glyph glyph-name="uF0001" unicode="&#xf0001;" horiz-adv-x="1519" 
d="M45 283q-11 77 18 166q3 9 23 55q6 13 17.5 38t17.5 38q47 101 102.5 211.5t126.5 249.5t107 210l4 9q9 19 24 45l13 24q91 178 262 178q59 0 106 -19t82.5 -57.5t59 -76t51.5 -94.5l4 -9q30 -61 105 -208.5t128 -254t101 -206.5l37 -78q10 -23 22 -55q31 -85 19 -166
q-19 -123 -114.5 -203t-219.5 -80q-7 0 -21.5 1t-21.5 1q-162 19 -338 199q-176 -180 -338 -199q-7 0 -20.5 -1t-20.5 -1q-124 0 -220.5 80t-115.5 203zM182 408q-21 -58 -12 -107q15 -77 73.5 -126.5t135.5 -49.5q135 0 297 170q-146 185 -178 323q-15 68 -6 132
q15 97 91.5 158t176.5 61q99 0 177 -61.5t91 -157.5q9 -64 -6 -132q-32 -138 -178 -323q161 -170 295 -170q77 0 139.5 50t71.5 126q7 58 -13 107q-17 39 -20 45q-3 13 -10 22q-1 4 -2.5 8t-4.5 9.5t-4 9.5q-1 2 -5 9.5t-7 16.5q-24 51 -76.5 162.5t-84 177t-80 158.5
t-93.5 168l-6 10q-14 24 -16 33q-3 5 -9.5 16.5t-9.5 16.5q-28 48 -41 63q-43 49 -108 49q-61 0 -100.5 -40.5t-67.5 -106.5q-3 -3 -19 -33l-4 -8q-288 -573 -331 -664q-55 -110 -56 -122zM616 731q-6 -37 7 -86q33 -123 137 -254q117 148 137 254q11 55 6 86
q-7 52 -47.5 82.5t-95.5 30.5q-53 0 -95 -31t-49 -82z" />
    <glyph glyph-name="uF0002" unicode="&#xf0002;" horiz-adv-x="1257" 
d="M47 555q-15 26 2 53l629 836q50 65 88 65q8 0 12 -2q42 -11 39 -94q-5 -125 -37 -426q-3 -27 1.5 -38t23.5 -11h6l350 29q33 0 49 -25q15 -26 -2 -53l-628 -836q-52 -67 -84 -67q-5 0 -17 4q-42 16 -39 94q3 67 16.5 219.5t20.5 204.5q3 27 -2.5 39t-25.5 12h-5l-348 -29
h-4q-27 0 -45 25z" />
    <glyph glyph-name="uF0003" unicode="&#xf0003;" horiz-adv-x="987" 
d="M41 1487q0 8 8.5 14t18.5 6h852q10 0 18 -6t8 -14v-313q0 -28 -26 -48l-381 -321q-18 -12 -45 -12q-24 0 -45 12l-381 321q-27 21 -27 48v313zM494 0q-142 0 -243 101t-101 243q0 143 101 244.5t243 101.5t243 -101.5t101 -244.5q0 -142 -101 -243t-243 -101z" />
    <glyph glyph-name="uF0004" unicode="&#xf0004;" horiz-adv-x="1638" 
d="M129 772q-102 76 -84.5 135t148.5 60l395 6l129 373q42 120 102 120q61 0 103 -120l131 -373l395 -6q127 -1 146.5 -60.5t-83.5 -134.5l-315 -237l115 -377q24 -82 11 -125t-58 -43q-49 0 -119 49l-326 223l-323 -223q-70 -49 -119 -49q-45 0 -58.5 43t11.5 125l114 377z
" />
    <glyph glyph-name="uF0005" unicode="&#xf0005;" horiz-adv-x="1638" 
d="M129 772q-103 78 -84.5 136t148.5 59l395 6l131 373q47 120 102 120v-1202l-325 -225q-67 -47 -119 -47q-45 0 -58.5 43t11.5 123l114 377z" />
    <glyph glyph-name="uF0006" unicode="&#xf0006;" horiz-adv-x="1638" 
d="M129 772q-103 78 -84.5 136t148.5 59l395 6l129 373q42 120 102 120q61 0 103 -120l131 -373l395 -6q128 -2 147 -59.5t-84 -135.5l-315 -237l115 -377q24 -82 11 -125t-58 -43q-49 0 -119 49l-326 225l-323 -225q-70 -49 -119 -49q-45 0 -58.5 43t11.5 125l114 377z
M332 813l293 -219l-107 -350l301 209l303 -209l-106 350l291 219l-367 8l-121 346l-121 -346z" />
    <glyph glyph-name="uF0007" unicode="&#xf0007;" horiz-adv-x="1441" 
d="M41 799q0 86 26 154.5t64 108t85 65.5t83.5 35t65.5 9q180 0 356 -184q176 184 356 184q29 0 65.5 -9t83.5 -35t85 -65.5t64 -108t26 -154.5q0 -98 -58 -209.5t-139.5 -203t-179.5 -177.5t-167 -136t-112 -75q-8 -8 -24 -8q-17 0 -25 8q-35 24 -72 50t-105.5 79.5
t-127.5 106.5t-126 125t-114 140.5t-78.5 148t-31.5 151.5z" />
    <glyph glyph-name="uF0008" unicode="&#xf0008;" horiz-adv-x="1902" 
d="M1559 0h-1215v1139h18q50 0 80 6.5t54 30.5l2 2q3 2 9 9t14.5 18.5t21.5 35t28 55.5q36 76 56 113.5t46.5 65.5t53.5 35.5t72 7.5h305q45 0 71.5 -7.5t53 -36t46.5 -65t56 -113.5q15 -32 28 -55.5t21.5 -35t15 -18.5t8.5 -9l3 -2q21 -24 51 -30.5t82 -6.5h19v-1139z
M1634 0v1139h152q30 0 53 -23t23 -53v-987q0 -28 -24 -52t-52 -24h-152zM117 0q-28 0 -52 24t-24 52v987q0 30 24.5 53t51.5 23h151v-1139h-151zM700 1196q-6 -19 0 -31t24.5 -17.5t35 -7t41.5 -1.5h37h227h37q24 0 41 1.5t35 7t24 17.5t0 31l-53 119q-1 2 -3.5 7.5t-3.5 8
t-3.5 7.5l-3.5 7t-3.5 5.5t-4.5 5.5t-4.5 4t-5.5 3l-6 2t-7 1h-305q-4 0 -7.5 -0.5t-7 -3t-5.5 -4t-5 -5t-4.5 -5.5t-4 -7.5t-3.5 -8t-4 -9t-4 -8.5z" />
    <glyph glyph-name="uF0009" unicode="&#xf0009;" horiz-adv-x="1638" 
d="M129 772q-104 76 -85 135t149 60l395 6l129 373q42 120 102 120q61 0 103 -120l129 -373l395 -6q129 -2 148.5 -60t-85.5 -135l-313 -237l115 -377q24 -82 11 -125t-58 -43q-48 0 -121 49l-324 225l-323 -225q-70 -49 -119 -49q-45 0 -58.5 43t11.5 125l112 377zM819 453
l301 -209l-106 350l293 219l-367 8l-121 346v-714z" />
    <glyph glyph-name="uF0010" unicode="&#xf0010;" horiz-adv-x="1247" 
d="M569 12q-56 56 -112.5 118t-138.5 167t-141 202t-100 213t-36 212q0 157 78.5 291t212.5 212t291 78q119 0 227 -46.5t186 -124.5t124 -185t46 -225q1 -62 -16 -132t-42.5 -131.5t-70 -135t-80 -125.5t-91.5 -121.5t-85.5 -104t-81 -93t-61.5 -69.5q-19 -22 -53 -22
t-56 22zM387 924q0 -98 69 -168t167 -70t167.5 70t69.5 168q0 97 -69.5 166t-167.5 69t-167 -69t-69 -166z" />
    <glyph glyph-name="uF0011" unicode="&#xf0011;" horiz-adv-x="3151" 
d="M1495 1479q-4 10 1.5 19t16.5 9h1551q20 0 33.5 -14.5t13.5 -34.5v-1409q0 -20 -13.5 -34.5t-33.5 -14.5h-1551q-11 0 -16.5 9.5t-1.5 19.5l303 708q7 16 0 33zM98 0q-23 0 -40 17t-17 40v1391q0 25 17 42t40 17h1180q34 0 53 -34l301 -703q7 -17 0 -33l-301 -702
q-19 -35 -53 -35h-1180zM1937 1153q-4 -29 16 -51.5t50 -22.5h96q12 0 12 -10q34 -318 203 -487q10 -10 0 -13q-104 -95 -276 -176q-23 -11 -35 -33t-6 -45t24 -37t41 -14q12 0 27 6q185 75 313 203q4 4 6 4q5 0 9 -4q22 -15 79.5 -62t96.5 -69l33 -18q107 -60 131 -60
q21 0 40 14t25 37t-6 45t-35 33q-146 67 -276 176q-3 3 0 13q41 51 88 131q5 12 16.5 32.5t16.5 32.5q64 142 81 291q0 10 13 10h96q29 0 48.5 22t17.5 52q-1 26 -22 42.5t-48 16.5h-326q-10 0 -10 11v67q0 27 -17 48.5t-42 21.5q-31 0 -52.5 -17.5t-21.5 -48.5v-71
q0 -11 -10 -11h-326q-26 0 -46 -16.5t-24 -42.5zM332 344q-6 -24 3.5 -47.5t31.5 -32.5q15 -6 28 -6q23 0 40.5 14t23.5 35l80 285q3 14 18 14h373q15 0 18 -16l80 -281q6 -24 25 -37.5t45 -13.5q32 4 48.5 29t8.5 55l-225 809q-7 29 -29.5 45t-52.5 16h-207
q-30 0 -52.5 -16t-29.5 -45zM2402 682q-127 174 -155 385q0 12 12 12h303q14 0 14 -12q-34 -222 -157 -385q-5 -2 -9 -2q-2 0 -4.5 1t-3.5 1zM598 737q-7 0 -11.5 5.5t-2.5 11.5l90 311q3 14 18 14h105q17 0 20 -14l86 -311q2 -6 -2 -11.5t-10 -5.5h-293z" />
    <glyph glyph-name="uF0012" unicode="&#xf0012;" horiz-adv-x="1462" 
d="M346 244h770q41 0 49.5 9t8.5 60v432q0 52 -8 61t-52 9h-766q-44 0 -51.5 -8.5t-7.5 -61.5v-432q0 -53 6.5 -61t50.5 -8zM1200 1343h162q25 0 42 -16t17 -41v-1229q0 -23 -17 -40t-42 -17h-1262q-25 0 -42 17t-17 40v1229q0 25 17 41t42 16h152q12 0 21.5 9.5t9.5 21.5
v117q0 38 27 65t65 27t66 -27t28 -65v-117q0 -12 8.5 -21.5t20.5 -9.5h456q12 0 20.5 9.5t8.5 21.5v117q0 38 28 65t66 27t65 -27t27 -65v-117q0 -12 9.5 -21.5t21.5 -9.5z" />
    <glyph glyph-name="uF0013" unicode="&#xf0013;" horiz-adv-x="2490" 
d="M88 266q-43 38 -46.5 95t34.5 98l512 581q46 53 109 81t130 28q75 0 143.5 -34.5t112.5 -94.5l379 -508q15 -18 37 -18q16 0 29 8q7 7 8 10l360 481h-290q-57 0 -97.5 40t-40.5 97t40.5 97.5t97.5 40.5h555q47 0 84 -28.5t49 -72.5l151 -544q12 -55 -15 -102t-81 -66
q-18 -6 -37 -6q-45 0 -83 27.5t-50 72.5l-74 268l-350 -469q-96 -129 -254 -129q-75 0 -144 33.5t-114 95.5l-385 514q-12 12 -29 12q-23 0 -36 -16l-512 -579q-42 -48 -103 -48q-52 0 -90 35z" />
    <glyph glyph-name="uF0014" unicode="&#xf0014;" horiz-adv-x="1415" 
d="M41 1249q0 70 15.5 123t37.5 81t52 45t52 21.5t44 4.5q116 0 204 -115q9 -12 25 -12h473q16 0 25 12q34 45 88.5 80t116.5 35q22 0 44 -4.5t51.5 -21.5t51.5 -45t37.5 -81t15.5 -123q0 -76 -19.5 -162t-55.5 -169.5t-96.5 -154t-133.5 -104.5q-13 -3 -16 -18
q-37 -102 -96.5 -163.5t-159.5 -86.5q-25 -6 -25 -31v-90q0 -16 14 -16h50q26 0 44.5 -19t18.5 -45v-47q0 -6 4 -11t10 -5h17q26 0 44.5 -19t18.5 -45t-18.5 -44.5t-44.5 -18.5h-445q-26 0 -44.5 18.5t-18.5 44.5t18.5 45t44.5 19h17q6 0 11 5t5 11v47q0 27 17.5 45.5
t46.5 18.5h47q16 0 16 16v90q0 11 -8.5 20.5t-18.5 10.5q-91 12 -155 82t-101 168q-3 15 -16 18q-73 34 -133.5 104.5t-96.5 154t-55.5 169.5t-19.5 162zM168 1249q0 -108 31 -214t94 -169q4 -4 12 -4h4q13 5 10 17q-10 221 33 426q0 29 -40.5 60.5t-69.5 31.5
q-74 0 -74 -148zM1063 1305q40 -263 33 -426q-4 -17 10 -17h4q4 0 12 4q56 77 90.5 181.5t34.5 201.5q0 148 -73 148q-27 0 -69 -31.5t-42 -60.5z" />
    <glyph glyph-name="uF0015" unicode="&#xf0015;" horiz-adv-x="1638" 
d="M817 264v1202q57 0 103 -120l131 -373l395 -6q130 -1 148 -59t-85 -136l-315 -237l115 -377q25 -80 11.5 -123t-58.5 -43q-52 0 -119 47z" />
    <glyph glyph-name="uF0016" unicode="&#xf0016;" horiz-adv-x="1638" 
d="M129 772q-105 77 -85.5 135t149.5 60l395 6l129 373q42 120 102 120q61 0 103 -120l129 -373l395 -6q130 -1 148.5 -60t-85.5 -135l-313 -237l113 -377q25 -82 11.5 -125t-58.5 -43q-49 0 -119 49l-324 225l-323 -225q-73 -49 -121 -49q-45 0 -58 43t11 125l114 377z
M332 813l293 -219l-107 -350l301 209v714l-121 -346z" />
    <glyph glyph-name="uF0017" unicode="&#xf0017;" horiz-adv-x="3151" 
d="M41 49v1409q0 20 13.5 34.5t33.5 14.5h1550q11 0 17 -9t2 -19l-303 -709q-7 -17 0 -33l303 -708q4 -10 -2 -19.5t-17 -9.5h-1550q-20 0 -33.5 14.5t-13.5 34.5zM1520 737q-7 16 0 33l301 703q19 34 53 34h1180q23 0 40 -17t17 -42v-1391q0 -23 -17 -40t-40 -17h-1180
q-34 0 -53 35zM270 1153q-4 -29 16 -51.5t50 -22.5h96q12 0 12 -10q15 -131 67.5 -258t135.5 -229q3 -10 0 -13q-15 -13 -45.5 -36t-42.5 -33q-24 -19 -33 -23q-57 -38 -155 -84q-23 -11 -35 -33t-6 -45t24 -37t41 -14q16 0 131 60l33 18q102 57 176 131q4 4 6 4q5 0 9 -4
q28 -18 87 -64t113.5 -80.5t112.5 -58.5q15 -6 27 -6q21 0 40 14t25 37q6 22 -7 44.5t-34 33.5q-157 67 -276 176q-3 3 0 13q162 207 202 487q0 10 13 10h96q29 0 48 22t17 52q-1 26 -21.5 42.5t-47.5 16.5h-326q-10 0 -10 11v71q0 26 -19 46t-45 20q-29 0 -49 -20.5
t-20 -49.5v-67q0 -11 -10 -11h-326q-26 0 -46 -16.5t-24 -42.5zM1997 342q-10 -29 7 -54t50 -30q26 0 45 13.5t25 37.5l80 281q3 16 18 16h373q15 0 18 -14l80 -285q6 -20 25 -34.5t39 -14.5q13 0 28 6q21 7 31 31.5t4 48.5l-227 807q-7 29 -29.5 45t-52.5 16h-207
q-30 0 -52.5 -16t-29.5 -45zM733 682q-133 170 -158 385q0 12 15 12h303q12 0 12 -12q-29 -219 -155 -385h-17zM2261 737q-6 0 -10 5.5t-2 11.5l86 311q8 14 20 14h105q15 0 18 -14l90 -311q2 -6 -2.5 -11.5t-11.5 -5.5h-293z" />
    <glyph glyph-name="uF0018" unicode="&#xf0018;" horiz-adv-x="1323" 
d="M215 0q-71 0 -122.5 49.5t-51.5 118.5v610q0 66 49 115.5t115 52.5v162q0 165 121 282t290 117h91q169 0 289 -117t120 -282v-162q69 -3 117.5 -52.5t48.5 -115.5v-610q0 -69 -51.5 -118.5t-122.5 -49.5h-893zM416 1108v-162h491v162q0 107 -48 151t-152 44h-91
q-19 0 -30 -0.5t-35 -4t-39 -10t-35 -21t-32 -34.5t-20.5 -52t-8.5 -73z" />
    <glyph glyph-name="uF0019" unicode="&#xf0019;" horiz-adv-x="1589" 
d="M51 743q-11 10 -10.5 27t12.5 27l197 192v275q0 14 13 26.5t26 12.5h286l205 196q12 12 27 12q17 0 29 -12l190 -196h274q14 0 26.5 -12.5t12.5 -26.5v-15l-528 -491l-162 170q-14 14 -26 14q-7 0 -14 -3t-10 -5.5t-3 -1.5l-115 -109q-28 -28 0 -55l291 -311
q15 -15 27 -15q7 0 14 4t10.5 7t3.5 2l535 497l176 -180q11 -12 10.5 -28.5t-12.5 -26.5l-197 -191v-274q0 -16 -12.5 -27.5t-26.5 -11.5h-286l-205 -199q-10 -10 -27 -10q-16 0 -28 12l-191 197h-274q-14 0 -26.5 11.5t-12.5 27.5v285z" />
    <glyph glyph-name="uF0020" unicode="&#xf0020;" horiz-adv-x="1085" 
d="M41 1163q0 32 19.5 59t50.5 38l716 239q15 6 33 6q32 0 59 -19t37 -50l5 -13v-247q35 0 59 -24.5t24 -59.5v-1008q0 -35 -24 -59.5t-59 -24.5h-836q-35 0 -59.5 24.5t-24.5 59.5v1079zM250 717q-4 -112 90 -252.5t176 -202.5q13 -10 27 -10q16 0 26 10q39 39 76 81.5
t86 108.5t78 136t27 129q0 121 -85.5 206t-207.5 85t-207.5 -85t-85.5 -206zM543 600q-47 0 -83 35t-36 82t36 83t83 36t83 -36t36 -83t-36 -82t-83 -35zM389 1176h406v135z" />
    <glyph glyph-name="uF0101" unicode="&#xf0101;" horiz-adv-x="1785" 
d="M47 772q-12 15 -2 35q9 18 31 18l28 2q14 0 24.5 8.5t10.5 22.5v451q0 87 60 144.5t147 57.5q80 0 137 -57l4 -4q3 -4 7 0q41 18 86 18q42 0 92 -24q26 -9 63 -35q1 -1 4 -3t4 -3l2 -2q21 -21 21 -51q0 -8 -3 -16t-9 -18t-9 -16l-190 -190q-3 -7 -22 -13.5t-27 -6.5
q-34 0 -53 22l-7 8q-59 80 -59 156q0 29 2 39q3 14 -4 16q-33 23 -49 23q-11 0 -17 -6q-22 -8 -22 -35v-457q0 -13 9.5 -22t21.5 -9h1382q22 0 31 -18q9 -19 0 -37q-66 -136 -66 -213v-55q0 -60 -24 -115q-22 -65 -83 -118t-130 -76q-19 -6 -19 -27v-92q0 -35 -24.5 -59.5
t-59.5 -24.5q-33 0 -57.5 24.5t-24.5 59.5v51q0 12 -8 20q-2 1 -6.5 3t-8 3.5t-7.5 0.5h-615q-31 0 -45 2q-5 0 -13 -4.5t-9 -4.5q-9 -9 -9 -20v-51q0 -35 -24 -59.5t-57 -24.5q-35 0 -59.5 24.5t-24.5 59.5v94q0 16 -19 25q-3 1 -32.5 14.5t-43.5 21.5q-73 47 -116 118
t-43 155v55q0 45 -19 105t-47 110z" />
    <glyph glyph-name="uF0102" unicode="&#xf0102;" horiz-adv-x="1601" 
d="M807 793q3 -24 -14 -39q-88 -95 -88 -232v-475q0 -20 -14 -33.5t-34 -13.5h-555q-19 0 -32 12t-15 29q-21 161 -11.5 362.5t44.5 264.5q46 85 223 215l23 16l16 16q3 10 -6 19q-58 58 -86.5 144.5t-28.5 178.5q0 113 76 188t187 75q108 0 184 -76.5t76 -186.5
q0 -204 -103 -307q-21 -21 -18 -30q0 -9 14 -17l21 -10q53 -26 118 -66q20 -13 23 -34zM1559 512q0 -41 1 -104.5t1 -88.5v-38q0 -19 -1 -59t-1 -62v-113q0 -20 -14 -33.5t-34 -13.5h-663q-20 0 -33.5 13.5t-13.5 33.5v475q0 68 22 112.5t72 80.5l92 51q5 3 14 6t13 6l16 10
q0 15 -12 27q0 2 -2 4q-109 118 -109 311q0 64 30.5 124.5t92.5 101.5t141 41q119 0 192 -81t73 -186q0 -202 -109 -311l-8 -8q-8 -8 -8 -20q0 -3 1 -4t4.5 -3.5t6.5 -5.5t25 -12l43 -18q88 -37 128 -92t40 -144z" />
    <glyph glyph-name="uF0103" unicode="&#xf0103;" horiz-adv-x="1832" 
d="M41 676q0 74 51.5 125t124.5 51v489q0 56 40 96t95 40h1131q55 0 95 -40t40 -96v-489q72 0 123 -51.5t51 -124.5v-600q0 -35 -25.5 -60.5t-62.5 -25.5q-35 0 -60.5 25.5t-25.5 60.5v16q0 24 -17 41t-42 17h-1285q-24 0 -40.5 -17t-16.5 -41v-16q0 -35 -26.5 -60.5
t-61.5 -25.5q-37 0 -62.5 25.5t-25.5 60.5v600zM1008 1096v-211q0 -14 9.5 -23.5t22.5 -9.5h361q17 0 26 9.5t9 23.5v211q0 27 -19.5 47t-48.5 20h-293q-26 0 -46.5 -20.5t-20.5 -46.5zM397 1096v-211q0 -13 10.5 -23t24.5 -10h361q13 0 22.5 9.5t9.5 23.5v211q0 27 -19 47
t-48 20h-293q-26 0 -47 -20.5t-21 -46.5z" />
    <glyph glyph-name="uF0104" unicode="&#xf0104;" horiz-adv-x="1593" 
d="M123 0q-33 0 -57.5 23t-24.5 57q0 35 24.5 58.5t57.5 23.5h135q23 0 39 16t16 39v1051q0 37 39 51l553 176q6 2 17 2q23 0 38 -16.5t15 -38.5v-135h264q23 0 39 -16.5t16 -39.5v-1034q0 -23 16.5 -39t37.5 -16h122q33 0 57.5 -23.5t24.5 -58.5q0 -34 -24.5 -57t-57.5 -23
h-231q-45 0 -77 31t-32 78v981q0 21 -16 37t-39 16h-100v-1266q0 -23 -15 -39t-38 -16q-11 0 -17 2l-543 172q-12 4 -16 4h-223z" />
    <glyph glyph-name="uF0105" unicode="&#xf0105;" horiz-adv-x="1757" 
d="M41 403q0 74 53.5 127.5t126.5 53.5h359q73 0 126.5 -53.5t53.5 -127.5v-358q0 -73 -53 -126.5t-127 -53.5h-359q-73 0 -126.5 53.5t-53.5 126.5v358zM997 403q0 73 53.5 127t127.5 54h358q73 0 126.5 -53.5t53.5 -127.5v-358q0 -73 -53 -126.5t-127 -53.5h-358
q-74 0 -127.5 53.5t-53.5 126.5v358zM41 1001v359q0 74 53.5 127t126.5 53h359q74 0 127 -53t53 -127v-359q0 -73 -53 -126.5t-127 -53.5h-359q-73 0 -126.5 53.5t-53.5 126.5zM1178 821q-74 0 -127.5 53.5t-53.5 126.5v359q0 73 53.5 126.5t127.5 53.5h358q74 0 127 -53
t53 -127v-359q0 -73 -53 -126.5t-127 -53.5h-358z" />
    <glyph glyph-name="uF0201" unicode="&#xf0201;" horiz-adv-x="1259" 
d="M209 999q-30 31 -30 74.5t30 73.5l348 346q19 19 33 23h2q19 8 37 8q26 0 39 -8h2q13 -4 32 -23l347 -346q31 -31 31 -74t-31 -74q-23 -30 -72 -30q-44 0 -74 30l-170 170v-718q0 -43 -30.5 -74t-73.5 -31t-73 31t-30 74v718l-170 -170q-30 -30 -73 -30q-44 0 -74 30z
M145 0q-43 0 -73.5 30.5t-30.5 73.5t30.5 73t73.5 30h969q43 0 74 -30t31 -73t-31 -73.5t-74 -30.5h-969z" />
    <glyph glyph-name="uF0202" unicode="&#xf0202;" horiz-adv-x="1259" 
d="M209 305q-31 29 -31 73t31 75q30 30 74 30q43 0 73 -30l170 -170v718q0 43 30 74t73 31t73.5 -31t30.5 -74v-718l170 170q30 30 72 30q44 0 74 -30q31 -31 31 -74t-31 -74l-347 -346q-18 -18 -32 -22h-2q-15 -9 -39 -9q-16 0 -37 9h-2q-15 4 -33 22zM41 1348
q0 43 30.5 73.5t73.5 30.5h969q43 0 74 -30.5t31 -73.5t-31 -73t-74 -30h-969q-43 0 -73.5 30t-30.5 73z" />
    <glyph glyph-name="uF0203" unicode="&#xf0203;" horiz-adv-x="1435" 
d="M57 371q-25 45 -11.5 97.5t58.5 76.5l359 207l-359 206q-45 24 -58.5 77t11.5 98q17 30 46.5 46.5t64.5 16.5q31 0 63 -16l359 -209v415q0 52 38 89.5t91 37.5t90 -37.5t37 -89.5v-415l358 209q32 16 64 16q72 0 110 -63q28 -44 13.5 -97t-60.5 -78l-358 -206l358 -207
q46 -25 60.5 -77.5t-13.5 -96.5q-39 -64 -110 -64q-25 0 -64 17l-358 208v-415q0 -53 -37 -90t-90 -37t-91 37.5t-38 89.5v415l-359 -208q-31 -17 -63 -17q-72 0 -111 64z" />
    <glyph glyph-name="uF0301" unicode="&#xf0301;" horiz-adv-x="1050" 
d="M49 750q-10 14 -8 26q43 220 147 338t277 137q9 125 84.5 193.5t202.5 68.5h159q26 0 45 -19.5t19 -45.5t-19 -45t-45 -19h-159q-72 0 -110 -31.5t-48 -101.5q169 -19 271 -137t145 -338q3 -17 -6 -26q-11 -11 -25 -11h-905q-14 0 -25 11zM123 580q-6 33 14 62.5t51 29.5
q85 0 95 -64q6 -36 -14 -65t-52 -29q-3 0 -8 -1t-8 -1q-28 0 -50 19t-28 49zM446 580q-6 33 14 62.5t52 29.5q80 0 94 -64q5 -36 -14.5 -65t-50.5 -29q-3 0 -8.5 -1t-8.5 -1q-28 0 -50 19t-28 49zM123 322q-6 33 14 62.5t51 29.5q84 0 95 -66q6 -33 -14 -62.5t-52 -29.5
q-3 0 -8 -1t-8 -1q-28 0 -50 19t-28 49zM123 63q-6 33 14 63t51 30q2 0 7.5 1t7.5 1q28 0 51 -19.5t29 -48.5q6 -33 -14 -62.5t-52 -29.5q-81 0 -94 65zM446 63q-6 33 14 63t52 30q2 0 7 1t7 1q28 0 51 -19.5t29 -48.5q6 -33 -14 -62.5t-51 -29.5q-82 0 -95 65zM446 322
q-6 33 14 62.5t52 29.5q83 0 94 -66q6 -33 -14 -62.5t-51 -29.5q-3 0 -8.5 -1t-8.5 -1q-28 0 -50 19t-28 49zM770 63q-6 33 14 63t52 30q2 0 7 1t7 1q28 0 51 -19.5t27 -48.5q5 -33 -13.5 -60.5t-52.5 -31.5q-3 0 -8 -1t-8 -1q-28 0 -50 18.5t-26 48.5zM770 580
q-6 33 14 62.5t52 29.5q84 0 92 -64q5 -37 -13.5 -65.5t-52.5 -28.5q-3 0 -8 -1t-8 -1q-28 0 -50 19t-26 49zM770 322q-6 33 14 62.5t52 29.5q36 0 62 -16t30 -50q5 -34 -13.5 -63t-52.5 -29q-3 0 -8 -1t-8 -1q-28 0 -50 19t-26 49z" />
    <glyph glyph-name="uF0302" unicode="&#xf0302;" horiz-adv-x="1835" 
d="M248 1067v274q0 64 45 110t110 46h1027q63 0 109 -46.5t46 -109.5v-276q-75 0 -140 -69t-65 -146v-328h-925v328q0 79 -66 148t-141 69zM98 672q-20 17 -29 27t-18.5 37.5t-9.5 66.5q0 155 156 155q155 0 155 -155v-279q0 -43 31 -73.5t74 -30.5h921q43 0 74 30.5
t31 73.5v279q0 40 13 70.5t30.5 46t41.5 25t39.5 11.5t30.5 2q64 0 110 -38t46 -117q0 -42 -9 -70t-18 -38t-28 -25q-16 -12 -22.5 -17.5t-16.5 -22.5t-10 -36v-356q0 -20 -16 -36t-36 -16h-53v-139q0 -29 -15 -43t-36 -14q-28 0 -44.5 10.5t-35.5 46.5l-65 139h-945
l-67 -139q-18 -36 -34.5 -46.5t-45.5 -10.5q-20 0 -35.5 14.5t-15.5 42.5v139h-49q-20 0 -36 16t-16 36v360q0 8 -2 15.5t-5.5 14t-6 11t-8.5 10.5l-8 8t-9 8t-8 7z" />
    <glyph glyph-name="uF0303" unicode="&#xf0303;" horiz-adv-x="1423" 
d="M63 358q-23 25 -23 59.5t23 59.5l312 336q25 25 55 25q33 0 55 -25q23 -25 23 -59.5t-23 -59.5l-178 -192h748q32 0 55 -24.5t23 -59.5t-23 -59.5t-55 -24.5h-748l178 -193q23 -25 22.5 -58t-22.5 -60q-22 -25 -55 -25q-30 0 -55 25zM371 1006q-32 0 -55 24.5t-23 59.5
t23 59.5t55 24.5h747l-180 192q-20 25 -20 59.5t20 59.5q24 24 55 24q35 0 56 -24l311 -336q23 -25 23 -59.5t-23 -59.5l-311 -336q-21 -24 -56 -24q-31 0 -55 24q-20 25 -20 59.5t20 59.5l180 193h-747z" />
    <glyph glyph-name="uF0401" unicode="&#xf0401;" horiz-adv-x="1605" 
d="M41 752q0 155 60.5 296t162.5 242.5t243 162t296 60.5t296 -60.5t243 -162t162.5 -242.5t60.5 -296t-60.5 -296t-162.5 -243t-243 -162.5t-296 -60.5t-296 60.5t-243 162.5t-162.5 243t-60.5 296zM575 344q-11 -11 -8 -27q8 -39 89.5 -56t146.5 -17q137 0 254 68.5
t185.5 185.5t68.5 254q0 92 -49 219q-7 16 -33 16q-11 0 -19 -8zM295 752q0 -93 49 -220q7 -16 33 -16q10 0 18 8l635 635q11 11 8 27q-8 39 -89.5 56.5t-145.5 17.5q-137 0 -254 -68.5t-185.5 -185.5t-68.5 -254z" />
    <glyph glyph-name="uF0402" unicode="&#xf0402;" horiz-adv-x="1908" 
d="M193 -10q-62 0 -107 44t-45 107v973q0 62 45.5 107t106.5 45h1523q62 0 107 -45t45 -107v-973q0 -63 -45 -107t-107 -44h-1523zM184 969q-17 0 -29 -13t-12 -30v-144q0 -17 12 -29t29 -12h1540q17 0 29 12t12 29v144q0 17 -12 30t-29 13h-1540z" />
    <glyph glyph-name="uF0403" unicode="&#xf0403;" horiz-adv-x="1822" 
d="M51 944q-15 18 -8 35t25 25l1667 507q4 2 10 2q15 0 29 -14q14 -15 4 -39l-799 -1452q-9 -15 -27 -18h-4q-17 0 -26 12l-226 244q-12 12 -26 12q-15 0 -27 -12l-127 -140q-9 -12 -29 -12q-26 0 -32 27l-140 530q-3 10 -8 17zM422 784q-27 -14 -34 -44t11 -56
q23 -33 62 -33q19 0 39 13l973 630q7 2 4 13q-3 5 -13 2l-1036 -521q-2 0 -6 -4z" />
    <glyph glyph-name="uF0404" unicode="&#xf0404;" horiz-adv-x="1462" 
d="M354 430q-101 122 -180.5 271.5t-116.5 298t4 251.5q47 112 129.5 179.5t165.5 80.5q8 2 23 2q48 0 76 -49q69 -116 137 -258q12 -22 16 -35.5t-1 -35t-25 -48.5q-18 -26 -45.5 -66l-44 -64t-21.5 -31q-41 -59 -2 -103q44 -56 114.5 -139t121 -142.5t55.5 -66.5
q17 -24 57 -24q20 0 43 10l178 80q37 16 58 16q24 0 59 -27q72 -58 140.5 -112t88.5 -70q29 -23 35.5 -47.5t-6.5 -56.5q-31 -81 -98.5 -141t-136.5 -86.5t-129 -26.5q-101 0 -234 67t-251.5 165.5t-209.5 207.5z" />
    <glyph glyph-name="uF0405" unicode="&#xf0405;" horiz-adv-x="1558" 
d="M1503 41q-1 -17 -14.5 -29t-30.5 -12h-774q-17 0 -31.5 12t-15.5 29q-1 16 -4 50.5t-4 55.5q-8 161 3 312t38 203q22 43 74 91t149 121q35 26 37.5 35t-19.5 35q-100 115 -100 305q0 109 76 183.5t184 74.5q110 0 184 -73t74 -185q0 -184 -98 -305q-22 -26 -19.5 -35
t37.5 -35q185 -133 221 -212q33 -64 43.5 -262t-10.5 -359zM512 1063q41 0 67.5 -27.5t26.5 -66.5t-27 -67t-67 -28h-94v-94q0 -38 -28 -66t-66 -28t-66.5 28t-28.5 66v94h-94q-36 0 -65 29.5t-29 65.5q0 35 29.5 64.5t64.5 29.5h94v94q0 38 28.5 66t66.5 28t66 -28t28 -66
v-94h94z" />
    <glyph glyph-name="uF0406" unicode="&#xf0406;" horiz-adv-x="1464" 
d="M887 662q32 -61 41 -262t-8 -359q-1 -17 -15 -29t-31 -12h-774q-17 0 -30.5 12t-14.5 29q-21 161 -10.5 359t43.5 262q40 77 221 212q36 26 38 35t-19 35q-99 114 -99 303q0 112 73.5 186t184.5 74q110 0 185.5 -74t75.5 -186q0 -187 -101 -303q-21 -24 -19.5 -32
t27.5 -29q3 -3 5.5 -5t5.5 -4q176 -127 221 -212zM1348 1063q31 0 53 -28t22 -66t-22 -66.5t-53 -28.5h-306q-32 0 -53.5 28t-21.5 67t21.5 66.5t53.5 27.5h306z" />
    <glyph glyph-name="uF0501" unicode="&#xf0501;" horiz-adv-x="2209" 
d="M616 0q-272 0 -423.5 129.5t-151.5 357.5q0 99 44.5 189t125.5 141q-2 2 -2 6q-28 124 6 215q29 93 119 156t188 63q78 0 150 -34q12 -3 20 -11q3 3 6.5 8.5t6.5 8.5q11 11 46 51.5t58 60.5q194 166 428 166q147 0 275 -46t222 -128t150 -201.5t62 -261.5
q108 -58 165.5 -158t57.5 -225q0 -135 -67 -247.5t-179 -176t-242 -63.5h-421v575l135 -135q32 -32 78 -32q45 0 77 32t32 80.5t-32 77.5l-319 322q-34 34 -82 34t-82 -34l-319 -322q-33 -30 -33 -78.5t33 -79.5q37 -32 79 -32q46 0 78 32l133 135v-575h-422z" />
    <glyph glyph-name="uF0601" unicode="&#xf0601;" horiz-adv-x="1605" 
d="M41 762q0 155 60.5 296t162.5 243t243 162.5t296 60.5t296 -60.5t243 -162.5t162.5 -243t60.5 -296t-60.5 -296t-162.5 -243t-243 -162.5t-296 -60.5t-296 60.5t-243 162.5t-162.5 243t-60.5 296zM803 1255q-134 0 -247.5 -66t-180 -179.5t-66.5 -247.5t66.5 -247.5
t180 -180t247.5 -66.5t247.5 66.5t179.5 180t66 247.5t-66 247.5t-179.5 179.5t-247.5 66z" />
    <glyph glyph-name="uF1001" unicode="&#xf1001;" horiz-adv-x="1595" 
d="M57 971q-20 30 -14 62.5t33 53.5l708 422q6 4 15 4q4 0 12 -4l709 -422q29 -20 34.5 -52.5t-16.5 -63.5q-24 -35 -65 -35h-125v-911q0 -10 -8.5 -17.5t-16.5 -7.5h-236q-7 0 -12.5 5t-5.5 13v396q0 49 -46.5 86t-100.5 37q-52 0 -97 -37t-45 -86v-396q0 -8 -5 -13t-13 -5
h-490q-10 0 -17 7t-7 18v911h-123q-44 0 -68 35zM446 793q0 -49 34 -83t83 -34t83 34t34 83t-33.5 82.5t-83.5 33.5t-83.5 -33.5t-33.5 -82.5z" />
    <glyph glyph-name="uF1002" unicode="&#xf1002;" horiz-adv-x="1345" 
d="M45 999q-19 118 28.5 233.5t143.5 184.5q118 84 260 84q124 0 229.5 -63t161.5 -176q43 -93 40.5 -191t-46.5 -188q-40 -82 -127 -148l117 -233l180 92q16 8 35 8q24 0 44.5 -12t29.5 -33q14 -31 4 -63t-39 -45l-182 -93l88 -176l174 86q20 10 39 10q22 0 42 -12.5
t29 -32.5q14 -31 3.5 -64t-39.5 -46l-248 -123q-13 -8 -37 -8q-49 0 -72 45l-313 629q-61 -21 -121 -21q-154 0 -276 102t-148 254zM348 1325q-41 -20 -55 -62t6 -83q13 -29 40.5 -45.5t57.5 -16.5q28 0 49 12q41 22 55.5 65t-5.5 81q-15 29 -41.5 46t-55.5 17
q-23 0 -51 -14z" />
    <glyph glyph-name="uF1101" unicode="&#xf1101;" horiz-adv-x="1132" 
d="M297 621q-122 12 -197 103t-55 212q18 99 100 161t185 62h465q57 0 97 40t40 97v127q0 32 24 56t56 24t56 -24t24 -56v-133q0 -101 -53.5 -176.5t-159.5 -116.5q-20 -7 -32.5 -25t-12.5 -38l4 -334v-530q0 -33 -23.5 -56.5t-58.5 -23.5q-32 0 -56 24t-24 56v354
q0 41 -25 41h-143q-25 0 -25 -55v-340q0 -33 -22.5 -56.5t-57.5 -23.5q-34 0 -56.5 23.5t-22.5 56.5v522q0 12 -8 19.5t-19 9.5zM567 1249q-57 0 -97 40t-40 97q0 56 40 96t97 40q55 0 95 -40t40 -96q0 -57 -39.5 -97t-95.5 -40zM182 889q0 -50 46.5 -90.5t93.5 -40.5
q1 32 1 92.5t1 100t4 65.5h-19q-53 0 -90 -37t-37 -90z" />
    <glyph glyph-name="uF1201" unicode="&#xf1201;" horiz-adv-x="1341" 
d="M53 758q-21 43 -5.5 88t58.5 67q26 13 50 13q34 0 63 -18.5t43 -47.5l103 -209q10 -26 26 -26q10 0 17 10q7 14 18 31q14 23 -6 63l-176 361q-21 43 -5.5 88t58.5 67q24 12 49 12q34 0 64 -18t43 -47l108 -221q10 -17 25 -17q17 0 28 15l15 26q27 33 2 76l-129 260
q-21 43 -5.5 88.5t58.5 67.5q20 10 51 10q35 0 64.5 -16.5t42.5 -46.5q-2 1 13 -29.5t30.5 -61.5t15.5 -30q12 -25 23 -25q16 0 41 43l65 105q36 55 100 55q31 0 60 -16q41 -24 52 -73t-13 -87l-58 -94q-15 -24 -21 -35.5t-8.5 -23t5 -15.5t24.5 -4h7h133q48 0 83 -34
t35 -81q0 -48 -33.5 -82.5t-80.5 -34.5l-291 -4q-39 0 -61 -22l-23 -37q-8 -17 -0.5 -32t27.5 -15l245 2q46 0 81.5 -34t35.5 -81q0 -48 -34 -83.5t-81 -35.5l-401 -2q-46 -2 -59 -24l-21 -31q-9 -13 2.5 -22t32.5 -9l233 2q48 0 82.5 -33.5t34.5 -80.5q0 -49 -33.5 -83
t-81.5 -36l-432 -4q-72 -4 -106 -60l-105 -170q-16 -26 -49 -26q-17 0 -30 8q-20 12 -25.5 36t6.5 44l107 174q30 57 4 115z" />
    <glyph glyph-name="uF1202" unicode="&#xf1202;" horiz-adv-x="1392" 
d="M129 0q-37 0 -62.5 25.5t-25.5 62.5v637q0 4 2 4t17 -18t43 -41t61 -33t63 -10q123 0 232 141q1 2 5 2t5 -2q46 -61 105.5 -103t121.5 -42t122 42t106 103q2 2 5 2t5 -2q109 -141 231 -141q31 0 64 10t61 33t43 41t17 18t2 -4v-637q0 -37 -25.5 -62.5t-62.5 -25.5h-1135z
M236 915q-74 0 -130 38.5t-65 109.5v254q0 12 4 12t27 -23.5t61 -47t80 -23.5q21 0 31 2q31 6 59.5 28t52 56.5t39.5 65t35.5 72t28.5 57.5q7 8 10 0q14 -41 34 -83t49.5 -90t69 -78t80.5 -30t77.5 34t57.5 75t47 96t40 76q4 6 10 0q7 -13 36 -72t48 -92.5t55.5 -70
t75.5 -44.5q20 -4 33 -4q43 0 81 24t59.5 48t25.5 24t4 -12v-254q-8 -72 -65 -110t-132 -38q-64 0 -131 30t-92 81q-3 7 -10 0q-117 -117 -226 -117q-108 0 -225 117q-7 7 -10 0q-25 -49 -93.5 -80t-131.5 -31z" />
    <glyph glyph-name="uF1301" unicode="&#xf1301;" horiz-adv-x="1599" 
d="M104 922q-40 47 -46.5 108t32.5 105q5 5 66 75t104 113l88 90q37 41 53.5 58t38.5 31t43 14q14 0 31 -7q10 -1 47 -18q73 -33 110 -74t40 -112q6 -46 17 -74.5t22 -28.5h6q18 0 74 23.5t83 23.5q13 0 19 -2q13 -2 33 -14q74 -45 65 -168v-29q0 -51 16.5 -142.5
t36.5 -152.5q32 -88 154 -247q6 -6 41.5 -38t65 -59t74.5 -66t83 -69t51 -65t4 -66t-25.5 -56t-39.5 -46q-40 -29 -94 -29h-932q-29 0 -49.5 20.5t-20.5 49.5t20.5 49t49.5 20h334q-69 57 -193 203zM784 1087q66 -348 88 -419q16 -53 61.5 -84t106.5 -39q-60 114 -97 259.5
t-28 266.5q1 14 -8 59q-4 -3 -12.5 -6t-11.5 -6q-9 -3 -29.5 -10.5t-37 -12.5t-32.5 -8zM176 1059q-6 -10 -2 -28.5t16 -33.5l91 -102q104 88 114 227q5 69 -28 144l-23 -23q-18 -18 -123 -135q-32 -36 -45 -49zM111 0q-29 0 -49.5 20.5t-20.5 49.5t20.5 49t49.5 20h127
q29 0 49 -20t20 -49t-20 -49.5t-49 -20.5h-127z" />
    <glyph glyph-name="uF1302" unicode="&#xf1302;" horiz-adv-x="1454" 
d="M76 764q-40 108 -33 196.5t61 129.5q17 13 48 26q0 43 5 82.5t18.5 81.5t34.5 73t57 50.5t83 19.5q93 0 209 -77q19 71 64 114t104 43q58 0 102.5 -43t65.5 -114q119 79 209 79q57 0 97.5 -29t61 -78t29 -98.5t8.5 -103.5q21 -8 50 -26q54 -41 61 -129.5t-33 -196.5
q-34 -95 -104.5 -184t-167.5 -148q72 -40 158 -139q20 -23 14 -55q-6 -36 -29 -50q-1 -1 -15 -10.5t-21 -13.5t-24 -14t-28.5 -15.5t-30 -13.5t-34.5 -12.5t-35 -7.5t-37 -3q-38 0 -94 17q-53 22 -80 57v-59q0 -53 -35 -88t-88 -35t-88 35t-35 88v61q-28 -38 -75.5 -57
t-98.5 -19q-37 0 -93 16.5t-106.5 50.5t-56.5 73q-6 33 16 55q69 92 158 139q-96 58 -166 147t-106 185zM455 969q0 -142 100 -291q37 -49 72 -49q19 0 31 18.5t12 52.5v185q0 23 17 39t40 16t39 -16t16 -39v-187q0 -67 45 -67q34 0 72 47q100 152 100 291q0 29 -5.5 62.5
t-17.5 69.5t-35.5 59.5t-55.5 23.5q-50 0 -125 -51l-31 -21l-33 18q-81 48 -129 48q-34 0 -57.5 -21.5t-34.5 -57t-15.5 -67t-4.5 -63.5zM975 614q-27 -38 -26.5 -76t30.5 -38q17 0 27 10q4 0 6 2q93 47 160 125t100 166q20 52 25 97.5t-0.5 68.5t-14.5 30q-21 15 -45 15
q-9 0 -18.5 -2t-18 -5.5t-17.5 -8.5t-16.5 -10.5t-15.5 -11.5t-13.5 -11t-11.5 -10.5t-9 -9t-6 -6.5l-3 -3q-13 -149 -133 -322zM172 999q-10 -6 -15.5 -29.5t-0.5 -69t24 -97.5q76 -206 236 -289l30 -12h11q30 0 31 32.5t-25 75.5l-8 15q-102 177 -111 311l-6 6
q-6 7 -12.5 13.5t-16 15.5t-20 16.5t-22.5 14t-25 10.5t-25 4q-21 0 -45 -17z" />
    <glyph glyph-name="uF1303" unicode="&#xf1303;" horiz-adv-x="1533" 
d="M135 864q-85 91 -94 219.5t65 233.5q51 73 128 113t167 40q75 0 140 -26l14 20q16 23 43 23q22 0 39 -17q25 -25 4 -69q-6 -13 2 -21q114 -114 123 -252q3 -46 37 -73l665 -512q17 -13 22 -34.5t-3 -39.5q-40 -68 -111 -158q-15 -18 -39 -18q-19 0 -37 12l-434 270v-430
h92q29 0 50.5 -21t21.5 -50t-21.5 -50.5t-50.5 -21.5h-323q-29 0 -50.5 21.5t-21.5 50.5t21.5 50t50.5 21h86v521l-160 100q-9 6 -18 6q-5 0 -13 -4q-59 -20 -127 -20q-106 0 -186 49l-10 -15q-17 -24 -43 -24q-21 0 -35 14q-34 34 -8 72zM328 940q-8 -12 -2.5 -26.5
t18.5 -18.5q38 -12 74 -12q53 0 65 18l142 199q7 11 4 20q-2 31 -23 78t-47 47q-15 0 -24 -12z" />
    <glyph glyph-name="uF1304" unicode="&#xf1304;" horiz-adv-x="1574" 
d="M94 367q-74 164 -46.5 349t147.5 320q7 10 15.5 19t20.5 20.5t15 14.5q170 170 469 170q13 -1 17.5 -14t-3.5 -23q-91 -128 -96.5 -284.5t86.5 -293.5q69 -98 174 -151.5t221 -53.5q26 0 76 12.5t76 12.5q1 0 4 1t4 1q11 0 17.5 -8.5t2.5 -20.5q-6 -18 -8 -20
q-67 -203 -233 -320q-72 -56 -170.5 -86t-196.5 -30q-188 0 -348.5 101t-243.5 284zM481 1096q-68 -31 -108 -96t-37 -138q21 -214 166 -352.5t362 -138.5q-152 68 -246 202q-69 98 -96 211t-10 226v6q8 82 -20 82q-7 0 -11 -2zM928 1169q0 17 11 28t28 11q58 0 103.5 25
t71 63.5t38 79t12.5 78.5q0 17 11 28t28 11q14 0 26.5 -11.5t12.5 -27.5q0 -38 12.5 -78.5t38 -79t71 -63.5t103.5 -25q17 0 28 -11t11 -28q0 -14 -11 -25t-28 -11q-58 0 -103.5 -25t-71 -63.5t-38 -79t-12.5 -78.5q0 -16 -12.5 -27.5t-26.5 -11.5q-17 0 -28 11t-11 28
q0 38 -12.5 78.5t-38 79t-71 63.5t-103.5 25q-17 0 -28 11t-11 25z" />
    <glyph glyph-name="uF1305" unicode="&#xf1305;" horiz-adv-x="1302" 
d="M-25 436q-27 89 -3.5 162.5t88.5 121.5t145 48q88 0 196 -74v709q0 22 15 36.5t37 14.5q10 0 14 -2l346 -154l426 -161q23 -10 23 -29v-803q0 -74 -49.5 -157t-127 -140t-149.5 -57q-79 0 -143.5 42.5t-90.5 115.5q-27 89 -3.5 162.5t89 121t146.5 47.5q86 0 196 -75v399
q0 32 -15 46t-60 34l-242 102l-254 133q-27 0 -27 -20v-424q0 -74 -49 -157.5t-126 -141t-150 -57.5q-79 0 -143.5 42.5t-88.5 114.5z" />
    <glyph glyph-name="uF1306" unicode="&#xf1306;" horiz-adv-x="1779" 
d="M63 516q-3 24 -9 59t-9 53t-5 40.5t0 37.5t7 27q7 18 27 37q10 10 101.5 107t216.5 231.5t183 202.5q17 20 50 20q26 0 53 -14.5t45 -36.5l39 -55q19 -20 17.5 -47.5t-21.5 -47.5q-18 -18 -45 -18q-32 0 -51 25l-19 18q-4 6 -26 -18t-55 -66.5t-67 -90t-67 -95.5
q-20 -29 -12.5 -47.5t39.5 -20.5q91 -3 127 -12q50 -6 85 -25.5t62.5 -51t75.5 -99.5q9 -14 20 -33.5t17 -30.5t14 -22t16 -16t17 -5q16 0 27 12.5t28 44t31 50.5q64 96 107 131.5t114 44.5q36 9 127 12q35 2 42.5 20.5t-15.5 47.5q-33 48 -67 95.5t-67 90t-55 66.5t-26 18
l-19 -18q-19 -25 -49 -25q-27 0 -45 18q-22 20 -23.5 47.5t17.5 47.5l41 55q40 51 98 51q30 0 47 -20q76 -82 141 -151.5t160 -171t151 -161.5t56 -59q13 -16 21 -35q4 -9 6 -19t2 -24.5t-0.5 -25t-3.5 -31.5t-5 -33t-7 -41t-7 -43q-24 -142 -39 -205
q-32 -133 -123.5 -222.5t-220.5 -98.5q-120 0 -212.5 54.5t-145.5 160.5q-32 78 -86 78q-50 0 -86 -78q-50 -105 -144.5 -160t-214.5 -55q-125 9 -216 98.5t-128 222.5q-5 18 -8.5 36t-6 33.5t-9 55.5t-13.5 80zM1075 385q0 -98 70 -169t168 -71q100 0 169.5 70.5
t69.5 169.5t-70 169.5t-169 70.5q-98 0 -168 -71.5t-70 -168.5zM465 625q-99 0 -169.5 -70.5t-70.5 -169.5q0 -98 71 -169t169 -71q101 0 170.5 70.5t69.5 169.5t-70.5 169.5t-169.5 70.5z" />
    <glyph glyph-name="uF1307" unicode="&#xf1307;" horiz-adv-x="1531" 
d="M41 930q0 51 35 86t86 35h287q141 106 317 106q128 0 244 -61v32q0 12 8 20.5t20 8.5h301q12 0 20.5 -8.5t8.5 -20.5v-77h66q24 0 40.5 -16.5t16.5 -39.5v-874q0 -50 -35 -85.5t-86 -35.5h-1208q-51 0 -86 35.5t-35 85.5v809zM766 909q-140 0 -240 -99.5t-100 -240.5
q0 -139 100 -238.5t240 -99.5t240 99.5t100 238.5q0 141 -100 240.5t-240 99.5zM702 610q-44 9 -64.5 30.5t-18 44.5t12.5 42.5t23 30.5q43 37 113 37q91 0 157 -66.5t66 -157.5q0 -54 -36.5 -120t-86.5 -66q-37 0 -43 43q-5 32 -17 66.5t-40.5 70.5t-65.5 45zM1190 932
q-27 0 -46.5 -19.5t-19.5 -48.5t19.5 -48t46.5 -19t47 19t20 48t-20 48.5t-47 19.5z" />
    <glyph glyph-name="uF1308" unicode="&#xf1308;" horiz-adv-x="1312" 
d="M86 0q-20 0 -33.5 14.5t-11.5 34.5l65 1043q0 7 6.5 13.5t14.5 6.5h129q10 0 18.5 8t10.5 19q8 157 113 265.5t251 108.5h15q144 0 248 -108t116 -266q0 -11 8 -19t19 -8h129q7 0 13.5 -6t8.5 -14l66 -1043q0 -20 -13.5 -34.5t-33.5 -14.5h-1139zM258 690
q-3 -63 39.5 -109t105.5 -46h506q63 0 106 47t38 110l-19 226q0 14 -14 14h-731q-15 0 -15 -14zM647 1382q-91 0 -157 -74.5t-72 -181.5q0 -6 5 -10t11 -4h443q6 0 11 4t5 10q-6 107 -72 181.5t-157 74.5h-17z" />
    <glyph glyph-name="uF1309" unicode="&#xf1309;" horiz-adv-x="1673" 
d="M41 1122q0 108 53 194.5t107 123.5q12 8 20 8q10 0 19 -6q98 -58 168.5 -155t109.5 -216l2 -6q58 -174 114 -303t103.5 -206.5t96.5 -124t88.5 -63t83.5 -16.5t124 21.5t119 21.5q89 0 215 -95t162 -177q19 -43 -8 -83t-74 -40h-774q-39 0 -94.5 69.5t-108 168
t-101 196.5t-85 165.5t-47.5 64.5q-23 -4 -42 -109t-38.5 -286t-24.5 -218q0 -15 -13 -33t-40 -18q-25 0 -38 18.5t-13 32.5z" />
    <glyph glyph-name="uF1310" unicode="&#xf1310;" horiz-adv-x="1394" 
d="M137 446q-18 0 -18 17q-3 31 -21 169t-35 312t-22 344q-2 66 11 112t37 66t45 27.5t44 7.5h6q23 0 43.5 -6.5t46 -25.5t41 -64t15.5 -111q0 -331 -25 -827q0 -7 -5.5 -12.5t-12.5 -5.5zM504 1296q-8 0 -15.5 6t-7.5 13l-2 158q0 18 23 18l303 4q22 0 22 -18l2 -158
q0 -7 -7 -13t-15 -6zM1161 1237q-20 0 -33.5 -14t-13.5 -33q0 -20 13.5 -33.5t33.5 -13.5h178q15 0 15 -15v-176q0 -14 -15 -14h-178q-20 0 -33.5 -13.5t-13.5 -33.5q0 -19 13.5 -33t33.5 -14h178q15 0 15 -15v-174q0 -14 -15 -14h-178q-20 0 -33.5 -13.5t-13.5 -33.5
t13.5 -33.5t33.5 -13.5h178q15 0 15 -15v-174q0 -14 -15 -14h-178q-20 0 -33.5 -14t-13.5 -33q0 -20 13.5 -33.5t33.5 -13.5h178q15 0 15 -14v-205q0 -12 -9.5 -21.5t-21.5 -9.5h-324q-12 0 -21 9.5t-9 21.5v1425q0 12 9 21.5t21 9.5h324q12 0 21.5 -9.5t9.5 -21.5v-205
q0 -14 -15 -14h-178zM807 1167q10 0 18.5 -6t8.5 -14q0 5 -1 -187.5t-2.5 -416t-1.5 -291.5q3 -42 -28 -84l-109 -145q-17 -23 -30 -23q-18 0 -33 20l-113 146q-31 39 -31 82q-2 77 -2 895q0 8 8.5 14t18.5 6zM260 377q39 0 69 -30t38 -71q8 -40 2 -71q-7 -93 -83 -157
t-171 -64q-32 0 -38 12t3.5 27.5t17.5 36t2 32.5q-5 11 -16.5 34.5t-16.5 35t-9.5 31t-4.5 38.5q0 53 31 99.5t82 46.5h94z" />
    <glyph glyph-name="uF1311" unicode="&#xf1311;" horiz-adv-x="1257" 
d="M723 504q-134 0 -247.5 66t-180 179.5t-66.5 247.5t66.5 247.5t180 180t247.5 66.5t247.5 -66.5t180 -180t66.5 -247.5t-66.5 -247.5t-180 -179.5t-247.5 -66zM41 1047q0 25 16 41t41 16q24 0 41 -16.5t17 -40.5v-86q3 -61 14 -107q28 -121 111 -219.5t198.5 -153.5
t239.5 -55q105 0 205.5 40.5t177.5 113.5q18 14 39 14q24 0 43 -19q17 -18 15.5 -39.5t-19.5 -39.5q-77 -77 -182.5 -122.5t-221.5 -56.5v-8q0 -81 56.5 -137.5t136.5 -56.5q25 0 41 -16.5t16 -41.5q0 -24 -16.5 -40.5t-40.5 -16.5h-502q-23 0 -40 17t-17 40q0 25 17 41.5
t40 16.5q82 0 138.5 56t56.5 138v8q-166 13 -305.5 101.5t-223.5 231t-92 308.5v89zM434 1212q-14 -55 2 -84q14 -33 52.5 -57t93.5 -31q48 -11 71 -49q30 -53 13 -86q-20 -36 -26.5 -68.5t10 -83.5t65.5 -106q1 -1 12.5 -15t17 -19.5t17 -12t22.5 -6.5h4q14 3 22 12t10 17
t4 25.5t3 23.5q11 50 39 80q62 68 75 98t-1 82q-19 59 -80 59q-6 0 -18 -1t-17 -1q-4 0 -11.5 -1t-10.5 -1q-55 0 -60 49q-8 62 21 99q11 13 28 20t28 7.5t34 0.5h18q30 0 48 13q24 13 20 57q0 47 -39 79t-85.5 43t-92.5 11q-91 0 -167.5 -39.5t-121.5 -114.5z" />
    <glyph glyph-name="uF1312" unicode="&#xf1312;" horiz-adv-x="1435" 
d="M43 1059q-5 12 0.5 24t17.5 13l95 30l-17 56q-11 30 5 60t46 30q33 0 52.5 -9.5t29.5 -39.5l19 -54l190 64l-18 55q-7 28 7.5 52t43.5 38q4 2 14 2q23 0 42.5 -15t27.5 -38l16 -51l191 61l-17 56q-10 28 6 54.5t46 35.5q6 2 16 2q23 0 40.5 -14t25.5 -37l18 -54l100 33
q1 0 4.5 1t4.5 1q9 0 17 -5.5t9 -14.5l209 -641q4 -17 -10 -25q-39 -24 -51 -70q-3 -13 -17 -16l-186 -61l-219 106q-12 4 -15 4q-8 0 -12 -2l-362 -117q-14 -5 -21 -20.5t0 -28.5q9 -18 31 -18q8 0 12 2l348 113l222 -109q8 -4 14 -4t10 2l201 65h6q10 0 16 -6
q26 -26 66 -26q12 0 18 2q15 0 21 -15l37 -114q3 -11 -2 -22t-17 -15l-100 -33l14 -41q10 -30 -4.5 -55.5t-46.5 -36.5q-6 -2 -16 -2q-46 0 -68 53l-12 39l-191 -61l15 -43q9 -30 -7.5 -60t-46.5 -30q-33 0 -53.5 10t-28.5 39l-12 41l-192 -62l14 -43q8 -30 -6.5 -57.5
t-44.5 -34.5q-68 0 -84 51l-12 39l-97 -31q-1 0 -3.5 -1t-4.5 -1q-8 0 -16 6t-11 15q-140 459 -184 567q-7 17 8 29q24 21 31 51q3 14 18 18l572 181q2 2 8 2q8 0 16 -8q27 -27 68 -27q11 0 31 4q44 12 61 57t-8 88q-12 22 -35 36t-47 14q-34 0 -63 -23.5t-35 -56.5
q-3 -16 -17 -19l-573 -180h-6q-10 0 -19 6q-31 23 -57 25q-16 0 -23 18z" />
    <glyph glyph-name="uF1313" unicode="&#xf1313;" horiz-adv-x="1431" 
d="M1198 915h-399q-8 0 -8 -8v-153q0 -11 8 -11h465q19 0 31 -12t12 -31v-323q0 -19 -12 -31t-31 -12h-463q-10 0 -10 -10v-261q0 -31 -21.5 -52t-52.5 -21t-53.5 21.5t-22.5 51.5v261q0 10 -8 10h-397q-22 0 -33 14l-154 172q-7 8 -7 19t7 18l154 172q11 14 33 14h397
q8 0 8 11v153q0 8 -8 8h-465q-18 0 -30.5 12.5t-12.5 30.5v326q0 17 13 30t30 13h465q8 0 8 8v95q0 30 22.5 51.5t53.5 21.5t52.5 -21t21.5 -52v-95q0 -8 8 -8h399q17 0 31 -14l155 -174q6 -8 6 -18.5t-6 -18.5l-155 -172q-15 -15 -31 -15z" />
    <glyph glyph-name="uF1314" unicode="&#xf1314;" horiz-adv-x="1642" 
d="M86 987q-25 8 -37.5 30.5t-5.5 47.5q6 22 22.5 34.5t38.5 12.5q11 0 17 -2q3 0 14.5 -4.5t35 -19t44.5 -35.5q6 9 18.5 25.5t14.5 19.5q81 84 194 84q66 0 123 -29.5t92 -83.5q59 -89 43 -197q-2 -2 -2 -8l54 -22q70 -30 133 -39q34 80 41 153l6 56q-2 2 -6 2
q-102 38 -150 135q-48 98 -12 201q26 75 98.5 126.5t151.5 51.5q61 0 115.5 -29t93.5 -80q74 -99 45 -219q-28 -111 -127 -166v-2l-13 -6q-49 -24 -53 -109l-4 -36q-1 -9 -4 -41t-4 -52q89 -55 236 -161t288 -228q26 -26 8 -61q-13 -23 -39 -23q-12 0 -18 2q-48 16 -98 35.5
t-106.5 45t-92.5 42.5t-103 49.5t-91 44.5q-31 -372 -58 -524q-1 -17 -14 -28t-31 -11h-8q-15 2 -27.5 12.5t-13.5 26.5q-56 269 -78 635q-12 4 -26 10.5t-28.5 13.5t-19.5 9l-34 14q-57 23 -80 23t-39 -13l-10 -8h-2q-58 -37 -132 -37q-83 0 -145.5 40t-99.5 116
q-5 9 -10 26.5t-7 22.5q-11 29 -25 52.5t-26.5 36.5t-23 22t-17.5 13zM907 1296q-16 -43 4 -84q15 -29 42.5 -46t58.5 -17q25 0 49 12q41 22 56 64.5t-5 83.5q-12 27 -35.5 43.5t-52.5 17.5q-17 0 -45 -4l-14 -6q-44 -19 -58 -64zM365 997q-30 -27 -34.5 -67t19.5 -76
q30 -47 94 -47q37 0 60 18q37 27 46 72t-18 84q-15 22 -40 34.5t-52 12.5q-35 0 -61 -20q-3 -1 -7 -5.5t-7 -5.5z" />
    <glyph glyph-name="uF1401" unicode="&#xf1401;" horiz-adv-x="1724" 
d="M324 84q-99 68 -165.5 161.5t-93.5 191.5t-22 199.5t40.5 187t102.5 153t156 98.5q80 27 152 27q144 0 264 -105q65 -57 103.5 -124.5t51 -126t19 -111t17.5 -93.5t36 -59q29 -20 70 -20q12 0 32.5 2t30.5 2q38 0 58 -29q22 -37 24 -78t-22 -84t-60.5 -84t-92 -77.5
t-116.5 -63.5t-133 -43t-143 -16q-175 0 -309 92zM887 1155q-10 14 4 23l98 71q4 2 10 2q7 0 13 -6q52 -52 268.5 -323t351.5 -455q33 -43 45.5 -80t5 -62t-18 -39.5t-26.5 -25.5q-31 -22 -63 -22q-70 0 -133 92q-106 153 -328.5 486t-226.5 339zM653 1370q-20 79 8 146
t84 112q28 19 41 19q14 0 17.5 -18t7 -41.5t16.5 -31.5q5 -3 24 -14t33.5 -20t32 -23.5t27.5 -28.5q20 -28 25.5 -69t-0.5 -49q-4 -41 -35 -58l-76 -53q-21 -16 -49 -16q-54 0 -98.5 45t-57.5 100zM459 944q-38 0 -66 -28t-28 -66t28 -65t66 -27t65 27t27 65t-27 66t-65 28z
M354 315q0 -32 23 -55.5t55 -23.5q35 0 57.5 23t22.5 56t-22.5 56.5t-57.5 23.5q-32 0 -55 -24t-23 -56zM274 662q-32 0 -55.5 -23t-23.5 -55q0 -35 23 -57.5t56 -22.5t56.5 22.5t23.5 57.5q0 32 -24 55t-56 23z" />
    <glyph glyph-name="uF1402" unicode="&#xf1402;" horiz-adv-x="1368" 
d="M41 1251q0 109 76 185.5t186 76.5l762 -2q110 0 186 -77t76 -185q0 -84 -47 -150t-123 -93q-31 -16 -31 -48v-927q0 -12 -8 -21.5t-20 -9.5h-826q-12 0 -21 9.5t-9 21.5v930q0 14 -9 27.5t-22 17.5q-74 25 -122 93.5t-48 151.5zM156 1251q0 -61 43 -104t104 -43
q37 0 61.5 17.5t24.5 43.5q0 27 -24 35h-68q-23 0 -39 17t-16 40q0 25 16 41.5t39 16.5l774 -2q23 0 39 -17t16 -41q0 -23 -16 -40t-39 -17h-67q-25 -3 -25 -35q0 -29 24 -46t62 -17q61 0 104 43.5t43 105.5t-43 105t-104 43l-762 2q-61 0 -104 -43t-43 -105zM649 428
q0 -17 11 -29t28 -12t29 12t12 29v473q0 17 -12 29t-29 12t-28 -12t-11 -29v-473zM887 498q0 -17 12 -28t29 -11q14 0 26.5 11.5t12.5 27.5v403q0 17 -12.5 29t-26.5 12q-17 0 -29 -12t-12 -29v-403zM401 498q0 -16 12.5 -27.5t26.5 -11.5q17 0 29 11t12 28v403q0 17 -12 29
t-29 12q-14 0 -26.5 -12t-12.5 -29v-403z" />
    <glyph glyph-name="uF1403" unicode="&#xf1403;" horiz-adv-x="1607" 
d="M43 1198q-5 45 14 87.5t56 68.5q100 71 269.5 116.5t305.5 45.5q38 0 64 -1.5t61.5 -8.5t59.5 -19t46 -36t33 -58l31 -97q14 -43 26 -87.5t20.5 -81t16 -78.5t12 -69.5t9 -64.5t6.5 -54t5 -47t3 -34q0 -8 1 -16t1 -10q0 -25 -22 -58q-77 -117 -134 -181.5t-159 -143.5
q-42 -31 -96 -31q-19 0 -29 2q-255 48 -433 195q-3 3 -5 4l-10 14q-1 3 -14.5 41t-25 73.5t-29.5 99t-32.5 125t-28.5 143t-22 161.5zM553 229q-10 11 -3 16.5t14 7t16 1.5h6q5 -1 18.5 -4t18.5 -4q24 -6 51 -6q85 0 151 51q234 183 320 356q17 29 22 47q1 6 4.5 18t5.5 22
t1 20q0 96 -23 204q-3 15 12 15q18 0 45 -10q78 -33 166 -48l80 -8q56 -3 89 -51.5t14 -103.5q-158 -473 -328 -656q-41 -34 -146.5 -65t-283.5 -31q-79 0 -117 51q-17 23 -65.5 86t-67.5 92zM315 676q-5 -2 8.5 -18.5t44 -39t70.5 -45t97.5 -38t115.5 -15.5q10 0 22.5 6
t27 17t28 22.5t29.5 27.5t26 26.5t24 25.5t17 19q32 36 55.5 71.5t30.5 54.5t2 19q-18 0 -112 -53q-147 -82 -363 -82q-27 0 -67 1t-45 1h-11zM653 1176q-22 -50 -12 -111q3 -31 18 -31q5 0 12 3.5t19 11.5l15 10q33 25 68.5 37t72.5 15.5t41 4.5q11 0 14 8q4 14 -13 34.5
t-40 33.5q-50 29 -107 29q-69 0 -88 -45zM225 1065q-17 -22 -26 -48.5t4 -35.5q6 -1 52.5 13t86.5 14q32 0 66 -9q32 -8 43 -8q21 0 16 29q-8 43 -55 106q-20 17 -52 17q-35 0 -74 -22.5t-61 -55.5z" />
    <glyph glyph-name="uF1404" unicode="&#xf1404;" horiz-adv-x="1413" 
d="M100 106q-43 6 -51 15t-8 53l14 973q0 47 6.5 58.5t40.5 11.5h25q29 0 98 -5.5t217 -35t265 -78.5q116 47 263 77t218 36t98 6h25q32 0 39.5 -12.5t7.5 -57.5l14 -973q0 -44 -8 -53t-51 -15q-5 -1 -49 -7t-91.5 -13.5t-114.5 -19t-148 -29t-162 -37.5l-41 -10
q-27 4 -41 10q-271 61 -566 106zM776 414q0 -4 3.5 -7t8.5 -1q71 24 138 37.5t153.5 24t94.5 11.5q8 0 8 10l-2 93q0 10 -11 10q-12 -2 -101 -11.5t-155.5 -26t-130.5 -48.5q-6 -3 -6 -10v-82zM776 709v-70q0 -10 8 -10h7q52 11 187.5 41.5t190.5 38.5q1 0 5 4t4 6v80
q-4 13 -13 10q-30 -10 -168.5 -31t-214.5 -59q-6 -3 -6 -10zM780 285q-4 0 -4 -4v-78q0 -6 6 -6q177 41 398 75q4 0 4 7v79q0 4 -6 4q-170 -28 -398 -77zM776 918v-62q0 -6 5 -9t10 -1q186 61 374 80q5 0 7.5 4t1.5 8v70q0 5 -4.5 8t-8.5 2q-39 -14 -172.5 -38t-206.5 -52
q-6 0 -6 -10z" />
    <glyph glyph-name="uF1405" unicode="&#xf1405;" horiz-adv-x="1390" 
d="M186 0q-60 0 -102.5 42.5t-42.5 102.5v1006q0 11 10 14l1149 338h6q18 0 21 -16l59 -227q2 -8 -3.5 -16t-12.5 -9l-750 -225q-8 -2 -11.5 -3.5t-3.5 -5t0.5 -5t5.5 -8.5q2 -3 3 -5l8 -14q12 -19 37 -19h10h752q12 0 20.5 -8t8.5 -20v-777q0 -60 -42.5 -102.5
t-103.5 -42.5h-1018zM180 494q0 -21 23 -21h985q8 0 15 5.5t7 15.5v200q0 10 -7 15.5t-15 5.5h-985q-23 0 -23 -21v-200zM180 899q0 -12 7.5 -15t29.5 -3h148q12 0 13.5 2.5t-7.5 15.5l-99 137q-11 17 -24 17q-15 0 -27 -4l-31 -9q-10 -2 -10 -28v-113z" />
    <glyph glyph-name="uF1501" unicode="&#xf1501;" horiz-adv-x="1443" 
d="M154 197q-26 32 -46.5 66t-32.5 64.5t-19.5 61t-10 57t-3 50t1.5 42.5t4.5 32.5t4.5 22t2 9.5q18 64 62 177t72 215t32 214q3 22 18 35.5t35 13.5q42 0 56 -43q23 -61 28.5 -129t-3 -116.5t-18 -94t-17 -63t1.5 -23.5l4 -2q22 0 63 70q27 46 65.5 107.5t79 122.5
t83.5 124t80 117t67 96.5t46 66.5l17 23q19 25 50 25q21 0 38 -14q21 -15 24 -40t-11 -48l-281 -445q-17 -28 -8 -56t31 -28q19 0 39 23l364 534q22 25 49 25q21 0 39 -12q21 -12 25 -37.5t-10 -48.5l-324 -510q-16 -22 -19 -43.5t4 -34t21 -12.5q20 0 41 30l293 418
q23 29 51 29q17 0 39 -15t25.5 -40.5t-13.5 -45.5l-278 -417q-22 -35 -17 -60.5t27 -25.5q26 0 47 30l215 326q22 29 53 29q15 0 33 -11q23 -13 28 -40.5t-9 -47.5l-88 -129q-131 -191 -244 -415q-11 -24 -46.5 -83t-98.5 -143t-113 -121q-92 -67 -230 -67
q-130 0 -228.5 49.5t-190.5 155.5z" />
    <glyph glyph-name="uF1601" unicode="&#xf1601;" horiz-adv-x="770" 
d="M82 20q-37 37 -40 86.5t30 88.5l368 409l-368 410q-33 39 -30 88t40 86q36 31 82 31q57 0 92 -41l442 -492q31 -35 31 -82t-31 -82l-442 -491q-38 -41 -92 -41q-52 0 -82 30z" />
    <glyph glyph-name="uF1602" unicode="&#xf1602;" horiz-adv-x="1310" 
d="M72 596q-32 35 -30.5 82.5t36.5 79.5q35 30 78 30q51 0 84 -36l415 -447l416 447q33 36 84 36q43 0 78 -30q35 -32 36.5 -79.5t-30.5 -82.5l-500 -539q-29 -37 -84 -37t-84 37z" />
    <glyph glyph-name="uF1603" unicode="&#xf1603;" horiz-adv-x="770" 
d="M72 522q-31 35 -31 82t31 82l442 492q35 41 92 41q46 0 82 -31q37 -37 40 -86t-30 -88l-368 -410l368 -409q33 -39 30 -88.5t-40 -86.5q-30 -30 -82 -30q-54 0 -92 41z" />
    <glyph glyph-name="uF1604" unicode="&#xf1604;" horiz-adv-x="1310" 
d="M78 63q-35 32 -36.5 79.5t30.5 82.5l499 539q29 37 84 37t84 -37l500 -539q32 -35 30.5 -82.5t-36.5 -79.5q-35 -30 -78 -30q-50 0 -84 37l-416 446l-415 -446q-34 -37 -84 -37q-44 0 -78 30z" />
    <glyph glyph-name="uF1701" unicode="&#xf1701;" horiz-adv-x="2011" 
d="M41 1321q0 27 18 46t47 19h170q14 0 23.5 10t9.5 23v135q0 41 31 72t74 31q41 0 71.5 -31t30.5 -74v-133q0 -13 10 -23t23 -10h506q13 0 22.5 9.5t9.5 23.5v135q0 42 30.5 72.5t72.5 30.5q43 0 73.5 -31t30.5 -74v-133q0 -13 10 -23t23 -10h180q29 0 47.5 -19t18.5 -46
v-1391q0 -26 -18.5 -45t-47.5 -20h-1401q-29 0 -47 19t-18 46v1391zM385 -461v166q0 14 14 14h1219q54 0 80 45.5t26 122.5v1143q0 4 4 8t9 4h170q26 0 44.5 -18.5t18.5 -44.5v-1440q0 -26 -18.5 -45.5t-44.5 -19.5h-1456q-29 0 -47.5 19t-18.5 46zM383 788h-8
q-43 0 -50.5 -10.5t-7.5 -68.5v-488q0 -58 8.5 -69t53.5 -11h856q44 0 52.5 11t8.5 69q0 1 1 2t1 2v480q0 1 -1 2t-1 2q0 59 -7 69t-50 10h-8h-848z" />
    <glyph glyph-name="uF1702" unicode="&#xf1702;" horiz-adv-x="1654" 
d="M41 616q0 260 153.5 466t393.5 280q0 3 6 6q23 11 34 51.5t11 83.5v90q0 26 18 45t43 19h250q26 0 44 -19t18 -45v-90q0 -120 41 -133q8 -3 8 -4q241 -75 397 -282.5t156 -467.5q0 -261 -160.5 -465t-411.5 -288q-15 -5 -22 -12t-8 -23v-184q0 -26 -18 -44t-44 -18h-250
q-25 0 -43 18t-18 44v159q0 31 -5.5 42.5t-25.5 17.5v2q-248 70 -407.5 278t-159.5 473zM827 1141q-141 0 -261.5 -70.5t-190.5 -191.5t-70 -263q0 -106 41.5 -202.5t111.5 -166.5t166.5 -111.5t202.5 -41.5q141 0 261.5 70t191 190.5t70.5 261.5q0 142 -70.5 263
t-191 191.5t-261.5 70.5zM723 913q0 43 30.5 73t73.5 30t74 -30t31 -73v-272l151 -125q32 -26 36.5 -68t-21.5 -77q-27 -39 -82 -39q-36 0 -66 24l-188 154q-39 33 -39 82v321z" />
    <glyph glyph-name="uF1703" unicode="&#xf1703;" horiz-adv-x="1863" 
d="M115 -301q-33 21 -53.5 54.5t-20.5 70.5v1786q0 20 13.5 33.5t33.5 13.5h1688q20 0 33.5 -13.5t13.5 -33.5v-1798q0 -37 -20.5 -70.5t-53.5 -54.5q-34 -17 -68 -17q-36 0 -77 23l-312 190l-293 -190q-38 -23 -77 -23q-38 0 -76 23l-293 190l-293 -178q-39 -22 -78 -22
q-35 0 -67 16zM313 129q0 -78 27 -78q12 0 43 23l96 61q38 23 76 23t76 -23l260 -170q11 -8 24 -8q16 0 29 8l258 170q36 23 78 23q43 0 76 -23l123 -82q21 -14 34 -14q27 0 27 67v158q0 38 -29 67t-67 29h-731q-44 0 -74.5 31t-30.5 74q0 44 30.5 74t74.5 30h731
q38 0 67 29.5t29 67.5t-29 67t-67 29h-731q-44 0 -74.5 31t-30.5 75q0 43 30.5 74t74.5 31h737q38 0 64 26t26 64q0 37 -26 62.5t-64 25.5h-1047q-38 0 -64 -25.5t-26 -62.5v-934z" />
    <glyph glyph-name="uF1704" unicode="&#xf1704;" horiz-adv-x="2238" 
d="M45 795q-20 191 73.5 365t275 290t409.5 143q52 6 104 6q142 0 278 -42.5t247 -120.5t186.5 -198.5t93.5 -264.5q32 -258 -126.5 -448t-469.5 -277q-125 -35 -272 -45q-50 0 -80 -45q-74 -106 -194.5 -193.5t-184.5 -107.5h-10q-8 0 -10.5 1.5t0.5 6.5q46 70 73 177.5
t4 205.5q-14 37 -36 47h2q-152 78 -248.5 208t-114.5 292zM1309 125q-13 7 8 18l29 13q50 20 116 51q119 56 232.5 172t148.5 229q41 95 47 213q1 24 -4 115q0 7 5 12.5t10 5.5q6 0 8 -2q128 -76 207 -187t82 -239q5 -205 -197 -362q-29 -23 -35 -37q-9 -112 94 -268
q6 -9 -8 -9q-8 0 -14 3q-1 0 -6.5 1t-6.5 1q-91 32 -204 98l-62 41q-7 5 -27.5 20.5t-31.5 22.5l-10 6q-23 14 -64 14q-12 0 -33.5 -1t-31.5 -1q-56 0 -130.5 20.5t-121.5 49.5zM453 1130q-35 0 -59.5 -24t-24.5 -59t24.5 -59.5t59.5 -24.5h850q35 0 59 24.5t24 59.5t-24 59
t-59 24h-850zM453 791q-35 0 -59.5 -24.5t-24.5 -59.5t24.5 -58.5t59.5 -23.5h452q33 0 58.5 24t25.5 58q0 35 -25.5 59.5t-58.5 24.5h-452z" />
    <glyph glyph-name="uF1705" unicode="&#xf1705;" horiz-adv-x="1665" 
d="M84 -137q-23 6 -35 27t-6 44l469 1682q13 43 57 43q11 0 15 -2l233 -66q35 -9 41 -45q17 -88 85.5 -145.5t156.5 -57.5q113 0 188 84q16 19 39 19q15 0 21 -2l233 -64q23 -8 35 -28t6 -43l-469 -1682q-13 -43 -57 -43q-11 0 -15 2l-233 66q-37 9 -43 45
q-15 86 -83.5 144.5t-156.5 58.5q-104 0 -188 -84q-21 -21 -45 -21q-2 0 -7.5 1t-7.5 1zM387 397q-3 -31 25 -41l643 -180q4 -2 10 -2q11 0 20.5 8.5t10.5 18.5l180 645q5 12 -2.5 26t-20.5 15l-643 180q-36 0 -43 -25z" />
    <glyph glyph-name="uF1706" unicode="&#xf1706;" horiz-adv-x="1640" 
d="M920 721q12 58 -21 106q-24 35 -72 35q-6 0 -8 2q-2 -2 -6 -2q-47 0 -74 -35q-33 -42 -18 -112q0 -2 84 -336q6 -23 14 -23t15 27v2q74 318 86 336zM1092 340q156 171 217.5 311.5t46.5 288.5q-20 183 -156.5 320.5t-316.5 154.5q-23 2 -64 2q-203 0 -357.5 -137
t-176.5 -340q-16 -156 43 -298t219 -302q22 -22 43 -49h2q1 -1 4 -5t6 -7q18 -29 31 -29q16 0 6 53q-22 93 -45 184.5t-35 136.5l-12 46q-38 152 51 268q85 102 215 102h14q128 0 213 -102q89 -116 54 -262q0 -1 -13 -47.5t-36.5 -139.5t-45.5 -186q-10 -53 5 -53
q14 0 45 41q21 27 43 49zM1593 967q23 -220 -60.5 -404.5t-264.5 -382.5q-79 -87 -127.5 -177.5t-48.5 -207.5q0 -89 -58.5 -151t-146.5 -62l-131 2q-85 0 -147 62.5t-62 148.5q0 117 -48.5 207.5t-127.5 177.5q-87 95 -147.5 180.5t-108 183.5t-64.5 204t-4 219
q21 191 131 350t279.5 249.5t361.5 90.5q194 0 363 -90.5t278.5 -248.5t132.5 -351z" />
    <glyph glyph-name="uF1707" unicode="&#xf1707;" horiz-adv-x="1826" 
d="M143 14q-74 42 -95 124t20 155l626 1083q23 39 70 75.5t90 45.5l571 154q21 6 43 6q54 0 98.5 -34t59.5 -87l154 -571q10 -42 3 -102.5t-30 -96.5l-625 -1083q-29 -49 -77 -77t-101 -28q-49 0 -102 29zM1038 1225q-49 -87 -23.5 -181t109.5 -145q53 -33 119 -33
q63 0 118.5 32t88.5 89q50 86 24 181.5t-112 142.5q-56 30 -117 30q-65 0 -120 -30t-87 -86z" />
    <glyph glyph-name="uF1708" unicode="&#xf1708;" horiz-adv-x="2111" 
d="M41 786q0 94 20.5 174t53.5 135.5t77 100.5t89 71.5t92.5 44.5t84 24.5t66.5 6.5q259 0 533 -274q263 274 530 274q30 0 66.5 -6.5t84 -24.5t92.5 -44.5t89.5 -71.5t77.5 -100.5t53.5 -135.5t20.5 -174q0 -108 -47 -226.5t-117 -220.5t-171 -210.5t-188 -186t-191 -159
t-156.5 -118t-106.5 -73.5q-18 -12 -37 -12q-21 0 -39 12q-54 37 -106.5 73.5t-156.5 118t-191 159t-188 186t-171 210.5t-117 220.5t-47 226.5z" />
    <glyph glyph-name="uF1709" unicode="&#xf1709;" horiz-adv-x="1679" 
d="M766 -389q-52 52 -104.5 108t-128.5 145t-142 176.5t-134 195.5t-115.5 208.5t-76 209.5t-24.5 204q0 163 63.5 311t170.5 255t255 170t310 63t310 -63t254.5 -170t170 -255t63.5 -311q4 -95 -24.5 -204t-76 -209.5t-115.5 -208.5t-134 -195.5t-142 -176.5t-128.5 -145
t-104.5 -108q-31 -31 -73 -31q-43 0 -74 31zM840 1182q-134 0 -229 -94.5t-95 -229.5q0 -134 95 -227.5t229 -93.5t228.5 93.5t94.5 227.5q0 135 -94.5 229.5t-228.5 94.5z" />
    <glyph glyph-name="uF1710" unicode="&#xf1710;" horiz-adv-x="1863" 
d="M41 1610q0 20 13.5 33.5t33.5 13.5h1688q20 0 33.5 -13.5t13.5 -33.5v-1786q0 -37 -20.5 -70.5t-53.5 -54.5q-32 -16 -68 -16q-38 0 -77 22l-293 178l-293 -190q-38 -23 -76 -23q-40 0 -78 23l-293 190l-311 -190q-41 -23 -78 -23q-33 0 -67 17q-33 21 -53.5 54.5
t-20.5 70.5v1798zM420 360q-38 0 -67 -29t-29 -67v-158q0 -67 26 -67q14 0 35 14l123 82q36 23 78 23q38 0 76 -23l258 -170q13 -8 28 -8q14 0 25 8l260 170q38 23 76 23q37 0 75 -23l97 -61q31 -23 43 -23q26 0 26 78v934q0 37 -26 62.5t-64 25.5h-1046q-38 0 -64 -25.5
t-26 -62.5q0 -38 26 -64t64 -26h737q44 0 74 -31t30 -74q0 -44 -30 -75t-74 -31h-731q-38 0 -67 -29t-29 -67t29 -67.5t67 -29.5h731q44 0 74 -30t30 -74q0 -43 -30 -74t-74 -31h-731z" />
    <glyph glyph-name="uF1711" unicode="&#xf1711;" horiz-adv-x="2238" 
d="M1122 248q-310 84 -469 275.5t-127 449.5q1 8 4.5 24.5t4.5 24.5q21 166 135.5 299t288.5 205.5t372 72.5q53 0 105 -6q170 -20 318 -93t249 -179.5t153 -244.5t37 -281q-15 -159 -112.5 -290t-249.5 -210h2q-33 -14 -37 -47q-10 -31 -7.5 -73t6.5 -71.5t16 -68.5
t21.5 -63.5t22.5 -57t19 -49.5q2 -5 -0.5 -6.5t-9.5 -1.5h-11q-64 20 -184 107.5t-194 193.5q-30 45 -80 45q-145 9 -273 45zM238 164q-200 141 -197 362q0 43 14 85.5t31 73.5t51.5 72t57.5 64t69 67t66 64q2 2 8 2q5 0 9.5 -5.5t4.5 -12.5q-8 -44 -4 -115
q24 -441 545 -665l29 -13q21 -11 8 -18q-56 -30 -125 -50t-127 -20q-8 0 -30 1t-34 1q-42 0 -65 -14l-10 -6q-9 -5 -29 -20.5t-31 -22.5l-61 -41q-98 -58 -205 -98q-3 0 -6 -1t-6 -1q-6 -3 -11 -3q-6 0 -9.5 2.5t-2.5 6.5q30 50 44.5 77t33 84.5t16.5 106.5q-6 15 -34 37z
M852 1047q0 -35 24.5 -59.5t59.5 -24.5h850q33 0 58.5 24.5t25.5 59.5q0 34 -25.5 58.5t-58.5 24.5h-850q-35 0 -59.5 -24t-24.5 -59zM1249 707q0 -35 24.5 -58.5t59.5 -23.5h453q33 0 58.5 24t25.5 58q0 35 -25.5 59.5t-58.5 24.5h-453q-35 0 -59.5 -24.5t-24.5 -59.5z" />
    <glyph glyph-name="uF1712" unicode="&#xf1712;" horiz-adv-x="1830" 
d="M41 614q0 179 69 341t185.5 279t278.5 186t341 69t341 -69t279 -186t186 -279t69 -341t-69 -341t-186 -278.5t-279 -185.5t-341 -69t-341 69t-278.5 185.5t-185.5 278.5t-69 341zM674 811q-12 -91 -12 -197q0 -104 12 -196h483q12 92 12 196q0 106 -12 197h-483zM702 981
h426q-37 153 -95.5 245.5t-117.5 92.5t-117.5 -92.5t-95.5 -245.5zM702 248q37 -153 95.5 -245.5t117.5 -92.5t117.5 92.5t95.5 245.5h-426zM238 811q-27 -89 -27 -197t27 -196h264q-10 105 -10 196q0 92 10 197h-264zM1339 614q0 -91 -10 -196h264q27 89 27 196
q0 108 -27 197h-264q10 -105 10 -197zM1518 981q-114 185 -308 274q58 -116 93 -274h215zM1303 248q-35 -160 -93 -275q193 88 308 275h-215zM313 248q115 -187 308 -275q-58 115 -93 275h-215zM313 981h215q35 158 93 274q-194 -89 -308 -274z" />
    <glyph glyph-name="uF1801" unicode="&#xf1801;" horiz-adv-x="1605" 
d="M41 752q0 155 60.5 296t162.5 242.5t243 162t296 60.5t296 -60.5t243 -162t162.5 -242.5t60.5 -296t-60.5 -296t-162.5 -243t-243 -162.5t-296 -60.5t-296 60.5t-243 162.5t-162.5 243t-60.5 296zM309 795q-25 -23 -26 -56.5t24 -58.5l268 -289q24 -24 60 -24q35 0 59 24
l594 615q24 24 24 58.5t-26 55.5q-26 23 -57 23q-35 0 -60 -25l-532 -553l-211 228q-24 24 -57 24q-35 0 -60 -22z" />
    <glyph glyph-name="uF1802" unicode="&#xf1802;" horiz-adv-x="1605" 
d="M41 752q0 155 60.5 296t162.5 242.5t243 162t296 60.5t296 -60.5t243 -162t162.5 -242.5t60.5 -296t-60.5 -296t-162.5 -243t-243 -162.5t-296 -60.5t-296 60.5t-243 162.5t-162.5 243t-60.5 296zM702 1227v-502q0 -46 37 -76l318 -252q28 -22 63 -22q48 0 78 35
q27 31 23 71.5t-37 67.5l-281 223v455q0 41 -29.5 69.5t-70.5 28.5q-42 0 -71.5 -28.5t-29.5 -69.5z" />
    <glyph glyph-name="uF1803" unicode="&#xf1803;" horiz-adv-x="1605" 
d="M41 752q0 155 60.5 296t162.5 242.5t243 162t296 60.5t296 -60.5t243 -162t162.5 -242.5t60.5 -296t-60.5 -296t-162.5 -243t-243 -162.5t-296 -60.5t-296 60.5t-243 162.5t-162.5 243t-60.5 296zM711 1217v-560q0 -38 28 -65t66 -27t65 27t27 65v560q0 38 -27 65t-65 27
t-66 -27t-28 -65zM684 313q0 -51 35 -85.5t86 -34.5t86 34.5t35 85.5t-35 86t-86 35t-86 -35t-35 -86z" />
    <glyph glyph-name="uF1804" unicode="&#xf1804;" horiz-adv-x="1605" 
d="M41 762q0 155 60.5 296t162.5 243t243 162.5t296 60.5t296 -60.5t243 -162.5t162.5 -243t60.5 -296t-60.5 -296t-162.5 -243t-243 -162.5t-296 -60.5t-296 60.5t-243 162.5t-162.5 243t-60.5 296zM582 694l190 -190l369 368l-191 191zM393 379q-8 -14 -2 -33
q4 -13 16 -21t25 -8q11 0 17 2l188 70q30 12 55 37l-188 188q-25 -25 -37 -55zM1083 1194l-53 -51l191 -191l53 54q20 20 21 49t-19 49l-94 94q-21 21 -47 21q-30 0 -52 -25z" />
    </font>
</defs>
</svg>
