<?xml version="1.0" standalone="no"?>
<!DOCTYPE svg PUBLIC "-//W3C//DTD SVG 1.1//EN" "http://www.w3.org/Graphics/SVG/1.1/DTD/svg11.dtd" >
<svg xmlns="http://www.w3.org/2000/svg" xmlns:xlink="http://www.w3.org/1999/xlink" version="1.1">
<metadata>
Created by FontForge 20170731 at Sat Apr 10 12:50:20 2021
 By Aleksey,,,
Copyright 2018 Airbnb. All rights reserved.
</metadata>
<defs>
<font id="SVN-AirbnbCereal-ExtraBold" horiz-adv-x="1230" >
  <font-face 
    font-family="SVN-Airbnb Cereal ExtraBold"
    font-weight="800"
    font-stretch="normal"
    units-per-em="2048"
    panose-1="0 0 0 0 0 0 0 0 0 0"
    ascent="1638"
    descent="-410"
    x-height="1092"
    cap-height="1454"
    bbox="-479 -582 2271 2304"
    underline-thickness="129"
    underline-position="-398"
    unicode-range="U+000D-FFFD"
  />
<missing-glyph horiz-adv-x="1024" 
d="M922 0h-820v1536h820v-1536zM205 102h614v1332h-614v-1332z" />
    <glyph glyph-name="f_i" unicode="fi" horiz-adv-x="1363" 
d="M39 1092h180v57q0 185 110 299.5t287 114.5q108 0 211 -47l-59 -248q-42 22 -92 22q-61 0 -92 -42t-31 -118v-38h707v-1092h-334v827h-373v-827h-334v827h-180v265zM907 1378q0 76 53 129.5t132 53.5q82 0 134 -53t52 -130t-52 -129.5t-134 -52.5q-79 0 -132 53t-53 129z
" />
    <glyph glyph-name="f_f" unicode="ff" horiz-adv-x="1570" 
d="M39 1092h180v57q0 185 117.5 299.5t306.5 114.5q122 0 225 -54l-59 -247q-54 28 -111 28q-71 0 -108 -42t-37 -118v-38h373v57q0 185 117.5 299.5t306.5 114.5q122 0 225 -54l-59 -247q-54 28 -111 28q-71 0 -108 -42t-37 -118v-38h268v-265h-268v-827h-334v827h-373
v-827h-334v827h-180v265z" />
    <glyph glyph-name="f_f_i" unicode="ffi" horiz-adv-x="2070" 
d="M39 1092h180v57q0 185 117.5 299.5t306.5 114.5q122 0 225 -54l-59 -247q-54 28 -111 28q-71 0 -108 -42t-37 -118v-38h373v57q0 185 110 299.5t287 114.5q108 0 211 -47l-59 -248q-42 22 -93 22q-60 0 -91 -42t-31 -118v-38h706v-1092h-334v827h-372v-827h-334v827h-373
v-827h-334v827h-180v265zM1614 1378q0 76 52.5 129.5t131.5 53.5q81 0 134 -53.5t53 -129.5t-53 -129t-134 -53q-79 0 -131.5 53t-52.5 129z" />
    <glyph glyph-name=".notdef" horiz-adv-x="1024" 
d="M922 0h-820v1536h820v-1536zM205 102h614v1332h-614v-1332z" />
    <glyph glyph-name="uni0000" horiz-adv-x="0" 
 />
    <glyph glyph-name="uni0000" horiz-adv-x="0" 
 />
    <glyph glyph-name="uni000D" unicode="&#xd;" horiz-adv-x="421" 
 />
    <glyph glyph-name="space" unicode=" " horiz-adv-x="421" 
 />
    <glyph glyph-name="exclam" unicode="!" horiz-adv-x="565" 
d="M123 479l-21 975h361l-21 -975h-319zM88 186q0 83 56.5 139t138.5 56t138 -56t56 -139t-56 -138.5t-138 -55.5t-138.5 55.5t-56.5 138.5z" />
    <glyph glyph-name="quotedbl" unicode="&#x22;" horiz-adv-x="948" 
d="M543 1454h299l-15 -584h-270zM106 1454h300l-15 -584h-270z" />
    <glyph glyph-name="numbersign" unicode="#" horiz-adv-x="1370" 
d="M287 356h-185l19 228h184l21 252h-183l19 227h182l29 350h248l-29 -350h244l28 350h248l-29 -350h185l-19 -227h-184l-21 -252h183l-19 -228h-182l-29 -356h-247l28 356h-243l-29 -356h-248zM553 584h244l20 252h-244z" />
    <glyph glyph-name="dollar" unicode="$" 
d="M500 -8q-161 28 -270 122t-146 238l319 66q53 -156 222 -156q79 0 129.5 40.5t50.5 103.5q0 51 -42 84.5t-132 52.5l-99 20q-204 43 -311.5 154t-107.5 278q0 162 107 278t280 150v256h231v-256q155 -28 258 -122t131 -234l-307 -68q-19 69 -71 107.5t-124 38.5
q-73 0 -118 -36t-45 -95q0 -50 43.5 -81.5t140.5 -51.5l98 -21q200 -41 304 -149t104 -273q0 -177 -114 -299.5t-300 -150.5v-275h-231v279z" />
    <glyph glyph-name="percent" unicode="%" horiz-adv-x="1574" 
d="M401 782q-143 0 -240.5 92.5t-97.5 231.5t97.5 232.5t240.5 93.5t240.5 -92.5t97.5 -231.5t-97.5 -232.5t-240.5 -93.5zM836 305q0 139 97.5 232.5t240.5 93.5t240 -92.5t97 -231.5t-97 -232t-240 -93t-240.5 92t-97.5 231zM477 0h-262l883 1413h262zM1067 305
q0 -54 30 -89.5t77 -35.5t76.5 35.5t29.5 89.5t-29.5 89.5t-76.5 35.5t-77 -35.5t-30 -89.5zM401 1231q-45 0 -75.5 -35.5t-30.5 -89.5t30.5 -89.5t75.5 -35.5t76 36t31 89t-31 89t-76 36z" />
    <glyph glyph-name="ampersand" unicode="&#x26;" horiz-adv-x="1458" 
d="M59 381q0 124 67 226t189 165q-82 94 -115.5 167.5t-33.5 154.5q0 169 123.5 280t308.5 111q180 0 298 -103t118 -262q0 -230 -269 -381l244 -250q64 131 76 314l285 -23q-34 -290 -164 -493l278 -287h-405l-76 78q-180 -119 -405 -119q-229 0 -374 118t-145 304z
M479 600q-86 -64 -86 -172q0 -83 61 -134.5t158 -51.5t176 39zM481 1092q0 -71 99 -181q63 32 98 80.5t35 102.5t-31.5 87t-81.5 33q-51 0 -85 -35.5t-34 -86.5z" />
    <glyph glyph-name="quotesingle" unicode="'" horiz-adv-x="512" 
d="M121 870l-15 584h300l-15 -584h-270z" />
    <glyph glyph-name="parenleft" unicode="(" horiz-adv-x="755" 
d="M416 -303q-161 220 -245.5 467t-84.5 500t84.5 499.5t245.5 466.5h315q-338 -468 -338 -966q0 -499 338 -967h-315z" />
    <glyph glyph-name="parenright" unicode=")" horiz-adv-x="755" 
d="M340 -303h-315q337 467 337 967q0 499 -337 966h315q163 -218 246.5 -464.5t83.5 -501.5q0 -256 -83.5 -502.5t-246.5 -464.5z" />
    <glyph glyph-name="asterisk" unicode="*" horiz-adv-x="901" 
d="M303 618l-201 144l191 219l-279 63l74 236l262 -111l-26 285h254l-27 -285l262 111l74 -236l-279 -63l191 -219l-201 -144l-147 248z" />
    <glyph glyph-name="plus" unicode="+" 
d="M156 702h315v320h287v-320h315v-278h-315v-330h-287v330h-315v278z" />
    <glyph glyph-name="comma" unicode="," horiz-adv-x="581" 
d="M96 221q0 75 55.5 126.5t135.5 51.5q104 0 176 -87.5t72 -213.5q0 -156 -102.5 -273.5t-270.5 -154.5l-53 178q95 19 158 78.5t63 130.5v11q-32 -19 -68 -19q-68 0 -117 51t-49 121z" />
    <glyph glyph-name="hyphen" unicode="-" horiz-adv-x="761" 
d="M88 420v287h586v-287h-586z" />
    <glyph glyph-name="period" unicode="." horiz-adv-x="581" 
d="M88 195q0 84 58.5 143t144.5 59t144.5 -59t58.5 -143t-58.5 -143.5t-144.5 -59.5t-144.5 59.5t-58.5 143.5z" />
    <glyph glyph-name="slash" unicode="/" horiz-adv-x="1011" 
d="M12 -242l682 1811h305l-682 -1811h-305z" />
    <glyph glyph-name="zero" unicode="0" horiz-adv-x="1277" 
d="M86 705q0 341 149.5 540t405.5 199q253 0 401 -198t148 -537q0 -341 -149.5 -540.5t-405.5 -199.5q-253 0 -401 198.5t-148 537.5zM432 707q0 -206 53 -315t152 -109q100 0 153.5 109t53.5 315t-53.5 314.5t-153.5 108.5q-99 0 -152 -108.5t-53 -314.5z" />
    <glyph glyph-name="one" unicode="1" horiz-adv-x="925" 
d="M403 0v1055l-268 -150l-106 283l420 225h294v-1413h-340z" />
    <glyph glyph-name="two" unicode="2" horiz-adv-x="1173" 
d="M63 1028q37 186 180 301t339 115q210 0 347.5 -132t137.5 -329q0 -58 -17 -118t-42 -111t-67.5 -107t-79.5 -97.5t-92.5 -93t-92.5 -83t-92 -76.5h508v-297h-1010v242q298 253 387 338q133 127 192.5 218t59.5 177q0 74 -44 118t-114 44q-67 0 -114 -42.5t-64 -117.5z
" />
    <glyph glyph-name="three" unicode="3" horiz-adv-x="1163" 
d="M41 356l313 52q23 -67 77 -104.5t128 -37.5q84 0 137.5 43.5t53.5 112.5t-53.5 112.5t-137.5 43.5h-147v286h129q81 0 131.5 41t50.5 105q0 61 -44.5 99t-113.5 38q-67 0 -115.5 -36t-68.5 -103l-315 51q32 172 175 278.5t343 106.5q205 0 339 -110t134 -285
q0 -102 -49 -181t-142 -129q108 -41 168 -128t60 -203q0 -126 -67.5 -226.5t-187.5 -156.5t-270 -56q-199 0 -342.5 102t-185.5 285z" />
    <glyph glyph-name="four" unicode="4" horiz-adv-x="1247" 
d="M57 272v273l582 868h383v-858h149v-283h-149v-272h-330v272h-635zM369 555h323v479z" />
    <glyph glyph-name="five" unicode="5" horiz-adv-x="1157" 
d="M578 -31q-195 0 -335 105t-177 278l319 45q20 -62 70.5 -96.5t117.5 -34.5q84 0 138.5 51t54.5 129q0 79 -54 132t-134 53q-49 0 -96.5 -18.5t-78.5 -49.5l-268 27v823h869v-301h-545v-252q80 53 192 53q197 0 327 -131.5t130 -328.5q0 -208 -152.5 -346t-377.5 -138z
" />
    <glyph glyph-name="six" unicode="6" horiz-adv-x="1241" 
d="M672 -31q-262 0 -424 190t-162 498q0 230 84 409t237 278.5t351 99.5q187 0 346 -90l-80 -279q-44 26 -114 44t-132 18q-141 0 -234.5 -96t-115.5 -265q104 139 303 139q196 0 328.5 -131.5t132.5 -326.5q0 -205 -151 -346.5t-369 -141.5zM467 451q0 -83 55 -139t135 -56
t136.5 56t56.5 139q0 85 -54 138.5t-139 53.5q-81 0 -135.5 -54t-54.5 -138z" />
    <glyph glyph-name="seven" unicode="7" horiz-adv-x="1157" 
d="M221 0l471 1102h-626v311h1007v-256l-473 -1157h-379z" />
    <glyph glyph-name="eight" unicode="8" 
d="M610 -31q-240 0 -391 116.5t-151 307.5q0 118 61 210t170 136q-90 47 -138 125.5t-48 177.5q0 177 142.5 289.5t362.5 112.5q218 0 358 -110.5t140 -286.5q0 -100 -48 -179.5t-138 -126.5q108 -43 169.5 -132.5t61.5 -209.5q0 -191 -153.5 -310.5t-397.5 -119.5zM614 584
q-92 0 -150 -47t-58 -119t58 -117t150 -45t150.5 45t58.5 117t-58.5 119t-150.5 47zM440 1010q0 -65 49.5 -107.5t124.5 -42.5t124.5 42.5t49.5 107.5q0 63 -49.5 105t-124.5 42t-124.5 -42t-49.5 -105z" />
    <glyph glyph-name="nine" unicode="9" horiz-adv-x="1239" 
d="M47 954q0 208 150.5 349t369.5 141q265 0 425.5 -190.5t160.5 -518.5q0 -352 -185.5 -559t-488.5 -207q-195 0 -354 90l80 279q45 -26 115.5 -44t140.5 -18q310 0 350 359q-51 -64 -130 -100.5t-175 -36.5q-193 0 -326 132t-133 324zM582 1157q-80 0 -136.5 -56
t-56.5 -138q0 -85 54 -139t137 -54q82 0 137 54.5t55 138.5q0 83 -55 138.5t-135 55.5z" />
    <glyph glyph-name="colon" unicode=":" horiz-adv-x="581" 
d="M88 897q0 84 58.5 143.5t144.5 59.5t144.5 -59.5t58.5 -143.5t-58.5 -143.5t-144.5 -59.5t-144.5 59.5t-58.5 143.5zM291 -8q-86 0 -144.5 59.5t-58.5 143.5t58.5 143t144.5 59t144.5 -59t58.5 -143t-58.5 -143.5t-144.5 -59.5z" />
    <glyph glyph-name="semicolon" unicode=";" horiz-adv-x="581" 
d="M96 221q0 75 55.5 126.5t135.5 51.5q104 0 176 -87.5t72 -213.5q0 -156 -102.5 -273.5t-270.5 -154.5l-53 178q95 19 158 78.5t63 130.5v11q-32 -19 -68 -19q-68 0 -117 51t-49 121zM88 897q0 84 58.5 143.5t144.5 59.5t144.5 -59.5t58.5 -143.5t-58.5 -143.5
t-144.5 -59.5t-144.5 59.5t-58.5 143.5z" />
    <glyph glyph-name="less" unicode="&#x3c;" 
d="M178 430v266l826 330v-283l-517 -174l517 -176v-293z" />
    <glyph glyph-name="equal" unicode="=" 
d="M160 664v272h911v-272h-911zM1071 190h-911v273h911v-273z" />
    <glyph glyph-name="greater" unicode="&#x3e;" 
d="M743 557l-516 176v293l826 -330v-266l-826 -330v283z" />
    <glyph glyph-name="question" unicode="?" horiz-adv-x="1134" 
d="M41 1112q37 166 180 269.5t342 103.5q222 0 364 -120.5t142 -309.5q0 -150 -96.5 -263.5t-265.5 -166.5v-146h-320v307q334 81 334 252q0 66 -46.5 108t-119.5 42q-68 0 -120.5 -38.5t-76.5 -102.5zM352 186q0 83 56 139t139 56t138.5 -56t55.5 -139t-55.5 -138.5
t-138.5 -55.5t-139 55.5t-56 138.5z" />
    <glyph glyph-name="at" unicode="@" horiz-adv-x="2086" 
d="M80 522q0 200 75 376.5t205.5 301.5t313 197.5t389.5 72.5q265 0 481 -112t339.5 -311.5t123.5 -446.5q0 -243 -116.5 -387.5t-315.5 -144.5q-108 0 -184 44t-113 126q-43 -82 -119.5 -127t-173.5 -45q-180 0 -301 133.5t-121 330.5q0 196 121.5 333.5t294.5 137.5
q84 0 152.5 -36.5t111.5 -102.5l6 117h260v-576q0 -51 24 -81.5t62 -30.5q68 0 111 86t43 217q0 140 -51.5 259.5t-141 203.5t-215.5 131t-272 47q-155 0 -290 -53.5t-230.5 -147t-150 -225t-54.5 -283.5q0 -199 91 -360t251 -252.5t358 -91.5q225 0 418 102l103 -207
q-216 -131 -516 -131q-206 0 -386.5 72t-308 196t-201 297.5t-73.5 370.5zM848 532q0 -91 53.5 -150.5t136.5 -59.5q82 0 137.5 60t55.5 150q0 92 -55.5 152.5t-137.5 60.5q-83 0 -136.5 -60t-53.5 -153z" />
    <glyph glyph-name="A" unicode="A" horiz-adv-x="1583" 
d="M27 0l575 1454h379l575 -1454h-368l-103 283h-600l-102 -283h-356zM784 1112l-190 -530h383z" />
    <glyph glyph-name="B" unicode="B" horiz-adv-x="1284" 
d="M123 0v1454h553q227 0 359 -102t132 -277q0 -103 -45 -182t-129 -123q112 -43 174 -136t62 -218q0 -191 -147 -303.5t-396 -112.5h-563zM672 616h-209v-333h209q100 0 153.5 43t53.5 123q0 81 -53.5 124t-153.5 43zM637 1171h-174v-294h174q87 0 134.5 38t47.5 107
q0 72 -47 110.5t-135 38.5z" />
    <glyph glyph-name="C" unicode="C" horiz-adv-x="1531" 
d="M80 717q0 217 96.5 395.5t265.5 280.5t375 102q236 0 411.5 -125.5t237.5 -337.5l-348 -78q-44 102 -124 157.5t-183 55.5q-156 0 -259 -127.5t-103 -318.5t102.5 -312.5t263.5 -121.5q106 0 187.5 54.5t130.5 158.5l348 -78q-61 -213 -241 -338t-425 -125
q-156 0 -292.5 57.5t-233.5 157.5t-153 241t-56 302z" />
    <glyph glyph-name="D" unicode="D" horiz-adv-x="1570" 
d="M123 0v1454h596q224 0 400 -90.5t274 -256t98 -378.5q0 -159 -57 -294.5t-158.5 -231t-246 -149.5t-314.5 -54h-592zM479 1139v-824h217q195 0 310.5 111t115.5 301t-115.5 301t-310.5 111h-217z" />
    <glyph glyph-name="E" unicode="E" horiz-adv-x="1185" 
d="M123 1454h940v-297h-592v-266h522v-297h-522v-297h612v-297h-960v1454z" />
    <glyph glyph-name="F" unicode="F" horiz-adv-x="1122" 
d="M123 1454h919v-307h-567v-305h498v-305h-498v-537h-352v1454z" />
    <glyph glyph-name="G" unicode="G" horiz-adv-x="1652" 
d="M80 723q0 163 59.5 306.5t162 245.5t246 161t306.5 59q230 0 405 -107t261 -301l-349 -100q-100 184 -317 184q-175 0 -290 -125t-115 -317q0 -196 117 -321t302 -125q136 0 228.5 68t117.5 184h-329v286h696v-166q0 -202 -93 -360.5t-260 -247t-378 -88.5
q-163 0 -306 58t-245 158.5t-160.5 242.5t-58.5 305z" />
    <glyph glyph-name="H" unicode="H" horiz-adv-x="1540" 
d="M123 1454h356v-545h582v545h356v-1454h-356v594h-582v-594h-356v1454z" />
    <glyph glyph-name="I" unicode="I" horiz-adv-x="602" 
d="M123 0v1454h356v-1454h-356z" />
    <glyph glyph-name="J" unicode="J" horiz-adv-x="1157" 
d="M537 -31q-198 0 -333.5 110.5t-185.5 311.5l349 62q42 -164 163 -164q73 0 116.5 52t43.5 140v973h357v-958q0 -235 -141.5 -381t-368.5 -146z" />
    <glyph glyph-name="K" unicode="K" horiz-adv-x="1464" 
d="M123 1454h356v-639l488 639h409l-538 -674l612 -780h-455l-516 700v-700h-356v1454z" />
    <glyph glyph-name="L" unicode="L" horiz-adv-x="1128" 
d="M123 0v1454h356v-1139h574v-315h-930z" />
    <glyph glyph-name="M" unicode="M" horiz-adv-x="1767" 
d="M123 1454h348l416 -776l418 776h340v-1454h-342v852l-295 -549h-248l-295 549v-852h-342v1454z" />
    <glyph glyph-name="N" unicode="N" horiz-adv-x="1519" 
d="M123 1454h305l627 -889v889h342v-1454h-305l-627 889v-889h-342v1454z" />
    <glyph glyph-name="O" unicode="O" horiz-adv-x="1695" 
d="M80 725q0 163 58.5 305.5t160 244.5t245 161t306.5 59q162 0 304 -58t243.5 -159.5t160 -244t58.5 -304.5q0 -163 -58.5 -305.5t-160 -244.5t-245 -161t-306.5 -59q-162 0 -304 58t-243.5 159.5t-160 244t-58.5 304.5zM449 727q0 -191 113 -315.5t286 -124.5t286 124.5
t113 315.5t-113 315.5t-286 124.5t-286 -124.5t-113 -315.5z" />
    <glyph glyph-name="P" unicode="P" horiz-adv-x="1249" 
d="M123 0v1454h491q278 0 433 -132.5t155 -371.5q0 -223 -160 -361t-421 -138q-71 0 -148 12v-463h-350zM473 1157v-399q78 -10 131 -10q116 0 178 52.5t62 151.5t-60.5 152t-175.5 53h-135z" />
    <glyph glyph-name="Q" unicode="Q" horiz-adv-x="1695" 
d="M80 725q0 162 59.5 305.5t161.5 245t245 160.5t304 59t304 -59t244 -160t159.5 -239.5t58.5 -293.5q0 -150 -54 -285.5t-151 -242.5l164 -205l-232 -186l-172 213q-166 -78 -340 -78q-154 0 -292.5 58.5t-239.5 159t-160 243.5t-59 305zM449 727q0 -192 112.5 -316
t290.5 -124q64 0 113 14l-220 272l224 181l219 -273q59 100 59 240q0 196 -112.5 321t-286.5 125q-173 0 -286 -124.5t-113 -315.5z" />
    <glyph glyph-name="R" unicode="R" horiz-adv-x="1316" 
d="M123 0v1454h493q277 0 435.5 -127t158.5 -350q0 -121 -64.5 -230t-172.5 -174l321 -573h-389l-239 479q-23 -2 -68 -2q-50 0 -125 10v-487h-350zM473 1157v-377q71 -12 143 -12q110 0 173 52.5t63 144.5t-63 142t-179 50h-137z" />
    <glyph glyph-name="S" unicode="S" horiz-adv-x="1189" 
d="M592 -31q-207 0 -358 108t-193 292l330 65q26 -79 83.5 -120.5t139.5 -41.5t135 40.5t53 103.5q0 57 -50.5 94t-168.5 63l-55 13q-217 48 -323.5 159t-106.5 273q0 133 68.5 240t188.5 167t267 60q197 0 335.5 -104t178.5 -285l-323 -66q-53 152 -195 152
q-73 0 -119.5 -37t-46.5 -96q0 -33 15 -57t47 -41t66 -28.5t87 -23.5l53 -12q439 -101 439 -436q0 -211 -155 -346.5t-392 -135.5z" />
    <glyph glyph-name="T" unicode="T" horiz-adv-x="1306" 
d="M78 1139v315h1151v-315h-398v-1139h-356v1139h-397z" />
    <glyph glyph-name="U" unicode="U" horiz-adv-x="1515" 
d="M754 -41q-293 0 -468 174t-175 465v856h356v-840q0 -151 78.5 -239t212.5 -88t212.5 88t78.5 239v840h356v-856q0 -290 -177.5 -464.5t-473.5 -174.5z" />
    <glyph glyph-name="V" unicode="V" horiz-adv-x="1540" 
d="M27 1454h395l356 -1057l357 1057h378l-548 -1454h-390z" />
    <glyph glyph-name="W" unicode="W" horiz-adv-x="2166" 
d="M55 1454h373l242 -985l260 985h319l260 -983l240 983h362l-434 -1454h-331l-261 985l-260 -985h-336z" />
    <glyph glyph-name="X" unicode="X" horiz-adv-x="1449" 
d="M14 0l512 768l-450 686h395l258 -440l256 440h387l-450 -690l514 -764h-414l-305 506l-301 -506h-402z" />
    <glyph glyph-name="Y" unicode="Y" horiz-adv-x="1400" 
d="M16 1454h404l287 -563l286 563h391l-505 -895v-559h-357v559z" />
    <glyph glyph-name="Z" unicode="Z" horiz-adv-x="1329" 
d="M70 0v252l706 903h-676v299h1125v-252l-709 -903h754v-299h-1200z" />
    <glyph glyph-name="bracketleft" unicode="[" horiz-adv-x="780" 
d="M143 1630h555v-256h-260v-1421h260v-256h-555v1933z" />
    <glyph glyph-name="backslash" unicode="\" horiz-adv-x="1011" 
d="M694 -242l-682 1811h305l682 -1811h-305z" />
    <glyph glyph-name="bracketright" unicode="]" horiz-adv-x="780" 
d="M342 1374h-260v256h555v-1933h-555v256h260v1421z" />
    <glyph glyph-name="asciicircum" unicode="^" 
d="M123 690l348 723h289l348 -723h-309l-189 412l-190 -412h-297z" />
    <glyph glyph-name="underscore" unicode="_" horiz-adv-x="1251" 
d="M61 -358v245h1129v-245h-1129z" />
    <glyph glyph-name="grave" unicode="`" 
d="M612 1239l-243 293h356l184 -293h-297z" />
    <glyph glyph-name="a" unicode="a" horiz-adv-x="1159" 
d="M434 -31q-165 0 -273 96.5t-108 243.5q0 158 124.5 255.5t326.5 97.5q122 0 227 -44v56q0 80 -46 128t-124 48q-58 0 -104.5 -27.5t-65.5 -74.5l-299 51q32 142 166.5 232.5t308.5 90.5q216 0 352 -130t136 -335v-657h-299l-8 129q-42 -74 -124.5 -117t-189.5 -43z
M565 451q-86 0 -135 -32.5t-49 -88.5q0 -50 40 -81.5t105 -31.5q89 0 147 54.5t58 134.5v10q-75 35 -166 35z" />
    <glyph glyph-name="b" unicode="b" horiz-adv-x="1325" 
d="M104 1532h334v-571q56 75 142.5 118t185.5 43q102 0 193 -44.5t156.5 -120t103.5 -181t38 -223.5q0 -163 -67.5 -297t-185.5 -210.5t-261 -76.5q-103 0 -185.5 43.5t-137.5 124.5l-8 -137h-308v1532zM434 545q0 -117 69.5 -196t172.5 -79t172.5 79t69.5 196
q0 119 -69.5 197.5t-172.5 78.5t-172.5 -78.5t-69.5 -197.5z" />
    <glyph glyph-name="c" unicode="c" horiz-adv-x="1189" 
d="M68 537q0 164 73.5 298t203 210.5t286.5 76.5q188 0 323.5 -104t175.5 -279l-323 -53q-27 64 -74 99.5t-108 35.5q-94 0 -155.5 -78.5t-61.5 -199.5q0 -120 61 -196.5t156 -76.5q64 0 116 35.5t76 100.5l324 -54q-36 -171 -181.5 -277t-336.5 -106q-238 0 -396.5 161.5
t-158.5 406.5z" />
    <glyph glyph-name="d" unicode="d" horiz-adv-x="1325" 
d="M68 539q0 163 67.5 296.5t185.5 210t261 76.5q193 0 305 -143v553h334v-1532h-308l-10 156q-56 -87 -146.5 -137t-197.5 -50q-136 0 -249 75.5t-177.5 206.5t-64.5 288zM408 547q0 -120 69 -198.5t172 -78.5t172.5 79t69.5 198q0 118 -69.5 196t-172.5 78t-172 -78
t-69 -196z" />
    <glyph glyph-name="e" unicode="e" horiz-adv-x="1220" 
d="M629 -31q-246 0 -403.5 162.5t-157.5 417.5q0 161 72 292.5t198 206t280 74.5q246 0 395.5 -162t149.5 -428v-73h-753q20 -100 78 -154.5t145 -54.5q130 0 205 106l305 -80q-58 -139 -199 -223t-315 -84zM410 672h409q-17 97 -69 148.5t-132 51.5q-82 0 -135.5 -51.5
t-72.5 -148.5z" />
    <glyph glyph-name="f" unicode="f" horiz-adv-x="864" 
d="M39 1092h180v57q0 185 117.5 299.5t306.5 114.5q122 0 225 -54l-59 -247q-54 28 -111 28q-71 0 -108 -42t-37 -118v-38h268v-271h-268v-821h-334v821h-180v271z" />
    <glyph glyph-name="g" unicode="g" horiz-adv-x="1304" 
d="M68 573q0 148 65.5 274t181 200.5t254.5 74.5q100 0 182.5 -40.5t133.5 -114.5l8 125h307v-949q0 -252 -157.5 -408.5t-411.5 -156.5q-183 0 -318 82t-198 223l327 70q65 -100 193 -100q104 0 167.5 69.5t63.5 183.5v84q-56 -72 -138.5 -111.5t-180.5 -39.5
q-131 0 -242 73t-174 195.5t-63 265.5zM408 582q0 -108 66 -180t165 -72t165 72t66 180q0 107 -66 178t-165 71t-165 -71t-66 -178z" />
    <glyph glyph-name="h" unicode="h" 
d="M104 1532h334v-559q107 149 301 149q175 0 281 -126.5t106 -336.5v-659h-333v612q0 97 -44 153t-122 56q-81 0 -135 -58t-54 -145v-618h-334v1532z" />
    <glyph glyph-name="i" unicode="i" horiz-adv-x="542" 
d="M104 1092h334v-1092h-334v1092zM268 1247q-74 0 -124 49t-50 119q0 71 49.5 119.5t124.5 48.5q77 0 127.5 -48.5t50.5 -119.5q0 -70 -50.5 -119t-127.5 -49z" />
    <glyph glyph-name="j" unicode="j" horiz-adv-x="552" 
d="M63 -422q-118 0 -213 53l60 250q55 -22 92 -22q54 0 83.5 35.5t29.5 101.5v1096h334v-1112q0 -181 -106.5 -291.5t-279.5 -110.5zM106 1415q0 71 50 119.5t125 48.5q77 0 127.5 -48.5t50.5 -119.5q0 -70 -50.5 -119t-127.5 -49q-74 0 -124.5 49t-50.5 119z" />
    <glyph glyph-name="k" unicode="k" 
d="M104 1532h334v-877l361 437h379l-418 -484l467 -608h-412l-377 537v-537h-334v1532z" />
    <glyph glyph-name="l" unicode="l" horiz-adv-x="542" 
d="M104 0v1532h334v-1532h-334z" />
    <glyph glyph-name="m" unicode="m" horiz-adv-x="1894" 
d="M104 1092h308l10 -144q45 80 125.5 127t179.5 47q105 0 189 -52t131 -146q53 90 145.5 144t208.5 54q180 0 284.5 -126.5t104.5 -344.5v-651h-334v610q0 98 -43.5 154.5t-118.5 56.5q-78 0 -129 -59t-51 -148v-614h-334v610q0 98 -43.5 154.5t-118.5 56.5q-78 0 -129 -59
t-51 -148v-614h-334v1092z" />
    <glyph glyph-name="n" unicode="n" 
d="M104 1092h308l10 -144q48 81 130.5 127.5t186.5 46.5q175 0 281 -126.5t106 -336.5v-659h-333v612q0 97 -44 153t-122 56q-81 0 -135 -58t-54 -145v-618h-334v1092z" />
    <glyph glyph-name="o" unicode="o" horiz-adv-x="1298" 
d="M68 543q0 162 75.5 294.5t210 208.5t299.5 76q247 0 412.5 -164.5t165.5 -410.5q0 -162 -76 -294.5t-210.5 -208t-299.5 -75.5q-247 0 -412 164t-165 410zM408 545q0 -117 69 -196t172 -79t172.5 79t69.5 196q0 119 -69.5 197.5t-172.5 78.5t-172 -78.5t-69 -197.5z" />
    <glyph glyph-name="p" unicode="p" horiz-adv-x="1325" 
d="M104 1092h308l10 -156q56 87 146 136.5t198 49.5q102 0 193 -44.5t156.5 -120t103.5 -181t38 -223.5q0 -163 -67.5 -297t-185.5 -210.5t-261 -76.5q-192 0 -305 144v-504h-334v1483zM434 545q0 -117 69.5 -196t172.5 -79t172.5 79t69.5 196q0 119 -69.5 197.5
t-172.5 78.5t-172.5 -78.5t-69.5 -197.5z" />
    <glyph glyph-name="q" unicode="q" horiz-adv-x="1325" 
d="M68 539q0 163 67.5 296.5t185.5 210t261 76.5q103 0 185.5 -43.5t137.5 -124.5l8 138h308v-1483h-334v522q-56 -76 -142.5 -119t-185.5 -43q-136 0 -249 75.5t-177.5 206.5t-64.5 288zM408 547q0 -120 69 -198.5t172 -78.5t172.5 79t69.5 198q0 118 -69.5 196t-172.5 78
t-172 -78t-69 -196z" />
    <glyph glyph-name="r" unicode="r" horiz-adv-x="831" 
d="M104 1092h308l12 -174q38 91 108 139.5t162 48.5q64 0 101 -19l-33 -331q-43 14 -94 14q-230 0 -230 -252v-518h-334v1092z" />
    <glyph glyph-name="s" unicode="s" horiz-adv-x="1034" 
d="M518 -31q-179 0 -306.5 81t-170.5 220l307 56q19 -48 65 -76.5t107 -28.5q62 0 98.5 25t36.5 67q0 39 -38 61.5t-130 37.5l-49 8q-178 29 -273 117t-95 223q0 160 123 261t317 101q169 0 291.5 -79t159.5 -214l-306 -55q-19 45 -57 70.5t-88 25.5q-56 0 -88.5 -23.5
t-32.5 -62.5q0 -36 36 -56.5t128 -35.5l49 -8q183 -31 279 -118t96 -222q0 -166 -128 -270.5t-331 -104.5z" />
    <glyph glyph-name="t" unicode="t" horiz-adv-x="919" 
d="M39 1092h180v372h334v-372h281v-273h-281v-416q0 -147 125 -147q71 0 143 35l51 -254q-126 -68 -270 -68q-185 0 -284 101.5t-99 291.5v457h-180v273z" />
    <glyph glyph-name="u" unicode="u" horiz-adv-x="1224" 
d="M104 1092h334v-607q0 -100 46 -157.5t128 -57.5t128 57.5t46 157.5v607h334v-600q0 -236 -139 -379.5t-371 -143.5q-229 0 -367.5 143t-138.5 380v600z" />
    <glyph glyph-name="v" unicode="v" horiz-adv-x="1179" 
d="M16 1092h367l211 -719l215 719h354l-403 -1092h-340z" />
    <glyph glyph-name="w" unicode="w" horiz-adv-x="1755" 
d="M377 0l-361 1092h349l172 -691l196 691h295l197 -695l178 695h336l-361 -1092h-309l-192 684l-195 -684h-305z" />
    <glyph glyph-name="x" unicode="x" horiz-adv-x="1222" 
d="M23 0l399 578l-354 514h381l163 -291l170 291h373l-354 -517l399 -575h-399l-193 336l-196 -336h-389z" />
    <glyph glyph-name="y" unicode="y" horiz-adv-x="1179" 
d="M16 1092h367l225 -717l201 717h354l-434 -1170q-66 -177 -166 -260.5t-246 -83.5q-121 0 -213 51l60 256q58 -26 115 -26q54 0 93 33.5t72 105.5l9 18z" />
    <glyph glyph-name="z" unicode="z" horiz-adv-x="1097" 
d="M76 0v221l495 602h-479v269h895v-222l-495 -602h530v-268h-946z" />
    <glyph glyph-name="braceleft" unicode="{" horiz-adv-x="815" 
d="M61 543v241h31q63 0 97 32.5t34 92.5q0 27 -15 142t-15 186q0 190 114 291.5t332 101.5h94v-256h-67q-88 0 -130 -44t-42 -136q0 -44 15 -145t15 -140q0 -84 -41.5 -153.5t-103.5 -91.5q62 -22 103.5 -92t41.5 -154q0 -39 -15 -140t-15 -145q0 -92 42 -136t130 -44h67
v-256h-94q-218 0 -332 101.5t-114 291.5q0 71 15 186t15 142q0 60 -34 92.5t-97 32.5h-31z" />
    <glyph glyph-name="bar" unicode="|" horiz-adv-x="579" 
d="M143 -242v1811h293v-1811h-293z" />
    <glyph glyph-name="braceright" unicode="}" horiz-adv-x="815" 
d="M176 -303h-94v256h68q88 0 130 44t42 136q0 44 -15.5 145t-15.5 140q0 84 41.5 154t103.5 92q-62 22 -103.5 91.5t-41.5 153.5q0 39 15.5 140t15.5 145q0 92 -42 136t-130 44h-68v256h94q219 0 333 -101.5t114 -291.5q0 -71 -15.5 -186t-15.5 -142q0 -60 34 -92.5
t97 -32.5h31v-241h-31q-63 0 -97 -32.5t-34 -92.5q0 -27 15.5 -142t15.5 -186q0 -190 -114 -291.5t-333 -101.5z" />
    <glyph glyph-name="asciitilde" unicode="~" 
d="M379 360h-266q15 195 99.5 304.5t219.5 109.5q58 0 113.5 -22.5t90 -49t71 -49t61.5 -22.5q64 0 82 127h266q-15 -195 -99.5 -304.5t-219.5 -109.5q-58 0 -113.5 22.5t-90 49t-71 49t-61.5 22.5q-64 0 -82 -127z" />
    <glyph glyph-name="uni00A0" unicode="&#xa0;" horiz-adv-x="421" 
 />
    <glyph glyph-name="exclamdown" unicode="&#xa1;" horiz-adv-x="565" 
d="M463 -362h-361l21 974h319zM283 711q-82 0 -138.5 55.5t-56.5 138.5t56.5 139t138.5 56t138 -56t56 -139t-56 -138.5t-138 -55.5z" />
    <glyph glyph-name="cent" unicode="&#xa2;" 
d="M84 535q0 210 122 364t316 199v229h232v-227q148 -25 253.5 -122t139.5 -241l-324 -53q-27 64 -74 99.5t-108 35.5q-94 0 -155.5 -78.5t-61.5 -199.5q0 -120 61 -196.5t156 -76.5q64 0 116 36.5t77 98.5l323 -53q-34 -142 -142 -238t-261 -124v-267h-232v267
q-195 42 -316.5 190.5t-121.5 356.5z" />
    <glyph glyph-name="sterling" unicode="&#xa3;" 
d="M186 557h-137v250h158l14 178q17 211 145 335t330 124q189 0 318 -106t160 -289l-322 -52q-27 140 -152 140q-66 0 -103.5 -40.5t-43.5 -115.5l-14 -174h317v-250h-338l-20 -260h669v-297h-1116v297h113z" />
    <glyph glyph-name="currency" unicode="&#xa4;" 
d="M242 948l-158 160l168 168l160 -162q89 53 204 53q116 0 205 -53l160 162l168 -168l-158 -160q56 -94 56 -203q0 -108 -56 -202l158 -160l-168 -168l-160 162q-89 -53 -205 -53q-115 0 -204 53l-160 -162l-168 168l158 160q-56 94 -56 202q0 109 56 203zM465 745
q0 -73 42.5 -120t108.5 -47t109 47t43 120t-43 120.5t-109 47.5t-108.5 -47.5t-42.5 -120.5z" />
    <glyph glyph-name="yen" unicode="&#xa5;" 
d="M18 1413h377l230 -539l223 539h366l-356 -684h217v-186h-291v-137h291v-187h-291v-219h-335v219h-291v187h291v137h-291v186h217z" />
    <glyph glyph-name="section" unicode="&#xa7;" horiz-adv-x="1069" 
d="M528 -195q-177 0 -305 78.5t-174 214.5l305 56q50 -101 181 -101q63 0 102 25.5t39 68.5q0 87 -174 111l-84 12q-170 25 -262.5 109t-92.5 215q0 187 175 278q-148 91 -148 254q0 156 125.5 257.5t321.5 101.5q170 0 290 -77t160 -212l-301 -55q-43 94 -154 94
q-55 0 -90.5 -25.5t-35.5 -64.5q0 -78 165 -103l107 -16q164 -25 253 -107.5t89 -207.5q0 -188 -180 -285q153 -92 153 -258q0 -160 -130.5 -261.5t-334.5 -101.5zM362 657q0 -97 148 -127l31 -6q16 -4 39 -4q66 0 103.5 32t37.5 89q0 97 -148 127l-30 6q-16 4 -39 4
q-66 0 -104 -32t-38 -89z" />
    <glyph glyph-name="dieresis" unicode="&#xa8;" 
d="M672 1378q0 71 49.5 120.5t122.5 49.5t122.5 -49.5t49.5 -120.5t-49.5 -120.5t-122.5 -49.5t-122.5 49.5t-49.5 120.5zM213 1378q0 71 49.5 120.5t122.5 49.5t122.5 -49.5t49.5 -120.5t-49.5 -120.5t-122.5 -49.5t-122.5 49.5t-49.5 120.5z" />
    <glyph glyph-name="copyright" unicode="&#xa9;" horiz-adv-x="1720" 
d="M90 727q0 215 101 391t277.5 276.5t391.5 100.5t391.5 -100.5t277.5 -276.5t101 -391t-101 -391.5t-277.5 -277.5t-391.5 -101t-391.5 101t-277.5 277.5t-101 391.5zM287 727q0 -161 76.5 -296.5t208.5 -213.5t288 -78t288 78t209 213.5t77 296.5q0 160 -77 295t-209 213
t-288 78t-288 -78t-208.5 -213t-76.5 -295zM465 729q0 178 118 299t291 121q133 0 232 -78.5t127 -208.5l-240 -41q-17 44 -49 69t-70 25q-63 0 -105 -51.5t-42 -130.5q0 -78 40.5 -128t106.5 -50q43 0 76.5 24t50.5 70l240 -41q-24 -127 -130.5 -206.5t-244.5 -79.5
q-171 0 -286 116.5t-115 290.5z" />
    <glyph glyph-name="ordfeminine" unicode="&#xaa;" horiz-adv-x="884" 
d="M334 623q-114 0 -190 67.5t-76 169.5q0 113 86 180.5t231 67.5q82 0 150 -25v37q0 50 -30 82.5t-75 32.5q-35 0 -63 -19t-39 -49l-234 37q25 102 119.5 166t222.5 64q157 0 253.5 -90t96.5 -238v-461h-231l-6 80q-63 -102 -215 -102zM434 954q-51 0 -81.5 -21.5
t-30.5 -58.5q0 -32 23.5 -50.5t62.5 -18.5q55 0 91 35.5t36 87.5v6q-44 20 -101 20z" />
    <glyph glyph-name="guillemotleft" unicode="&#xab;" horiz-adv-x="1142" 
d="M791 186l-271 398l271 397h280l-260 -397l260 -398h-280zM41 584l270 397h281l-260 -397l260 -398h-281z" />
    <glyph glyph-name="logicalnot" unicode="&#xac;" 
d="M156 522v279h878v-608h-286v329h-592z" />
    <glyph glyph-name="registered" unicode="&#xae;" horiz-adv-x="1097" 
d="M82 1014q0 197 134 329t333 132t333 -132t134 -329t-134 -329t-333 -132t-333 132t-134 329zM209 1014q0 -145 97.5 -242.5t242.5 -97.5t242.5 97.5t97.5 242.5t-97.5 242.5t-242.5 97.5t-242.5 -97.5t-97.5 -242.5zM369 1255h176q93 0 146.5 -42.5t53.5 -116.5
q0 -38 -20 -73.5t-53 -59.5l96 -183h-145l-68 146h-14q-25 0 -39 2v-148h-133v475zM502 1038q28 -4 45 -4q29 0 45 15.5t16 42.5q0 51 -65 51h-41v-105z" />
    <glyph glyph-name="macron" unicode="&#xaf;" 
d="M279 1247v215h671v-215h-671z" />
    <glyph glyph-name="degree" unicode="&#xb0;" horiz-adv-x="782" 
d="M391 856q-146 0 -250 100.5t-104 241.5t104 241.5t250 100.5t250 -100.5t104 -241.5t-104 -241.5t-250 -100.5zM391 1337q-54 0 -90.5 -40t-36.5 -99t36.5 -99t90.5 -40t90.5 40t36.5 99t-36.5 99t-90.5 40z" />
    <glyph glyph-name="plusminus" unicode="&#xb1;" 
d="M479 662h-305v262h305v284h273v-284h305v-262h-305v-295h-273v295zM195 0v270h841v-270h-841z" />
    <glyph glyph-name="acute" unicode="&#xb4;" 
d="M856 1532l-244 -293h-297l185 293h356z" />
    <glyph glyph-name="paragraph" unicode="&#xb6;" horiz-adv-x="1214" 
d="M70 954q0 235 154.5 367.5t430.5 132.5h72v-1642h-203v647q-213 31 -333.5 163t-120.5 332zM877 1454h204v-1642h-204v1642z" />
    <glyph glyph-name="periodcentered" unicode="&#xb7;" horiz-adv-x="581" 
d="M88 565q0 84 58.5 143.5t144.5 59.5t144.5 -59.5t58.5 -143.5t-58.5 -143.5t-144.5 -59.5t-144.5 59.5t-58.5 143.5z" />
    <glyph glyph-name="cedilla" unicode="&#xb8;" 
d="M553 -467q-95 0 -174 33l27 166q58 -21 104 -21q41 0 64.5 16.5t23.5 45.5q0 63 -121 63l70 187h203l-35 -101q64 -23 100.5 -70t36.5 -106q0 -92 -84.5 -152.5t-214.5 -60.5z" />
    <glyph glyph-name="ordmasculine" unicode="&#xba;" horiz-adv-x="952" 
d="M479 623q-180 0 -300 116.5t-120 288.5t119 289t297 117q179 0 299.5 -117t120.5 -289t-119 -288.5t-297 -116.5zM477 1198q-67 0 -110 -47.5t-43 -122.5t43 -122.5t110 -47.5q68 0 111 47.5t43 122.5t-43 122.5t-111 47.5z" />
    <glyph glyph-name="guillemotright" unicode="&#xbb;" horiz-adv-x="1142" 
d="M811 584l-260 397h280l271 -397l-271 -398h-280zM72 186l260 398l-260 397h280l271 -397l-271 -398h-280z" />
    <glyph glyph-name="onequarter" unicode="&#xbc;" horiz-adv-x="1665" 
d="M518 0h-246l902 1413h245zM958 311l310 467h254v-463h75v-172h-75v-143h-215v143h-349v168zM94 1284l240 129h198v-778h-225v547l-147 -80zM1153 315h154v230z" />
    <glyph glyph-name="onehalf" unicode="&#xbd;" horiz-adv-x="1665" 
d="M240 0l901 1413h245l-901 -1413h-245zM1202 524l-207 29q19 105 102.5 172.5t198.5 67.5q121 0 202 -72.5t81 -179.5q0 -171 -248 -351h262v-190h-585v152q344 258 344 372q0 33 -19 54.5t-51 21.5q-30 0 -52 -20.5t-28 -55.5zM160 1102l-66 182l240 129h198v-778h-225
v547z" />
    <glyph glyph-name="threequarters" unicode="&#xbe;" horiz-adv-x="1665" 
d="M530 0h-245l901 1413h246zM958 143v168l310 467h254v-463h75v-172h-75v-143h-215v143h-349zM53 834l203 30q8 -27 33 -43t61 -16q40 0 64 19.5t24 49.5q0 29 -23 47.5t-61 18.5h-78v176h64q40 0 62 17.5t22 44.5q0 26 -21.5 43.5t-52.5 17.5q-27 0 -49 -14.5t-29 -40.5
l-204 33q19 94 100 152t197 58q122 0 199 -60.5t77 -158.5q0 -117 -109 -170q62 -25 96 -72t34 -110q0 -104 -86 -172t-216 -68q-119 0 -202 60.5t-105 157.5zM1307 545l-154 -230h154v230z" />
    <glyph glyph-name="questiondown" unicode="&#xbf;" horiz-adv-x="1081" 
d="M559 -393q-222 0 -364 120.5t-142 309.5q0 150 97 263.5t266 166.5v145h319v-307q-334 -81 -334 -252q0 -66 46 -107.5t120 -41.5q69 0 121.5 37.5t75.5 103.5l317 -65q-37 -166 -180 -269.5t-342 -103.5zM381 905q0 83 55.5 139t138.5 56t139 -56t56 -139t-56 -138.5
t-139 -55.5t-138.5 55.5t-55.5 138.5z" />
    <glyph glyph-name="Agrave" unicode="&#xc0;" horiz-adv-x="1583" 
d="M27 0l575 1454h379l575 -1454h-368l-103 283h-600l-102 -283h-356zM594 582h383l-193 530zM666 1599l-244 293h356l185 -293h-297z" />
    <glyph glyph-name="Aacute" unicode="&#xc1;" horiz-adv-x="1583" 
d="M27 0l575 1454h379l575 -1454h-368l-103 283h-600l-102 -283h-356zM594 582h383l-193 530zM635 1599l184 293h357l-244 -293h-297z" />
    <glyph glyph-name="Acircumflex" unicode="&#xc2;" horiz-adv-x="1583" 
d="M27 0l575 1454h379l575 -1454h-368l-103 283h-600l-102 -283h-356zM672 1599h-281l238 293h321l238 -293h-291l-111 115zM784 1112l-190 -530h383z" />
    <glyph glyph-name="Atilde" unicode="&#xc3;" horiz-adv-x="1583" 
d="M383 0h-356l575 1454h379l575 -1454h-368l-103 283h-600zM410 1599q11 126 76 201.5t165 75.5q52 0 93.5 -17t72.5 -34t57 -17q27 0 41.5 13t20.5 43h231q-11 -127 -75.5 -202t-165.5 -75q-52 0 -94 17t-73 34t-57 17q-27 0 -41 -13t-20 -43h-231zM784 1112l-190 -530
h383z" />
    <glyph glyph-name="Adieresis" unicode="&#xc4;" horiz-adv-x="1583" 
d="M27 0l575 1454h379l575 -1454h-368l-103 283h-600l-102 -283h-356zM532 1571q-75 0 -126.5 51.5t-51.5 126.5t51.5 126.5t126.5 51.5t127 -51.5t52 -126.5t-52 -126.5t-127 -51.5zM1049 1571q-75 0 -127 51.5t-52 126.5t52 126.5t127 51.5t126.5 -51.5t51.5 -126.5
t-51.5 -126.5t-126.5 -51.5zM784 1112l-190 -530h383z" />
    <glyph glyph-name="Aring" unicode="&#xc5;" horiz-adv-x="1583" 
d="M27 0l575 1454h379l575 -1454h-368l-103 283h-600l-102 -283h-356zM539 1778q0 101 72.5 170t179.5 69t179 -69t72 -170q0 -102 -72 -171t-179 -69t-179.5 69.5t-72.5 170.5zM784 1112l-190 -530h383zM791 1866q-35 0 -60.5 -25.5t-25.5 -62.5t25.5 -62.5t60.5 -25.5
t60.5 25.5t25.5 62.5t-25.5 62.5t-60.5 25.5z" />
    <glyph glyph-name="AE" unicode="&#xc6;" horiz-adv-x="2121" 
d="M27 0l897 1454h1075v-297h-572v-266h502v-297h-502v-297h592v-297h-940v283h-495l-164 -283h-393zM1079 1143l-323 -561h323v561z" />
    <glyph glyph-name="Ccedilla" unicode="&#xc7;" horiz-adv-x="1531" 
d="M80 717q0 217 96.5 395.5t265.5 280.5t375 102q236 0 411.5 -125.5t237.5 -337.5l-348 -78q-44 102 -124 157.5t-183 55.5q-156 0 -259 -127.5t-103 -318.5t102.5 -312.5t263.5 -121.5q106 0 187.5 54.5t130.5 158.5l348 -78q-55 -189 -203.5 -310t-355.5 -147l-21 -55
q63 -23 100 -73t37 -111q0 -95 -85.5 -157.5t-219.5 -62.5q-76 0 -184 33l31 174q70 -20 104 -20q41 0 64.5 16t23.5 45t-32 46.5t-89 17.5l56 149q-276 37 -451.5 245t-175.5 505z" />
    <glyph glyph-name="Egrave" unicode="&#xc8;" horiz-adv-x="1185" 
d="M123 1454h940v-297h-592v-266h522v-297h-522v-297h612v-297h-960v1454zM244 1892h356l184 -293h-297z" />
    <glyph glyph-name="Eacute" unicode="&#xc9;" horiz-adv-x="1185" 
d="M123 1454h940v-297h-592v-266h522v-297h-522v-297h612v-297h-960v1454zM715 1599h-297l184 293h356z" />
    <glyph glyph-name="Ecircumflex" unicode="&#xca;" horiz-adv-x="1185" 
d="M123 1454h940v-297h-592v-266h522v-297h-522v-297h612v-297h-960v1454zM463 1599h-281l238 293h321l238 -293h-291l-110 115z" />
    <glyph glyph-name="Edieresis" unicode="&#xcb;" horiz-adv-x="1185" 
d="M123 1454h940v-297h-592v-266h522v-297h-522v-297h612v-297h-960v1454zM672 1749q0 75 51.5 126.5t126.5 51.5t126.5 -51.5t51.5 -126.5t-51.5 -126.5t-126.5 -51.5t-126.5 51.5t-51.5 126.5zM334 1571q-75 0 -126.5 51.5t-51.5 126.5t51.5 126.5t126.5 51.5t126.5 -51.5
t51.5 -126.5t-51.5 -126.5t-126.5 -51.5z" />
    <glyph glyph-name="Igrave" unicode="&#xcc;" horiz-adv-x="602" 
d="M123 0v1454h356v-1454h-356zM162 1599l-244 293h356l185 -293h-297z" />
    <glyph glyph-name="Iacute" unicode="&#xcd;" horiz-adv-x="602" 
d="M123 0v1454h356v-1454h-356zM690 1892l-244 -293h-296l184 293h356z" />
    <glyph glyph-name="Icircumflex" unicode="&#xce;" horiz-adv-x="602" 
d="M123 0v1454h356v-1454h-356zM-162 1602l305 282h318l305 -282h-326l-141 116l-145 -116h-316z" />
    <glyph glyph-name="Idieresis" unicode="&#xcf;" horiz-adv-x="602" 
d="M123 1454h356v-1454h-356v1454zM381 1749q0 75 51.5 126.5t126.5 51.5t126.5 -51.5t51.5 -126.5t-51.5 -126.5t-126.5 -51.5t-126.5 51.5t-51.5 126.5zM43 1571q-75 0 -126.5 51.5t-51.5 126.5t51.5 126.5t126.5 51.5t126.5 -51.5t51.5 -126.5t-51.5 -126.5t-126.5 -51.5
z" />
    <glyph glyph-name="Eth" unicode="&#xd0;" horiz-adv-x="1591" 
d="M143 610h-151v264h151v580h596q224 0 400 -90.5t274 -256t98 -378.5q0 -159 -57 -294.5t-158.5 -231t-246 -149.5t-314.5 -54h-592v610zM770 610h-270v-295h217q195 0 310.5 111t115.5 301t-115.5 301t-310.5 111h-217v-265h270v-264z" />
    <glyph glyph-name="Ntilde" unicode="&#xd1;" horiz-adv-x="1519" 
d="M465 0h-342v1454h305l627 -889v889h342v-1454h-305l-627 889v-889zM342 1604q12 141 86 225t184 84q59 0 113 -25.5t96.5 -50.5t73.5 -25t52.5 23.5t27.5 65.5h205q-12 -141 -85.5 -225.5t-185.5 -84.5q-58 0 -112.5 25.5t-97.5 50.5t-72 25q-31 0 -52.5 -23t-27.5 -65
h-205z" />
    <glyph glyph-name="Ograve" unicode="&#xd2;" horiz-adv-x="1695" 
d="M80 725q0 163 58.5 305.5t160 244.5t245 161t306.5 59q162 0 304 -58t243.5 -159.5t160 -244t58.5 -304.5q0 -163 -58.5 -305.5t-160 -244.5t-245 -161t-306.5 -59q-162 0 -304 58t-243.5 159.5t-160 244t-58.5 304.5zM449 727q0 -191 113 -315.5t286 -124.5t286 124.5
t113 315.5t-113 315.5t-286 124.5t-286 -124.5t-113 -315.5zM727 1599l-244 293h357l184 -293h-297z" />
    <glyph glyph-name="Oacute" unicode="&#xd3;" horiz-adv-x="1695" 
d="M80 725q0 163 58.5 305.5t160 244.5t245 161t306.5 59q162 0 304 -58t243.5 -159.5t160 -244t58.5 -304.5q0 -163 -58.5 -305.5t-160 -244.5t-245 -161t-306.5 -59q-162 0 -304 58t-243.5 159.5t-160 244t-58.5 304.5zM449 727q0 -191 113 -315.5t286 -124.5t286 124.5
t113 315.5t-113 315.5t-286 124.5t-286 -124.5t-113 -315.5zM668 1599l184 293h356l-243 -293h-297z" />
    <glyph glyph-name="Ocircumflex" unicode="&#xd4;" horiz-adv-x="1695" 
d="M80 725q0 163 58.5 305.5t160 244.5t245 161t306.5 59q162 0 304 -58t243.5 -159.5t160 -244t58.5 -304.5q0 -163 -58.5 -305.5t-160 -244.5t-245 -161t-306.5 -59q-162 0 -304 58t-243.5 159.5t-160 244t-58.5 304.5zM449 727q0 -191 113 -315.5t286 -124.5t286 124.5
t113 315.5t-113 315.5t-286 124.5t-286 -124.5t-113 -315.5zM451 1599l237 293h322l237 -293h-291l-110 115l-115 -115h-280z" />
    <glyph glyph-name="Otilde" unicode="&#xd5;" horiz-adv-x="1695" 
d="M80 725q0 163 58.5 305.5t160 244.5t245 161t306.5 59q162 0 304 -58t243.5 -159.5t160 -244t58.5 -304.5q0 -163 -58.5 -305.5t-160 -244.5t-245 -161t-306.5 -59q-162 0 -304 58t-243.5 159.5t-160 244t-58.5 304.5zM449 727q0 -191 113 -315.5t286 -124.5t286 124.5
t113 315.5t-113 315.5t-286 124.5t-286 -124.5t-113 -315.5zM469 1599q11 126 76.5 201.5t165.5 75.5q52 0 93.5 -17t72.5 -34t57 -17q27 0 41 13t20 43h232q-11 -127 -76 -202t-166 -75q-52 0 -93.5 17t-72.5 34t-57 17q-27 0 -41.5 -13t-20.5 -43h-231z" />
    <glyph glyph-name="Odieresis" unicode="&#xd6;" horiz-adv-x="1695" 
d="M80 725q0 163 58.5 305.5t160 244.5t245 161t306.5 59q162 0 304 -58t243.5 -159.5t160 -244t58.5 -304.5q0 -163 -58.5 -305.5t-160 -244.5t-245 -161t-306.5 -59q-162 0 -304 58t-243.5 159.5t-160 244t-58.5 304.5zM449 727q0 -191 113 -315.5t286 -124.5t286 124.5
t113 315.5t-113 315.5t-286 124.5t-286 -124.5t-113 -315.5zM928 1749q0 75 51.5 126.5t126.5 51.5t126.5 -51.5t51.5 -126.5t-51.5 -126.5t-126.5 -51.5t-126.5 51.5t-51.5 126.5zM412 1749q0 75 51.5 126.5t126.5 51.5t126.5 -51.5t51.5 -126.5t-51.5 -126.5t-126.5 -51.5
t-126.5 51.5t-51.5 126.5z" />
    <glyph glyph-name="multiply" unicode="&#xd7;" 
d="M168 303l266 266l-252 250l183 182l249 -251l252 251l183 -182l-250 -250l264 -266l-182 -182l-267 264l-264 -264z" />
    <glyph glyph-name="Oslash" unicode="&#xd8;" horiz-adv-x="1695" 
d="M293 190q-101 105 -157 242.5t-56 292.5q0 163 58.5 305.5t160 244.5t245 161t306.5 59q192 0 354 -84l86 115h307l-194 -262q101 -105 157 -242.5t56 -292.5q0 -163 -58.5 -305.5t-160 -244.5t-245 -161t-306.5 -59q-192 0 -354 84l-86 -115h-308zM1194 985l-508 -680
q73 -33 162 -33q180 0 297 128.5t117 326.5q0 144 -68 258zM848 1182q-180 0 -297 -128.5t-117 -326.5q0 -144 68 -258l508 680q-73 33 -162 33z" />
    <glyph glyph-name="Ugrave" unicode="&#xd9;" horiz-adv-x="1515" 
d="M754 -41q-293 0 -468 174t-175 465v856h356v-840q0 -151 78.5 -239t212.5 -88t212.5 88t78.5 239v840h356v-856q0 -290 -177.5 -464.5t-473.5 -174.5zM645 1599l-244 293h357l184 -293h-297z" />
    <glyph glyph-name="Uacute" unicode="&#xda;" horiz-adv-x="1515" 
d="M754 -41q-293 0 -468 174t-175 465v856h356v-840q0 -151 78.5 -239t212.5 -88t212.5 88t78.5 239v840h356v-856q0 -290 -177.5 -464.5t-473.5 -174.5zM594 1599l184 293h357l-244 -293h-297z" />
    <glyph glyph-name="Ucircumflex" unicode="&#xdb;" horiz-adv-x="1515" 
d="M754 -41q-293 0 -468 174t-175 465v856h356v-840q0 -151 78.5 -239t212.5 -88t212.5 88t78.5 239v840h356v-856q0 -290 -177.5 -464.5t-473.5 -174.5zM295 1602l305 282h318l305 -282h-326l-141 116l-146 -116h-315z" />
    <glyph glyph-name="Udieresis" unicode="&#xdc;" horiz-adv-x="1515" 
d="M754 -41q-293 0 -468 174t-175 465v856h356v-840q0 -151 78.5 -239t212.5 -88t212.5 88t78.5 239v840h356v-856q0 -290 -177.5 -464.5t-473.5 -174.5zM838 1749q0 75 51.5 126.5t126.5 51.5t126.5 -51.5t51.5 -126.5t-51.5 -126.5t-126.5 -51.5t-126.5 51.5t-51.5 126.5z
M500 1571q-75 0 -126.5 51.5t-51.5 126.5t51.5 126.5t126.5 51.5t126.5 -51.5t51.5 -126.5t-51.5 -126.5t-126.5 -51.5z" />
    <glyph glyph-name="Yacute" unicode="&#xdd;" horiz-adv-x="1400" 
d="M522 559l-506 895h404l287 -563l286 563h391l-505 -895v-559h-357v559zM532 1599l185 293h356l-244 -293h-297z" />
    <glyph glyph-name="Thorn" unicode="&#xde;" horiz-adv-x="1249" 
d="M123 1454h350v-221h141q278 0 433 -132.5t155 -371.5q0 -223 -160.5 -361.5t-420.5 -138.5q-65 0 -148 13v-242h-350v1454zM608 936h-135v-399q86 -11 131 -11q116 0 178 53t62 152t-60.5 152t-175.5 53z" />
    <glyph glyph-name="germandbls" unicode="&#xdf;" horiz-adv-x="1275" 
d="M104 1030q0 237 144 384t377 147q216 0 360.5 -121t144.5 -301q0 -97 -44 -180t-123 -138q110 -40 177.5 -145.5t67.5 -239.5q0 -197 -140 -326.5t-353 -129.5q-100 0 -183 26l43 275q41 -15 95 -15q88 0 143 55.5t55 143.5q0 90 -62.5 145.5t-164.5 55.5h-59v266h39
q74 0 126 49t52 117t-50 115t-124 47q-82 0 -134.5 -59t-52.5 -161v-1040h-334v1030z" />
    <glyph glyph-name="agrave" unicode="&#xe0;" horiz-adv-x="1159" 
d="M53 309q0 158 124.5 255.5t326.5 97.5q122 0 227 -44v56q0 80 -46 128t-124 48q-58 0 -104.5 -27.5t-65.5 -74.5l-299 51q32 142 166.5 232.5t308.5 90.5q216 0 352 -130t136 -335v-657h-299l-8 129q-42 -74 -124.5 -117t-189.5 -43q-165 0 -273 96.5t-108 243.5z
M412 1239l-244 293h356l185 -293h-297zM565 451q-86 0 -135 -32.5t-49 -88.5q0 -50 40 -81.5t105 -31.5q89 0 147 54.5t58 134.5v10q-75 35 -166 35z" />
    <glyph glyph-name="aacute" unicode="&#xe1;" horiz-adv-x="1159" 
d="M434 -31q-165 0 -273 96.5t-108 243.5q0 158 124.5 255.5t326.5 97.5q122 0 227 -44v56q0 80 -46 128t-124 48q-58 0 -104.5 -27.5t-65.5 -74.5l-299 51q32 142 166.5 232.5t308.5 90.5q216 0 352 -130t136 -335v-657h-299l-8 129q-42 -74 -124.5 -117t-189.5 -43z
M399 1239l185 293h356l-244 -293h-297zM565 451q-86 0 -135 -32.5t-49 -88.5q0 -50 40 -81.5t105 -31.5q89 0 147 54.5t58 134.5v10q-75 35 -166 35z" />
    <glyph glyph-name="acircumflex" unicode="&#xe2;" horiz-adv-x="1159" 
d="M53 309q0 158 124.5 255.5t326.5 97.5q122 0 227 -44v56q0 80 -46 128t-124 48q-58 0 -104.5 -27.5t-65.5 -74.5l-299 51q32 142 166.5 232.5t308.5 90.5q216 0 352 -130t136 -335v-657h-299l-8 129q-42 -74 -124.5 -117t-189.5 -43q-165 0 -273 96.5t-108 243.5z
M178 1239l238 293h321l238 -293h-291l-111 115l-114 -115h-281zM565 451q-86 0 -135 -32.5t-49 -88.5q0 -50 40 -81.5t105 -31.5q89 0 147 54.5t58 134.5v10q-75 35 -166 35z" />
    <glyph glyph-name="atilde" unicode="&#xe3;" horiz-adv-x="1159" 
d="M53 309q0 158 124.5 255.5t326.5 97.5q122 0 227 -44v56q0 80 -46 128t-124 48q-58 0 -104.5 -27.5t-65.5 -74.5l-299 51q32 142 166.5 232.5t308.5 90.5q216 0 352 -130t136 -335v-657h-299l-8 129q-42 -74 -124.5 -117t-189.5 -43q-165 0 -273 96.5t-108 243.5z
M201 1251q11 126 76 201.5t165 75.5q52 0 94 -17t73 -34t57 -17q27 0 41 13t20 43h231q-11 -127 -75.5 -202t-165.5 -75q-52 0 -93.5 17t-72.5 34t-57 17q-27 0 -41.5 -13t-20.5 -43h-231zM565 451q-86 0 -135 -32.5t-49 -88.5q0 -50 40 -81.5t105 -31.5q89 0 147 54.5
t58 134.5v10q-75 35 -166 35z" />
    <glyph glyph-name="adieresis" unicode="&#xe4;" horiz-adv-x="1159" 
d="M434 -31q-165 0 -273 96.5t-108 243.5q0 158 124.5 255.5t326.5 97.5q122 0 227 -44v56q0 80 -46 128t-124 48q-58 0 -104.5 -27.5t-65.5 -74.5l-299 51q32 142 166.5 232.5t308.5 90.5q216 0 352 -130t136 -335v-657h-299l-8 129q-42 -74 -124.5 -117t-189.5 -43z
M174 1378q0 71 49.5 120.5t122.5 49.5t122.5 -49.5t49.5 -120.5t-49.5 -120.5t-122.5 -49.5t-122.5 49.5t-49.5 120.5zM633 1378q0 71 49.5 120.5t122.5 49.5t122.5 -49.5t49.5 -120.5t-49.5 -120.5t-122.5 -49.5t-122.5 49.5t-49.5 120.5zM565 451q-86 0 -135 -32.5
t-49 -88.5q0 -50 40 -81.5t105 -31.5q89 0 147 54.5t58 134.5v10q-75 35 -166 35z" />
    <glyph glyph-name="aring" unicode="&#xe5;" horiz-adv-x="1159" 
d="M434 -31q-165 0 -273 96.5t-108 243.5q0 158 124.5 255.5t326.5 97.5q122 0 227 -44v56q0 80 -46 128t-124 48q-58 0 -104.5 -27.5t-65.5 -74.5l-299 51q32 142 166.5 232.5t308.5 90.5q216 0 352 -130t136 -335v-657h-299l-8 129q-42 -74 -124.5 -117t-189.5 -43z
M332 1415q0 97 70.5 164.5t172.5 67.5q103 0 173.5 -67.5t70.5 -164.5t-70.5 -164t-173.5 -67t-173 67t-70 164zM565 451q-86 0 -135 -32.5t-49 -88.5q0 -50 40 -81.5t105 -31.5q89 0 147 54.5t58 134.5v10q-75 35 -166 35zM489 1415q0 -37 25.5 -62.5t60.5 -25.5t61 25.5
t26 62.5t-26 62.5t-61 25.5t-60.5 -25.5t-25.5 -62.5z" />
    <glyph glyph-name="ae" unicode="&#xe6;" horiz-adv-x="1826" 
d="M475 -31q-177 0 -299.5 97t-122.5 249q0 154 122 250.5t319 96.5q112 0 217 -44v56q0 80 -43.5 128t-116.5 48q-56 0 -99.5 -27.5t-60.5 -74.5l-299 51q36 146 166.5 234.5t294.5 88.5q212 0 332 -145q145 145 358 145q233 0 379.5 -163t146.5 -427v-73h-733
q19 -101 74.5 -155t142.5 -54q124 0 191 106l305 -80q-55 -138 -194 -222.5t-306 -84.5q-251 0 -399 185q-50 -82 -148 -133.5t-227 -51.5zM381 330q0 -50 37.5 -81.5t99.5 -31.5q82 0 137.5 54.5t55.5 134.5v10q-72 35 -158 35q-78 0 -125 -33t-47 -88zM1034 672h391
q-13 96 -63.5 148t-126.5 52q-78 0 -130 -51.5t-71 -148.5z" />
    <glyph glyph-name="ccedilla" unicode="&#xe7;" horiz-adv-x="1189" 
d="M524 -23q-201 33 -328.5 187.5t-127.5 372.5q0 164 73.5 298t203 210.5t286.5 76.5q188 0 323.5 -104t175.5 -279l-323 -53q-27 64 -74 99.5t-108 35.5q-94 0 -155.5 -78.5t-61.5 -199.5q0 -120 61 -196.5t156 -76.5q64 0 116 35.5t76 100.5l324 -54q-32 -147 -144 -247
t-268 -128l-20 -55q64 -23 100.5 -70t36.5 -106q0 -92 -84.5 -152.5t-214.5 -60.5q-95 0 -174 33l26 166q59 -21 105 -21q41 0 64.5 16.5t23.5 45.5q0 63 -121 63z" />
    <glyph glyph-name="egrave" unicode="&#xe8;" horiz-adv-x="1220" 
d="M629 -31q-246 0 -403.5 162.5t-157.5 417.5q0 161 72 292.5t198 206t280 74.5q246 0 395.5 -162t149.5 -428v-73h-753q20 -100 78 -154.5t145 -54.5q130 0 205 106l305 -80q-58 -139 -199 -223t-315 -84zM492 1239l-244 293h356l184 -293h-296zM618 872
q-82 0 -135.5 -51.5t-72.5 -148.5h409q-17 97 -69 148.5t-132 51.5z" />
    <glyph glyph-name="eacute" unicode="&#xe9;" horiz-adv-x="1220" 
d="M629 -31q-246 0 -403.5 162.5t-157.5 417.5q0 161 72 292.5t198 206t280 74.5q246 0 395.5 -162t149.5 -428v-73h-753q20 -100 78 -154.5t145 -54.5q130 0 205 106l305 -80q-58 -139 -199 -223t-315 -84zM711 1239h-297l184 293h356zM618 872q-82 0 -135.5 -51.5
t-72.5 -148.5h409q-17 97 -69 148.5t-132 51.5z" />
    <glyph glyph-name="ecircumflex" unicode="&#xea;" horiz-adv-x="1220" 
d="M629 -31q-246 0 -403.5 162.5t-157.5 417.5q0 161 72 292.5t198 206t280 74.5q246 0 395.5 -162t149.5 -428v-73h-753q20 -100 78 -154.5t145 -54.5q130 0 205 106l305 -80q-58 -139 -199 -223t-315 -84zM221 1239l238 293h321l238 -293h-291l-111 115l-114 -115h-281z
M618 872q-82 0 -135.5 -51.5t-72.5 -148.5h409q-17 97 -69 148.5t-132 51.5z" />
    <glyph glyph-name="edieresis" unicode="&#xeb;" horiz-adv-x="1220" 
d="M68 549q0 161 72 292.5t198 206t280 74.5q246 0 395.5 -162t149.5 -428v-73h-753q20 -100 78 -154.5t145 -54.5q130 0 205 106l305 -80q-58 -139 -199 -223t-315 -84q-246 0 -403.5 162.5t-157.5 417.5zM389 1208q-73 0 -122.5 49.5t-49.5 120.5t49.5 120.5t122.5 49.5
t122.5 -49.5t49.5 -120.5t-49.5 -120.5t-122.5 -49.5zM848 1208q-73 0 -122.5 49.5t-49.5 120.5t49.5 120.5t122.5 49.5t122.5 -49.5t49.5 -120.5t-49.5 -120.5t-122.5 -49.5zM410 672h409q-17 97 -69 148.5t-132 51.5q-82 0 -135.5 -51.5t-72.5 -148.5z" />
    <glyph glyph-name="igrave" unicode="&#xec;" horiz-adv-x="542" 
d="M104 0v1092h334v-1092h-334zM133 1239l-244 293h357l184 -293h-297z" />
    <glyph glyph-name="iacute" unicode="&#xed;" horiz-adv-x="542" 
d="M104 0v1092h334v-1092h-334zM653 1532l-243 -293h-297l184 293h356z" />
    <glyph glyph-name="icircumflex" unicode="&#xee;" horiz-adv-x="542" 
d="M104 0v1092h334v-1092h-334zM-129 1239l238 293h321l238 -293h-291l-111 115l-114 -115h-281z" />
    <glyph glyph-name="idieresis" unicode="&#xef;" horiz-adv-x="542" 
d="M104 1092h334v-1092h-334v1092zM326 1378q0 71 49.5 120.5t122.5 49.5t122.5 -49.5t49.5 -120.5t-49.5 -120.5t-122.5 -49.5t-122.5 49.5t-49.5 120.5zM39 1208q-73 0 -122.5 49.5t-49.5 120.5t49.5 120.5t122.5 49.5t122.5 -49.5t49.5 -120.5t-49.5 -120.5t-122.5 -49.5
z" />
    <glyph glyph-name="eth" unicode="&#xf0;" horiz-adv-x="1310" 
d="M643 -31q-247 0 -411 159t-164 398q0 149 68.5 276t186 201t255.5 74q166 0 268 -102q-61 129 -152 244l-200 -91l-80 177l145 65q-74 71 -143 123l329 76q57 -42 91 -74l176 80l80 -176l-119 -53q122 -162 192 -354.5t70 -377.5q0 -287 -164.5 -466t-427.5 -179z
M408 537q0 -115 69.5 -191t173.5 -76t172 75.5t68 191.5t-67.5 190t-172.5 74q-104 0 -173.5 -75.5t-69.5 -188.5z" />
    <glyph glyph-name="ntilde" unicode="&#xf1;" 
d="M104 0v1092h308l10 -144q48 81 130.5 127.5t186.5 46.5q175 0 281 -126.5t106 -336.5v-659h-333v612q0 97 -44 153t-122 56q-81 0 -135 -58t-54 -145v-618h-334zM240 1251q11 126 76 201.5t165 75.5q52 0 94 -17t73 -34t57 -17q27 0 41 13t20 43h231q-11 -127 -75.5 -202
t-165.5 -75q-52 0 -94 17t-73 34t-57 17q-27 0 -41 -13t-20 -43h-231z" />
    <glyph glyph-name="ograve" unicode="&#xf2;" horiz-adv-x="1298" 
d="M68 543q0 162 75.5 294.5t210 208.5t299.5 76q247 0 412.5 -164.5t165.5 -410.5q0 -162 -76 -294.5t-210.5 -208t-299.5 -75.5q-247 0 -412 164t-165 410zM649 821q-103 0 -172 -78.5t-69 -197.5q0 -117 69 -196t172 -79t172.5 79t69.5 196q0 119 -69.5 197.5
t-172.5 78.5zM524 1239l-243 293h356l184 -293h-297z" />
    <glyph glyph-name="oacute" unicode="&#xf3;" horiz-adv-x="1298" 
d="M645 -31q-247 0 -412 164t-165 410q0 162 75.5 294.5t210 208.5t299.5 76q247 0 412.5 -164.5t165.5 -410.5q0 -162 -76 -294.5t-210.5 -208t-299.5 -75.5zM649 821q-103 0 -172 -78.5t-69 -197.5q0 -117 69 -196t172 -79t172.5 79t69.5 196q0 119 -69.5 197.5
t-172.5 78.5zM465 1239l184 293h357l-244 -293h-297z" />
    <glyph glyph-name="ocircumflex" unicode="&#xf4;" horiz-adv-x="1298" 
d="M645 -31q-247 0 -412 164t-165 410q0 162 75.5 294.5t210 208.5t299.5 76q247 0 412.5 -164.5t165.5 -410.5q0 -162 -76 -294.5t-210.5 -208t-299.5 -75.5zM649 821q-103 0 -172 -78.5t-69 -197.5q0 -117 69 -196t172 -79t172.5 79t69.5 196q0 119 -69.5 197.5
t-172.5 78.5zM532 1239h-280l237 293h322l238 -293h-291l-111 115z" />
    <glyph glyph-name="otilde" unicode="&#xf5;" horiz-adv-x="1298" 
d="M68 543q0 162 75.5 294.5t210 208.5t299.5 76q247 0 412.5 -164.5t165.5 -410.5q0 -162 -76 -294.5t-210.5 -208t-299.5 -75.5q-247 0 -412 164t-165 410zM649 821q-103 0 -172 -78.5t-69 -197.5q0 -117 69 -196t172 -79t172.5 79t69.5 196q0 119 -69.5 197.5
t-172.5 78.5zM506 1251h-232q11 126 76.5 201.5t165.5 75.5q52 0 93.5 -17t72.5 -34t57 -17q27 0 41.5 13t20.5 43h231q-11 -127 -75.5 -202t-165.5 -75q-52 0 -94 17t-73 34t-57 17q-27 0 -41 -13t-20 -43z" />
    <glyph glyph-name="odieresis" unicode="&#xf6;" horiz-adv-x="1298" 
d="M68 543q0 162 75.5 294.5t210 208.5t299.5 76q247 0 412.5 -164.5t165.5 -410.5q0 -162 -76 -294.5t-210.5 -208t-299.5 -75.5q-247 0 -412 164t-165 410zM408 545q0 -117 69 -196t172 -79t172.5 79t69.5 196q0 119 -69.5 197.5t-172.5 78.5t-172 -78.5t-69 -197.5z
M707 1378q0 71 49.5 120.5t122.5 49.5t122.5 -49.5t49.5 -120.5t-49.5 -120.5t-122.5 -49.5t-122.5 49.5t-49.5 120.5zM248 1378q0 71 49.5 120.5t122.5 49.5t122.5 -49.5t49.5 -120.5t-49.5 -120.5t-122.5 -49.5t-122.5 49.5t-49.5 120.5z" />
    <glyph glyph-name="divide" unicode="&#xf7;" 
d="M160 698h911v-268h-911v268zM465 936q0 64 43.5 109t105.5 45t106 -45t44 -109t-44 -109t-106 -45t-105.5 45t-43.5 109zM614 39q-62 0 -105.5 45t-43.5 109t43.5 108.5t105.5 44.5t106 -44.5t44 -108.5t-44 -109t-106 -45z" />
    <glyph glyph-name="oslash" unicode="&#xf8;" horiz-adv-x="1298" 
d="M227 145q-76 76 -117.5 179t-41.5 219q0 162 75.5 294.5t210 208.5t299.5 76q133 0 252 -55l56 76h256l-146 -197q160 -166 160 -399q0 -162 -76 -294.5t-210.5 -208t-299.5 -75.5q-130 0 -252 56l-55 -76h-256zM881 688l-312 -426q41 -12 80 -12q113 0 187.5 83.5
t74.5 211.5q0 79 -30 143zM649 842q-113 0 -187.5 -83.5t-74.5 -213.5q0 -73 29 -142l313 426q-44 13 -80 13z" />
    <glyph glyph-name="ugrave" unicode="&#xf9;" horiz-adv-x="1224" 
d="M104 1092h334v-607q0 -100 46 -157.5t128 -57.5t128 57.5t46 157.5v607h334v-600q0 -236 -139 -379.5t-371 -143.5q-229 0 -367.5 143t-138.5 380v600zM250 1532h356l185 -293h-297z" />
    <glyph glyph-name="uacute" unicode="&#xfa;" horiz-adv-x="1224" 
d="M104 1092h334v-607q0 -100 46 -157.5t128 -57.5t128 57.5t46 157.5v607h334v-600q0 -236 -139 -379.5t-371 -143.5q-229 0 -367.5 143t-138.5 380v600zM451 1239l184 293h356l-243 -293h-297z" />
    <glyph glyph-name="ucircumflex" unicode="&#xfb;" horiz-adv-x="1224" 
d="M104 1092h334v-607q0 -100 46 -157.5t128 -57.5t128 57.5t46 157.5v607h334v-600q0 -236 -139 -379.5t-371 -143.5q-229 0 -367.5 143t-138.5 380v600zM494 1239h-281l238 293h321l238 -293h-291l-111 115z" />
    <glyph glyph-name="udieresis" unicode="&#xfc;" horiz-adv-x="1224" 
d="M104 1092h334v-607q0 -100 46 -157.5t128 -57.5t128 57.5t46 157.5v607h334v-600q0 -236 -139 -379.5t-371 -143.5q-229 0 -367.5 143t-138.5 380v600zM668 1378q0 71 49.5 120.5t122.5 49.5t122.5 -49.5t49.5 -120.5t-49.5 -120.5t-122.5 -49.5t-122.5 49.5t-49.5 120.5
zM381 1208q-73 0 -122.5 49.5t-49.5 120.5t49.5 120.5t122.5 49.5t122.5 -49.5t49.5 -120.5t-49.5 -120.5t-122.5 -49.5z" />
    <glyph glyph-name="yacute" unicode="&#xfd;" horiz-adv-x="1179" 
d="M16 1092h367l225 -717l201 717h354l-434 -1170q-66 -177 -166 -260.5t-246 -83.5q-121 0 -213 51l60 256q58 -26 115 -26q54 0 93 33.5t72 105.5l9 18zM674 1239h-297l184 293h357z" />
    <glyph glyph-name="thorn" unicode="&#xfe;" horiz-adv-x="1325" 
d="M104 1532h334v-571q56 75 142.5 118t185.5 43q102 0 193 -44.5t156.5 -120t103.5 -181t38 -223.5q0 -163 -67.5 -297t-185.5 -210.5t-261 -76.5q-192 0 -305 144v-504h-334v1923zM676 821q-103 0 -172.5 -78.5t-69.5 -197.5q0 -117 69.5 -196t172.5 -79t172.5 79
t69.5 196q0 119 -69.5 197.5t-172.5 78.5z" />
    <glyph glyph-name="ydieresis" unicode="&#xff;" horiz-adv-x="1179" 
d="M453 16l-437 1076h367l225 -717l201 717h354l-434 -1170q-66 -177 -166 -260.5t-246 -83.5q-121 0 -213 51l60 256q58 -26 115 -26q54 0 93 33.5t72 105.5zM645 1378q0 71 49.5 120.5t122.5 49.5t122.5 -49.5t49.5 -120.5t-49.5 -120.5t-122.5 -49.5t-122.5 49.5
t-49.5 120.5zM358 1208q-73 0 -122.5 49.5t-49.5 120.5t49.5 120.5t122.5 49.5t122.5 -49.5t49.5 -120.5t-49.5 -120.5t-122.5 -49.5z" />
    <glyph glyph-name="Amacron" unicode="&#x100;" horiz-adv-x="1583" 
d="M27 0l575 1454h379l575 -1454h-368l-103 283h-600l-102 -283h-356zM1176 1612h-770v231h770v-231zM594 582h383l-193 530z" />
    <glyph glyph-name="amacron" unicode="&#x101;" horiz-adv-x="1159" 
d="M434 -31q-165 0 -273 96.5t-108 243.5q0 158 124.5 255.5t326.5 97.5q122 0 227 -44v56q0 80 -46 128t-124 48q-58 0 -104.5 -27.5t-65.5 -74.5l-299 51q32 142 166.5 232.5t308.5 90.5q216 0 352 -130t136 -335v-657h-299l-8 129q-42 -74 -124.5 -117t-189.5 -43z
M240 1462h671v-215h-671v215zM565 451q-86 0 -135 -32.5t-49 -88.5q0 -50 40 -81.5t105 -31.5q89 0 147 54.5t58 134.5v10q-75 35 -166 35z" />
    <glyph glyph-name="Abreve" unicode="&#x102;" horiz-adv-x="1583" 
d="M383 0h-356l575 1454h379l575 -1454h-368l-103 283h-600zM414 1884h229q13 -56 49 -80t96 -24q61 0 97 24t49 80h231q-26 -140 -116.5 -212.5t-260.5 -72.5q-168 0 -258 72.5t-116 212.5zM594 582h383l-193 530z" />
    <glyph glyph-name="abreve" unicode="&#x103;" horiz-adv-x="1159" 
d="M434 -31q-165 0 -273 96.5t-108 243.5q0 158 124.5 255.5t326.5 97.5q122 0 227 -44v56q0 80 -46 128t-124 48q-58 0 -104.5 -27.5t-65.5 -74.5l-299 51q32 142 166.5 232.5t308.5 90.5q216 0 352 -130t136 -335v-657h-299l-8 129q-42 -74 -124.5 -117t-189.5 -43z
M201 1524h229q24 -105 145 -105q61 0 97 24t49 81h231q-26 -140 -116.5 -212.5t-260.5 -72.5q-168 0 -258 72.5t-116 212.5zM565 451q-86 0 -135 -32.5t-49 -88.5q0 -50 40 -81.5t105 -31.5q89 0 147 54.5t58 134.5v10q-75 35 -166 35z" />
    <glyph glyph-name="Aogonek" unicode="&#x104;" horiz-adv-x="1583" 
d="M383 0h-356l575 1454h379l575 -1454q-91 -73 -131.5 -121t-40.5 -84q0 -29 20.5 -46t55.5 -17q45 0 90 18l23 -184q-98 -37 -184 -37q-124 0 -196.5 54.5t-72.5 146.5q0 130 185 270h-117l-103 283h-600zM784 1112l-190 -530h383z" />
    <glyph glyph-name="aogonek" unicode="&#x105;" horiz-adv-x="1159" 
d="M53 309q0 158 124.5 255.5t326.5 97.5q122 0 227 -44v56q0 80 -46 128t-124 48q-58 0 -104.5 -27.5t-65.5 -74.5l-299 51q32 142 166.5 232.5t308.5 90.5q216 0 352 -130t136 -335v-657q-91 -73 -131.5 -121t-40.5 -84q0 -29 21 -46t59 -17q45 0 86 18l22 -176
q-81 -37 -180 -37q-122 0 -193 53t-71 140q0 131 188 270h-59l-8 129q-42 -74 -124.5 -117t-189.5 -43q-165 0 -273 96.5t-108 243.5zM381 330q0 -50 40 -81.5t105 -31.5q89 0 147 54.5t58 134.5v10q-75 35 -166 35q-86 0 -135 -32.5t-49 -88.5z" />
    <glyph glyph-name="Cacute" unicode="&#x106;" horiz-adv-x="1531" 
d="M80 717q0 217 96.5 395.5t265.5 280.5t375 102q236 0 411.5 -125.5t237.5 -337.5l-348 -78q-44 102 -124 157.5t-183 55.5q-156 0 -259 -127.5t-103 -318.5t102.5 -312.5t263.5 -121.5q106 0 187.5 54.5t130.5 158.5l348 -78q-61 -213 -241 -338t-425 -125
q-156 0 -292.5 57.5t-233.5 157.5t-153 241t-56 302zM901 1602h-340l285 282h414z" />
    <glyph glyph-name="cacute" unicode="&#x107;" horiz-adv-x="1189" 
d="M68 537q0 164 73.5 298t203 210.5t286.5 76.5q188 0 323.5 -104t175.5 -279l-323 -53q-27 64 -74 99.5t-108 35.5q-94 0 -155.5 -78.5t-61.5 -199.5q0 -120 61 -196.5t156 -76.5q64 0 116 35.5t76 100.5l324 -54q-36 -171 -181.5 -277t-336.5 -106q-238 0 -396.5 161.5
t-158.5 406.5zM420 1239l184 293h357l-244 -293h-297z" />
    <glyph glyph-name="Cdotaccent" unicode="&#x10a;" horiz-adv-x="1531" 
d="M815 -41q-156 0 -292.5 57.5t-233.5 157.5t-153 241t-56 302q0 217 96.5 395.5t265.5 280.5t375 102q236 0 411.5 -125.5t237.5 -337.5l-348 -78q-44 102 -124 157.5t-183 55.5q-156 0 -259 -127.5t-103 -318.5t102.5 -312.5t263.5 -121.5q106 0 187.5 54.5t130.5 158.5
l348 -78q-61 -213 -241 -338t-425 -125zM813 1571q-81 0 -135.5 54t-54.5 134t54.5 134.5t135.5 54.5t136 -54.5t55 -134.5t-54.5 -134t-136.5 -54z" />
    <glyph glyph-name="cdotaccent" unicode="&#x10b;" horiz-adv-x="1189" 
d="M68 537q0 164 73.5 298t203 210.5t286.5 76.5q188 0 323.5 -104t175.5 -279l-323 -53q-27 64 -74 99.5t-108 35.5q-94 0 -155.5 -78.5t-61.5 -199.5q0 -120 61 -196.5t156 -76.5q64 0 116 35.5t76 100.5l324 -54q-36 -171 -181.5 -277t-336.5 -106q-238 0 -396.5 161.5
t-158.5 406.5zM446 1393q0 76 53 129t132 53q81 0 133.5 -53t52.5 -129t-53 -129.5t-133 -53.5q-79 0 -132 53.5t-53 129.5z" />
    <glyph glyph-name="Ccaron" unicode="&#x10c;" horiz-adv-x="1531" 
d="M80 717q0 217 96.5 395.5t265.5 280.5t375 102q236 0 411.5 -125.5t237.5 -337.5l-348 -78q-44 102 -124 157.5t-183 55.5q-156 0 -259 -127.5t-103 -318.5t102.5 -312.5t263.5 -121.5q106 0 187.5 54.5t130.5 158.5l348 -78q-61 -213 -241 -338t-425 -125
q-156 0 -292.5 57.5t-233.5 157.5t-153 241t-56 302zM350 1884h326l141 -117l146 117h315l-305 -282h-318z" />
    <glyph glyph-name="ccaron" unicode="&#x10d;" horiz-adv-x="1189" 
d="M623 -31q-238 0 -396.5 161.5t-158.5 406.5q0 164 73.5 298t203 210.5t286.5 76.5q188 0 323.5 -104t175.5 -279l-323 -53q-27 64 -74 99.5t-108 35.5q-94 0 -155.5 -78.5t-61.5 -199.5q0 -120 61 -196.5t156 -76.5q64 0 116 35.5t76 100.5l324 -54q-36 -171 -181.5 -277
t-336.5 -106zM502 1239l-281 293h285l129 -117l133 117h274l-280 -293h-260z" />
    <glyph glyph-name="Dcaron" unicode="&#x10e;" horiz-adv-x="1570" 
d="M123 0v1454h596q224 0 400 -90.5t274 -256t98 -378.5q0 -159 -57 -294.5t-158.5 -231t-246 -149.5t-314.5 -54h-592zM479 315h217q195 0 310.5 111t115.5 301t-115.5 301t-310.5 111h-217v-824zM571 1602l-305 282h326l141 -117l146 117h315l-305 -282h-318z" />
    <glyph glyph-name="dcaron" unicode="&#x10f;" horiz-adv-x="1427" 
d="M68 539q0 163 67.5 296.5t185.5 210t261 76.5q193 0 305 -143v553h334v-1532h-308l-10 156q-56 -87 -146.5 -137t-197.5 -50q-136 0 -249 75.5t-177.5 206.5t-64.5 288zM649 821q-103 0 -172 -78t-69 -196q0 -120 69 -198.5t172 -78.5t172.5 79t69.5 198q0 118 -69.5 196
t-172.5 78zM1530 1128h-178l26 404h279z" />
    <glyph glyph-name="Dcroat" unicode="&#x110;" horiz-adv-x="1591" 
d="M143 610h-151v264h151v580h596q224 0 400 -90.5t274 -256t98 -378.5q0 -159 -57 -294.5t-158.5 -231t-246 -149.5t-314.5 -54h-592v610zM770 610h-270v-295h217q195 0 310.5 111t115.5 301t-115.5 301t-310.5 111h-217v-265h270v-264z" />
    <glyph glyph-name="dcroat" unicode="&#x111;" horiz-adv-x="1325" 
d="M68 528q0 159 67.5 290.5t185.5 207.5t261 76q192 0 305 -141v237h-293v215h293v119h334v-119h133v-215h-133v-1198h-308l-10 152q-56 -86 -146 -134.5t-198 -48.5q-136 0 -249 74t-177.5 202.5t-64.5 282.5zM408 537q0 -115 69 -191t172 -76t172.5 76t69.5 191
q0 112 -69.5 188t-172.5 76t-172 -75.5t-69 -188.5z" />
    <glyph glyph-name="Emacron" unicode="&#x112;" horiz-adv-x="1185" 
d="M123 0v1454h940v-297h-592v-266h522v-297h-522v-297h612v-297h-960zM977 1612h-770v231h770v-231z" />
    <glyph glyph-name="emacron" unicode="&#x113;" horiz-adv-x="1220" 
d="M629 -31q-246 0 -403.5 162.5t-157.5 417.5q0 161 72 292.5t198 206t280 74.5q246 0 395.5 -162t149.5 -428v-73h-753q20 -100 78 -154.5t145 -54.5q130 0 205 106l305 -80q-58 -139 -199 -223t-315 -84zM954 1247h-671v215h671v-215zM618 872q-82 0 -135.5 -51.5
t-72.5 -148.5h409q-17 97 -69 148.5t-132 51.5z" />
    <glyph glyph-name="Edotaccent" unicode="&#x116;" horiz-adv-x="1185" 
d="M123 1454h940v-297h-592v-266h522v-297h-522v-297h612v-297h-960v1454zM401 1759q0 80 55 134.5t136 54.5t135.5 -54.5t54.5 -134.5t-54.5 -134t-135.5 -54q-82 0 -136.5 54t-54.5 134z" />
    <glyph glyph-name="edotaccent" unicode="&#x117;" horiz-adv-x="1220" 
d="M68 549q0 161 72 292.5t198 206t280 74.5q246 0 395.5 -162t149.5 -428v-73h-753q20 -100 78 -154.5t145 -54.5q130 0 205 106l305 -80q-58 -139 -199 -223t-315 -84q-246 0 -403.5 162.5t-157.5 417.5zM618 1210q-79 0 -131.5 53.5t-52.5 129.5t52.5 129t131.5 53
q81 0 134 -53t53 -129t-53 -129.5t-134 -53.5zM618 872q-82 0 -135.5 -51.5t-72.5 -148.5h409q-17 97 -69 148.5t-132 51.5z" />
    <glyph glyph-name="Eogonek" unicode="&#x118;" horiz-adv-x="1185" 
d="M123 0v1454h940v-297h-592v-266h522v-297h-522v-297h612v-297h2q-91 -73 -131.5 -121t-40.5 -84q0 -29 20.5 -46t55.5 -17q45 0 90 18l23 -184q-98 -37 -184 -37q-124 0 -196.5 54.5t-72.5 146.5q0 130 185 270h-711z" />
    <glyph glyph-name="eogonek" unicode="&#x119;" horiz-adv-x="1220" 
d="M68 549q0 161 72 292.5t198 206t280 74.5q246 0 395.5 -162t149.5 -428v-73h-753q20 -100 78 -154.5t145 -54.5q130 0 205 106l305 -80q-46 -112 -152 -192q-176 -182 -176 -274q0 -78 82 -78q39 0 84 18l23 -176q-87 -37 -181 -37q-120 0 -192 55.5t-72 145.5
q0 113 129 233q-18 -2 -59 -2q-246 0 -403.5 162.5t-157.5 417.5zM410 672h409q-17 97 -69 148.5t-132 51.5q-82 0 -135.5 -51.5t-72.5 -148.5z" />
    <glyph glyph-name="Ecaron" unicode="&#x11a;" horiz-adv-x="1185" 
d="M123 1454h940v-297h-592v-266h522v-297h-522v-297h612v-297h-960v1454zM129 1884h326l141 -117l145 117h316l-305 -282h-318z" />
    <glyph glyph-name="ecaron" unicode="&#x11b;" horiz-adv-x="1220" 
d="M629 -31q-246 0 -403.5 162.5t-157.5 417.5q0 161 72 292.5t198 206t280 74.5q246 0 395.5 -162t149.5 -428v-73h-753q20 -100 78 -154.5t145 -54.5q130 0 205 106l305 -80q-58 -139 -199 -223t-315 -84zM489 1239l-280 293h285l129 -117l133 117h274l-280 -293h-261z
M618 872q-82 0 -135.5 -51.5t-72.5 -148.5h409q-17 97 -69 148.5t-132 51.5z" />
    <glyph glyph-name="Gbreve" unicode="&#x11e;" horiz-adv-x="1652" 
d="M80 723q0 163 59.5 306.5t162 245.5t246 161t306.5 59q230 0 405 -107t261 -301l-349 -100q-100 184 -317 184q-175 0 -290 -125t-115 -317q0 -196 117 -321t302 -125q136 0 228.5 68t117.5 184h-329v286h696v-166q0 -202 -93 -360.5t-260 -247t-378 -88.5
q-163 0 -306 58t-245 158.5t-160.5 242.5t-58.5 305zM461 1901h262q12 -51 47.5 -80t89.5 -29t89.5 29t47.5 80h263q-25 -141 -134.5 -225.5t-265.5 -84.5t-265 84.5t-134 225.5z" />
    <glyph glyph-name="gbreve" unicode="&#x11f;" horiz-adv-x="1304" 
d="M68 573q0 148 65.5 274t181 200.5t254.5 74.5q100 0 182.5 -40.5t133.5 -114.5l8 125h307v-949q0 -252 -157.5 -408.5t-411.5 -156.5q-183 0 -318 82t-198 223l327 70q65 -100 193 -100q104 0 167.5 69.5t63.5 183.5v84q-56 -72 -138.5 -111.5t-180.5 -39.5
q-131 0 -242 73t-174 195.5t-63 265.5zM408 582q0 -108 66 -180t165 -72t165 72t66 180q0 107 -66 178t-165 71t-165 -71t-66 -178zM258 1524h229q24 -105 146 -105q61 0 96.5 24t48.5 81h232q-26 -140 -116.5 -212.5t-260.5 -72.5q-323 0 -375 285z" />
    <glyph glyph-name="Gdotaccent" unicode="&#x120;" horiz-adv-x="1652" 
d="M80 723q0 163 59.5 306.5t162 245.5t246 161t306.5 59q230 0 405 -107t261 -301l-349 -100q-100 184 -317 184q-175 0 -290 -125t-115 -317q0 -196 117 -321t302 -125q136 0 228.5 68t117.5 184h-329v286h696v-166q0 -202 -93 -360.5t-260 -247t-378 -88.5
q-163 0 -306 58t-245 158.5t-160.5 242.5t-58.5 305zM860 1571q-81 0 -135.5 54t-54.5 134t54.5 134.5t135.5 54.5t136 -54.5t55 -134.5t-54.5 -134t-136.5 -54z" />
    <glyph glyph-name="gdotaccent" unicode="&#x121;" horiz-adv-x="1304" 
d="M547 39q-131 0 -242 73t-174 195.5t-63 265.5q0 148 65.5 274t181 200.5t254.5 74.5q100 0 182.5 -40.5t133.5 -114.5l8 125h307v-949q0 -252 -157.5 -408.5t-411.5 -156.5q-183 0 -318 82t-198 223l327 70q65 -100 193 -100q104 0 167.5 69.5t63.5 183.5v84
q-56 -72 -138.5 -111.5t-180.5 -39.5zM408 582q0 -108 66 -180t165 -72t165 72t66 180q0 107 -66 178t-165 71t-165 -71t-66 -178zM449 1393q0 76 52.5 129t131.5 53q81 0 133.5 -53t52.5 -129t-53 -129.5t-133 -53.5q-79 0 -131.5 53.5t-52.5 129.5z" />
    <glyph glyph-name="uni0122" unicode="&#x122;" horiz-adv-x="1652" 
d="M80 723q0 163 59.5 306.5t162 245.5t246 161t306.5 59q230 0 405 -107t261 -301l-349 -100q-100 184 -317 184q-175 0 -290 -125t-115 -317q0 -196 117 -321t302 -125q136 0 228.5 68t117.5 184h-329v286h696v-166q0 -202 -93 -360.5t-260 -247t-378 -88.5
q-163 0 -306 58t-245 158.5t-160.5 242.5t-58.5 305zM690 -252q0 57 45 95t111 38q78 0 129 -51.5t51 -128.5q0 -98 -66 -174.5t-180 -108.5l-47 121q103 35 123 94q-13 -8 -41 -8q-52 0 -88.5 34.5t-36.5 88.5z" />
    <glyph glyph-name="uni0123" unicode="&#x123;" horiz-adv-x="1304" 
d="M547 39q-131 0 -242 73t-174 195.5t-63 265.5q0 148 65.5 274t181 200.5t254.5 74.5q100 0 182.5 -40.5t133.5 -114.5l8 125h307v-949q0 -252 -157.5 -408.5t-411.5 -156.5q-183 0 -318 82t-198 223l327 70q65 -100 193 -100q104 0 167.5 69.5t63.5 183.5v84
q-56 -72 -138.5 -111.5t-180.5 -39.5zM408 582q0 -108 66 -180t165 -72t165 72t66 180q0 107 -66 178t-165 71t-165 -71t-66 -178zM647 1190q-76 0 -126 51t-50 127q0 94 64 168t174 109l47 -121q-44 -13 -76.5 -38t-44.5 -54q16 8 41 8q52 0 86.5 -34t34.5 -87
q0 -55 -43.5 -92t-106.5 -37z" />
    <glyph glyph-name="Hbar" unicode="&#x126;" horiz-adv-x="1581" 
d="M-8 1071v223h151v160h357v-160h581v160h357v-160h151v-223h-151v-1071h-357v571h-581v-571h-357v1071h-151zM500 887h581v184h-581v-184z" />
    <glyph glyph-name="hbar" unicode="&#x127;" 
d="M-29 1405h133v127h334v-127h254v-203h-254v-250q108 150 301 150q175 0 281 -126.5t106 -336.5v-639h-333v592q0 97 -44 153t-122 56q-81 0 -135 -58t-54 -145v-598h-334v1202h-133v203z" />
    <glyph glyph-name="Itilde" unicode="&#x128;" horiz-adv-x="602" 
d="M123 1454h356v-1454h-356v1454zM-78 1599q11 126 76.5 201.5t165.5 75.5q52 0 93.5 -17t72.5 -34t57 -17q27 0 41.5 13t20.5 43h231q-11 -127 -76 -202t-166 -75q-52 0 -93.5 17t-72.5 34t-57 17q-27 0 -41 -13t-20 -43h-232z" />
    <glyph glyph-name="itilde" unicode="&#x129;" horiz-adv-x="542" 
d="M104 1092h334v-1092h-334v1092zM-106 1251q11 126 76 201.5t165 75.5q52 0 93.5 -17t72.5 -34t57 -17q27 0 41.5 13t20.5 43h231q-11 -127 -75.5 -202t-165.5 -75q-52 0 -94 17t-73 34t-57 17q-27 0 -41 -13t-20 -43h-231z" />
    <glyph glyph-name="Imacron" unicode="&#x12a;" horiz-adv-x="602" 
d="M123 0v1454h356v-1454h-356zM-84 1612v231h770v-231h-770z" />
    <glyph glyph-name="imacron" unicode="&#x12b;" horiz-adv-x="542" 
d="M104 0v1092h334v-1092h-334zM-68 1247v215h672v-215h-672z" />
    <glyph glyph-name="Iogonek" unicode="&#x12e;" horiz-adv-x="602" 
d="M43 -270q0 131 184 270h-104v1454h356v-1454q-91 -73 -131.5 -121t-40.5 -84q0 -29 20.5 -46t55.5 -17q45 0 90 18l23 -184q-98 -37 -185 -37q-124 0 -196 54t-72 147z" />
    <glyph glyph-name="iogonek" unicode="&#x12f;" horiz-adv-x="542" 
d="M274 -463q-122 0 -193 53t-71 140q0 130 189 270h-95v1092h334v-1092q-91 -73 -131.5 -121t-40.5 -84q0 -29 21 -46t59 -17q45 0 86 18l23 -176q-81 -37 -181 -37zM94 1415q0 71 49.5 119.5t124.5 48.5q77 0 127.5 -48.5t50.5 -119.5q0 -70 -50.5 -119t-127.5 -49
q-74 0 -124 49t-50 119z" />
    <glyph glyph-name="Idotaccent" unicode="&#x130;" horiz-adv-x="602" 
d="M123 1454h356v-1454h-356v1454zM111 1759q0 80 54.5 134.5t135.5 54.5t136 -54.5t55 -134.5t-54.5 -134t-136.5 -54q-81 0 -135.5 54t-54.5 134z" />
    <glyph glyph-name="dotlessi" unicode="&#x131;" horiz-adv-x="542" 
d="M104 0v1092h334v-1092h-334z" />
    <glyph glyph-name="IJ" unicode="&#x132;" horiz-adv-x="1466" 
d="M115 412l344 55q32 -86 100.5 -133t161.5 -47q129 0 203.5 86t74.5 235v846h357v-848q0 -293 -169 -470t-448 -177q-236 0 -399 118.5t-225 334.5zM111 641v813h356v-813h-356z" />
    <glyph glyph-name="ij" unicode="&#x133;" 
d="M492 39q-176 0 -282 125t-106 338v590h334v-543q0 -97 44 -153t122 -56q84 0 136.5 57t52.5 146v549h333v-973q0 -244 -146.5 -392.5t-383.5 -148.5q-166 0 -295.5 81t-185.5 218l321 72q26 -47 69 -71.5t95 -24.5q88 0 140.5 63.5t52.5 167.5v104q-107 -149 -301 -149z
M774 1378q0 76 52.5 129.5t131.5 53.5q81 0 134 -53.5t53 -129.5t-53 -129t-134 -53q-79 0 -131.5 53t-52.5 129zM270 1196q-79 0 -131.5 53t-52.5 129t52.5 129.5t131.5 53.5q81 0 134 -53.5t53 -129.5t-53 -129t-134 -53z" />
    <glyph glyph-name="uni0136" unicode="&#x136;" horiz-adv-x="1464" 
d="M123 0v1454h356v-639l488 639h409l-538 -674l612 -780h-455l-516 700v-700h-356zM680 -375q-52 0 -88.5 34.5t-36.5 88.5q0 57 45 95t111 38q78 0 129 -51.5t51 -128.5q0 -98 -66 -174.5t-180 -108.5l-47 121q103 35 123 94q-13 -8 -41 -8z" />
    <glyph glyph-name="uni0137" unicode="&#x137;" 
d="M104 1532h334v-877l361 437h379l-418 -484l467 -608h-412l-377 537v-537h-334v1532zM442 -233q0 56 42 92.5t108 36.5q76 0 126 -51.5t50 -127.5q0 -93 -63.5 -167t-174.5 -109l-47 121q44 13 76.5 38t44.5 54q-16 -8 -41 -8q-52 0 -86.5 34t-34.5 87z" />
    <glyph glyph-name="kgreenlandic" unicode="&#x138;" 
d="M104 1092h334v-455l361 455h379l-418 -500l467 -592h-412l-377 518v-518h-334v1092z" />
    <glyph glyph-name="Lacute" unicode="&#x139;" horiz-adv-x="1128" 
d="M123 0v1454h356v-1139h574v-315h-930zM49 1602l285 282h414l-359 -282h-340z" />
    <glyph glyph-name="lacute" unicode="&#x13a;" horiz-adv-x="542" 
d="M104 0v1532h334v-1532h-334zM598 1954l-244 -293h-297l185 293h356z" />
    <glyph glyph-name="uni013B" unicode="&#x13b;" horiz-adv-x="1128" 
d="M123 0v1454h356v-1139h574v-315h-930zM543 -375q-52 0 -88.5 34.5t-36.5 88.5q0 57 44.5 95t110.5 38q78 0 129.5 -51.5t51.5 -128.5q0 -98 -66 -174.5t-180 -108.5l-47 121q103 35 123 94q-13 -8 -41 -8z" />
    <glyph glyph-name="uni013C" unicode="&#x13c;" horiz-adv-x="542" 
d="M104 1532h334v-1532h-334v1532zM227 -354q-52 0 -86.5 34t-34.5 87q0 56 42 92.5t108 36.5q76 0 126 -51.5t50 -127.5q0 -94 -63.5 -167.5t-173.5 -108.5l-48 121q44 13 76.5 38t44.5 54q-16 -8 -41 -8z" />
    <glyph glyph-name="Lcaron" unicode="&#x13d;" horiz-adv-x="1128" 
d="M123 0v1454h356v-1139h574v-315h-930zM610 1128l27 404h278l-127 -404h-178z" />
    <glyph glyph-name="lcaron" unicode="&#x13e;" horiz-adv-x="645" 
d="M104 1532h334v-1532h-334v1532zM748 1128h-179l27 404h278z" />
    <glyph glyph-name="Lslash" unicode="&#x141;" horiz-adv-x="1148" 
d="M-8 307v305l151 111v731h357v-473l245 178v-307l-245 -178v-359h573v-315h-930v416z" />
    <glyph glyph-name="lslash" unicode="&#x142;" horiz-adv-x="647" 
d="M16 397v267l142 106v762h334v-514l139 104v-266l-139 -104v-752h-334v504z" />
    <glyph glyph-name="Nacute" unicode="&#x143;" horiz-adv-x="1519" 
d="M123 0v1454h305l627 -889v889h342v-1454h-305l-627 889v-889h-342zM848 1602h-340l285 282h413z" />
    <glyph glyph-name="nacute" unicode="&#x144;" 
d="M104 1092h308l10 -144q48 81 130.5 127.5t186.5 46.5q175 0 281 -126.5t106 -336.5v-659h-333v612q0 97 -44 153t-122 56q-81 0 -135 -58t-54 -145v-618h-334v1092zM403 1239l185 293h356l-244 -293h-297z" />
    <glyph glyph-name="uni0145" unicode="&#x145;" horiz-adv-x="1519" 
d="M123 0v1454h305l627 -889v889h342v-1454h-305l-627 889v-889h-342zM592 -252q0 57 45 95t111 38q78 0 129 -51.5t51 -128.5q0 -98 -66 -174.5t-180 -108.5l-47 121q103 35 123 94q-13 -8 -41 -8q-52 0 -88.5 34.5t-36.5 88.5z" />
    <glyph glyph-name="uni0146" unicode="&#x146;" 
d="M438 0h-334v1092h308l10 -144q48 81 130.5 127.5t186.5 46.5q175 0 281 -126.5t106 -336.5v-659h-333v612q0 97 -44 153t-122 56q-81 0 -135 -58t-54 -145v-618zM573 -354q-52 0 -86 34t-34 87q0 56 41.5 92.5t107.5 36.5q76 0 126 -51.5t50 -127.5q0 -94 -63.5 -167.5
t-173.5 -108.5l-47 121q94 29 120 92q-16 -8 -41 -8z" />
    <glyph glyph-name="Ncaron" unicode="&#x147;" horiz-adv-x="1519" 
d="M123 1454h305l627 -889v889h342v-1454h-305l-627 889v-889h-342v1454zM297 1884h326l141 -117l145 117h316l-305 -282h-318z" />
    <glyph glyph-name="ncaron" unicode="&#x148;" 
d="M104 1092h308l10 -144q48 81 130.5 127.5t186.5 46.5q175 0 281 -126.5t106 -336.5v-659h-333v612q0 97 -44 153t-122 56q-81 0 -135 -58t-54 -145v-618h-334v1092zM485 1239l-280 293h284l129 -117l134 117h274l-281 -293h-260z" />
    <glyph glyph-name="Eng" unicode="&#x14a;" horiz-adv-x="1519" 
d="M123 1454h305l627 -889v889h342v-1425q0 -203 -119.5 -327t-314.5 -124q-75 0 -144.5 23t-113.5 53l73 248q72 -33 135 -33q64 0 103 40.5t39 108.5v35l-590 836v-889h-342v1454z" />
    <glyph glyph-name="eng" unicode="&#x14b;" 
d="M104 1092h308l10 -144q48 81 130.5 127.5t186.5 46.5q175 0 281 -126.5t106 -336.5v-679q0 -182 -101.5 -292t-270.5 -110q-118 0 -207 47l57 252q49 -18 86 -18q50 0 76.5 35t26.5 102v616q0 97 -44 153t-122 56q-81 0 -135 -58t-54 -145v-618h-334v1092z" />
    <glyph glyph-name="Ohungarumlaut" unicode="&#x150;" horiz-adv-x="1695" 
d="M80 725q0 163 58.5 305.5t160 244.5t245 161t306.5 59q162 0 304 -58t243.5 -159.5t160 -244t58.5 -304.5q0 -163 -58.5 -305.5t-160 -244.5t-245 -161t-306.5 -59q-162 0 -304 58t-243.5 159.5t-160 244t-58.5 304.5zM848 1167q-173 0 -286 -124.5t-113 -315.5
t113 -315.5t286 -124.5t286 124.5t113 315.5t-113 315.5t-286 124.5zM1196 1602h-315l270 282h389zM688 1602h-315l270 282h389z" />
    <glyph glyph-name="ohungarumlaut" unicode="&#x151;" horiz-adv-x="1298" 
d="M68 543q0 162 75.5 294.5t210 208.5t299.5 76q247 0 412.5 -164.5t165.5 -410.5q0 -162 -76 -294.5t-210.5 -208t-299.5 -75.5q-247 0 -412 164t-165 410zM649 821q-103 0 -172 -78.5t-69 -197.5q0 -117 69 -196t172 -79t172.5 79t69.5 196q0 119 -69.5 197.5
t-172.5 78.5zM956 1239h-256l197 293h313zM545 1239h-256l196 293h314z" />
    <glyph glyph-name="OE" unicode="&#x152;" horiz-adv-x="2103" 
d="M80 725q0 159 57 294.5t158.5 231t246 149.5t314.5 54h1124v-297h-571v-266h502v-297h-502v-297h592v-297h-1149q-224 0 -400 90.5t-274 256t-98 378.5zM874 1139q-195 0 -310 -111t-115 -301t115 -301t310 -111h187v824h-187z" />
    <glyph glyph-name="oe" unicode="&#x153;" horiz-adv-x="2009" 
d="M68 543q0 121 45 228.5t121 184.5t180 121.5t219 44.5q121 0 222 -47t171 -133q147 180 397 180q234 0 381.5 -163t147.5 -427v-73h-733q19 -101 74.5 -155t142.5 -54q123 0 190 106l305 -80q-58 -139 -195 -223t-306 -84q-253 0 -406 183q-153 -183 -397 -183
q-154 0 -282 74.5t-202.5 206.5t-74.5 293zM408 545q0 -117 66.5 -196t164.5 -79t164.5 79t66.5 196q0 119 -66 197.5t-165 78.5t-165 -78.5t-66 -197.5zM1417 872q-78 0 -129.5 -51.5t-70.5 -148.5h391q-13 96 -64 148t-127 52z" />
    <glyph glyph-name="Racute" unicode="&#x154;" horiz-adv-x="1316" 
d="M123 0v1454h493q277 0 435.5 -127t158.5 -350q0 -121 -64.5 -230t-172.5 -174l321 -573h-389l-239 479q-23 -2 -68 -2q-50 0 -125 10v-487h-350zM610 1157h-137v-377q71 -12 143 -12q110 0 173 52.5t63 144.5t-63 142t-179 50zM354 1602l285 282h414l-359 -282h-340z" />
    <glyph glyph-name="racute" unicode="&#x155;" horiz-adv-x="831" 
d="M104 0v1092h308l12 -174q38 91 108 139.5t162 48.5q64 0 101 -19l-33 -331q-43 14 -94 14q-230 0 -230 -252v-518h-334zM541 1239h-297l184 293h356z" />
    <glyph glyph-name="Rcaron" unicode="&#x158;" horiz-adv-x="1316" 
d="M123 1454h493q277 0 435.5 -127t158.5 -350q0 -121 -64.5 -230t-172.5 -174l321 -573h-389l-239 479q-23 -2 -68 -2q-50 0 -125 10v-487h-350v1454zM449 1602l-306 282h326l141 -117l146 117h315l-305 -282h-317zM610 1157h-137v-377q71 -12 143 -12q110 0 173 52.5
t63 144.5t-63 142t-179 50z" />
    <glyph glyph-name="rcaron" unicode="&#x159;" horiz-adv-x="831" 
d="M104 0v1092h308l12 -174q38 91 108 139.5t162 48.5q64 0 101 -19l-33 -331q-43 14 -94 14q-230 0 -230 -252v-518h-334zM326 1239l-281 293h285l129 -117l133 117h274l-280 -293h-260z" />
    <glyph glyph-name="Sacute" unicode="&#x15a;" horiz-adv-x="1189" 
d="M592 -31q-207 0 -358 108t-193 292l330 65q26 -79 83.5 -120.5t139.5 -41.5t135 40.5t53 103.5q0 57 -50.5 94t-168.5 63l-55 13q-217 48 -323.5 159t-106.5 273q0 133 68.5 240t188.5 167t267 60q197 0 335.5 -104t178.5 -285l-323 -66q-53 152 -195 152
q-73 0 -119.5 -37t-46.5 -96q0 -33 15 -57t47 -41t66 -28.5t87 -23.5l53 -12q439 -101 439 -436q0 -211 -155 -346.5t-392 -135.5zM688 1602h-340l285 282h414z" />
    <glyph glyph-name="sacute" unicode="&#x15b;" horiz-adv-x="1034" 
d="M518 -31q-179 0 -306.5 81t-170.5 220l307 56q19 -48 65 -76.5t107 -28.5q62 0 98.5 25t36.5 67q0 39 -38 61.5t-130 37.5l-49 8q-178 29 -273 117t-95 223q0 160 123 261t317 101q169 0 291.5 -79t159.5 -214l-306 -55q-19 45 -57 70.5t-88 25.5q-56 0 -88.5 -23.5
t-32.5 -62.5q0 -36 36 -56.5t128 -35.5l49 -8q183 -31 279 -118t96 -222q0 -166 -128 -270.5t-331 -104.5zM295 1239l184 293h357l-244 -293h-297z" />
    <glyph glyph-name="Scedilla" unicode="&#x15e;" horiz-adv-x="1189" 
d="M41 369l330 65q26 -79 83.5 -120.5t139.5 -41.5t135 40.5t53 103.5q0 57 -50.5 94t-168.5 63l-55 13q-217 48 -323.5 159t-106.5 273q0 133 68.5 240t188.5 167t267 60q197 0 335.5 -104t178.5 -285l-323 -66q-53 152 -195 152q-73 0 -119.5 -37t-46.5 -96q0 -33 15 -57
t47 -41t66 -28.5t87 -23.5l53 -12q439 -101 439 -436q0 -184 -121 -313.5t-316 -160.5l-24 -67q63 -23 100 -73t37 -111q0 -95 -85.5 -157.5t-219.5 -62.5q-76 0 -184 33l30 174q70 -20 105 -20q41 0 64.5 16t23.5 45t-32 46.5t-89 17.5l59 159q-171 25 -290.5 128.5
t-155.5 263.5z" />
    <glyph glyph-name="scedilla" unicode="&#x15f;" horiz-adv-x="1034" 
d="M41 270l307 56q19 -48 65 -76.5t107 -28.5q62 0 98.5 25t36.5 67q0 39 -38 61.5t-130 37.5l-49 8q-178 29 -273 117t-95 223q0 160 123 261t317 101q169 0 291.5 -79t159.5 -214l-306 -55q-19 45 -57 70.5t-88 25.5q-56 0 -88.5 -23.5t-32.5 -62.5q0 -36 36 -56.5
t128 -35.5l49 -8q183 -31 279 -118t96 -222q0 -145 -99.5 -244.5t-263.5 -124.5l-18 -53q64 -23 100.5 -70t36.5 -106q0 -92 -84.5 -152.5t-214.5 -60.5q-95 0 -174 33l27 166q59 -21 104 -21q41 0 64.5 16.5t23.5 45.5q0 63 -121 63l54 141q-139 22 -236.5 99t-134.5 194z
" />
    <glyph glyph-name="Scaron" unicode="&#x160;" horiz-adv-x="1189" 
d="M41 369l330 65q26 -79 83.5 -120.5t139.5 -41.5t135 40.5t53 103.5q0 57 -50.5 94t-168.5 63l-55 13q-217 48 -323.5 159t-106.5 273q0 133 68.5 240t188.5 167t267 60q197 0 335.5 -104t178.5 -285l-323 -66q-53 152 -195 152q-73 0 -119.5 -37t-46.5 -96q0 -33 15 -57
t47 -41t66 -28.5t87 -23.5l53 -12q439 -101 439 -436q0 -211 -155 -346.5t-392 -135.5q-207 0 -358 108t-193 292zM137 1884h326l141 -117l146 117h315l-305 -282h-318z" />
    <glyph glyph-name="scaron" unicode="&#x161;" horiz-adv-x="1034" 
d="M41 270l307 56q19 -48 65 -76.5t107 -28.5q62 0 98.5 25t36.5 67q0 39 -38 61.5t-130 37.5l-49 8q-178 29 -273 117t-95 223q0 160 123 261t317 101q169 0 291.5 -79t159.5 -214l-306 -55q-19 45 -57 70.5t-88 25.5q-56 0 -88.5 -23.5t-32.5 -62.5q0 -36 36 -56.5
t128 -35.5l49 -8q183 -31 279 -118t96 -222q0 -166 -128 -270.5t-331 -104.5q-179 0 -306.5 81t-170.5 220zM96 1532h285l129 -117l133 117h275l-281 -293h-260z" />
    <glyph glyph-name="Tcaron" unicode="&#x164;" horiz-adv-x="1306" 
d="M78 1454h1151v-315h-398v-1139h-356v1139h-397v315zM494 1602l-306 282h326l141 -117l146 117h315l-305 -282h-317z" />
    <glyph glyph-name="tcaron" unicode="&#x165;" horiz-adv-x="919" 
d="M39 819v273h180v372h334v-372h281v-273h-281v-416q0 -147 125 -147q71 0 143 35l51 -254q-126 -68 -270 -68q-185 0 -284 101.5t-99 291.5v457h-180zM887 1219h-189l21 313h268z" />
    <glyph glyph-name="Tbar" unicode="&#x166;" horiz-adv-x="1306" 
d="M78 1139v315h1151v-315h-398v-353h246v-264h-246v-522h-356v522h-246v264h246v353h-397z" />
    <glyph glyph-name="tbar" unicode="&#x167;" horiz-adv-x="919" 
d="M39 836v256h180v372h334v-372h281v-256h-281v-168h260v-193h-260v-78q0 -70 31.5 -108.5t93.5 -38.5q52 0 143 35l51 -248q-126 -68 -270 -68q-185 0 -284 101.5t-99 291.5v113h-160v193h160v168h-180z" />
    <glyph glyph-name="Utilde" unicode="&#x168;" horiz-adv-x="1515" 
d="M111 1454h356v-840q0 -151 78.5 -239t212.5 -88t212.5 88t78.5 239v840h356v-856q0 -290 -177.5 -464.5t-473.5 -174.5q-293 0 -468 174t-175 465v856zM381 1599q11 126 76.5 201.5t165.5 75.5q52 0 93.5 -17t72.5 -34t57 -17q27 0 41 13t20 43h232q-11 -127 -76 -202
t-166 -75q-52 0 -93.5 17t-72.5 34t-57 17q-27 0 -41.5 -13t-20.5 -43h-231z" />
    <glyph glyph-name="utilde" unicode="&#x169;" horiz-adv-x="1224" 
d="M104 1092h334v-607q0 -100 46 -157.5t128 -57.5t128 57.5t46 157.5v607h334v-600q0 -236 -139 -379.5t-371 -143.5q-229 0 -367.5 143t-138.5 380v600zM236 1251q11 126 76 201.5t165 75.5q52 0 93.5 -17t72.5 -34t57 -17q27 0 41.5 13t20.5 43h231q-11 -127 -75.5 -202
t-165.5 -75q-52 0 -94 17t-73 34t-57 17q-27 0 -41 -13t-20 -43h-231z" />
    <glyph glyph-name="Umacron" unicode="&#x16a;" horiz-adv-x="1515" 
d="M111 1454h356v-840q0 -151 78.5 -239t212.5 -88t212.5 88t78.5 239v840h356v-856q0 -290 -177.5 -464.5t-473.5 -174.5q-293 0 -468 174t-175 465v856zM1143 1612h-770v231h770v-231z" />
    <glyph glyph-name="umacron" unicode="&#x16b;" horiz-adv-x="1224" 
d="M104 1092h334v-607q0 -100 46 -157.5t128 -57.5t128 57.5t46 157.5v607h334v-600q0 -236 -139 -379.5t-371 -143.5q-229 0 -367.5 143t-138.5 380v600zM946 1247h-672v215h672v-215z" />
    <glyph glyph-name="Uring" unicode="&#x16e;" horiz-adv-x="1515" 
d="M754 -41q-293 0 -468 174t-175 465v856h356v-840q0 -151 78.5 -239t212.5 -88t212.5 88t78.5 239v840h356v-856q0 -290 -177.5 -464.5t-473.5 -174.5zM758 1538q-107 0 -179.5 69.5t-72.5 170.5t72.5 170t179.5 69t179.5 -69t72.5 -170t-72.5 -170.5t-179.5 -69.5z
M672 1778q0 -37 25.5 -62.5t60.5 -25.5t60.5 25.5t25.5 62.5t-25.5 62.5t-60.5 25.5t-60.5 -25.5t-25.5 -62.5z" />
    <glyph glyph-name="uring" unicode="&#x16f;" horiz-adv-x="1224" 
d="M104 1092h334v-607q0 -100 46 -157.5t128 -57.5t128 57.5t46 157.5v607h334v-600q0 -236 -139 -379.5t-371 -143.5q-229 0 -367.5 143t-138.5 380v600zM367 1415q0 97 70.5 164.5t172.5 67.5q103 0 173.5 -67.5t70.5 -164.5t-70.5 -164t-173.5 -67t-173 67t-70 164z
M524 1415q0 -37 25.5 -62.5t60.5 -25.5t60.5 25.5t25.5 62.5t-25.5 62.5t-60.5 25.5t-60.5 -25.5t-25.5 -62.5z" />
    <glyph glyph-name="Uhungarumlaut" unicode="&#x170;" horiz-adv-x="1515" 
d="M754 -41q-293 0 -468 174t-175 465v856h356v-840q0 -151 78.5 -239t212.5 -88t212.5 88t78.5 239v840h356v-856q0 -290 -177.5 -464.5t-473.5 -174.5zM1106 1602h-315l270 282h389zM598 1602h-315l270 282h389z" />
    <glyph glyph-name="uhungarumlaut" unicode="&#x171;" horiz-adv-x="1224" 
d="M104 1092h334v-607q0 -100 46 -157.5t128 -57.5t128 57.5t46 157.5v607h334v-600q0 -236 -139 -379.5t-371 -143.5q-229 0 -367.5 143t-138.5 380v600zM918 1239h-256l196 293h313zM250 1239l196 293h314l-254 -293h-256z" />
    <glyph glyph-name="Uogonek" unicode="&#x172;" horiz-adv-x="1515" 
d="M754 -41q-293 0 -468 174t-175 465v856h356v-840q0 -151 78.5 -239t212.5 -88t212.5 88t78.5 239v840h356v-856q0 -163 -58.5 -292.5t-166.5 -213.5q-179 -188 -179 -282q0 -36 21 -57t59 -21q41 0 86 18l23 -184q-90 -37 -184 -37q-123 0 -196 56t-73 149q0 110 121 231
q-50 -6 -104 -6z" />
    <glyph glyph-name="uogonek" unicode="&#x173;" horiz-adv-x="1224" 
d="M104 1092h334v-607q0 -100 46 -157.5t128 -57.5t128 57.5t46 157.5v607h334v-600q0 -129 -43.5 -233.5t-124.5 -174.5q-176 -182 -176 -274q0 -78 82 -78q39 0 84 18l23 -176q-87 -37 -181 -37q-120 0 -192 55.5t-72 145.5q0 112 127 233q-12 -2 -37 -2
q-229 0 -367.5 143t-138.5 380v600z" />
    <glyph glyph-name="Wcircumflex" unicode="&#x174;" horiz-adv-x="2166" 
d="M55 1454h373l242 -985l260 985h319l260 -983l240 983h362l-434 -1454h-331l-261 985l-260 -985h-336zM936 1602h-315l305 282h317l305 -282h-325l-142 116z" />
    <glyph glyph-name="wcircumflex" unicode="&#x175;" horiz-adv-x="1755" 
d="M377 0l-361 1092h349l172 -691l196 691h295l197 -695l178 695h336l-361 -1092h-309l-192 684l-195 -684h-305zM760 1239h-281l238 293h321l238 -293h-291l-111 115z" />
    <glyph glyph-name="Ycircumflex" unicode="&#x176;" horiz-adv-x="1400" 
d="M522 559l-506 895h404l287 -563l286 563h391l-505 -895v-559h-357v559zM238 1602l305 282h317l305 -282h-325l-142 116l-145 -116h-315z" />
    <glyph glyph-name="ycircumflex" unicode="&#x177;" horiz-adv-x="1179" 
d="M16 1092h367l225 -717l201 717h354l-434 -1170q-66 -177 -166 -260.5t-246 -83.5q-121 0 -213 51l60 256q58 -26 115 -26q54 0 93 33.5t72 105.5l9 18zM471 1239h-281l238 293h322l237 -293h-291l-110 115z" />
    <glyph glyph-name="Ydieresis" unicode="&#x178;" horiz-adv-x="1400" 
d="M522 559l-506 895h404l287 -563l286 563h391l-505 -895v-559h-357v559zM780 1749q0 75 51.5 126.5t126.5 51.5t127 -51.5t52 -126.5t-52 -126.5t-127 -51.5t-126.5 51.5t-51.5 126.5zM442 1571q-75 0 -126.5 51.5t-51.5 126.5t51.5 126.5t126.5 51.5t127 -51.5t52 -126.5
t-52 -126.5t-127 -51.5z" />
    <glyph glyph-name="Zacute" unicode="&#x179;" horiz-adv-x="1329" 
d="M70 0v252l706 903h-676v299h1125v-252l-709 -903h754v-299h-1200zM410 1602l284 282h414l-358 -282h-340z" />
    <glyph glyph-name="zacute" unicode="&#x17a;" horiz-adv-x="1097" 
d="M76 0v221l495 602h-479v269h895v-222l-495 -602h530v-268h-946zM868 1532l-243 -293h-297l184 293h356z" />
    <glyph glyph-name="Zdotaccent" unicode="&#x17b;" horiz-adv-x="1329" 
d="M70 252l706 903h-676v299h1125v-252l-709 -903h754v-299h-1200v252zM662 1571q-82 0 -136.5 54t-54.5 134t55 134.5t136 54.5t135.5 -54.5t54.5 -134.5t-54.5 -134t-135.5 -54z" />
    <glyph glyph-name="zdotaccent" unicode="&#x17c;" horiz-adv-x="1097" 
d="M76 221l495 602h-479v269h895v-222l-495 -602h530v-268h-946v221zM539 1210q-79 0 -132 53.5t-53 129.5t53 129t132 53q81 0 133.5 -53t52.5 -129t-53 -129.5t-133 -53.5z" />
    <glyph glyph-name="Zcaron" unicode="&#x17d;" horiz-adv-x="1329" 
d="M70 0v252l706 903h-676v299h1125v-252l-709 -903h754v-299h-1200zM504 1602l-305 282h325l142 -117l145 117h315l-305 -282h-317z" />
    <glyph glyph-name="zcaron" unicode="&#x17e;" horiz-adv-x="1097" 
d="M76 0v221l495 602h-479v269h895v-222l-495 -602h530v-268h-946zM410 1239l-281 293h285l129 -117l133 117h274l-280 -293h-260z" />
    <glyph glyph-name="Ohorn" unicode="&#x1a0;" horiz-adv-x="1695" 
d="M80 725q0 163 58.5 305.5t160 244.5t245 161t306.5 59q98 0 202 -20.5t150 -20.5q88 0 125 46t37 149h262q0 -294 -235 -365q107 -104 166 -247t59 -308q0 -163 -58.5 -305.5t-160 -244.5t-245 -161t-306.5 -59q-162 0 -304 58t-243.5 159.5t-160 244t-58.5 304.5z
M449 727q0 -191 113 -315.5t286 -124.5t286 124.5t113 315.5t-113 315.5t-286 124.5t-286 -124.5t-113 -315.5z" />
    <glyph glyph-name="ohorn" unicode="&#x1a1;" horiz-adv-x="1298" 
d="M68 543q0 162 75.5 294.5t210 208.5t299.5 76q73 0 141 -15t101 -15q88 0 125 45.5t37 148.5h262q0 -285 -223 -362q135 -158 135 -377q0 -162 -76 -294.5t-210.5 -208t-299.5 -75.5q-247 0 -412 164t-165 410zM408 545q0 -117 69 -196t172 -79t172.5 79t69.5 196
q0 119 -69.5 197.5t-172.5 78.5t-172 -78.5t-69 -197.5z" />
    <glyph glyph-name="Uhorn" unicode="&#x1af;" horiz-adv-x="1515" 
d="M754 -41q-293 0 -468 174t-175 465v856h356v-840q0 -151 78.5 -239t212.5 -88t212.5 88t78.5 239v840h186q78 4 111.5 50.5t33.5 144.5h262q0 -296 -237 -367v-684q0 -290 -177.5 -464.5t-473.5 -174.5z" />
    <glyph glyph-name="uhorn" unicode="&#x1b0;" horiz-adv-x="1224" 
d="M610 -31q-229 0 -367.5 143t-138.5 380v600h334v-607q0 -100 46 -157.5t128 -57.5t128 57.5t46 157.5v607h160q79 4 112.5 50t33.5 144h262q0 -293 -234 -364v-430q0 -236 -139 -379.5t-371 -143.5z" />
    <glyph glyph-name="uni0218" unicode="&#x218;" horiz-adv-x="1189" 
d="M592 -31q-207 0 -358 108t-193 292l330 65q26 -79 83.5 -120.5t139.5 -41.5t135 40.5t53 103.5q0 57 -50.5 94t-168.5 63l-55 13q-217 48 -323.5 159t-106.5 273q0 133 68.5 240t188.5 167t267 60q197 0 335.5 -104t178.5 -285l-323 -66q-53 152 -195 152
q-73 0 -119.5 -37t-46.5 -96q0 -33 15 -57t47 -41t66 -28.5t87 -23.5l53 -12q439 -101 439 -436q0 -211 -155 -346.5t-392 -135.5zM549 -375q-52 0 -88.5 34.5t-36.5 88.5q0 57 45 95t111 38q78 0 129 -51.5t51 -128.5q0 -98 -66 -174.5t-180 -108.5l-47 121q103 35 123 94
q-13 -8 -41 -8z" />
    <glyph glyph-name="uni0219" unicode="&#x219;" horiz-adv-x="1034" 
d="M518 -31q-179 0 -306.5 81t-170.5 220l307 56q19 -48 65 -76.5t107 -28.5q62 0 98.5 25t36.5 67q0 39 -38 61.5t-130 37.5l-49 8q-178 29 -273 117t-95 223q0 160 123 261t317 101q169 0 291.5 -79t159.5 -214l-306 -55q-19 45 -57 70.5t-88 25.5q-56 0 -88.5 -23.5
t-32.5 -62.5q0 -36 36 -56.5t128 -35.5l49 -8q183 -31 279 -118t96 -222q0 -166 -128 -270.5t-331 -104.5zM473 -354q-52 0 -86.5 34t-34.5 87q0 56 42 92.5t108 36.5q76 0 126 -51.5t50 -127.5q0 -93 -63.5 -167t-174.5 -109l-47 121q44 13 76.5 38t44.5 54q-16 -8 -41 -8z
" />
    <glyph glyph-name="uni021A" unicode="&#x21a;" horiz-adv-x="1306" 
d="M78 1454h1151v-315h-398v-1139h-356v1139h-397v315zM483 -252q0 57 45 95t111 38q78 0 129 -51.5t51 -128.5q0 -98 -66 -174.5t-180 -108.5l-47 121q103 35 123 94q-13 -8 -41 -8q-52 0 -88.5 34.5t-36.5 88.5z" />
    <glyph glyph-name="uni021B" unicode="&#x21b;" horiz-adv-x="919" 
d="M39 819v273h180v372h334v-372h281v-273h-281v-416q0 -147 125 -147q71 0 143 35l51 -254q-126 -68 -270 -68q-185 0 -284 101.5t-99 291.5v457h-180zM481 -354q-52 0 -86.5 34t-34.5 87q0 56 42 92.5t108 36.5q76 0 126 -51.5t50 -127.5q0 -94 -63.5 -167.5
t-173.5 -108.5l-48 121q44 13 76.5 38t44.5 54q-16 -8 -41 -8z" />
    <glyph glyph-name="uni0237" unicode="&#x237;" horiz-adv-x="552" 
d="M63 -422q-118 0 -213 53l60 250q55 -22 92 -22q54 0 83.5 35.5t29.5 101.5v1096h334v-1112q0 -181 -106.5 -291.5t-279.5 -110.5z" />
    <glyph glyph-name="circumflex" unicode="&#x2c6;" 
d="M217 1239l238 293h321l238 -293h-291l-111 115l-114 -115h-281z" />
    <glyph glyph-name="caron" unicode="&#x2c7;" 
d="M205 1532h284l129 -117l134 117h274l-281 -293h-260z" />
    <glyph glyph-name="uni02C9" unicode="&#x2c9;" 
d="M279 1247v215h671v-215h-671z" />
    <glyph glyph-name="uni02CB" unicode="&#x2cb;" 
d="M612 1239l-243 293h356l184 -293h-297z" />
    <glyph glyph-name="breve" unicode="&#x2d8;" 
d="M614 1239q-168 0 -258 72.5t-116 212.5h229q24 -105 145 -105q61 0 97 24t49 81h231q-26 -140 -116.5 -212.5t-260.5 -72.5z" />
    <glyph glyph-name="dotaccent" unicode="&#x2d9;" 
d="M614 1210q-79 0 -131.5 53.5t-52.5 129.5t52.5 129t131.5 53q81 0 134 -53t53 -129t-53 -129.5t-134 -53.5z" />
    <glyph glyph-name="ring" unicode="&#x2da;" 
d="M371 1415q0 97 70.5 164.5t172.5 67.5q103 0 173.5 -67.5t70.5 -164.5t-70.5 -164t-173.5 -67t-173 67t-70 164zM528 1415q0 -37 25.5 -62.5t60.5 -25.5t60.5 25.5t25.5 62.5t-25.5 62.5t-60.5 25.5t-60.5 -25.5t-25.5 -62.5z" />
    <glyph glyph-name="ogonek" unicode="&#x2db;" 
d="M393 -270q0 79 64 156.5t200 164.5l164 -51q-91 -73 -131.5 -121t-40.5 -84q0 -29 21 -46t59 -17q45 0 86 18l23 -176q-81 -37 -181 -37q-122 0 -193 53t-71 140z" />
    <glyph glyph-name="tilde" unicode="&#x2dc;" 
d="M471 1251h-231q11 126 76 201.5t165 75.5q52 0 94 -17t73 -34t57 -17q27 0 41 13t20 43h231q-11 -127 -75.5 -202t-165.5 -75q-52 0 -94 17t-73 34t-57 17q-27 0 -41 -13t-20 -43z" />
    <glyph glyph-name="hungarumlaut" unicode="&#x2dd;" 
d="M821 1239h-256l197 293h313zM410 1239h-256l196 293h314z" />
    <glyph glyph-name="gravecomb" unicode="&#x300;" horiz-adv-x="0" 
d="M-90 1239l-244 293h357l184 -293h-297z" />
    <glyph glyph-name="acutecomb" unicode="&#x301;" horiz-adv-x="0" 
d="M330 1532l-244 -293h-297l184 293h357z" />
    <glyph glyph-name="uni0302" unicode="&#x302;" horiz-adv-x="0" 
d="M-397 1239l237 293h322l237 -293h-290l-111 115l-115 -115h-280z" />
    <glyph glyph-name="tildecomb" unicode="&#x303;" horiz-adv-x="0" 
d="M-143 1251h-232q11 126 76.5 201.5t165.5 75.5q52 0 93.5 -17t72.5 -34t57 -17q27 0 41.5 13t20.5 43h231q-11 -127 -76 -202t-166 -75q-52 0 -93.5 17t-72.5 34t-57 17q-27 0 -41 -13t-20 -43z" />
    <glyph glyph-name="uni0304" unicode="&#x304;" horiz-adv-x="0" 
d="M-336 1247v215h672v-215h-672z" />
    <glyph glyph-name="uni0306" unicode="&#x306;" horiz-adv-x="0" 
d="M0 1239q-323 0 -375 285h230q24 -105 145 -105q61 0 96.5 24t48.5 81h232q-26 -140 -116.5 -212.5t-260.5 -72.5z" />
    <glyph glyph-name="uni0307" unicode="&#x307;" horiz-adv-x="0" 
d="M0 1210q-79 0 -131.5 53.5t-52.5 129.5t52.5 129t131.5 53q81 0 133.5 -53t52.5 -129t-53 -129.5t-133 -53.5z" />
    <glyph glyph-name="uni0308" unicode="&#x308;" horiz-adv-x="0" 
d="M57 1378q0 71 49.5 120.5t122.5 49.5t122.5 -49.5t49.5 -120.5t-49.5 -120.5t-122.5 -49.5t-122.5 49.5t-49.5 120.5zM-401 1378q0 71 49.5 120.5t122.5 49.5t122.5 -49.5t49.5 -120.5t-49.5 -120.5t-122.5 -49.5t-122.5 49.5t-49.5 120.5z" />
    <glyph glyph-name="uni030A" unicode="&#x30a;" horiz-adv-x="0" 
d="M-244 1415q0 97 70.5 164.5t173.5 67.5t173.5 -67.5t70.5 -164.5t-70.5 -164t-173.5 -67t-173.5 67t-70.5 164zM-86 1415q0 -37 25.5 -62.5t60.5 -25.5t60.5 25.5t25.5 62.5t-25.5 62.5t-60.5 25.5t-60.5 -25.5t-25.5 -62.5z" />
    <glyph glyph-name="uni030B" unicode="&#x30b;" horiz-adv-x="0" 
d="M307 1239h-256l197 293h313zM-104 1239h-256l196 293h314z" />
    <glyph glyph-name="uni030C" unicode="&#x30c;" horiz-adv-x="0" 
d="M-410 1532h285l129 -117l133 117h275l-281 -293h-260z" />
    <glyph glyph-name="uni0312" unicode="&#x312;" horiz-adv-x="0" 
d="M-162 1368q0 94 64 168t174 109l47 -121q-44 -13 -76.5 -38t-44.5 -54q16 8 41 8q52 0 86.5 -34t34.5 -87q0 -55 -43.5 -92t-106.5 -37q-76 0 -126 51t-50 127z" />
    <glyph glyph-name="uni0315" unicode="&#x315;" horiz-adv-x="0" 
d="M131 1128l27 404h278l-127 -404h-178z" />
    <glyph glyph-name="dotbelowcomb" unicode="&#x323;" horiz-adv-x="0" 
d="M0 -477q-79 0 -131.5 53t-52.5 129t52.5 129t131.5 53q81 0 133.5 -53t52.5 -129t-52.5 -129t-133.5 -53z" />
    <glyph glyph-name="uni0326" unicode="&#x326;" horiz-adv-x="0" 
d="M-41 -354q-52 0 -86.5 34t-34.5 87q0 56 42 92.5t108 36.5q76 0 126 -51.5t50 -127.5q0 -93 -63.5 -167t-174.5 -109l-47 121q44 13 76.5 38t44.5 54q-16 -8 -41 -8z" />
    <glyph glyph-name="uni0327" unicode="&#x327;" horiz-adv-x="0" 
d="M-80 -467q-95 0 -174 33l27 166q58 -21 104 -21q41 0 64.5 16.5t23.5 45.5q0 63 -121 63l70 187h203l-35 -101q64 -23 100.5 -70t36.5 -106q0 -92 -84.5 -152.5t-214.5 -60.5z" />
    <glyph glyph-name="uni0328" unicode="&#x328;" horiz-adv-x="0" 
d="M-428 -270q0 79 64 156.5t200 164.5l164 -51q-91 -73 -131.5 -121t-40.5 -84q0 -29 21 -46t59 -17q45 0 86 18l22 -176q-81 -37 -180 -37q-122 0 -193 53t-71 140z" />
    <glyph glyph-name="uni0E3F" unicode="&#xe3f;" 
d="M117 1413h360v256h232v-260q188 -22 292.5 -116t104.5 -246q0 -95 -43 -173t-123 -120q109 -41 168 -131t59 -217q0 -169 -122 -276t-336 -126v-291h-232v287h-360v1413zM442 283h201q92 0 140 39t48 114t-48.5 115.5t-139.5 40.5h-201v-309zM442 860h166q80 0 122 34.5
t42 100.5t-42 100.5t-122 34.5h-166v-270z" />
    <glyph glyph-name="uni1E24" unicode="&#x1e24;" horiz-adv-x="1540" 
d="M123 0v1454h356v-545h582v545h356v-1454h-356v594h-582v-594h-356zM770 -500q-81 0 -135.5 54.5t-54.5 134.5t54.5 134t135.5 54q82 0 136.5 -54t54.5 -134t-55 -134.5t-136 -54.5z" />
    <glyph glyph-name="uni1E25" unicode="&#x1e25;" 
d="M104 1532h334v-559q107 149 301 149q175 0 281 -126.5t106 -336.5v-659h-333v612q0 97 -44 153t-122 56q-81 0 -135 -58t-54 -145v-618h-334v1532zM430 -295q0 76 52.5 129t131.5 53q81 0 134 -53t53 -129t-53 -129t-134 -53q-79 0 -131.5 53t-52.5 129z" />
    <glyph glyph-name="uni1E36" unicode="&#x1e36;" horiz-adv-x="1128" 
d="M123 0v1454h356v-1139h574v-315h-930zM586 -500q-81 0 -136 54.5t-55 134.5t54.5 134t136.5 54q81 0 135.5 -54t54.5 -134t-54.5 -134.5t-135.5 -54.5z" />
    <glyph glyph-name="uni1E37" unicode="&#x1e37;" horiz-adv-x="542" 
d="M104 1532h334v-1532h-334v1532zM268 -477q-79 0 -131.5 53t-52.5 129t52.5 129t131.5 53q81 0 134 -53t53 -129t-53 -129t-134 -53z" />
    <glyph glyph-name="Wgrave" unicode="&#x1e80;" horiz-adv-x="2166" 
d="M55 1454h373l242 -985l260 985h319l260 -983l240 983h362l-434 -1454h-331l-261 985l-260 -985h-336zM637 1884h414l284 -282h-340z" />
    <glyph glyph-name="wgrave" unicode="&#x1e81;" horiz-adv-x="1755" 
d="M16 1092h349l172 -691l196 691h295l197 -695l178 695h336l-361 -1092h-309l-192 684l-195 -684h-305zM543 1532h356l184 -293h-297z" />
    <glyph glyph-name="Wacute" unicode="&#x1e82;" horiz-adv-x="2166" 
d="M55 1454h373l242 -985l260 985h319l260 -983l240 983h362l-434 -1454h-331l-261 985l-260 -985h-336zM1171 1602h-340l285 282h414z" />
    <glyph glyph-name="wacute" unicode="&#x1e83;" horiz-adv-x="1755" 
d="M377 0l-361 1092h349l172 -691l196 691h295l197 -695l178 695h336l-361 -1092h-309l-192 684l-195 -684h-305zM666 1239l184 293h356l-243 -293h-297z" />
    <glyph glyph-name="Wdieresis" unicode="&#x1e84;" horiz-adv-x="2166" 
d="M55 1454h373l242 -985l260 985h319l260 -983l240 983h362l-434 -1454h-331l-261 985l-260 -985h-336zM1163 1749q0 75 51.5 126.5t126.5 51.5t127 -51.5t52 -126.5t-52 -126.5t-127 -51.5t-126.5 51.5t-51.5 126.5zM825 1571q-75 0 -126.5 51.5t-51.5 126.5t51.5 126.5
t126.5 51.5t127 -51.5t52 -126.5t-52 -126.5t-127 -51.5z" />
    <glyph glyph-name="wdieresis" unicode="&#x1e85;" horiz-adv-x="1755" 
d="M377 0l-361 1092h349l172 -691l196 691h295l197 -695l178 695h336l-361 -1092h-309l-192 684l-195 -684h-305zM1106 1208q-73 0 -122.5 49.5t-49.5 120.5t49.5 120.5t122.5 49.5t122.5 -49.5t49.5 -120.5t-49.5 -120.5t-122.5 -49.5zM647 1208q-73 0 -122.5 49.5
t-49.5 120.5t49.5 120.5t122.5 49.5t122.5 -49.5t49.5 -120.5t-49.5 -120.5t-122.5 -49.5z" />
    <glyph glyph-name="Germandbls" unicode="&#x1e9e;" horiz-adv-x="1374" 
d="M111 0v856q0 148 45.5 268t126 198.5t190 120.5t238.5 42q183 0 333 -79t242 -204l-231 -348q126 -50 199 -159.5t73 -250.5q0 -99 -37.5 -186.5t-104 -151t-162.5 -100.5t-208 -37q-122 0 -240 47l52 287q71 -31 143 -31q87 0 143 50.5t56 134.5t-60 135.5t-172 52.5
l-26 199l178 270q-69 53 -166 53q-114 0 -185 -80t-71 -215v-872h-356z" />
    <glyph glyph-name="uni1EA0" unicode="&#x1ea0;" horiz-adv-x="1583" 
d="M27 0l575 1454h379l575 -1454h-368l-103 283h-600l-102 -283h-356zM791 -545q-74 0 -124.5 49t-50.5 119q0 71 50 119.5t125 48.5q77 0 127.5 -48.5t50.5 -119.5q0 -70 -50.5 -119t-127.5 -49zM784 1112l-190 -530h383z" />
    <glyph glyph-name="uni1EA1" unicode="&#x1ea1;" horiz-adv-x="1159" 
d="M53 309q0 158 124.5 255.5t326.5 97.5q122 0 227 -44v56q0 80 -46 128t-124 48q-58 0 -104.5 -27.5t-65.5 -74.5l-299 51q32 142 166.5 232.5t308.5 90.5q216 0 352 -130t136 -335v-657h-299l-8 129q-42 -74 -124.5 -117t-189.5 -43q-165 0 -273 96.5t-108 243.5z
M332 -377q0 71 49.5 119.5t124.5 48.5q77 0 127.5 -48.5t50.5 -119.5q0 -70 -50.5 -119t-127.5 -49q-74 0 -124 49t-50 119zM565 451q-86 0 -135 -32.5t-49 -88.5q0 -50 40 -81.5t105 -31.5q89 0 147 54.5t58 134.5v10q-75 35 -166 35z" />
    <glyph glyph-name="uni1EA2" unicode="&#x1ea2;" horiz-adv-x="1583" 
d="M383 0h-356l575 1454h379l575 -1454h-368l-103 283h-600zM672 1831l-88 119q89 63 241 63q113 0 175.5 -48.5t62.5 -137.5q0 -78 -71.5 -142t-200.5 -86l-56 132q62 14 83 35.5t18 52.5q-2 18 -19.5 30.5t-46.5 12.5q-46 0 -98 -31zM594 582h383l-193 530z" />
    <glyph glyph-name="uni1EA3" unicode="&#x1ea3;" horiz-adv-x="1159" 
d="M434 -31q-165 0 -273 96.5t-108 243.5q0 158 124.5 255.5t326.5 97.5q122 0 227 -44v56q0 80 -46 128t-124 48q-58 0 -104.5 -27.5t-65.5 -74.5l-299 51q32 142 166.5 232.5t308.5 90.5q216 0 352 -130t136 -335v-657h-299l-8 129q-42 -74 -124.5 -117t-189.5 -43z
M438 1470l-88 119q90 64 242 64q113 0 175 -49t62 -138q0 -78 -71.5 -141.5t-200.5 -85.5l-55 131q61 14 82 35.5t18 52.5q-2 18 -19 30.5t-46 12.5q-47 0 -99 -31zM381 330q0 -50 40 -81.5t105 -31.5q89 0 147 54.5t58 134.5v10q-75 35 -166 35q-86 0 -135 -32.5t-49 -88.5
z" />
    <glyph glyph-name="uni1EA4" unicode="&#x1ea4;" horiz-adv-x="1583" 
d="M27 0l575 1454h379l575 -1454h-368l-103 283h-600l-102 -283h-356zM672 1599h-281l238 293h321l238 -293h-291l-111 115zM784 1112l-190 -530h383zM1094 1790l163 272h357l-223 -272h-297z" />
    <glyph glyph-name="uni1EA5" unicode="&#x1ea5;" horiz-adv-x="1159" 
d="M53 309q0 158 124.5 255.5t326.5 97.5q122 0 227 -44v56q0 80 -46 128t-124 48q-58 0 -104.5 -27.5t-65.5 -74.5l-299 51q32 142 166.5 232.5t308.5 90.5q216 0 352 -130t136 -335v-657h-299l-8 129q-42 -74 -124.5 -117t-189.5 -43q-165 0 -273 96.5t-108 243.5z
M178 1239l238 293h321l238 -293h-291l-111 115l-114 -115h-281zM881 1430l163 272h357l-223 -272h-297zM565 451q-86 0 -135 -32.5t-49 -88.5q0 -50 40 -81.5t105 -31.5q89 0 147 54.5t58 134.5v10q-75 35 -166 35z" />
    <glyph glyph-name="uni1EA6" unicode="&#x1ea6;" horiz-adv-x="1583" 
d="M27 0l575 1454h379l575 -1454h-368l-103 283h-600l-102 -283h-356zM672 1599h-281l238 293h321l238 -293h-291l-111 115zM784 1112l-190 -530h383zM1143 1790l-223 272h356l164 -272h-297z" />
    <glyph glyph-name="uni1EA7" unicode="&#x1ea7;" horiz-adv-x="1159" 
d="M53 309q0 158 124.5 255.5t326.5 97.5q122 0 227 -44v56q0 80 -46 128t-124 48q-58 0 -104.5 -27.5t-65.5 -74.5l-299 51q32 142 166.5 232.5t308.5 90.5q216 0 352 -130t136 -335v-657h-299l-8 129q-42 -74 -124.5 -117t-189.5 -43q-165 0 -273 96.5t-108 243.5z
M178 1239l238 293h321l238 -293h-291l-111 115l-114 -115h-281zM930 1430l-223 272h356l164 -272h-297zM565 451q-86 0 -135 -32.5t-49 -88.5q0 -50 40 -81.5t105 -31.5q89 0 147 54.5t58 134.5v10q-75 35 -166 35z" />
    <glyph glyph-name="uni1EA8" unicode="&#x1ea8;" horiz-adv-x="1583" 
d="M27 0l575 1454h379l575 -1454h-368l-103 283h-600l-102 -283h-356zM391 1599l238 293h321l238 -293h-291l-111 115l-114 -115h-281zM905 2128q91 61 242 61q113 0 175 -47t62 -133q0 -75 -71.5 -136.5t-200.5 -82.5l-55 127q61 13 82 33.5t18 50.5q-2 18 -19 30.5
t-46 12.5q-47 0 -99 -31zM594 582h383l-193 530z" />
    <glyph glyph-name="uni1EA9" unicode="&#x1ea9;" horiz-adv-x="1159" 
d="M53 309q0 158 124.5 255.5t326.5 97.5q122 0 227 -44v56q0 80 -46 128t-124 48q-58 0 -104.5 -27.5t-65.5 -74.5l-299 51q32 142 166.5 232.5t308.5 90.5q216 0 352 -130t136 -335v-657h-299l-8 129q-42 -74 -124.5 -117t-189.5 -43q-165 0 -273 96.5t-108 243.5z
M178 1239l238 293h321l238 -293h-291l-111 115l-114 -115h-281zM692 1767q92 62 242 62q113 0 175 -47t62 -133q0 -75 -71.5 -136.5t-200.5 -82.5l-55 126q61 13 82 33.5t18 50.5q-2 18 -19 30.5t-46 12.5q-49 0 -99 -30zM565 451q-86 0 -135 -32.5t-49 -88.5
q0 -50 40 -81.5t105 -31.5q89 0 147 54.5t58 134.5v10q-75 35 -166 35z" />
    <glyph glyph-name="uni1EAA" unicode="&#x1eaa;" horiz-adv-x="1583" 
d="M27 0l575 1454h379l575 -1454h-368l-103 283h-600l-102 -283h-356zM639 1966h-231q11 126 76 201.5t165 75.5q52 0 93.5 -17t72.5 -34t57 -17q27 0 41.5 12.5t20.5 42.5h231q-11 -127 -75.5 -201.5t-165.5 -74.5q-52 0 -94 17t-73 33.5t-57 16.5q-27 0 -41 -12.5
t-20 -42.5zM672 1599h-281l238 293h321l238 -293h-291l-111 115zM784 1112l-190 -530h383z" />
    <glyph glyph-name="uni1EAB" unicode="&#x1eab;" horiz-adv-x="1159" 
d="M434 -31q-165 0 -273 96.5t-108 243.5q0 158 124.5 255.5t326.5 97.5q122 0 227 -44v56q0 80 -46 128t-124 48q-58 0 -104.5 -27.5t-65.5 -74.5l-299 51q32 142 166.5 232.5t308.5 90.5q216 0 352 -130t136 -335v-657h-299l-8 129q-42 -74 -124.5 -117t-189.5 -43z
M195 1606q11 126 76 201t165 75q52 0 93.5 -17t72.5 -33.5t57 -16.5q27 0 41.5 12.5t20.5 42.5h231q-11 -127 -75.5 -202t-165.5 -75q-52 0 -94 17t-73 34t-57 17q-27 0 -41 -12.5t-20 -42.5h-231zM459 1239h-281l238 293h321l238 -293h-291l-111 115zM565 451
q-86 0 -135 -32.5t-49 -88.5q0 -50 40 -81.5t105 -31.5q89 0 147 54.5t58 134.5v10q-75 35 -166 35z" />
    <glyph glyph-name="uni1EAC" unicode="&#x1eac;" horiz-adv-x="1583" 
d="M383 0h-356l575 1454h379l575 -1454h-368l-103 283h-600zM672 1599h-281l238 293h321l238 -293h-291l-111 115zM791 -545q-74 0 -124.5 49t-50.5 119q0 71 50 119.5t125 48.5q77 0 127.5 -48.5t50.5 -119.5q0 -70 -50.5 -119t-127.5 -49zM784 1112l-190 -530h383z" />
    <glyph glyph-name="uni1EAD" unicode="&#x1ead;" horiz-adv-x="1159" 
d="M434 -31q-165 0 -273 96.5t-108 243.5q0 158 124.5 255.5t326.5 97.5q122 0 227 -44v56q0 80 -46 128t-124 48q-58 0 -104.5 -27.5t-65.5 -74.5l-299 51q32 142 166.5 232.5t308.5 90.5q216 0 352 -130t136 -335v-657h-299l-8 129q-42 -74 -124.5 -117t-189.5 -43z
M459 1239h-281l238 293h321l238 -293h-291l-111 115zM506 -545q-74 0 -124 49t-50 119q0 71 49.5 119.5t124.5 48.5q77 0 127.5 -48.5t50.5 -119.5q0 -70 -50.5 -119t-127.5 -49zM565 451q-86 0 -135 -32.5t-49 -88.5q0 -50 40 -81.5t105 -31.5q89 0 147 54.5t58 134.5v10
q-75 35 -166 35z" />
    <glyph glyph-name="uni1EAE" unicode="&#x1eae;" horiz-adv-x="1583" 
d="M383 0h-356l575 1454h379l575 -1454h-368l-103 283h-600zM414 1864h229q24 -105 145 -105q61 0 97 24t49 81h231q-26 -140 -116.5 -212.5t-260.5 -72.5q-168 0 -258 72.5t-116 212.5zM784 1112l-190 -530h383zM608 1925l164 273h356l-223 -273h-297z" />
    <glyph glyph-name="uni1EAF" unicode="&#x1eaf;" horiz-adv-x="1159" 
d="M434 -31q-165 0 -273 96.5t-108 243.5q0 158 124.5 255.5t326.5 97.5q122 0 227 -44v56q0 80 -46 128t-124 48q-58 0 -104.5 -27.5t-65.5 -74.5l-299 51q32 142 166.5 232.5t308.5 90.5q216 0 352 -130t136 -335v-657h-299l-8 129q-42 -74 -124.5 -117t-189.5 -43z
M575 1239q-168 0 -258 72.5t-116 212.5h229q24 -105 145 -105q61 0 97 24t49 81h231q-26 -140 -116.5 -212.5t-260.5 -72.5zM692 1585h-297l164 273h356zM565 451q-86 0 -135 -32.5t-49 -88.5q0 -50 40 -81.5t105 -31.5q89 0 147 54.5t58 134.5v10q-75 35 -166 35z" />
    <glyph glyph-name="uni1EB0" unicode="&#x1eb0;" horiz-adv-x="1583" 
d="M383 0h-356l575 1454h379l575 -1454h-368l-103 283h-600zM414 1864h229q24 -105 145 -105q61 0 97 24t49 81h231q-26 -140 -116.5 -212.5t-260.5 -72.5q-168 0 -258 72.5t-116 212.5zM784 1112l-190 -530h383zM664 1925l-224 273h357l164 -273h-297z" />
    <glyph glyph-name="uni1EB1" unicode="&#x1eb1;" horiz-adv-x="1159" 
d="M434 -31q-165 0 -273 96.5t-108 243.5q0 158 124.5 255.5t326.5 97.5q122 0 227 -44v56q0 80 -46 128t-124 48q-58 0 -104.5 -27.5t-65.5 -74.5l-299 51q32 142 166.5 232.5t308.5 90.5q216 0 352 -130t136 -335v-657h-299l-8 129q-42 -74 -124.5 -117t-189.5 -43z
M575 1239q-168 0 -258 72.5t-116 212.5h229q24 -105 145 -105q61 0 97 24t49 81h231q-26 -140 -116.5 -212.5t-260.5 -72.5zM227 1858h357l164 -273h-297zM381 330q0 -50 40 -81.5t105 -31.5q89 0 147 54.5t58 134.5v10q-75 35 -166 35q-86 0 -135 -32.5t-49 -88.5z" />
    <glyph glyph-name="uni1EB2" unicode="&#x1eb2;" horiz-adv-x="1583" 
d="M27 0l575 1454h379l575 -1454h-368l-103 283h-600l-102 -283h-356zM788 1579q-168 0 -258 72.5t-116 212.5h229q24 -105 145 -105q61 0 97 24t49 81h231q-26 -140 -116.5 -212.5t-260.5 -72.5zM670 2128l-88 115q91 61 241 61q113 0 175.5 -47t62.5 -133
q0 -75 -72 -136.5t-201 -82.5l-55 127q61 13 82.5 34t18.5 50q-2 18 -19.5 30.5t-46.5 12.5q-46 0 -98 -31zM594 582h383l-193 530z" />
    <glyph glyph-name="uni1EB3" unicode="&#x1eb3;" horiz-adv-x="1159" 
d="M434 -31q-165 0 -273 96.5t-108 243.5q0 158 124.5 255.5t326.5 97.5q122 0 227 -44v56q0 80 -46 128t-124 48q-58 0 -104.5 -27.5t-65.5 -74.5l-299 51q32 142 166.5 232.5t308.5 90.5q216 0 352 -130t136 -335v-657h-299l-8 129q-42 -74 -124.5 -117t-189.5 -43z
M575 1239q-168 0 -258 72.5t-116 212.5h229q24 -105 145 -105q61 0 97 24t49 81h231q-26 -140 -116.5 -212.5t-260.5 -72.5zM369 1923q92 62 241 62q113 0 175.5 -47.5t62.5 -133.5q0 -75 -72 -136.5t-201 -82.5l-55 127q61 13 82.5 34t18.5 50q-2 18 -19.5 30.5t-46.5 12.5
q-46 0 -98 -31zM381 330q0 -50 40 -81.5t105 -31.5q89 0 147 54.5t58 134.5v10q-75 35 -166 35q-86 0 -135 -32.5t-49 -88.5z" />
    <glyph glyph-name="uni1EB4" unicode="&#x1eb4;" horiz-adv-x="1583" 
d="M27 0l575 1454h379l575 -1454h-368l-103 283h-600l-102 -283h-356zM637 1937h-231q11 126 76 201.5t165 75.5q52 0 93.5 -17t72.5 -34t57 -17q27 0 41.5 13t20.5 43h231q-11 -127 -75.5 -202t-165.5 -75q-52 0 -94 17t-73 34t-57 17q-27 0 -41 -13t-20 -43zM788 1579
q-168 0 -258 72.5t-116 212.5h229q24 -105 145 -105q61 0 97 24t49 81h231q-26 -140 -116.5 -212.5t-260.5 -72.5zM784 1112l-190 -530h383z" />
    <glyph glyph-name="uni1EB5" unicode="&#x1eb5;" horiz-adv-x="1159" 
d="M434 -31q-165 0 -273 96.5t-108 243.5q0 158 124.5 255.5t326.5 97.5q122 0 227 -44v56q0 80 -46 128t-124 48q-58 0 -104.5 -27.5t-65.5 -74.5l-299 51q32 142 166.5 232.5t308.5 90.5q216 0 352 -130t136 -335v-657h-299l-8 129q-42 -74 -124.5 -117t-189.5 -43z
M193 1597q11 126 76 201.5t165 75.5q52 0 93.5 -17t72.5 -34t57 -17q27 0 41.5 13t20.5 43h231q-11 -127 -75.5 -202t-165.5 -75q-52 0 -94 17t-73 34t-57 17q-27 0 -41 -13t-20 -43h-231zM575 1239q-168 0 -258 72.5t-116 212.5h229q24 -105 145 -105q61 0 97 24t49 81h231
q-26 -140 -116.5 -212.5t-260.5 -72.5zM381 330q0 -50 40 -81.5t105 -31.5q89 0 147 54.5t58 134.5v10q-75 35 -166 35q-86 0 -135 -32.5t-49 -88.5z" />
    <glyph glyph-name="uni1EB6" unicode="&#x1eb6;" horiz-adv-x="1583" 
d="M383 0h-356l575 1454h379l575 -1454h-368l-103 283h-600zM788 1579q-168 0 -258 72.5t-116 212.5h229q24 -105 145 -105q61 0 97 24t49 81h231q-26 -140 -116.5 -212.5t-260.5 -72.5zM616 -377q0 71 50 119.5t125 48.5q77 0 127.5 -48.5t50.5 -119.5q0 -70 -50.5 -119
t-127.5 -49q-74 0 -124.5 49t-50.5 119zM784 1112l-190 -530h383z" />
    <glyph glyph-name="uni1EB7" unicode="&#x1eb7;" horiz-adv-x="1159" 
d="M53 309q0 158 124.5 255.5t326.5 97.5q122 0 227 -44v56q0 80 -46 128t-124 48q-58 0 -104.5 -27.5t-65.5 -74.5l-299 51q32 142 166.5 232.5t308.5 90.5q216 0 352 -130t136 -335v-657h-299l-8 129q-42 -74 -124.5 -117t-189.5 -43q-165 0 -273 96.5t-108 243.5z
M575 1239q-168 0 -258 72.5t-116 212.5h229q24 -105 145 -105q61 0 97 24t49 81h231q-26 -140 -116.5 -212.5t-260.5 -72.5zM506 -545q-74 0 -124 49t-50 119q0 71 49.5 119.5t124.5 48.5q77 0 127.5 -48.5t50.5 -119.5q0 -70 -50.5 -119t-127.5 -49zM565 451
q-86 0 -135 -32.5t-49 -88.5q0 -50 40 -81.5t105 -31.5q89 0 147 54.5t58 134.5v10q-75 35 -166 35z" />
    <glyph glyph-name="uni1EB8" unicode="&#x1eb8;" horiz-adv-x="1185" 
d="M123 1454h940v-297h-592v-266h522v-297h-522v-297h612v-297h-960v1454zM403 -377q0 71 50 119.5t125 48.5q77 0 127.5 -48.5t50.5 -119.5q0 -70 -50.5 -119t-127.5 -49q-74 0 -124.5 49t-50.5 119z" />
    <glyph glyph-name="uni1EB9" unicode="&#x1eb9;" horiz-adv-x="1220" 
d="M68 549q0 161 72 292.5t198 206t280 74.5q246 0 395.5 -162t149.5 -428v-73h-753q20 -100 78 -154.5t145 -54.5q130 0 205 106l305 -80q-58 -139 -199 -223t-315 -84q-246 0 -403.5 162.5t-157.5 417.5zM444 -377q0 71 49.5 119.5t124.5 48.5q77 0 128 -48.5t51 -119.5
q0 -70 -51 -119t-128 -49q-74 0 -124 49t-50 119zM618 872q-82 0 -135.5 -51.5t-72.5 -148.5h409q-17 97 -69 148.5t-132 51.5z" />
    <glyph glyph-name="uni1EBA" unicode="&#x1eba;" horiz-adv-x="1185" 
d="M123 1454h940v-297h-592v-266h522v-297h-522v-297h612v-297h-960v1454zM393 1950q89 63 242 63q113 0 175 -48.5t62 -137.5q0 -78 -71.5 -142t-200.5 -86l-55 132q61 14 82 35.5t18 52.5q-2 18 -19 30.5t-46 12.5q-47 0 -99 -31z" />
    <glyph glyph-name="uni1EBB" unicode="&#x1ebb;" horiz-adv-x="1220" 
d="M68 549q0 161 72 292.5t198 206t280 74.5q246 0 395.5 -162t149.5 -428v-73h-753q20 -100 78 -154.5t145 -54.5q130 0 205 106l305 -80q-58 -139 -199 -223t-315 -84q-246 0 -403.5 162.5t-157.5 417.5zM496 1470l-88 119q90 64 241 64q113 0 175.5 -49t62.5 -138
q0 -78 -72 -141.5t-201 -85.5l-55 131q61 14 82 35.5t18 52.5q-2 18 -19 30.5t-46 12.5q-46 0 -98 -31zM618 872q-82 0 -135.5 -51.5t-72.5 -148.5h409q-17 97 -69 148.5t-132 51.5z" />
    <glyph glyph-name="uni1EBC" unicode="&#x1ebc;" horiz-adv-x="1185" 
d="M123 1454h940v-297h-592v-266h522v-297h-522v-297h612v-297h-960v1454zM451 1599h-232q11 126 76.5 201.5t165.5 75.5q52 0 93.5 -17t72.5 -34t57 -17q27 0 41 13t20 43h232q-11 -127 -76 -202t-166 -75q-52 0 -93.5 17t-72.5 34t-57 17q-27 0 -41 -13t-20 -43z" />
    <glyph glyph-name="uni1EBD" unicode="&#x1ebd;" horiz-adv-x="1220" 
d="M68 549q0 161 72 292.5t198 206t280 74.5q246 0 395.5 -162t149.5 -428v-73h-753q20 -100 78 -154.5t145 -54.5q130 0 205 106l305 -80q-58 -139 -199 -223t-315 -84q-246 0 -403.5 162.5t-157.5 417.5zM236 1251q11 126 76 201.5t165 75.5q52 0 93.5 -17t72.5 -34
t57 -17q27 0 41.5 13t20.5 43h231q-11 -127 -75.5 -202t-165.5 -75q-52 0 -94 17t-73 34t-57 17q-27 0 -41 -13t-20 -43h-231zM618 872q-82 0 -135.5 -51.5t-72.5 -148.5h409q-17 97 -69 148.5t-132 51.5z" />
    <glyph glyph-name="uni1EBE" unicode="&#x1ebe;" horiz-adv-x="1185" 
d="M1083 0h-960v1454h940v-297h-592v-266h522v-297h-522v-297h612v-297zM182 1599l238 293h321l238 -293h-291l-110 115l-115 -115h-281zM1182 1790h-297l164 272h356z" />
    <glyph glyph-name="uni1EBF" unicode="&#x1ebf;" horiz-adv-x="1220" 
d="M629 -31q-246 0 -403.5 162.5t-157.5 417.5q0 161 72 292.5t198 206t280 74.5q246 0 395.5 -162t149.5 -428v-73h-753q20 -100 78 -154.5t145 -54.5q130 0 205 106l305 -80q-58 -139 -199 -223t-315 -84zM221 1239l238 293h321l238 -293h-291l-111 115l-114 -115h-281z
M924 1430l163 272h357l-223 -272h-297zM410 672h409q-17 97 -69 148.5t-132 51.5q-82 0 -135.5 -51.5t-72.5 -148.5z" />
    <glyph glyph-name="uni1EC0" unicode="&#x1ec0;" horiz-adv-x="1185" 
d="M1083 0h-960v1454h940v-297h-592v-266h522v-297h-522v-297h612v-297zM182 1599l238 293h321l238 -293h-291l-110 115l-115 -115h-281zM711 2062h356l164 -272h-297z" />
    <glyph glyph-name="uni1EC1" unicode="&#x1ec1;" horiz-adv-x="1220" 
d="M629 -31q-246 0 -403.5 162.5t-157.5 417.5q0 161 72 292.5t198 206t280 74.5q246 0 395.5 -162t149.5 -428v-73h-753q20 -100 78 -154.5t145 -54.5q130 0 205 106l305 -80q-58 -139 -199 -223t-315 -84zM221 1239l238 293h321l238 -293h-291l-111 115l-114 -115h-281z
M750 1702h356l164 -272h-297zM410 672h409q-17 97 -69 148.5t-132 51.5q-82 0 -135.5 -51.5t-72.5 -148.5z" />
    <glyph glyph-name="uni1EC2" unicode="&#x1ec2;" horiz-adv-x="1185" 
d="M123 1454h940v-297h-592v-266h522v-297h-522v-297h612v-297h-960v1454zM182 1599l238 293h321l238 -293h-291l-110 115l-115 -115h-281zM696 2128q91 61 242 61q113 0 175.5 -47t62.5 -133q0 -75 -72 -136.5t-201 -82.5l-55 127q61 13 82 33.5t18 50.5q-2 18 -19 30.5
t-46 12.5q-47 0 -99 -31z" />
    <glyph glyph-name="uni1EC3" unicode="&#x1ec3;" horiz-adv-x="1220" 
d="M68 549q0 161 72 292.5t198 206t280 74.5q246 0 395.5 -162t149.5 -428v-73h-753q20 -100 78 -154.5t145 -54.5q130 0 205 106l305 -80q-58 -139 -199 -223t-315 -84q-246 0 -403.5 162.5t-157.5 417.5zM221 1239l238 293h321l238 -293h-291l-111 115l-114 -115h-281z
M735 1767q92 62 242 62q113 0 175 -47t62 -133q0 -75 -71.5 -136.5t-200.5 -82.5l-55 126q61 13 82 33.5t18 50.5q-2 18 -19 30.5t-46 12.5q-49 0 -99 -30zM410 672h409q-17 97 -69 148.5t-132 51.5q-82 0 -135.5 -51.5t-72.5 -148.5z" />
    <glyph glyph-name="uni1EC4" unicode="&#x1ec4;" horiz-adv-x="1185" 
d="M123 1454h940v-297h-592v-266h522v-297h-522v-297h612v-297h-960v1454zM430 1966h-231q11 126 76 201.5t165 75.5q52 0 94 -17t73 -34t57 -17q27 0 41 12.5t20 42.5h231q-11 -127 -75.5 -201.5t-165.5 -74.5q-52 0 -93.5 17t-72.5 33.5t-57 16.5q-27 0 -41.5 -12.5
t-20.5 -42.5zM463 1599h-281l238 293h321l238 -293h-291l-110 115z" />
    <glyph glyph-name="uni1EC5" unicode="&#x1ec5;" horiz-adv-x="1220" 
d="M68 549q0 161 72 292.5t198 206t280 74.5q246 0 395.5 -162t149.5 -428v-73h-753q20 -100 78 -154.5t145 -54.5q130 0 205 106l305 -80q-58 -139 -199 -223t-315 -84q-246 0 -403.5 162.5t-157.5 417.5zM469 1606h-231q11 126 76 201t165 75q52 0 93.5 -17t72.5 -33.5
t57 -16.5q27 0 41.5 12.5t20.5 42.5h231q-11 -127 -75.5 -202t-165.5 -75q-52 0 -94 17t-73 34t-57 17q-27 0 -41 -12.5t-20 -42.5zM221 1239l238 293h321l238 -293h-291l-111 115l-114 -115h-281zM410 672h409q-17 97 -69 148.5t-132 51.5q-82 0 -135.5 -51.5t-72.5 -148.5
z" />
    <glyph glyph-name="uni1EC6" unicode="&#x1ec6;" horiz-adv-x="1185" 
d="M123 1454h940v-297h-592v-266h522v-297h-522v-297h612v-297h-960v1454zM463 1599h-281l238 293h321l238 -293h-291l-110 115zM578 -545q-74 0 -124.5 49t-50.5 119q0 71 50 119.5t125 48.5q77 0 127.5 -48.5t50.5 -119.5q0 -70 -50.5 -119t-127.5 -49z" />
    <glyph glyph-name="uni1EC7" unicode="&#x1ec7;" horiz-adv-x="1220" 
d="M68 549q0 161 72 292.5t198 206t280 74.5q246 0 395.5 -162t149.5 -428v-73h-753q20 -100 78 -154.5t145 -54.5q130 0 205 106l305 -80q-58 -139 -199 -223t-315 -84q-246 0 -403.5 162.5t-157.5 417.5zM221 1239l238 293h321l238 -293h-291l-111 115l-114 -115h-281z
M444 -377q0 71 49.5 119.5t124.5 48.5q77 0 128 -48.5t51 -119.5q0 -70 -51 -119t-128 -49q-74 0 -124 49t-50 119zM410 672h409q-17 97 -69 148.5t-132 51.5q-82 0 -135.5 -51.5t-72.5 -148.5z" />
    <glyph glyph-name="uni1EC8" unicode="&#x1ec8;" horiz-adv-x="602" 
d="M479 0h-356v1454h356v-1454zM94 1950q89 63 242 63q113 0 175 -48.5t62 -137.5q0 -78 -71.5 -142t-200.5 -86l-55 132q61 14 82 35.5t18 52.5q-2 18 -19 30.5t-46 12.5q-47 0 -99 -31z" />
    <glyph glyph-name="uni1EC9" unicode="&#x1ec9;" horiz-adv-x="542" 
d="M438 0h-334v1092h334v-1092zM63 1589q90 64 242 64q113 0 175.5 -49t62.5 -138q0 -78 -72 -141.5t-201 -85.5l-55 131q61 14 82 35.5t18 52.5q-2 18 -19 30.5t-46 12.5q-46 0 -98 -31z" />
    <glyph glyph-name="uni1ECA" unicode="&#x1eca;" horiz-adv-x="602" 
d="M123 1454h356v-1454h-356v1454zM127 -377q0 71 49.5 119.5t124.5 48.5q77 0 127.5 -48.5t50.5 -119.5q0 -70 -50.5 -119t-127.5 -49q-74 0 -124 49t-50 119z" />
    <glyph glyph-name="uni1ECB" unicode="&#x1ecb;" horiz-adv-x="542" 
d="M438 0h-334v1092h334v-1092zM96 -377q0 71 49.5 119.5t124.5 48.5q77 0 128 -48.5t51 -119.5q0 -70 -51 -119t-128 -49q-74 0 -124 49t-50 119zM94 1415q0 71 49.5 119.5t124.5 48.5q77 0 127.5 -48.5t50.5 -119.5q0 -70 -50.5 -119t-127.5 -49q-74 0 -124 49t-50 119z
" />
    <glyph glyph-name="uni1ECC" unicode="&#x1ecc;" horiz-adv-x="1695" 
d="M846 -41q-162 0 -304 58t-243.5 159.5t-160 244t-58.5 304.5q0 163 58.5 305.5t160 244.5t245 161t306.5 59q162 0 304 -58t243.5 -159.5t160 -244t58.5 -304.5q0 -163 -58.5 -305.5t-160 -244.5t-245 -161t-306.5 -59zM449 727q0 -191 113 -315.5t286 -124.5t286 124.5
t113 315.5t-113 315.5t-286 124.5t-286 -124.5t-113 -315.5zM674 -377q0 71 49.5 119.5t124.5 48.5q77 0 127.5 -48.5t50.5 -119.5q0 -70 -50.5 -119t-127.5 -49q-74 0 -124 49t-50 119z" />
    <glyph glyph-name="uni1ECD" unicode="&#x1ecd;" horiz-adv-x="1298" 
d="M645 -31q-247 0 -412 164t-165 410q0 162 75.5 294.5t210 208.5t299.5 76q247 0 412.5 -164.5t165.5 -410.5q0 -162 -76 -294.5t-210.5 -208t-299.5 -75.5zM408 545q0 -117 69 -196t172 -79t172.5 79t69.5 196q0 119 -69.5 197.5t-172.5 78.5t-172 -78.5t-69 -197.5z
M475 -377q0 71 49.5 119.5t124.5 48.5q77 0 127.5 -48.5t50.5 -119.5q0 -70 -50.5 -119t-127.5 -49q-74 0 -124 49t-50 119z" />
    <glyph glyph-name="uni1ECE" unicode="&#x1ece;" horiz-adv-x="1695" 
d="M846 -41q-162 0 -304 58t-243.5 159.5t-160 244t-58.5 304.5q0 163 58.5 305.5t160 244.5t245 161t306.5 59q162 0 304 -58t243.5 -159.5t160 -244t58.5 -304.5q0 -163 -58.5 -305.5t-160 -244.5t-245 -161t-306.5 -59zM449 727q0 -191 113 -315.5t286 -124.5t286 124.5
t113 315.5t-113 315.5t-286 124.5t-286 -124.5t-113 -315.5zM729 1831l-88 119q89 63 242 63q113 0 175 -48.5t62 -137.5q0 -78 -71.5 -142t-200.5 -86l-55 132q61 14 82 35.5t18 52.5q-2 18 -19.5 30.5t-46.5 12.5q-46 0 -98 -31z" />
    <glyph glyph-name="uni1ECF" unicode="&#x1ecf;" horiz-adv-x="1298" 
d="M645 -31q-247 0 -412 164t-165 410q0 162 75.5 294.5t210 208.5t299.5 76q247 0 412.5 -164.5t165.5 -410.5q0 -162 -76 -294.5t-210.5 -208t-299.5 -75.5zM408 545q0 -117 69 -196t172 -79t172.5 79t69.5 196q0 119 -69.5 197.5t-172.5 78.5t-172 -78.5t-69 -197.5z
M530 1470l-88 119q90 64 242 64q113 0 175.5 -49t62.5 -138q0 -78 -72 -141.5t-201 -85.5l-55 131q61 14 82 35.5t18 52.5q-2 18 -19 30.5t-46 12.5q-47 0 -99 -31z" />
    <glyph glyph-name="uni1ED0" unicode="&#x1ed0;" horiz-adv-x="1695" 
d="M80 725q0 163 58.5 305.5t160 244.5t245 161t306.5 59q162 0 304 -58t243.5 -159.5t160 -244t58.5 -304.5q0 -163 -58.5 -305.5t-160 -244.5t-245 -161t-306.5 -59q-162 0 -304 58t-243.5 159.5t-160 244t-58.5 304.5zM449 727q0 -191 113 -315.5t286 -124.5t286 124.5
t113 315.5t-113 315.5t-286 124.5t-286 -124.5t-113 -315.5zM451 1599l237 293h322l237 -293h-291l-110 115l-115 -115h-280zM1450 1790h-297l164 272h356z" />
    <glyph glyph-name="uni1ED1" unicode="&#x1ed1;" horiz-adv-x="1298" 
d="M645 -31q-247 0 -412 164t-165 410q0 162 75.5 294.5t210 208.5t299.5 76q247 0 412.5 -164.5t165.5 -410.5q0 -162 -76 -294.5t-210.5 -208t-299.5 -75.5zM649 821q-103 0 -172 -78.5t-69 -197.5q0 -117 69 -196t172 -79t172.5 79t69.5 196q0 119 -69.5 197.5
t-172.5 78.5zM532 1239h-280l237 293h322l238 -293h-291l-111 115zM954 1430l164 272h357l-224 -272h-297z" />
    <glyph glyph-name="uni1ED2" unicode="&#x1ed2;" horiz-adv-x="1695" 
d="M80 725q0 163 58.5 305.5t160 244.5t245 161t306.5 59q162 0 304 -58t243.5 -159.5t160 -244t58.5 -304.5q0 -163 -58.5 -305.5t-160 -244.5t-245 -161t-306.5 -59q-162 0 -304 58t-243.5 159.5t-160 244t-58.5 304.5zM449 727q0 -191 113 -315.5t286 -124.5t286 124.5
t113 315.5t-113 315.5t-286 124.5t-286 -124.5t-113 -315.5zM451 1599l237 293h322l237 -293h-291l-110 115l-115 -115h-280zM979 2062h356l164 -272h-297z" />
    <glyph glyph-name="uni1ED3" unicode="&#x1ed3;" horiz-adv-x="1298" 
d="M645 -31q-247 0 -412 164t-165 410q0 162 75.5 294.5t210 208.5t299.5 76q247 0 412.5 -164.5t165.5 -410.5q0 -162 -76 -294.5t-210.5 -208t-299.5 -75.5zM649 821q-103 0 -172 -78.5t-69 -197.5q0 -117 69 -196t172 -79t172.5 79t69.5 196q0 119 -69.5 197.5
t-172.5 78.5zM532 1239h-280l237 293h322l238 -293h-291l-111 115zM1004 1430l-224 272h357l163 -272h-296z" />
    <glyph glyph-name="uni1ED4" unicode="&#x1ed4;" horiz-adv-x="1695" 
d="M80 725q0 163 58.5 305.5t160 244.5t245 161t306.5 59q162 0 304 -58t243.5 -159.5t160 -244t58.5 -304.5q0 -163 -58.5 -305.5t-160 -244.5t-245 -161t-306.5 -59q-162 0 -304 58t-243.5 159.5t-160 244t-58.5 304.5zM449 727q0 -191 113 -315.5t286 -124.5t286 124.5
t113 315.5t-113 315.5t-286 124.5t-286 -124.5t-113 -315.5zM731 1599h-280l237 293h322l237 -293h-291l-110 115zM1053 2013l-88 115q91 61 241 61q113 0 175.5 -47t62.5 -133q0 -75 -72 -136.5t-201 -82.5l-55 127q61 13 82.5 34t18.5 50q-2 18 -19.5 30.5t-46.5 12.5
q-46 0 -98 -31z" />
    <glyph glyph-name="uni1ED5" unicode="&#x1ed5;" horiz-adv-x="1298" 
d="M68 543q0 162 75.5 294.5t210 208.5t299.5 76q247 0 412.5 -164.5t165.5 -410.5q0 -162 -76 -294.5t-210.5 -208t-299.5 -75.5q-247 0 -412 164t-165 410zM408 545q0 -117 69 -196t172 -79t172.5 79t69.5 196q0 119 -69.5 197.5t-172.5 78.5t-172 -78.5t-69 -197.5z
M252 1239l237 293h322l238 -293h-291l-111 115l-115 -115h-280zM854 1653l-88 114q92 62 242 62q113 0 175 -47t62 -133q0 -75 -71.5 -136.5t-200.5 -82.5l-55 126q61 13 82 33.5t18 50.5q-2 18 -19.5 30.5t-46.5 12.5q-48 0 -98 -30z" />
    <glyph glyph-name="uni1ED6" unicode="&#x1ed6;" horiz-adv-x="1695" 
d="M80 725q0 163 58.5 305.5t160 244.5t245 161t306.5 59q162 0 304 -58t243.5 -159.5t160 -244t58.5 -304.5q0 -163 -58.5 -305.5t-160 -244.5t-245 -161t-306.5 -59q-162 0 -304 58t-243.5 159.5t-160 244t-58.5 304.5zM449 727q0 -191 113 -315.5t286 -124.5t286 124.5
t113 315.5t-113 315.5t-286 124.5t-286 -124.5t-113 -315.5zM467 1966q11 126 76.5 201.5t165.5 75.5q52 0 93.5 -17t72.5 -34t57 -17q27 0 41 12.5t20 42.5h232q-11 -126 -76 -201t-166 -75q-52 0 -93.5 17t-72.5 33.5t-57 16.5q-27 0 -41.5 -12.5t-20.5 -42.5h-231z
M731 1599h-280l237 293h322l237 -293h-291l-110 115z" />
    <glyph glyph-name="uni1ED7" unicode="&#x1ed7;" horiz-adv-x="1298" 
d="M68 543q0 162 75.5 294.5t210 208.5t299.5 76q247 0 412.5 -164.5t165.5 -410.5q0 -162 -76 -294.5t-210.5 -208t-299.5 -75.5q-247 0 -412 164t-165 410zM408 545q0 -117 69 -196t172 -79t172.5 79t69.5 196q0 119 -69.5 197.5t-172.5 78.5t-172 -78.5t-69 -197.5z
M500 1606h-232q10 126 76 201t166 75q52 0 93.5 -17t72.5 -33.5t57 -16.5q27 0 41.5 12.5t20.5 42.5h231q-11 -127 -76 -202t-166 -75q-52 0 -93.5 17t-72.5 34t-57 17q-27 0 -41 -12.5t-20 -42.5zM252 1239l237 293h322l238 -293h-291l-111 115l-115 -115h-280z" />
    <glyph glyph-name="uni1ED8" unicode="&#x1ed8;" horiz-adv-x="1695" 
d="M80 725q0 163 58.5 305.5t160 244.5t245 161t306.5 59q162 0 304 -58t243.5 -159.5t160 -244t58.5 -304.5q0 -163 -58.5 -305.5t-160 -244.5t-245 -161t-306.5 -59q-162 0 -304 58t-243.5 159.5t-160 244t-58.5 304.5zM449 727q0 -191 113 -315.5t286 -124.5t286 124.5
t113 315.5t-113 315.5t-286 124.5t-286 -124.5t-113 -315.5zM731 1599h-280l237 293h322l237 -293h-291l-110 115zM848 -545q-74 0 -124 49t-50 119q0 71 49.5 119.5t124.5 48.5q77 0 127.5 -48.5t50.5 -119.5q0 -70 -50.5 -119t-127.5 -49z" />
    <glyph glyph-name="uni1ED9" unicode="&#x1ed9;" horiz-adv-x="1298" 
d="M68 543q0 162 75.5 294.5t210 208.5t299.5 76q247 0 412.5 -164.5t165.5 -410.5q0 -162 -76 -294.5t-210.5 -208t-299.5 -75.5q-247 0 -412 164t-165 410zM408 545q0 -117 69 -196t172 -79t172.5 79t69.5 196q0 119 -69.5 197.5t-172.5 78.5t-172 -78.5t-69 -197.5z
M252 1239l237 293h322l238 -293h-291l-111 115l-115 -115h-280zM649 -545q-74 0 -124 49t-50 119q0 71 49.5 119.5t124.5 48.5q77 0 127.5 -48.5t50.5 -119.5q0 -70 -50.5 -119t-127.5 -49z" />
    <glyph glyph-name="uni1EDA" unicode="&#x1eda;" horiz-adv-x="1695" 
d="M80 725q0 163 58.5 305.5t160 244.5t245 161t306.5 59q98 0 202 -20.5t150 -20.5q88 0 125 46t37 149h262q0 -294 -235 -365q107 -104 166 -247t59 -308q0 -163 -58.5 -305.5t-160 -244.5t-245 -161t-306.5 -59q-162 0 -304 58t-243.5 159.5t-160 244t-58.5 304.5z
M848 1167q-173 0 -286 -124.5t-113 -315.5t113 -315.5t286 -124.5t286 124.5t113 315.5t-113 315.5t-286 124.5zM965 1599h-297l184 293h356z" />
    <glyph glyph-name="uni1EDB" unicode="&#x1edb;" horiz-adv-x="1298" 
d="M68 543q0 162 75.5 294.5t210 208.5t299.5 76q73 0 141 -15t101 -15q88 0 125 45.5t37 148.5h262q0 -285 -223 -362q135 -158 135 -377q0 -162 -76 -294.5t-210.5 -208t-299.5 -75.5q-247 0 -412 164t-165 410zM649 821q-103 0 -172 -78.5t-69 -197.5q0 -117 69 -196
t172 -79t172.5 79t69.5 196q0 119 -69.5 197.5t-172.5 78.5zM762 1239h-297l184 293h357z" />
    <glyph glyph-name="uni1EDC" unicode="&#x1edc;" horiz-adv-x="1695" 
d="M80 725q0 163 58.5 305.5t160 244.5t245 161t306.5 59q98 0 202 -20.5t150 -20.5q88 0 125 46t37 149h262q0 -294 -235 -365q107 -104 166 -247t59 -308q0 -163 -58.5 -305.5t-160 -244.5t-245 -161t-306.5 -59q-162 0 -304 58t-243.5 159.5t-160 244t-58.5 304.5z
M449 727q0 -191 113 -315.5t286 -124.5t286 124.5t113 315.5t-113 315.5t-286 124.5t-286 -124.5t-113 -315.5zM483 1892h357l184 -293h-297z" />
    <glyph glyph-name="uni1EDD" unicode="&#x1edd;" horiz-adv-x="1298" 
d="M68 543q0 162 75.5 294.5t210 208.5t299.5 76q73 0 141 -15t101 -15q88 0 125 45.5t37 148.5h262q0 -285 -223 -362q135 -158 135 -377q0 -162 -76 -294.5t-210.5 -208t-299.5 -75.5q-247 0 -412 164t-165 410zM408 545q0 -117 69 -196t172 -79t172.5 79t69.5 196
q0 119 -69.5 197.5t-172.5 78.5t-172 -78.5t-69 -197.5zM524 1239l-243 293h356l184 -293h-297z" />
    <glyph glyph-name="uni1EDE" unicode="&#x1ede;" horiz-adv-x="1695" 
d="M80 725q0 163 58.5 305.5t160 244.5t245 161t306.5 59q98 0 202 -20.5t150 -20.5q88 0 125 46t37 149h262q0 -294 -235 -365q107 -104 166 -247t59 -308q0 -163 -58.5 -305.5t-160 -244.5t-245 -161t-306.5 -59q-162 0 -304 58t-243.5 159.5t-160 244t-58.5 304.5z
M449 727q0 -191 113 -315.5t286 -124.5t286 124.5t113 315.5t-113 315.5t-286 124.5t-286 -124.5t-113 -315.5zM729 1831l-88 119q89 63 242 63q113 0 175 -48.5t62 -137.5q0 -78 -71.5 -142t-200.5 -86l-55 132q61 14 82 35.5t18 52.5q-2 18 -19.5 30.5t-46.5 12.5
q-46 0 -98 -31z" />
    <glyph glyph-name="uni1EDF" unicode="&#x1edf;" horiz-adv-x="1298" 
d="M68 543q0 162 75.5 294.5t210 208.5t299.5 76q73 0 141 -15t101 -15q88 0 125 45.5t37 148.5h262q0 -285 -223 -362q135 -158 135 -377q0 -162 -76 -294.5t-210.5 -208t-299.5 -75.5q-247 0 -412 164t-165 410zM408 545q0 -117 69 -196t172 -79t172.5 79t69.5 196
q0 119 -69.5 197.5t-172.5 78.5t-172 -78.5t-69 -197.5zM530 1470l-88 119q90 64 242 64q113 0 175.5 -49t62.5 -138q0 -78 -72 -141.5t-201 -85.5l-55 131q61 14 82 35.5t18 52.5q-2 18 -19 30.5t-46 12.5q-47 0 -99 -31z" />
    <glyph glyph-name="uni1EE0" unicode="&#x1ee0;" horiz-adv-x="1695" 
d="M846 -41q-162 0 -304 58t-243.5 159.5t-160 244t-58.5 304.5q0 163 58.5 305.5t160 244.5t245 161t306.5 59q98 0 202 -20.5t150 -20.5q88 0 125 46t37 149h262q0 -294 -235 -365q107 -104 166 -247t59 -308q0 -163 -58.5 -305.5t-160 -244.5t-245 -161t-306.5 -59z
M848 1167q-173 0 -286 -124.5t-113 -315.5t113 -315.5t286 -124.5t286 124.5t113 315.5t-113 315.5t-286 124.5zM700 1599h-231q11 126 76.5 201.5t165.5 75.5q52 0 93.5 -17t72.5 -34t57 -17q27 0 41 13t20 43h232q-11 -127 -76 -202t-166 -75q-52 0 -93.5 17t-72.5 34
t-57 17q-27 0 -41.5 -13t-20.5 -43z" />
    <glyph glyph-name="uni1EE1" unicode="&#x1ee1;" horiz-adv-x="1298" 
d="M645 -31q-247 0 -412 164t-165 410q0 162 75.5 294.5t210 208.5t299.5 76q73 0 141 -15t101 -15q88 0 125 45.5t37 148.5h262q0 -285 -223 -362q135 -158 135 -377q0 -162 -76 -294.5t-210.5 -208t-299.5 -75.5zM408 545q0 -117 69 -196t172 -79t172.5 79t69.5 196
q0 119 -69.5 197.5t-172.5 78.5t-172 -78.5t-69 -197.5zM274 1251q11 126 76.5 201.5t165.5 75.5q52 0 93.5 -17t72.5 -34t57 -17q27 0 41.5 13t20.5 43h231q-11 -127 -75.5 -202t-165.5 -75q-52 0 -94 17t-73 34t-57 17q-27 0 -41 -13t-20 -43h-232z" />
    <glyph glyph-name="uni1EE2" unicode="&#x1ee2;" horiz-adv-x="1695" 
d="M80 725q0 163 58.5 305.5t160 244.5t245 161t306.5 59q98 0 202 -20.5t150 -20.5q88 0 125 46t37 149h262q0 -294 -235 -365q107 -104 166 -247t59 -308q0 -163 -58.5 -305.5t-160 -244.5t-245 -161t-306.5 -59q-162 0 -304 58t-243.5 159.5t-160 244t-58.5 304.5z
M449 727q0 -191 113 -315.5t286 -124.5t286 124.5t113 315.5t-113 315.5t-286 124.5t-286 -124.5t-113 -315.5zM674 -377q0 71 49.5 119.5t124.5 48.5q77 0 127.5 -48.5t50.5 -119.5q0 -70 -50.5 -119t-127.5 -49q-74 0 -124 49t-50 119z" />
    <glyph glyph-name="uni1EE3" unicode="&#x1ee3;" horiz-adv-x="1298" 
d="M68 543q0 162 75.5 294.5t210 208.5t299.5 76q73 0 141 -15t101 -15q88 0 125 45.5t37 148.5h262q0 -285 -223 -362q135 -158 135 -377q0 -162 -76 -294.5t-210.5 -208t-299.5 -75.5q-247 0 -412 164t-165 410zM408 545q0 -117 69 -196t172 -79t172.5 79t69.5 196
q0 119 -69.5 197.5t-172.5 78.5t-172 -78.5t-69 -197.5zM475 -377q0 71 49.5 119.5t124.5 48.5q77 0 127.5 -48.5t50.5 -119.5q0 -70 -50.5 -119t-127.5 -49q-74 0 -124 49t-50 119z" />
    <glyph glyph-name="uni1EE4" unicode="&#x1ee4;" horiz-adv-x="1515" 
d="M111 1454h356v-840q0 -151 78.5 -239t212.5 -88t212.5 88t78.5 239v840h356v-856q0 -290 -177.5 -464.5t-473.5 -174.5q-293 0 -468 174t-175 465v856zM584 -377q0 71 49.5 119.5t124.5 48.5q77 0 127.5 -48.5t50.5 -119.5q0 -70 -50.5 -119t-127.5 -49q-74 0 -124 49
t-50 119z" />
    <glyph glyph-name="uni1EE5" unicode="&#x1ee5;" horiz-adv-x="1224" 
d="M104 1092h334v-607q0 -100 46 -157.5t128 -57.5t128 57.5t46 157.5v607h334v-600q0 -236 -139 -379.5t-371 -143.5q-229 0 -367.5 143t-138.5 380v600zM436 -377q0 71 49.5 119.5t124.5 48.5q77 0 127.5 -48.5t50.5 -119.5q0 -70 -50.5 -119t-127.5 -49q-74 0 -124 49
t-50 119z" />
    <glyph glyph-name="uni1EE6" unicode="&#x1ee6;" horiz-adv-x="1515" 
d="M111 1454h356v-840q0 -151 78.5 -239t212.5 -88t212.5 88t78.5 239v840h356v-856q0 -290 -177.5 -464.5t-473.5 -174.5q-293 0 -468 174t-175 465v856zM639 1831l-88 119q89 63 242 63q113 0 175 -48.5t62 -137.5q0 -78 -71.5 -142t-200.5 -86l-56 132q62 14 83 35.5
t18 52.5q-2 18 -19.5 30.5t-46.5 12.5q-46 0 -98 -31z" />
    <glyph glyph-name="uni1EE7" unicode="&#x1ee7;" horiz-adv-x="1224" 
d="M104 1092h334v-607q0 -100 46 -157.5t128 -57.5t128 57.5t46 157.5v607h334v-600q0 -236 -139 -379.5t-371 -143.5q-229 0 -367.5 143t-138.5 380v600zM494 1470l-88 119q90 64 241 64q113 0 175.5 -49t62.5 -138q0 -78 -72 -141.5t-201 -85.5l-55 131q61 14 82 35.5
t18 52.5q-2 18 -19 30.5t-46 12.5q-46 0 -98 -31z" />
    <glyph glyph-name="uni1EE8" unicode="&#x1ee8;" horiz-adv-x="1515" 
d="M111 598v856h356v-840q0 -151 78.5 -239t212.5 -88t212.5 88t78.5 239v840h186q78 4 111.5 50.5t33.5 144.5h262q0 -296 -237 -367v-684q0 -290 -177.5 -464.5t-473.5 -174.5q-293 0 -468 174t-175 465zM891 1599h-297l184 293h357z" />
    <glyph glyph-name="uni1EE9" unicode="&#x1ee9;" horiz-adv-x="1224" 
d="M104 492v600h334v-607q0 -100 46 -157.5t128 -57.5t128 57.5t46 157.5v607h160q79 4 112.5 50t33.5 144h262q0 -293 -234 -364v-430q0 -236 -139 -379.5t-371 -143.5q-229 0 -367.5 143t-138.5 380zM748 1239h-297l184 293h356z" />
    <glyph glyph-name="uni1EEA" unicode="&#x1eea;" horiz-adv-x="1515" 
d="M111 1454h356v-840q0 -151 78.5 -239t212.5 -88t212.5 88t78.5 239v840h186q78 4 111.5 50.5t33.5 144.5h262q0 -296 -237 -367v-684q0 -290 -177.5 -464.5t-473.5 -174.5q-293 0 -468 174t-175 465v856zM645 1599l-244 293h357l184 -293h-297z" />
    <glyph glyph-name="uni1EEB" unicode="&#x1eeb;" horiz-adv-x="1224" 
d="M104 1092h334v-607q0 -100 46 -157.5t128 -57.5t128 57.5t46 157.5v607h160q79 4 112.5 50t33.5 144h262q0 -293 -234 -364v-430q0 -236 -139 -379.5t-371 -143.5q-229 0 -367.5 143t-138.5 380v600zM494 1239l-244 293h356l185 -293h-297z" />
    <glyph glyph-name="uni1EEC" unicode="&#x1eec;" horiz-adv-x="1515" 
d="M754 -41q-293 0 -468 174t-175 465v856h356v-840q0 -151 78.5 -239t212.5 -88t212.5 88t78.5 239v840h186q78 4 111.5 50.5t33.5 144.5h262q0 -296 -237 -367v-684q0 -290 -177.5 -464.5t-473.5 -174.5zM551 1950q89 63 242 63q113 0 175 -48.5t62 -137.5
q0 -78 -71.5 -142t-200.5 -86l-56 132q62 14 83 35.5t18 52.5q-2 18 -19.5 30.5t-46.5 12.5q-46 0 -98 -31z" />
    <glyph glyph-name="uni1EED" unicode="&#x1eed;" horiz-adv-x="1224" 
d="M610 -31q-229 0 -367.5 143t-138.5 380v600h334v-607q0 -100 46 -157.5t128 -57.5t128 57.5t46 157.5v607h160q79 4 112.5 50t33.5 144h262q0 -293 -234 -364v-430q0 -236 -139 -379.5t-371 -143.5zM494 1470l-88 119q90 64 241 64q113 0 175.5 -49t62.5 -138
q0 -78 -72 -141.5t-201 -85.5l-55 131q61 14 82 35.5t18 52.5q-2 18 -19 30.5t-46 12.5q-46 0 -98 -31z" />
    <glyph glyph-name="uni1EEE" unicode="&#x1eee;" horiz-adv-x="1515" 
d="M111 1454h356v-840q0 -151 78.5 -239t212.5 -88t212.5 88t78.5 239v840h186q78 4 111.5 50.5t33.5 144.5h262q0 -296 -237 -367v-684q0 -290 -177.5 -464.5t-473.5 -174.5q-293 0 -468 174t-175 465v856zM612 1599h-231q11 126 76.5 201.5t165.5 75.5q52 0 93.5 -17
t72.5 -34t57 -17q27 0 41 13t20 43h232q-11 -127 -76 -202t-166 -75q-52 0 -93.5 17t-72.5 34t-57 17q-27 0 -41.5 -13t-20.5 -43z" />
    <glyph glyph-name="uni1EEF" unicode="&#x1eef;" horiz-adv-x="1224" 
d="M104 1092h334v-607q0 -100 46 -157.5t128 -57.5t128 57.5t46 157.5v607h160q79 4 112.5 50t33.5 144h262q0 -293 -234 -364v-430q0 -236 -139 -379.5t-371 -143.5q-229 0 -367.5 143t-138.5 380v600zM467 1251h-231q11 126 76 201.5t165 75.5q52 0 93.5 -17t72.5 -34
t57 -17q27 0 41.5 13t20.5 43h231q-11 -127 -75.5 -202t-165.5 -75q-52 0 -94 17t-73 34t-57 17q-27 0 -41 -13t-20 -43z" />
    <glyph glyph-name="uni1EF0" unicode="&#x1ef0;" horiz-adv-x="1515" 
d="M754 -41q-293 0 -468 174t-175 465v856h356v-840q0 -151 78.5 -239t212.5 -88t212.5 88t78.5 239v840h186q78 4 111.5 50.5t33.5 144.5h262q0 -296 -237 -367v-684q0 -290 -177.5 -464.5t-473.5 -174.5zM758 -545q-74 0 -124 49t-50 119q0 71 49.5 119.5t124.5 48.5
q77 0 127.5 -48.5t50.5 -119.5q0 -70 -50.5 -119t-127.5 -49z" />
    <glyph glyph-name="uni1EF1" unicode="&#x1ef1;" horiz-adv-x="1224" 
d="M104 1092h334v-607q0 -100 46 -157.5t128 -57.5t128 57.5t46 157.5v607h160q79 4 112.5 50t33.5 144h262q0 -293 -234 -364v-430q0 -236 -139 -379.5t-371 -143.5q-229 0 -367.5 143t-138.5 380v600zM436 -377q0 71 49.5 119.5t124.5 48.5q77 0 127.5 -48.5t50.5 -119.5
q0 -70 -50.5 -119t-127.5 -49q-74 0 -124 49t-50 119z" />
    <glyph glyph-name="Ygrave" unicode="&#x1ef2;" horiz-adv-x="1400" 
d="M522 559l-506 895h404l287 -563l286 563h391l-505 -895v-559h-357v559zM578 1599l-244 293h356l184 -293h-296z" />
    <glyph glyph-name="ygrave" unicode="&#x1ef3;" horiz-adv-x="1179" 
d="M453 16l-437 1076h367l225 -717l201 717h354l-434 -1170q-66 -177 -166 -260.5t-246 -83.5q-121 0 -213 51l60 256q58 -26 115 -26q54 0 93 33.5t72 105.5zM254 1532h356l185 -293h-297z" />
    <glyph glyph-name="uni1EF4" unicode="&#x1ef4;" horiz-adv-x="1400" 
d="M522 559l-506 895h404l287 -563l286 563h391l-505 -895v-559h-357v559zM700 -545q-74 0 -124 49t-50 119q0 71 49.5 119.5t124.5 48.5q77 0 128 -48.5t51 -119.5q0 -70 -51 -119t-128 -49z" />
    <glyph glyph-name="uni1EF5" unicode="&#x1ef5;" horiz-adv-x="1179" 
d="M16 1092h367l225 -717l201 717h354l-434 -1170q-66 -177 -166 -260.5t-246 -83.5q-121 0 -213 51l60 256q58 -26 115 -26q54 0 93 33.5t72 105.5l9 18zM973 -545q-74 0 -124 49t-50 119q0 71 49.5 119.5t124.5 48.5q77 0 127.5 -48.5t50.5 -119.5q0 -70 -50.5 -119
t-127.5 -49z" />
    <glyph glyph-name="uni1EF6" unicode="&#x1ef6;" horiz-adv-x="1400" 
d="M522 559l-506 895h404l287 -563l286 563h391l-505 -895v-559h-357v559zM494 1950q89 63 241 63q113 0 175.5 -48.5t62.5 -137.5q0 -78 -72 -142t-201 -86l-55 132q61 14 82 35.5t18 52.5q-2 18 -19 30.5t-46 12.5q-46 0 -98 -31z" />
    <glyph glyph-name="uni1EF7" unicode="&#x1ef7;" horiz-adv-x="1179" 
d="M16 1092h367l225 -717l201 717h354l-434 -1170q-66 -177 -166 -260.5t-246 -83.5q-121 0 -213 51l60 256q58 -26 115 -26q54 0 93 33.5t72 105.5l9 18zM471 1470l-88 119q90 64 242 64q113 0 175 -49t62 -138q0 -78 -71.5 -141.5t-200.5 -85.5l-55 131q61 14 82 35.5
t18 52.5q-2 18 -19.5 30.5t-46.5 12.5q-46 0 -98 -31z" />
    <glyph glyph-name="uni1EF8" unicode="&#x1ef8;" horiz-adv-x="1400" 
d="M522 559l-506 895h404l287 -563l286 563h391l-505 -895v-559h-357v559zM326 1599q11 126 76 201.5t165 75.5q52 0 94 -17t73 -34t57 -17q27 0 41 13t20 43h231q-11 -127 -75.5 -202t-165.5 -75q-52 0 -94 17t-73 34t-57 17q-27 0 -41 -13t-20 -43h-231z" />
    <glyph glyph-name="uni1EF9" unicode="&#x1ef9;" horiz-adv-x="1179" 
d="M453 16l-437 1076h367l225 -717l201 717h354l-434 -1170q-66 -177 -166 -260.5t-246 -83.5q-121 0 -213 51l60 256q58 -26 115 -26q54 0 93 33.5t72 105.5zM459 1251h-232q11 126 76.5 201.5t165.5 75.5q52 0 93.5 -17t72.5 -34t57 -17q27 0 41.5 13t20.5 43h231
q-11 -127 -76 -202t-166 -75q-52 0 -93.5 17t-72.5 34t-57 17q-27 0 -41 -13t-20 -43z" />
    <glyph glyph-name="uni2000" unicode="&#x2000;" horiz-adv-x="1024" 
 />
    <glyph glyph-name="uni2001" unicode="&#x2001;" horiz-adv-x="2048" 
 />
    <glyph glyph-name="uni2002" unicode="&#x2002;" horiz-adv-x="1024" 
 />
    <glyph glyph-name="uni2003" unicode="&#x2003;" horiz-adv-x="2048" 
 />
    <glyph glyph-name="uni2004" unicode="&#x2004;" horiz-adv-x="681" 
 />
    <glyph glyph-name="uni2005" unicode="&#x2005;" horiz-adv-x="512" 
 />
    <glyph glyph-name="uni2006" unicode="&#x2006;" horiz-adv-x="339" 
 />
    <glyph glyph-name="uni2007" unicode="&#x2007;" 
 />
    <glyph glyph-name="uni2008" unicode="&#x2008;" horiz-adv-x="581" 
 />
    <glyph glyph-name="uni2009" unicode="&#x2009;" horiz-adv-x="409" 
 />
    <glyph glyph-name="uni200A" unicode="&#x200a;" horiz-adv-x="129" 
 />
    <glyph glyph-name="uni200B" unicode="&#x200b;" horiz-adv-x="0" 
 />
    <glyph glyph-name="endash" unicode="&#x2013;" horiz-adv-x="1024" 
d="M0 440v246h1024v-246h-1024z" />
    <glyph glyph-name="emdash" unicode="&#x2014;" horiz-adv-x="2048" 
d="M0 440v246h2048v-246h-2048z" />
    <glyph glyph-name="quoteleft" unicode="&#x2018;" horiz-adv-x="526" 
d="M283 821q-93 0 -158.5 79t-65.5 190q0 141 92.5 247t243.5 140l47 -160q-86 -22 -141 -74t-55 -115v-10q27 17 59 17q62 0 106 -45t44 -109q0 -66 -50.5 -113t-121.5 -47z" />
    <glyph glyph-name="quoteright" unicode="&#x2019;" horiz-adv-x="526" 
d="M72 1305q0 66 50.5 112.5t121.5 46.5q91 0 157 -79t66 -189q0 -141 -92 -247t-244 -140l-47 160q87 22 142 73.5t55 114.5v10q-26 -16 -60 -16q-62 0 -105.5 45t-43.5 109z" />
    <glyph glyph-name="quotesinglbase" unicode="&#x201a;" horiz-adv-x="538" 
d="M96 203q0 66 50.5 112.5t121.5 46.5q91 0 157.5 -79t66.5 -189q0 -141 -92 -247t-244 -140l-47 160q86 22 141 73.5t55 114.5v11q-27 -17 -59 -17q-62 0 -106 45t-44 109z" />
    <glyph glyph-name="quotedblleft" unicode="&#x201c;" horiz-adv-x="999" 
d="M756 821q-93 0 -158.5 79t-65.5 190q0 141 92.5 247t243.5 140l47 -160q-86 -22 -141 -74t-55 -115v-10q27 17 59 17q62 0 106 -45t44 -109q0 -66 -50.5 -113t-121.5 -47zM59 1090q0 141 92.5 247t243.5 140l47 -160q-86 -22 -141 -74t-55 -115v-10q27 17 59 17
q62 0 106 -45t44 -109q0 -66 -50.5 -113t-121.5 -47q-93 0 -158.5 79t-65.5 190z" />
    <glyph glyph-name="quotedblright" unicode="&#x201d;" horiz-adv-x="999" 
d="M694 1151q-62 0 -105.5 45t-43.5 109q0 66 50.5 112.5t121.5 46.5q91 0 157 -79t66 -189q0 -141 -92 -247t-244 -140l-47 160q87 22 142 73.5t55 114.5v10q-26 -16 -60 -16zM72 1305q0 66 50.5 112.5t121.5 46.5q91 0 157 -79t66 -189q0 -141 -92 -247t-244 -140l-47 160
q87 22 142 73.5t55 114.5v10q-26 -16 -60 -16q-62 0 -105.5 45t-43.5 109z" />
    <glyph glyph-name="quotedblbase" unicode="&#x201e;" horiz-adv-x="1013" 
d="M721 49q-62 0 -106 45t-44 109q0 66 50.5 112.5t121.5 46.5q91 0 157.5 -79t66.5 -189q0 -141 -92 -247t-244 -140l-47 160q86 22 141 73.5t55 114.5v11q-27 -17 -59 -17zM96 203q0 66 50.5 112.5t121.5 46.5q91 0 157.5 -79t66.5 -189q0 -141 -92 -247t-244 -140
l-47 160q86 22 141 73.5t55 114.5v11q-27 -17 -59 -17q-62 0 -106 45t-44 109z" />
    <glyph glyph-name="dagger" unicode="&#x2020;" horiz-adv-x="999" 
d="M61 1116h285v338h307v-338h285v-266h-285v-1018h-307v1018h-285v266z" />
    <glyph glyph-name="daggerdbl" unicode="&#x2021;" horiz-adv-x="1073" 
d="M98 446h285v404h-285v266h285v338h307v-338h285v-266h-285v-404h285v-266h-285v-348h-307v348h-285v266z" />
    <glyph glyph-name="bullet" unicode="&#x2022;" horiz-adv-x="696" 
d="M84 565q0 109 77.5 186.5t186.5 77.5t186.5 -77.5t77.5 -186.5q0 -112 -77 -188t-187 -76t-187 76t-77 188z" />
    <glyph glyph-name="ellipsis" unicode="&#x2026;" horiz-adv-x="1744" 
d="M1251 195q0 84 58.5 143t144.5 59t144.5 -59t58.5 -143t-58.5 -143.5t-144.5 -59.5t-144.5 59.5t-58.5 143.5zM872 -8q-85 0 -143.5 59.5t-58.5 143.5t58 143t144 59t144.5 -59t58.5 -143t-58.5 -143.5t-144.5 -59.5zM88 195q0 84 58.5 143t144.5 59t144.5 -59t58.5 -143
t-58.5 -143.5t-144.5 -59.5t-144.5 59.5t-58.5 143.5z" />
    <glyph glyph-name="perthousand" unicode="&#x2030;" horiz-adv-x="2334" 
d="M401 782q-143 0 -240.5 92.5t-97.5 231.5t97.5 232.5t240.5 93.5t240.5 -92.5t97.5 -231.5t-97.5 -232.5t-240.5 -93.5zM836 305q0 139 97.5 232.5t240.5 93.5t240 -92.5t97 -231.5t-97 -232t-240 -93t-240.5 92t-97.5 231zM1933 -18q-143 0 -240.5 92t-97.5 231
t97.5 232.5t240.5 93.5t240.5 -92.5t97.5 -231.5t-97.5 -232t-240.5 -93zM477 0h-262l883 1413h262zM1174 430q-47 0 -77 -35.5t-30 -89.5t30 -89.5t77 -35.5t76.5 35.5t29.5 89.5t-29.5 89.5t-76.5 35.5zM1827 305q0 -54 30.5 -89.5t75.5 -35.5t76 36t31 89t-31 89t-76 36
t-75.5 -35.5t-30.5 -89.5zM401 1231q-45 0 -75.5 -35.5t-30.5 -89.5t30.5 -89.5t75.5 -35.5t76 36t31 89t-31 89t-76 36z" />
    <glyph glyph-name="guilsinglleft" unicode="&#x2039;" horiz-adv-x="663" 
d="M311 186l-270 398l270 397h281l-260 -397l260 -398h-281z" />
    <glyph glyph-name="guilsinglright" unicode="&#x203a;" horiz-adv-x="663" 
d="M72 186l260 398l-260 397h280l271 -397l-271 -398h-280z" />
    <glyph glyph-name="fraction" unicode="&#x2044;" horiz-adv-x="188" 
d="M-479 0l901 1413h246l-901 -1413h-246z" />
    <glyph glyph-name="uni2080" unicode="&#x2080;" horiz-adv-x="739" 
d="M51 385q0 190 86 299t236 109q145 0 229 -109t84 -295q0 -189 -87 -298t-234 -109q-145 0 -229.5 108.5t-84.5 294.5zM279 387q0 -203 90 -203t90 203t-90 203t-90 -203z" />
    <glyph glyph-name="uni2081" unicode="&#x2081;" horiz-adv-x="739" 
d="M307 0v547l-147 -80l-66 182l240 129h198v-778h-225z" />
    <glyph glyph-name="uni2082" unicode="&#x2082;" horiz-adv-x="739" 
d="M70 553q19 105 102.5 172.5t198.5 67.5q121 0 201.5 -72t80.5 -180q0 -172 -247 -351h262v-190h-586v152q344 258 344 372q0 33 -19 54.5t-51 21.5q-30 0 -52 -20.5t-28 -55.5z" />
    <glyph glyph-name="uni2083" unicode="&#x2083;" horiz-adv-x="739" 
d="M360 -18q-119 0 -202 60t-105 157l203 30q8 -27 33 -43t61 -16q40 0 64 20t24 50q0 29 -23 47t-61 18h-78v176h64q40 0 62 17.5t22 44.5q0 26 -21.5 43.5t-52.5 17.5q-27 0 -49 -14.5t-29 -40.5l-204 33q19 95 100 153t197 58q122 0 199 -61t77 -159q0 -117 -109 -170
q62 -25 96 -72t34 -110q0 -104 -86 -171.5t-216 -67.5z" />
    <glyph glyph-name="uni2084" unicode="&#x2084;" horiz-adv-x="739" 
d="M33 143v168l309 467h254v-463h76v-172h-76v-143h-215v143h-348zM227 315h154v230z" />
    <glyph glyph-name="colonmonetary" unicode="&#x20a1;" 
d="M313 84q-113 88 -173 244t-60 364q0 300 122 494t335 237l41 246h161l-41 -237q50 -3 103 -19l43 256h162l-56 -328q152 -115 203 -335l-332 -50q-49 172 -176 172q-104 0 -161.5 -110.5t-57.5 -319.5q0 -203 56 -308t161 -105q68 0 116.5 46t67.5 126l332 -49
q-39 -180 -154 -288.5t-282 -133.5l-45 -273h-162l45 271q-49 6 -100 22l-49 -293h-162z" />
    <glyph glyph-name="uni20A8" unicode="&#x20a8;" horiz-adv-x="2254" 
d="M115 0v1413h465q259 0 409 -124.5t150 -338.5q0 -118 -61 -223.5t-163 -167.5l308 -559h-373l-229 465q-18 -2 -60 -2q-55 0 -110 8v-471h-336zM1729 -31q-175 0 -304.5 82t-169.5 219l297 56q19 -47 67.5 -76t111.5 -29t101 25.5t38 66.5q0 39 -38 61.5t-130 37.5l-49 8
q-178 29 -273.5 117t-95.5 223q0 160 122 261t314 101q169 0 289.5 -79t157.5 -214l-295 -55q-19 45 -59 70.5t-93 25.5q-57 0 -91 -24t-34 -62q0 -36 34 -55.5t130 -36.5l49 -8q183 -31 279 -118t96 -222q0 -166 -126 -270.5t-328 -104.5zM451 1122v-362q61 -12 131 -12
q104 0 161.5 50.5t57.5 141.5q0 88 -57.5 135t-163.5 47h-129z" />
    <glyph glyph-name="uni20A9" unicode="&#x20a9;" horiz-adv-x="1996" 
d="M61 731v195h168l-125 487h361l182 -981l205 981h305l207 -981l180 981h348l-125 -487h168v-195h-217l-35 -135h252v-195h-301l-102 -401h-338l-195 909l-192 -909h-342l-103 401h-301v195h252l-34 135h-218z" />
    <glyph glyph-name="uni20AA" unicode="&#x20aa;" horiz-adv-x="1910" 
d="M139 1413h647q245 0 391 -151t146 -404v-395h-283v381q0 123 -69.5 187.5t-202.5 64.5h-346v-1096h-283v1413zM1237 0h-649v940h282v-623h349q133 0 202.5 64.5t69.5 187.5v844h283v-858q0 -253 -146 -404t-391 -151z" />
    <glyph glyph-name="dong" unicode="&#x20ab;" 
d="M467 -31q-124 0 -226 68.5t-160 188t-58 263.5q0 148 60.5 270.5t167 192.5t236.5 70q173 0 271 -127v209h-250v194h250v115h334v-115h120v-194h-120v-1104h-310l-8 137q-50 -79 -130.5 -123.5t-176.5 -44.5zM1153 -324h-1112v195h1112v-195zM561 735q-86 0 -142.5 -68
t-56.5 -171t56.5 -171.5t142.5 -68.5t142.5 68.5t56.5 171.5t-56.5 171t-142.5 68z" />
    <glyph glyph-name="Euro" unicode="&#x20ac;" 
d="M-8 473l43 174h106v35q0 49 2 74h-147l43 174h125q50 244 190.5 379t350.5 135q184 0 312.5 -102t168.5 -281l-309 -51q-20 66 -67 101.5t-110 35.5q-151 0 -202 -217h368l-43 -174h-346q-2 -18 -2 -60v-49h328l-43 -174h-264q47 -207 200 -207q67 0 118 37t71 100
l309 -51q-40 -176 -176 -279.5t-326 -103.5q-216 0 -354.5 131t-179.5 373h-166z" />
    <glyph glyph-name="uni20AD" unicode="&#x20ad;" 
d="M-10 864h145v549h342v-596l344 596h369l-354 -549h280v-250h-256l404 -614h-410l-377 668v-668h-342v614h-145v250z" />
    <glyph glyph-name="uni20B1" unicode="&#x20b1;" 
d="M178 645h-155v195h155v137h-153v194h153v242h395q166 0 286.5 -63t182.5 -179h175v-194h-119q2 -18 2 -55q0 -41 -6 -82h123v-195h-187q-63 -109 -177.5 -169t-262.5 -60q-28 0 -82 4v-420h-330v645zM565 1114h-57v-393q32 -4 45 -4q105 0 161 51.5t56 149.5
q0 96 -53 146t-152 50z" />
    <glyph glyph-name="uni20B9" unicode="&#x20b9;" 
d="M158 1186v227h975l-60 -227h-184q52 -61 76 -144h168l-60 -227h-100q-26 -134 -120.5 -227t-236.5 -129l514 -459h-448l-522 469h-2v213q97 -23 202 -23q212 0 265 156h-467v227h465q-55 144 -238 144h-227z" />
    <glyph glyph-name="uni20BA" unicode="&#x20ba;" 
d="M96 340v207l140 67v142l-138 -66v207l138 66v450h335v-289l222 107v-207l-222 -106v-144l222 107v-207l-222 -107v-260q117 12 188 90t91 217l317 -26q-89 -588 -686 -588h-245v408z" />
    <glyph glyph-name="trademark" unicode="&#x2122;" horiz-adv-x="1654" 
d="M762 735v719h223l170 -352l168 352h219v-719h-211v387l-108 -237h-142l-108 237v-387h-211zM248 1262h-193v192h607v-192h-193v-527h-221v527z" />
    <glyph glyph-name="minus" unicode="&#x2212;" 
d="M176 420v287h879v-287h-879z" />
    <glyph glyph-name="uniFEFF" unicode="&#xfeff;" horiz-adv-x="0" 
 />
    <glyph glyph-name="uniFFFD" unicode="&#xfffd;" horiz-adv-x="1654" 
d="M827 -70l-796 797l796 797l797 -797zM827 1147q-122 0 -208.5 -62.5t-108.5 -164.5l188 -41q13 42 45.5 66t75.5 24q45 0 75 -27.5t30 -69.5q0 -105 -205 -157v-185h192v95q106 32 164 101t58 161q0 113 -86 186.5t-220 73.5zM698 344q0 -50 34 -84.5t83 -34.5
q47 0 83 36t36 83q0 51 -34.5 85t-84.5 34t-83.5 -34t-33.5 -85z" />
    <glyph glyph-name="zero.tnum" 
d="M63 705q0 341 149.5 540t405.5 199q253 0 401 -198t148 -537q0 -341 -149.5 -540.5t-405.5 -199.5q-253 0 -401 198.5t-148 537.5zM410 707q0 -206 52.5 -315t151.5 -109q100 0 153.5 109t53.5 315t-53.5 314.5t-153.5 108.5q-99 0 -151.5 -108.5t-52.5 -314.5z" />
    <glyph glyph-name="one.tnum" 
d="M539 0v1055l-269 -150l-106 283l420 225h295v-1413h-340z" />
    <glyph glyph-name="two.tnum" 
d="M94 1028q37 186 179.5 301t338.5 115q210 0 348 -132t138 -329q0 -81 -32.5 -164.5t-76.5 -148.5t-118 -141.5t-125.5 -121.5t-131.5 -110h508v-297h-1009v242q298 253 387 338q133 127 192.5 218t59.5 177q0 74 -44 118t-114 44q-67 0 -114 -42.5t-64 -117.5z" />
    <glyph glyph-name="three.tnum" 
d="M78 356l313 52q23 -67 77 -104.5t128 -37.5q83 0 136.5 43.5t53.5 112.5t-53.5 112.5t-136.5 43.5h-147v286h129q81 0 131.5 41t50.5 105q0 61 -44.5 99t-113.5 38q-67 0 -115.5 -36t-68.5 -103l-316 51q32 172 175 278.5t344 106.5q205 0 339 -110t134 -285
q0 -102 -49 -181t-142 -129q108 -41 167.5 -128t59.5 -203q0 -192 -148 -315.5t-376 -123.5q-199 0 -342.5 102t-185.5 285z" />
    <glyph glyph-name="four.tnum" 
d="M51 272v273l582 868h383v-858h149v-283h-149v-272h-330v272h-635zM362 555h324v479z" />
    <glyph glyph-name="five.tnum" 
d="M614 -31q-195 0 -335 105t-177 278l320 45q20 -62 70.5 -96.5t117.5 -34.5q84 0 138.5 51t54.5 129q0 79 -54.5 132t-134.5 53q-49 0 -96 -18.5t-78 -49.5l-268 27v823h868v-301h-544v-252q80 53 192 53q197 0 327 -131.5t130 -328.5q0 -208 -153 -346t-378 -138z" />
    <glyph glyph-name="six.tnum" 
d="M653 -31q-262 0 -423.5 190t-161.5 498q0 230 83.5 409t236.5 278.5t351 99.5q187 0 346 -90l-79 -279q-44 26 -114 44t-132 18q-141 0 -234.5 -96t-115.5 -265q104 139 303 139q196 0 328.5 -131.5t132.5 -326.5q0 -135 -69 -247t-189 -176.5t-263 -64.5zM449 451
q0 -83 55 -139t135 -56t136 56t56 139q0 85 -53.5 138.5t-138.5 53.5q-81 0 -135.5 -54t-54.5 -138z" />
    <glyph glyph-name="seven.tnum" 
d="M256 0l471 1102h-627v311h1008v-256l-473 -1157h-379z" />
    <glyph glyph-name="eight.tnum" 
d="M610 -31q-240 0 -391 116.5t-151 307.5q0 118 61 210t170 136q-90 47 -138 125.5t-48 177.5q0 177 142.5 289.5t362.5 112.5q218 0 358 -110.5t140 -286.5q0 -100 -48 -179.5t-138 -126.5q108 -43 169.5 -132.5t61.5 -209.5q0 -191 -153.5 -310.5t-397.5 -119.5zM614 584
q-92 0 -150 -47t-58 -119t58 -117t150 -45t150.5 45t58.5 117t-58.5 119t-150.5 47zM440 1010q0 -65 49.5 -107.5t124.5 -42.5t124.5 42.5t49.5 107.5q0 63 -49.5 105t-124.5 42t-124.5 -42t-49.5 -105z" />
    <glyph glyph-name="nine.tnum" 
d="M59 954q0 208 151 349t370 141q265 0 425 -190.5t160 -518.5q0 -176 -49 -320t-137.5 -241.5t-213 -151t-273.5 -53.5q-196 0 -355 90l80 279q45 -26 115.5 -44t140.5 -18q310 0 350 359q-51 -64 -130 -100.5t-175 -36.5q-193 0 -326 132t-133 324zM594 1157
q-80 0 -136.5 -56t-56.5 -138q0 -85 54 -139t137 -54q82 0 137 54.5t55 138.5q0 83 -55 138.5t-135 55.5z" />
    <glyph glyph-name="hyphen.case" horiz-adv-x="761" 
d="M88 608v287h586v-287h-586z" />
    <glyph glyph-name="endash.case" horiz-adv-x="1024" 
d="M0 629v245h1024v-245h-1024z" />
    <glyph glyph-name="emdash.case" horiz-adv-x="2048" 
d="M0 629v245h2048v-245h-2048z" />
    <glyph glyph-name="parenleft.case" horiz-adv-x="755" 
d="M416 -240q-161 220 -245.5 467t-84.5 500t84.5 500t245.5 467h315q-338 -468 -338 -967t338 -967h-315z" />
    <glyph glyph-name="parenright.case" horiz-adv-x="755" 
d="M340 -240h-315q337 467 337 967t-337 967h315q163 -218 246.5 -464.5t83.5 -502.5t-83.5 -502.5t-246.5 -464.5z" />
    <glyph glyph-name="slash.case" horiz-adv-x="1011" 
d="M12 -178l682 1810h305l-682 -1810h-305z" />
    <glyph glyph-name="backslash.case" horiz-adv-x="1011" 
d="M694 -178l-682 1810h305l682 -1810h-305z" />
    <glyph glyph-name="bracketleft.case" horiz-adv-x="780" 
d="M143 1694h555v-256h-260v-1422h260v-256h-555v1934z" />
    <glyph glyph-name="bracketright.case" horiz-adv-x="780" 
d="M342 1438h-260v256h555v-1934h-555v256h260v1422z" />
    <glyph glyph-name="braceleft.case" horiz-adv-x="815" 
d="M61 606v242h31q63 0 97 32.5t34 92.5q0 27 -15 141.5t-15 185.5q0 190 114 292t332 102h94v-256h-67q-88 0 -130 -44.5t-42 -136.5q0 -44 15 -144.5t15 -139.5q0 -84 -41.5 -154t-103.5 -92q62 -22 103.5 -92t41.5 -154q0 -39 -15 -139.5t-15 -144.5q0 -92 42 -136.5
t130 -44.5h67v-256h-94q-218 0 -332 102t-114 292q0 71 15 185.5t15 141.5q0 60 -34 92.5t-97 32.5h-31z" />
    <glyph glyph-name="braceright.case" horiz-adv-x="815" 
d="M176 -240h-94v256h68q88 0 130 44.5t42 136.5q0 44 -15.5 144.5t-15.5 139.5q0 84 41.5 154t103.5 92q-62 22 -103.5 92t-41.5 154q0 39 15.5 139.5t15.5 144.5q0 92 -42 136.5t-130 44.5h-68v256h94q218 0 332.5 -102t114.5 -292q0 -71 -15.5 -185.5t-15.5 -141.5
q0 -60 34 -92.5t97 -32.5h31v-242h-31q-63 0 -97 -32.5t-34 -92.5q0 -27 15.5 -141.5t15.5 -185.5q0 -190 -114.5 -292t-332.5 -102z" />
    <glyph glyph-name="bullet.case" horiz-adv-x="696" 
d="M84 748q0 109 77.5 186.5t186.5 77.5t186.5 -77.5t77.5 -186.5q0 -112 -77 -188.5t-187 -76.5t-187 76.5t-77 188.5z" />
    <glyph glyph-name="guilsinglleft.case" horiz-adv-x="663" 
d="M311 330l-270 397l270 397h281l-260 -397l260 -397h-281z" />
    <glyph glyph-name="guilsinglright.case" horiz-adv-x="663" 
d="M72 330l260 397l-260 397h280l271 -397l-271 -397h-280z" />
    <glyph glyph-name="guillemotleft.case" horiz-adv-x="1142" 
d="M791 330l-271 397l271 397h280l-260 -397l260 -397h-280zM41 727l270 397h281l-260 -397l260 -397h-281z" />
    <glyph glyph-name="guillemotright.case" horiz-adv-x="1142" 
d="M811 727l-260 397h280l271 -397l-271 -397h-280zM72 330l260 397l-260 397h280l271 -397l-271 -397h-280z" />
    <glyph glyph-name="at.case" horiz-adv-x="2086" 
d="M80 719q0 200 75 376.5t205.5 301.5t313 197.5t389.5 72.5q265 0 481 -112t339.5 -311.5t123.5 -446.5q0 -243 -116.5 -388t-315.5 -145q-108 0 -184 44t-113 126q-43 -82 -119.5 -127t-173.5 -45q-180 0 -301 134t-121 331q0 196 121.5 333.5t294.5 137.5
q84 0 152.5 -36.5t111.5 -102.5l6 117h260v-576q0 -51 24 -82t62 -31q68 0 111 86.5t43 217.5q0 140 -51.5 259.5t-141 203.5t-215.5 131t-272 47q-155 0 -290 -53.5t-230.5 -147t-150 -225t-54.5 -283.5q0 -199 91 -360.5t251 -253t358 -91.5q223 0 418 103l103 -207
q-216 -131 -516 -131q-206 0 -386.5 72t-308 196t-201 297.5t-73.5 370.5zM848 729q0 -91 53.5 -151t136.5 -60q82 0 137.5 60.5t55.5 150.5q0 92 -55.5 152.5t-137.5 60.5q-83 0 -136.5 -60t-53.5 -153z" />
    <glyph glyph-name="periodcentered.case" horiz-adv-x="581" 
d="M88 774q0 84 58.5 143.5t144.5 59.5t144.5 -59.5t58.5 -143.5t-58.5 -143.5t-144.5 -59.5t-144.5 59.5t-58.5 143.5z" />
    <glyph glyph-name="exclamdown.case" horiz-adv-x="565" 
d="M463 0h-361l21 975h319zM283 1073q-82 0 -138.5 56t-56.5 139t56.5 138.5t138.5 55.5t138 -55.5t56 -138.5t-56 -139t-138 -56z" />
    <glyph glyph-name="questiondown.case" horiz-adv-x="1134" 
d="M571 -31q-221 0 -363 120.5t-142 309.5q0 150 96.5 263.5t265.5 166.5v146h320v-307q-334 -81 -334 -252q0 -66 46.5 -108t119.5 -42q69 0 121 38t75 104l318 -66q-37 -166 -180.5 -269.5t-342.5 -103.5zM393 1268q0 83 56 138.5t139 55.5t138.5 -55.5t55.5 -138.5
t-55.5 -139t-138.5 -56t-139 56t-56 139z" />
    <glyph glyph-name="a.ss01" horiz-adv-x="1325" 
d="M68 539q0 163 67.5 296.5t185.5 210t261 76.5q103 0 185.5 -43.5t137.5 -124.5l8 138h308v-1092h-308l-10 156q-56 -87 -146.5 -137t-197.5 -50q-136 0 -249 75.5t-177.5 206.5t-64.5 288zM408 547q0 -120 69 -198.5t172 -78.5t172.5 79t69.5 198q0 118 -69.5 196
t-172.5 78t-172 -78t-69 -196z" />
    <glyph glyph-name="ordfeminine.ss01" horiz-adv-x="985" 
d="M408 625q-148 0 -248.5 114t-100.5 285q0 177 102.5 293.5t256.5 116.5q141 0 227 -121l6 100h236v-770h-236l-8 111q-85 -129 -235 -129zM477 1204q-68 0 -113 -51t-45 -125q0 -75 44.5 -124.5t113.5 -49.5q68 0 113 49.5t45 124.5q0 74 -45.5 125t-112.5 51z" />
    <glyph glyph-name="periodcentered.locl" horiz-adv-x="282" 
d="M-23 776q0 68 48.5 117t115.5 49t115.5 -49t48.5 -117t-48.5 -117t-115.5 -49t-115.5 49t-48.5 117z" />
    <glyph glyph-name="_200" horiz-adv-x="0" 
d="M-449 836q0 75 52 126.5t127 51.5t126.5 -51.5t51.5 -126.5t-51.5 -127t-126.5 -52t-127 52t-52 127z" />
    <glyph glyph-name="_205" 
d="M492 39q-176 0 -282 125t-106 338v590h334v-543q0 -97 44 -153t122 -56q84 0 136.5 57t52.5 146v549h333v-973q0 -244 -146.5 -392.5t-383.5 -148.5q-166 0 -295.5 81t-185.5 218l321 72q26 -47 69 -71.5t95 -24.5q88 0 140.5 63.5t52.5 167.5v104q-107 -149 -301 -149z
" />
    <glyph glyph-name="ae.ss01" horiz-adv-x="1988" 
d="M547 -31q-132 0 -242 75.5t-173.5 206.5t-63.5 288q0 247 144.5 415t356.5 168q102 0 183 -48t131 -136l10 154h244l8 -121q125 151 321 151q210 0 337.5 -163t127.5 -427v-73h-733q19 -100 75.5 -154.5t143.5 -54.5q123 0 189 106l305 -80q-49 -136 -175.5 -221.5
t-277.5 -85.5q-191 0 -313 146l-8 -115h-244l-12 174q-50 -97 -137.5 -151t-196.5 -54zM639 821q-98 0 -164.5 -78.5t-66.5 -195.5q0 -120 65.5 -198.5t165.5 -78.5t165.5 78.5t65.5 198.5q0 117 -66.5 195.5t-164.5 78.5zM1198 672h389q-13 96 -63.5 148t-128.5 52
t-129 -51.5t-68 -148.5z" />
    <glyph glyph-name="_234" horiz-adv-x="0" 
d="M-82 -494q-76 0 -184 33l30 174q70 -20 105 -20q41 0 64.5 16t23.5 45t-32 46.5t-89 17.5l76 202h213l-39 -110q63 -23 100 -73t37 -111q0 -95 -85.5 -157.5t-219.5 -62.5z" />
    <glyph glyph-name="_237" horiz-adv-x="0" 
d="M-43 -375q-52 0 -88.5 34.5t-36.5 88.5q0 57 45 95t111 38q78 0 129 -51.5t51 -128.5q0 -98 -66 -174.5t-180 -108.5l-47 121q103 35 123 94q-13 -8 -41 -8z" />
    <glyph glyph-name="_240" horiz-adv-x="0" 
d="M-436 -270q0 155 262 323l174 -53q-91 -73 -131.5 -121t-40.5 -84q0 -29 20.5 -46t55.5 -17q45 0 90 18l22 -184q-98 -37 -184 -37q-124 0 -196 54t-72 147z" />
    <glyph glyph-name="_241" horiz-adv-x="0" 
d="M-428 -262q0 159 264 340l199 39q-110 -112 -158.5 -184t-48.5 -123q0 -78 82 -78q39 0 84 18l22 -176q-87 -37 -180 -37q-120 0 -192 55.5t-72 145.5z" />
    <glyph glyph-name="_242" horiz-adv-x="0" 
d="M-436 -266q0 161 264 348l207 39q-207 -207 -207 -311q0 -36 21 -57t59 -21q41 0 86 18l22 -184q-90 -37 -184 -37q-122 0 -195 56t-73 149z" />
    <glyph glyph-name="aogonek.ss01" horiz-adv-x="1325" 
d="M559 -31q-136 0 -249 75.5t-177.5 206.5t-64.5 288q0 163 67.5 296.5t185.5 210t261 76.5q103 0 185.5 -43.5t137.5 -124.5l8 138h308v-1092q-91 -73 -131.5 -121t-40.5 -84q0 -30 20.5 -46.5t58.5 -16.5q45 0 86 18l23 -176q-81 -37 -180 -37q-122 0 -193 53t-71 140
q0 131 188 270h-68l-10 156q-56 -87 -146.5 -137t-197.5 -50zM408 547q0 -120 69 -198.5t172 -78.5t172.5 79t69.5 198q0 118 -69.5 196t-172.5 78t-172 -78t-69 -196z" />
    <glyph glyph-name="_270" horiz-adv-x="0" 
d="M-252 1602l285 282h413l-358 -282h-340z" />
    <glyph glyph-name="_273" horiz-adv-x="0" 
d="M348 1602h-315l270 282h389zM-160 1602h-315l270 282h389z" />
    <glyph glyph-name="Iacute_J_acutecomb" horiz-adv-x="1466" 
d="M739 -41q-236 0 -399 118.5t-225 334.5l344 55q32 -86 100.5 -133t161.5 -47q129 0 203.5 86t74.5 235v846h357v-848q0 -293 -169 -470t-448 -177zM111 641v813h356v-813h-356zM926 1602l284 282h414l-358 -282h-340zM37 1602l285 282h413l-358 -282h-340z" />
    <glyph glyph-name="iacute_j_acutecomb" 
d="M104 1092h334v-543q0 -97 44 -153t122 -56q84 0 136.5 57t52.5 146v549h333v-973q0 -244 -146.5 -392.5t-383.5 -148.5q-166 0 -295.5 81t-185.5 218l321 72q26 -47 69 -71.5t95 -24.5q88 0 140.5 63.5t52.5 167.5v104q-107 -149 -301 -149q-176 0 -282 125t-106 338v590
zM748 1239l184 293h356l-244 -293h-296zM356 1239h-297l185 293h356z" />
    <glyph glyph-name="aacute.ss01" horiz-adv-x="1325" 
d="M559 -31q-136 0 -249 75.5t-177.5 206.5t-64.5 288q0 163 67.5 296.5t185.5 210t261 76.5q103 0 185.5 -43.5t137.5 -124.5l8 138h308v-1092h-308l-10 156q-56 -87 -146.5 -137t-197.5 -50zM408 547q0 -120 69 -198.5t172 -78.5t172.5 79t69.5 198q0 118 -69.5 196
t-172.5 78t-172 -78t-69 -196zM469 1239l184 293h357l-244 -293h-297z" />
    <glyph glyph-name="_309" horiz-adv-x="0" 
d="M-88 1602l-358 282h413l285 -282h-340z" />
    <glyph glyph-name="agrave.ss01" horiz-adv-x="1325" 
d="M559 -31q-136 0 -249 75.5t-177.5 206.5t-64.5 288q0 163 67.5 296.5t185.5 210t261 76.5q103 0 185.5 -43.5t137.5 -124.5l8 138h308v-1092h-308l-10 156q-56 -87 -146.5 -137t-197.5 -50zM649 821q-103 0 -172 -78t-69 -196q0 -120 69 -198.5t172 -78.5t172.5 79
t69.5 198q0 118 -69.5 196t-172.5 78zM532 1239l-243 293h356l184 -293h-297z" />
    <glyph glyph-name="_328" horiz-adv-x="0" 
d="M-463 1602l305 282h318l305 -282h-326l-141 116l-145 -116h-316z" />
    <glyph glyph-name="_331" horiz-adv-x="0" 
d="M-213 1604h-205q12 141 86 225t185 84q59 0 112.5 -25.5t96 -50.5t73.5 -25t52.5 23.5t27.5 65.5h205q-12 -142 -85 -226t-185 -84q-58 0 -113 25.5t-98 50.5t-72 25q-31 0 -52.5 -23t-27.5 -65z" />
    <glyph glyph-name="acircumflex.ss01" horiz-adv-x="1325" 
d="M559 -31q-136 0 -249 75.5t-177.5 206.5t-64.5 288q0 163 67.5 296.5t185.5 210t261 76.5q103 0 185.5 -43.5t137.5 -124.5l8 138h308v-1092h-308l-10 156q-56 -87 -146.5 -137t-197.5 -50zM649 821q-103 0 -172 -78t-69 -196q0 -120 69 -198.5t172 -78.5t172.5 79
t69.5 198q0 118 -69.5 196t-172.5 78zM543 1239h-281l238 293h321l238 -293h-291l-111 115z" />
    <glyph glyph-name="atilde.ss01" horiz-adv-x="1325" 
d="M559 -31q-136 0 -249 75.5t-177.5 206.5t-64.5 288q0 163 67.5 296.5t185.5 210t261 76.5q103 0 185.5 -43.5t137.5 -124.5l8 138h308v-1092h-308l-10 156q-56 -87 -146.5 -137t-197.5 -50zM408 547q0 -120 69 -198.5t172 -78.5t172.5 79t69.5 198q0 118 -69.5 196
t-172.5 78t-172 -78t-69 -196zM299 1251q11 126 76.5 201.5t165.5 75.5q52 0 93.5 -17t72.5 -34t57 -17q27 0 41 13t20 43h232q-11 -127 -76 -202t-166 -75q-52 0 -93.5 17t-72.5 34t-57 17q-27 0 -41.5 -13t-20.5 -43h-231z" />
    <glyph glyph-name="_360" horiz-adv-x="0" 
d="M-463 1884h326l141 -117l146 117h315l-305 -282h-318z" />
    <glyph glyph-name="_363" horiz-adv-x="0" 
d="M137 1219l21 313h268l-100 -313h-189z" />
    <glyph glyph-name="_365" horiz-adv-x="0" 
d="M-385 1612v231h770v-231h-770z" />
    <glyph glyph-name="amacron.ss01" horiz-adv-x="1325" 
d="M559 -31q-136 0 -249 75.5t-177.5 206.5t-64.5 288q0 163 67.5 296.5t185.5 210t261 76.5q103 0 185.5 -43.5t137.5 -124.5l8 138h308v-1092h-308l-10 156q-56 -87 -146.5 -137t-197.5 -50zM649 821q-103 0 -172 -78t-69 -196q0 -120 69 -198.5t172 -78.5t172.5 79
t69.5 198q0 118 -69.5 196t-172.5 78zM995 1247h-671v215h671v-215z" />
    <glyph glyph-name="_396" horiz-adv-x="0" 
d="M80 1749q0 75 51.5 126.5t126.5 51.5t126.5 -51.5t51.5 -126.5t-51.5 -126.5t-126.5 -51.5t-126.5 51.5t-51.5 126.5zM-436 1749q0 75 51.5 126.5t126.5 51.5t126.5 -51.5t51.5 -126.5t-51.5 -126.5t-126.5 -51.5t-126.5 51.5t-51.5 126.5z" />
    <glyph glyph-name="_399" horiz-adv-x="0" 
d="M0 1591q-156 0 -265 84.5t-134 225.5h262q12 -51 47.5 -80t89.5 -29t89.5 29t47.5 80h262q-25 -141 -134 -225.5t-265 -84.5z" />
    <glyph glyph-name="adieresis.ss01" horiz-adv-x="1325" 
d="M68 539q0 163 67.5 296.5t185.5 210t261 76.5q103 0 185.5 -43.5t137.5 -124.5l8 138h308v-1092h-308l-10 156q-56 -87 -146.5 -137t-197.5 -50q-136 0 -249 75.5t-177.5 206.5t-64.5 288zM649 821q-103 0 -172 -78t-69 -196q0 -120 69 -198.5t172 -78.5t172.5 79
t69.5 198q0 118 -69.5 196t-172.5 78zM717 1378q0 71 49.5 120.5t122.5 49.5t122.5 -49.5t49.5 -120.5t-49.5 -120.5t-122.5 -49.5t-122.5 49.5t-49.5 120.5zM258 1378q0 71 49.5 120.5t122.5 49.5t122.5 -49.5t49.5 -120.5t-49.5 -120.5t-122.5 -49.5t-122.5 49.5
t-49.5 120.5z" />
    <glyph glyph-name="abreve.ss01" horiz-adv-x="1325" 
d="M559 -31q-136 0 -249 75.5t-177.5 206.5t-64.5 288q0 163 67.5 296.5t185.5 210t261 76.5q103 0 185.5 -43.5t137.5 -124.5l8 138h308v-1092h-308l-10 156q-56 -87 -146.5 -137t-197.5 -50zM649 821q-103 0 -172 -78t-69 -196q0 -120 69 -198.5t172 -78.5t172.5 79
t69.5 198q0 118 -69.5 196t-172.5 78zM293 1524h229q24 -105 146 -105q61 0 96.5 24t48.5 81h231q-26 -140 -116 -212.5t-260 -72.5q-323 0 -375 285z" />
    <glyph glyph-name="_422" horiz-adv-x="0" 
d="M-190 1759q0 80 54.5 134.5t135.5 54.5t135.5 -54.5t54.5 -134.5t-54.5 -134t-135.5 -54t-135.5 54t-54.5 134z" />
    <glyph glyph-name="_425" horiz-adv-x="0" 
d="M-190 -311q0 80 54.5 134t135.5 54t135.5 -54t54.5 -134t-54.5 -134.5t-135.5 -54.5t-135.5 54.5t-54.5 134.5z" />
    <glyph glyph-name="_440" horiz-adv-x="0" 
d="M-252 1778q0 101 72.5 170t179.5 69t179.5 -69t72.5 -170t-72.5 -170.5t-179.5 -69.5t-179.5 69.5t-72.5 170.5zM-86 1778q0 -37 25.5 -62.5t60.5 -25.5t60.5 25.5t25.5 62.5t-25.5 62.5t-60.5 25.5t-60.5 -25.5t-25.5 -62.5z" />
    <glyph glyph-name="aring.ss01" horiz-adv-x="1325" 
d="M559 -31q-136 0 -249 75.5t-177.5 206.5t-64.5 288q0 163 67.5 296.5t185.5 210t261 76.5q103 0 185.5 -43.5t137.5 -124.5l8 138h308v-1092h-308l-10 156q-56 -87 -146.5 -137t-197.5 -50zM408 547q0 -120 69 -198.5t172 -78.5t172.5 79t69.5 198q0 118 -69.5 196
t-172.5 78t-172 -78t-69 -196zM659 1184q-103 0 -173 67t-70 164t70.5 164.5t172.5 67.5q103 0 173.5 -67.5t70.5 -164.5t-70.5 -164t-173.5 -67zM659 1503q-35 0 -60.5 -25.5t-25.5 -62.5t25.5 -62.5t60.5 -25.5t60.5 25.5t25.5 62.5t-25.5 62.5t-60.5 25.5z" />
    <glyph glyph-name="colon_B_e_l_o_colon" horiz-adv-x="1599" 
d="M424 -20q-134 0 -229 92.5t-95 222.5q0 73 58 203q60 136 193.5 406t207.5 411q89 160 240 160q152 0 239 -160q66 -121 202.5 -397.5t199.5 -419.5q57 -128 57 -203q0 -130 -94.5 -222.5t-228.5 -92.5q-185 0 -375 208q-190 -208 -375 -208zM246 459q-49 -106 -49 -164
q0 -90 66.5 -155.5t158.5 -65.5q146 0 313 188q-192 235 -192 410q0 110 73.5 184t182.5 74t182.5 -74t73.5 -184q0 -174 -193 -410q167 -188 314 -188q92 0 158.5 65.5t66.5 155.5q0 58 -49 164q-70 152 -209 437t-185 366q-37 67 -71 92.5t-88 25.5t-88.5 -26t-71.5 -92
q-45 -81 -183.5 -364.5t-209.5 -438.5zM639 676q0 -67 41.5 -155.5t118.5 -184.5q77 95 118 184t41 156q0 69 -45 113.5t-114 44.5t-114.5 -44.5t-45.5 -113.5z" />
    <glyph glyph-name="uni1EA1.ss01" horiz-adv-x="1325" 
d="M68 539q0 163 67.5 296.5t185.5 210t261 76.5q103 0 185.5 -43.5t137.5 -124.5l8 138h308v-1092h-308l-10 156q-56 -87 -146.5 -137t-197.5 -50q-136 0 -249 75.5t-177.5 206.5t-64.5 288zM408 547q0 -120 69 -198.5t172 -78.5t172.5 79t69.5 198q0 118 -69.5 196
t-172.5 78t-172 -78t-69 -196zM610 -545q-74 0 -124 49t-50 119q0 71 49.5 119.5t124.5 48.5q77 0 127.5 -48.5t50.5 -119.5q0 -70 -50.5 -119t-127.5 -49z" />
    <glyph glyph-name="uni1EA3.ss01" horiz-adv-x="1325" 
d="M68 539q0 163 67.5 296.5t185.5 210t261 76.5q103 0 185.5 -43.5t137.5 -124.5l8 138h308v-1092h-308l-10 156q-56 -87 -146.5 -137t-197.5 -50q-136 0 -249 75.5t-177.5 206.5t-64.5 288zM408 547q0 -120 69 -198.5t172 -78.5t172.5 79t69.5 198q0 118 -69.5 196
t-172.5 78t-172 -78t-69 -196zM444 1589q90 64 242 64q113 0 175.5 -49t62.5 -138q0 -78 -72 -141.5t-201 -85.5l-55 131q61 14 82 35.5t18 52.5q-2 18 -19 30.5t-46 12.5q-47 0 -99 -31z" />
    <glyph glyph-name="uni1EA5.ss01" horiz-adv-x="1325" 
d="M559 -31q-136 0 -249 75.5t-177.5 206.5t-64.5 288q0 163 67.5 296.5t185.5 210t261 76.5q103 0 185.5 -43.5t137.5 -124.5l8 138h308v-1092h-308l-10 156q-56 -87 -146.5 -137t-197.5 -50zM649 821q-103 0 -172 -78t-69 -196q0 -120 69 -198.5t172 -78.5t172.5 79
t69.5 198q0 118 -69.5 196t-172.5 78zM543 1239h-281l238 293h321l238 -293h-291l-111 115zM965 1430l163 272h357l-223 -272h-297z" />
    <glyph glyph-name="uni1EA7.ss01" horiz-adv-x="1325" 
d="M559 -31q-136 0 -249 75.5t-177.5 206.5t-64.5 288q0 163 67.5 296.5t185.5 210t261 76.5q103 0 185.5 -43.5t137.5 -124.5l8 138h308v-1092h-308l-10 156q-56 -87 -146.5 -137t-197.5 -50zM649 821q-103 0 -172 -78t-69 -196q0 -120 69 -198.5t172 -78.5t172.5 79
t69.5 198q0 118 -69.5 196t-172.5 78zM543 1239h-281l238 293h321l238 -293h-291l-111 115zM1014 1430l-223 272h356l164 -272h-297z" />
    <glyph glyph-name="uni1EA9.ss01" horiz-adv-x="1325" 
d="M68 539q0 163 67.5 296.5t185.5 210t261 76.5q103 0 185.5 -43.5t137.5 -124.5l8 138h308v-1092h-308l-10 156q-56 -87 -146.5 -137t-197.5 -50q-136 0 -249 75.5t-177.5 206.5t-64.5 288zM408 547q0 -120 69 -198.5t172 -78.5t172.5 79t69.5 198q0 118 -69.5 196
t-172.5 78t-172 -78t-69 -196zM543 1239h-281l238 293h321l238 -293h-291l-111 115zM864 1653l-88 114q92 62 242 62q113 0 175 -47t62 -133q0 -75 -71.5 -136.5t-200.5 -82.5l-55 126q61 13 82 33.5t18 50.5q-2 18 -19 30.5t-46 12.5q-49 0 -99 -30z" />
    <glyph glyph-name="uni1EAB.ss01" horiz-adv-x="1325" 
d="M559 -31q-136 0 -249 75.5t-177.5 206.5t-64.5 288q0 163 67.5 296.5t185.5 210t261 76.5q103 0 185.5 -43.5t137.5 -124.5l8 138h308v-1092h-308l-10 156q-56 -87 -146.5 -137t-197.5 -50zM408 547q0 -120 69 -198.5t172 -78.5t172.5 79t69.5 198q0 118 -69.5 196
t-172.5 78t-172 -78t-69 -196zM279 1606q11 126 76 201t165 75q52 0 93.5 -17t72.5 -33.5t57 -16.5q27 0 41.5 12.5t20.5 42.5h231q-11 -127 -75.5 -202t-165.5 -75q-52 0 -94 17t-73 34t-57 17q-27 0 -41 -12.5t-20 -42.5h-231zM543 1239h-281l238 293h321l238 -293h-291
l-111 115z" />
    <glyph glyph-name="uni1EAD.ss01" horiz-adv-x="1325" 
d="M68 539q0 163 67.5 296.5t185.5 210t261 76.5q103 0 185.5 -43.5t137.5 -124.5l8 138h308v-1092h-308l-10 156q-56 -87 -146.5 -137t-197.5 -50q-136 0 -249 75.5t-177.5 206.5t-64.5 288zM408 547q0 -120 69 -198.5t172 -78.5t172.5 79t69.5 198q0 118 -69.5 196
t-172.5 78t-172 -78t-69 -196zM543 1239h-281l238 293h321l238 -293h-291l-111 115zM610 -545q-74 0 -124 49t-50 119q0 71 49.5 119.5t124.5 48.5q77 0 127.5 -48.5t50.5 -119.5q0 -70 -50.5 -119t-127.5 -49z" />
    <glyph glyph-name="uni1EAF.ss01" horiz-adv-x="1325" 
d="M559 -31q-136 0 -249 75.5t-177.5 206.5t-64.5 288q0 163 67.5 296.5t185.5 210t261 76.5q103 0 185.5 -43.5t137.5 -124.5l8 138h308v-1092h-308l-10 156q-56 -87 -146.5 -137t-197.5 -50zM649 821q-103 0 -172 -78t-69 -196q0 -120 69 -198.5t172 -78.5t172.5 79
t69.5 198q0 118 -69.5 196t-172.5 78zM668 1239q-323 0 -375 285h229q24 -105 146 -105q61 0 96.5 24t48.5 81h231q-26 -140 -116 -212.5t-260 -72.5zM784 1585h-297l164 273h357z" />
    <glyph glyph-name="uni1EB1.ss01" horiz-adv-x="1325" 
d="M559 -31q-136 0 -249 75.5t-177.5 206.5t-64.5 288q0 163 67.5 296.5t185.5 210t261 76.5q103 0 185.5 -43.5t137.5 -124.5l8 138h308v-1092h-308l-10 156q-56 -87 -146.5 -137t-197.5 -50zM649 821q-103 0 -172 -78t-69 -196q0 -120 69 -198.5t172 -78.5t172.5 79
t69.5 198q0 118 -69.5 196t-172.5 78zM668 1239q-323 0 -375 285h229q24 -105 146 -105q61 0 96.5 24t48.5 81h231q-26 -140 -116 -212.5t-260 -72.5zM543 1585l-224 273h357l164 -273h-297z" />
    <glyph glyph-name="uni1EB3.ss01" horiz-adv-x="1325" 
d="M68 539q0 163 67.5 296.5t185.5 210t261 76.5q103 0 185.5 -43.5t137.5 -124.5l8 138h308v-1092h-308l-10 156q-56 -87 -146.5 -137t-197.5 -50q-136 0 -249 75.5t-177.5 206.5t-64.5 288zM649 821q-103 0 -172 -78t-69 -196q0 -120 69 -198.5t172 -78.5t172.5 79
t69.5 198q0 118 -69.5 196t-172.5 78zM293 1524h229q24 -105 146 -105q61 0 96.5 24t48.5 81h231q-26 -140 -116 -212.5t-260 -72.5q-323 0 -375 285zM549 1788l-88 115q91 61 241 61q113 0 175.5 -47t62.5 -133q0 -75 -71.5 -136.5t-200.5 -82.5l-56 127q61 13 82.5 34
t18.5 50q-2 18 -19.5 30.5t-46.5 12.5q-46 0 -98 -31z" />
    <glyph glyph-name="uni1EB5.ss01" horiz-adv-x="1325" 
d="M559 -31q-136 0 -249 75.5t-177.5 206.5t-64.5 288q0 163 67.5 296.5t185.5 210t261 76.5q103 0 185.5 -43.5t137.5 -124.5l8 138h308v-1092h-308l-10 156q-56 -87 -146.5 -137t-197.5 -50zM649 821q-103 0 -172 -78t-69 -196q0 -120 69 -198.5t172 -78.5t172.5 79
t69.5 198q0 118 -69.5 196t-172.5 78zM285 1597q11 126 76 201.5t165 75.5q52 0 94 -17t73 -34t57 -17q27 0 41 13t20 43h231q-11 -127 -75.5 -202t-165.5 -75q-52 0 -93.5 17t-72.5 34t-57 17q-27 0 -41.5 -13t-20.5 -43h-231zM293 1524h229q24 -105 146 -105q61 0 96.5 24
t48.5 81h231q-26 -140 -116 -212.5t-260 -72.5q-323 0 -375 285z" />
    <glyph glyph-name="uni1EB7.ss01" horiz-adv-x="1325" 
d="M559 -31q-136 0 -249 75.5t-177.5 206.5t-64.5 288q0 163 67.5 296.5t185.5 210t261 76.5q103 0 185.5 -43.5t137.5 -124.5l8 138h308v-1092h-308l-10 156q-56 -87 -146.5 -137t-197.5 -50zM649 821q-103 0 -172 -78t-69 -196q0 -120 69 -198.5t172 -78.5t172.5 79
t69.5 198q0 118 -69.5 196t-172.5 78zM668 1239q-323 0 -375 285h229q24 -105 146 -105q61 0 96.5 24t48.5 81h231q-26 -140 -116 -212.5t-260 -72.5zM436 -377q0 71 49.5 119.5t124.5 48.5q77 0 127.5 -48.5t50.5 -119.5q0 -70 -50.5 -119t-127.5 -49q-74 0 -124 49
t-50 119z" />
    <glyph glyph-name="yacute.ss01" 
d="M492 39q-176 0 -282 125t-106 338v590h334v-543q0 -97 44 -153t122 -56q84 0 136.5 57t52.5 146v549h333v-973q0 -244 -146.5 -392.5t-383.5 -148.5q-166 0 -295.5 81t-185.5 218l321 72q26 -47 69 -71.5t95 -24.5q88 0 140.5 63.5t52.5 167.5v104q-107 -149 -301 -149z
M451 1239l184 293h356l-243 -293h-297z" />
    <glyph glyph-name="ygrave.ss01" 
d="M492 39q-176 0 -282 125t-106 338v590h334v-543q0 -97 44 -153t122 -56q84 0 136.5 57t52.5 146v549h333v-973q0 -244 -146.5 -392.5t-383.5 -148.5q-166 0 -295.5 81t-185.5 218l321 72q26 -47 69 -71.5t95 -24.5q88 0 140.5 63.5t52.5 167.5v104q-107 -149 -301 -149z
M250 1532h356l185 -293h-297z" />
    <glyph glyph-name="uni1EF5.ss01" 
d="M492 39q-176 0 -282 125t-106 338v590h334v-543q0 -97 44 -153t122 -56q84 0 136.5 57t52.5 146v549h333v-973q0 -244 -146.5 -392.5t-383.5 -148.5q-166 0 -295.5 81t-185.5 218l321 72q26 -47 69 -71.5t95 -24.5q88 0 140.5 63.5t52.5 167.5v104q-107 -149 -301 -149z
M1174 -377q0 71 49.5 119.5t124.5 48.5q77 0 127.5 -48.5t50.5 -119.5q0 -70 -50.5 -119t-127.5 -49q-74 0 -124 49t-50 119z" />
    <glyph glyph-name="uni1EF7.ss01" 
d="M104 1092h334v-543q0 -97 44 -153t122 -56q84 0 136.5 57t52.5 146v549h333v-973q0 -244 -146.5 -392.5t-383.5 -148.5q-166 0 -295.5 81t-185.5 218l321 72q26 -47 69 -71.5t95 -24.5q88 0 140.5 63.5t52.5 167.5v104q-107 -149 -301 -149q-176 0 -282 125t-106 338v590
zM418 1589q90 64 241 64q113 0 175.5 -49t62.5 -138q0 -78 -71.5 -141.5t-200.5 -85.5l-56 131q62 14 83 35.5t18 52.5q-2 18 -19.5 30.5t-46.5 12.5q-46 0 -98 -31z" />
    <glyph glyph-name="uni1EF9.ss01" 
d="M104 502v590h334v-543q0 -97 44 -153t122 -56q84 0 136.5 57t52.5 146v549h333v-973q0 -244 -146.5 -392.5t-383.5 -148.5q-166 0 -295.5 81t-185.5 218l321 72q26 -47 69 -71.5t95 -24.5q88 0 140.5 63.5t52.5 167.5v104q-107 -149 -301 -149q-176 0 -282 125t-106 338z
M467 1251h-231q11 126 76 201.5t165 75.5q52 0 93.5 -17t72.5 -34t57 -17q27 0 41.5 13t20.5 43h231q-11 -127 -75.5 -202t-165.5 -75q-52 0 -94 17t-73 34t-57 17q-27 0 -41 -13t-20 -43z" />
    <glyph glyph-name="y.ss01" 
d="M492 39q-176 0 -282 125t-106 338v590h334v-543q0 -97 44 -153t122 -56q84 0 136.5 57t52.5 146v549h333v-973q0 -244 -146.5 -392.5t-383.5 -148.5q-166 0 -295.5 81t-185.5 218l321 72q26 -47 69 -71.5t95 -24.5q88 0 140.5 63.5t52.5 167.5v104q-107 -149 -301 -149z
" />
    </font>
</defs>
</svg>
